<?xml version="1.0" encoding="utf-8"?>
<!-- Generator: Adobe Illustrator 24.0.1, SVG Export Plug-In . SVG Version: 6.00 Build 0)  -->
<svg version="1.1" id="Layer_1" xmlns="http://www.w3.org/2000/svg" xmlns:xlink="http://www.w3.org/1999/xlink" x="0px" y="0px"
	 viewBox="0 0 123.4 277" style="enable-background:new 0 0 123.4 277;" xml:space="preserve">
<style type="text/css">
	.st0{fill:#FDAB7D;}
	.st1{fill:#FF7162;}
	.st2{fill:#1A141A;}
	.st3{fill:#009A9B;}
	.st4{clip-path:url(#SVGID_2_);}
	.st5{fill:#00827E;}
	.st6{fill:#FFFFFF;}
	.st7{fill:#007A77;}
	.st8{clip-path:url(#SVGID_4_);}
	.st9{opacity:0.35;fill:#007A77;enable-background:new    ;}
	.st10{fill:#009999;}
	.st11{clip-path:url(#SVGID_6_);}
	.st12{opacity:0.35;fill:#00827E;enable-background:new    ;}
	.st13{opacity:5.000000e-02;}
</style>
<title>b2b_1</title>
<g>
	<g id="Layer_2_1_">
		<g id="OBJECTS">
			<path class="st0" d="M33.5,46.2c0,0,1.7-2.5,0.8-7c0,0-6.6-10.3-1.7-15.7s10.3-6.6,13.6-2.1c3.3,4.5,4.5,6.2,5.8,7.4
				c1.2,1.2-1.2,2.1-1.2,2.1s2.5,5.8,1.7,8.3s-7,2.1-7,2.1s-1.6,5,0.8,7.4S33.9,52.8,33.5,46.2z"/>
			<path class="st1" d="M40.5,34.7c0.3,2.7-1.5,5.2-4.1,5.8c-4.3-0.4-7.8-3.6-8.7-7.9c0,0-1.2-5.4,1.2-7c0,0-3.3-2.1-0.8-6.6
				s6.6-1.6,9.1-4.5s0.8-5.8,4.5-5.4s7,10-1.2,14.5c0,0,2.1,2.1,2.1,4.1c0,1.3,0.3,2.6,0.8,3.7c0,0-0.8,0.8-2.1-1.6
				c-1.2-2.5-4.1-2.9-4.1,0S40.5,34.7,40.5,34.7z"/>
			<path class="st0" d="M98.1,68c0.5-1.9,1.1-3.7,1.8-5.5c0.7-1.9,0.9-3.9,0.7-5.9c0,0,2.9-0.4,1.5,5.5c0,0,2.9-1.1,3.7-3.3
				c0,0,1.5,7.3,0,9.2c-1.2,1.3-2.7,2.3-4.4,2.9c-1.6,0.2-3.1-1-3.3-2.7C98.1,68.2,98.1,68.1,98.1,68z"/>
			<path class="st2" d="M26.9,240.4c0,0-1.2,3.7,0,5s6.6,1.6,9.1-1.7s4.1-5.4,4.5-6.2s-3.7-2.1-6.2,0.8S26.9,240.4,26.9,240.4z"/>
			<path class="st2" d="M74.8,249.9c-0.4,1.6-0.7,3.3-0.8,5c0,1.2,4.5-0.4,6.2,0c1.7,0.4,14.5,1.7,16.5,0.4c2.1-1.2-15.3-7-15.3-7
				l-7.4,1.9"/>
			<path class="st3" d="M36.4,124.3c0,0-0.8,5.4,3.7,19s-22.7,71.5-14,97.5c0,0,5.8,3.7,9.9,0c0,0,2.1-31.8,9.9-45.9
				s16.5-29.7,16.1-37.2c0,0,5,13.2,2.1,32.2c-2.9,19,9.9,60.7,9.9,60.7s6.6,1.2,8.3-2.1c0,0-5.8-37.2,0-64.4s-5.7-65.3-5.7-65.3
				L36.4,124.3z"/>
			<g>
				<defs>
					<path id="SVGID_1_" d="M36.4,124.3c0,0-0.8,5.4,3.7,19s-22.7,71.5-14,97.5c0,0,5.8,3.7,9.9,0c0,0,2.1-31.8,9.9-45.9
						s16.5-29.7,16.1-37.2c0,0,5,13.2,2.1,32.2c-2.9,19,9.9,60.7,9.9,60.7s6.6,1.2,8.3-2.1c0,0-5.8-37.2,0-64.4s-5.7-65.3-5.7-65.3
						L36.4,124.3z"/>
				</defs>
				<clipPath id="SVGID_2_">
					<use xlink:href="#SVGID_1_"  style="overflow:visible;"/>
				</clipPath>
				<g class="st4">
					<path class="st3" d="M33.7,129.5c0,0,25.2,17.8,45.9-7.8S29.6,113.3,33.7,129.5z"/>
					<path class="st5" d="M61.8,169.1c-0.4-0.4,3.3-11.6-5-22.7c0,0,1.2,42.1-7.4,50.4s8.3,11.6,8.3,11.6L61.8,169.1z"/>
				</g>
			</g>
			<path class="st6" d="M95.1,68.9l2.9-1.7c0,0,4.5,0.8,4.1,7l-3.3,2.5L95.1,68.9z"/>
			<path class="st7" d="M31,50.8l1.7-5c0,0,14.4-1.2,20.6,8.7S31,50.8,31,50.8z"/>
			<path class="st7" d="M23.4,58.8c0,0-3.5,11.8,3.5,20.1s13.2,13.6,14.5,14.5c1.2,0.8-2.1-17.3-2.1-17.3S28.2,53.6,23.4,58.8z"/>
			<g>
				<defs>
					<path id="SVGID_3_" d="M23.4,58.8c0,0-3.5,11.8,3.5,20.1s13.2,13.6,14.5,14.5c1.2,0.8-2.1-17.3-2.1-17.3S28.2,53.6,23.4,58.8z"
						/>
				</defs>
				<clipPath id="SVGID_4_">
					<use xlink:href="#SVGID_3_"  style="overflow:visible;"/>
				</clipPath>
				<g class="st8">
					<path class="st9" d="M24.4,67.3c0,0,14.7,16.7,8.9,24.6S51.5,96,51.5,96l-10-25.2C41.6,70.8,29.1,57.2,24.4,67.3"/>
				</g>
			</g>
			<path class="st5" d="M33.5,125c0,3.9,6.7,9.7,19.4,9.7s26.9-8.9,26.9-12.9s-10.6-3.9-23.3-3.9S33.5,121.1,33.5,125z"/>
			<path class="st10" d="M52.1,53.2c0,0-12.8-5.4-21.5-3.3c0,0-9.1,2.9-7,13.6s14.9,19,16.5,26.8c1.6,7.8-7,34.3-7,34.3
				s15.7,18.6,46.7-2.9c0,0,0.8-4.5-5-20.7c0,0,2.1,1.2,8.3-5c6.2-6.2,17.4-18.5,17.4-18.5s1.2-8.7-5.4-8.7l-16.5,12
				c0,0-3.7-6.2-7.8-14.9S52.1,53.2,52.1,53.2z"/>
			<g>
				<defs>
					<path id="SVGID_5_" d="M52.1,53.2c0,0-12.8-5.4-21.5-3.3c0,0-9.1,2.9-7,13.6s14.9,19,16.5,26.8c1.6,7.8-7,34.3-7,34.3
						s15.7,18.6,46.7-2.9c0,0,0.8-4.5-5-20.7c0,0,2.1,1.2,8.3-5c6.2-6.2,17.4-18.5,17.4-18.5s1.2-8.7-5.4-8.7l-16.5,12
						c0,0-3.7-6.2-7.8-14.9S52.1,53.2,52.1,53.2z"/>
				</defs>
				<clipPath id="SVGID_6_">
					<use xlink:href="#SVGID_5_"  style="overflow:visible;"/>
				</clipPath>
				<g class="st11">
					<path class="st12" d="M79.6,103.8l-5-2.8c0,0-9.9-4.6-15.3-26.8c0,0,4.5,45.4,21.1,31.4v-1.7"/>
				</g>
			</g>
		</g>
	</g>
</g>
<path class="st13" d="M114.3,257.6c0,1.8-23.5,3.2-52.5,3.2c-29,0-52.5-1.4-52.5-3.2c0-1.8,23.5-3.2,52.5-3.2
	C90.7,254.4,114.3,255.9,114.3,257.6z"/>
</svg>
