<?xml version="1.0" encoding="utf-8"?>
<!-- Generator: Adobe Illustrator 24.0.1, SVG Export Plug-In . SVG Version: 6.00 Build 0)  -->
<svg version="1.1" id="Layer_1" xmlns="http://www.w3.org/2000/svg" xmlns:xlink="http://www.w3.org/1999/xlink" x="0px" y="0px"
	 viewBox="0 0 1821.2 665.9" style="enable-background:new 0 0 1821.2 665.9;" xml:space="preserve">
<style type="text/css">
	.st0{fill:#CCD5E2;}
	.st1{fill:#40434B;}
	.st2{fill:url(#SVGID_1_);}
	.st3{fill:url(#SVGID_2_);}
	.st4{fill:#FFFFFF;}
	.st5{fill:url(#SVGID_3_);}
	.st6{fill:#484B54;}
	.st7{fill:#B6B6B6;}
	.st8{fill:url(#SVGID_4_);}
	.st9{fill:#A9A6A0;}
	.st10{fill:#2B2D31;}
	.st11{fill:url(#SVGID_5_);}
	.st12{fill:#B9782F;}
	.st13{fill:#A5A29A;}
	.st14{fill:url(#SVGID_6_);}
	.st15{fill:url(#SVGID_7_);}
	.st16{fill:#C74848;}
	.st17{fill:#E9E9E9;}
	.st18{fill:#2E4354;}
	.st19{fill:#405876;}
	.st20{fill:#DBA686;}
	.st21{fill:#3A5271;}
	.st22{fill:#D14B4B;}
	.st23{fill:#DBA585;}
	.st24{fill:#6A493A;}
	.st25{fill:#997761;}
	.st26{fill:#C38855;}
	.st27{fill:#E8A163;}
	.st28{fill:#48668D;}
	.st29{fill:#E8E9EB;}
	.st30{fill:#7C99A5;}
	.st31{fill:#6A8993;}
	.st32{fill:#ECECEC;}
	.st33{fill:#F9B775;}
	.st34{fill:#ACACAC;}
	.st35{fill:#9D9E9E;}
	.st36{fill:#DE7A51;}
	.st37{fill:#F27E72;}
	.st38{fill:#FF998B;}
	.st39{fill:#283474;}
	.st40{fill:#296BB0;}
	.st41{fill:#111520;}
	.st42{fill:#F9DD53;}
	.st43{fill:url(#SVGID_8_);}
	.st44{fill:#FF6E65;}
	.st45{fill:url(#SVGID_9_);}
	.st46{fill:url(#SVGID_10_);}
	.st47{clip-path:url(#SVGID_12_);}
	.st48{fill:#1A141A;}
	.st49{fill:url(#SVGID_13_);}
	.st50{clip-path:url(#SVGID_15_);}
	.st51{fill:url(#SVGID_16_);}
	.st52{fill:#004082;}
	.st53{fill:url(#SVGID_17_);}
	.st54{clip-path:url(#SVGID_19_);}
	.st55{opacity:0.34;fill:url(#SVGID_20_);enable-background:new    ;}
	.st56{opacity:0.45;fill:url(#SVGID_21_);enable-background:new    ;}
	.st57{clip-path:url(#SVGID_23_);}
	.st58{opacity:0.36;fill:url(#SVGID_24_);enable-background:new    ;}
	.st59{opacity:0.48;fill:url(#SVGID_25_);enable-background:new    ;}
	.st60{opacity:0.25;fill:url(#SVGID_26_);enable-background:new    ;}
</style>
<title>bg-b2b</title>
<g>
	<g id="BACKGROUND">
		<path class="st0" d="M11.3,242.8l4,218.1l195.1-2.4l-4-218.1L11.3,242.8z M104,431.1c0,0.6-0.6,1.1-1.4,1.2L45,432.9
			c-0.8,0-1.4-0.5-1.4-1.1v-4.6c0-0.6,0.6-1.1,1.3-1.2l57.7-0.7c0.8,0,1.4,0.5,1.4,1.1L104,431.1z M181.4,392.9c0,0.9-0.9,1.6-2,1.7
			L45,396.2c-1.1,0-2-0.7-2-1.6v-3c0-0.9,0.9-1.6,2-1.7l134.4-1.7c1.1,0,2,0.7,2.1,1.6c0,0,0,0,0,0L181.4,392.9z M180.9,365.6
			c0,0.9-0.9,1.6-2,1.7l-134.4,1.7c-1.1,0-2-0.7-2-1.6v-3c0-0.9,0.9-1.6,2-1.7l134.4-1.7c1.1,0,2,0.7,2,1.6V365.6z M180.4,338.3
			c0,0.9-0.8,1.6-1.9,1.7c0,0,0,0,0,0L44,341.6c-1.1,0-2-0.7-2.1-1.6c0,0,0,0,0,0v-3c0-0.9,0.8-1.6,1.9-1.7c0,0,0,0,0,0l134.4-1.7
			c1.1,0,2,0.7,2,1.6V338.3z M179.9,311c0,0.9-0.8,1.6-1.9,1.7c0,0,0,0,0,0l-134.4,1.7c-1.1,0-2-0.7-2-1.6c0,0,0,0,0,0v-3
			c0-0.9,0.9-1.7,2-1.7h0l134.4-1.7c1.1,0,2,0.7,2,1.6L179.9,311z M179.4,283.7c0,0.9-0.9,1.6-2,1.7L43,287c-1.1,0-2-0.7-2-1.6
			c0,0,0,0,0,0v-3c0-0.9,0.9-1.6,2-1.7l134.4-1.7c1.1,0,2,0.7,2,1.6c0,0,0,0,0,0L179.4,283.7z"/>
		<rect x="371.9" y="417.2" class="st1" width="27.4" height="7"/>
		
			<linearGradient id="SVGID_1_" gradientUnits="userSpaceOnUse" x1="279.7545" y1="267.9586" x2="279.7545" y2="444.2986" gradientTransform="matrix(1 0 0 -1 0 668)">
			<stop  offset="0" style="stop-color:#A1A1A1"/>
			<stop  offset="1" style="stop-color:#F3F1E3"/>
		</linearGradient>
		<rect x="115" y="297.3" class="st2" width="329.6" height="121.6"/>
		
			<linearGradient id="SVGID_2_" gradientUnits="userSpaceOnUse" x1="118.6446" y1="309.9136" x2="440.8546" y2="309.9136" gradientTransform="matrix(1 0 0 -1 0 668)">
			<stop  offset="0.17" style="stop-color:#A4FFE8"/>
			<stop  offset="1" style="stop-color:#364AA3"/>
		</linearGradient>
		<rect x="118.6" y="301.4" class="st3" width="322.2" height="113.3"/>
		<polygon class="st4" points="440.9,311.9 332.4,311.9 338.9,321.9 440.9,321.9 		"/>
		<polygon class="st4" points="440.9,327.3 332.4,327.3 338.9,330.5 440.9,330.5 		"/>
		
			<linearGradient id="SVGID_3_" gradientUnits="userSpaceOnUse" x1="444.5856" y1="180.7586" x2="444.5856" y2="325.2585" gradientTransform="matrix(1 0 0 -1 0 668)">
			<stop  offset="0" style="stop-color:#A1A1A1"/>
			<stop  offset="1" style="stop-color:#F3F1E3"/>
		</linearGradient>
		<path class="st5" d="M521.1,453.6h26c4.6,0,5.4-7.1,5.1-12.4s-3.3-5.8-3.3-5.8l-12.2-4.1V425l12.7,1.3c0,0,2.9,0,2.9-5.1
			s-1-38.4-1.8-39.4c-0.7-0.7-1.5-1.2-2.5-1.4l-3.8-34.3c0.5-0.9,0.7-1.9,0.7-2.9c-0.3-1.4-1.3-10.6-6.2-12.7s-81.7-7.4-83.7-2.3
			s0,94.3,0,94.3l3.3,1.8h-71.9c0,0-3.2-3-5-3.5s-30.2,0-30.2,0s-9.1,0.3-12,8.5s-2.4,18.1-1.9,19.4s3.9,5.1,3.9,5.1L521.1,453.6z"
			/>
		<path class="st6" d="M547.9,380.3l-58.4-5.4c-4.9-0.4-9.1-3.6-10.9-8.2c-0.6-1.5-0.9-3.2-1.1-4.8c-0.8-9,2.3-17.9,8.5-17.9
			c2.3,0,58,1.9,58,1.9L547.9,380.3z"/>
		<path class="st7" d="M490.3,375c0,0-6.1-16,0.8-23.7c3.2-3.5,53.5-1,53.5-1l3.3,29.9L490.3,375z"/>
		
			<linearGradient id="SVGID_4_" gradientUnits="userSpaceOnUse" x1="443.0963" y1="216.9186" x2="443.0963" y2="261.2885" gradientTransform="matrix(1 0 0 -1 0 668)">
			<stop  offset="1.000000e-02" style="stop-color:#8A8A8A"/>
			<stop  offset="1" style="stop-color:#F3F1E3"/>
		</linearGradient>
		<path class="st8" d="M553.6,444.2c-0.6,4.1-0.8,9.5-5.3,9.5H341.2c0,0-8.7,0.1-8.7-1s-0.7-8.9,4.4-8.5c3.2,0.3,84.6,0.2,142.2,0.1
			l45.8-0.1h10.7c3,0,3-7.5,16.4-4.9C552,439.3,554.3,440,553.6,444.2z"/>
		<path class="st1" d="M520.6,444.2c0.1,10.3-8.1,18.8-18.4,18.9s-18.8-8.1-18.9-18.4s8.1-18.8,18.4-18.9c0.1,0,0.2,0,0.3,0
			C512.2,425.7,520.5,433.9,520.6,444.2z"/>
		<path class="st9" d="M505,444.2c0,1.7-1.3,3-3,3s-3-1.3-3-3s1.3-3,3-3l0,0C503.6,441.2,505,442.5,505,444.2z"/>
		<path class="st9" d="M501.9,457.6c-7.4-0.1-13.4-6.2-13.3-13.6c0.1-7.4,6.2-13.4,13.6-13.3c7.4,0.1,13.3,6.1,13.3,13.5
			C515.5,451.6,509.4,457.7,501.9,457.6z M501.9,431c-7.3,0.1-13.1,6.1-13,13.4c0.1,7.3,6.1,13.1,13.4,13c7.2-0.1,13-6,13-13.2
			C515.2,436.8,509.3,430.9,501.9,431L501.9,431z"/>
		<ellipse class="st1" cx="501.9" cy="444.2" rx="2.1" ry="2.1"/>
		<path class="st10" d="M524.8,444.2L524.8,444.2c0,3.3-0.7,6.5-2.1,9.4h-41.6c-1.4-2.9-2.1-6.1-2.1-9.4v-0.1
			c0.3-12.7,10.7-22.7,23.4-22.4C514.7,422,524.6,431.8,524.8,444.2L524.8,444.2z"/>
		<path class="st10" d="M384.7,444.2L384.7,444.2c0,3.3-0.7,6.5-2.1,9.4H341c-1.4-2.9-2.1-6.1-2.1-9.3v-0.1
			c0.3-12.7,10.7-22.7,23.4-22.4C374.5,422,384.4,431.9,384.7,444.2L384.7,444.2z"/>
		<path class="st1" d="M520.6,444.2c0.1,10.3-8.1,18.8-18.4,18.9s-18.8-8.1-18.9-18.4s8.1-18.8,18.4-18.9c0.1,0,0.2,0,0.3,0
			C512.2,425.7,520.5,433.9,520.6,444.2z"/>
		<path class="st9" d="M505,444.2c0,1.7-1.3,3-3,3s-3-1.3-3-3s1.3-3,3-3l0,0C503.6,441.2,505,442.5,505,444.2z"/>
		<path class="st9" d="M501.9,457.6c-7.4-0.1-13.4-6.2-13.3-13.6c0.1-7.4,6.2-13.4,13.6-13.3c7.4,0.1,13.3,6.1,13.3,13.5
			C515.5,451.6,509.4,457.7,501.9,457.6z M501.9,431c-7.3,0.1-13.1,6.1-13,13.4c0.1,7.3,6.1,13.1,13.4,13c7.2-0.1,13-6,13-13.2
			C515.2,436.8,509.3,430.9,501.9,431L501.9,431z"/>
		<ellipse class="st1" cx="501.9" cy="444.2" rx="2.1" ry="2.1"/>
		<ellipse class="st1" cx="361.8" cy="444.2" rx="18.7" ry="18.4"/>
		<path class="st9" d="M364.8,444.2c0,1.7-1.3,3-3,3s-3-1.3-3-3s1.3-3,3-3l0,0C363.5,441.2,364.8,442.5,364.8,444.2z"/>
		<path class="st9" d="M361.8,457.6c-7.4-0.1-13.4-6.2-13.3-13.6c0.1-7.4,6.2-13.4,13.6-13.3c7.4,0.1,13.3,6.1,13.3,13.5
			C375.4,451.6,369.3,457.7,361.8,457.6z M361.8,431c-7.3,0.1-13.1,6.1-13,13.4c0.1,7.3,6.1,13.1,13.4,13c7.2-0.1,13-6,13-13.2
			C375.2,436.8,369.2,430.9,361.8,431L361.8,431z"/>
		<ellipse class="st1" cx="361.8" cy="444.2" rx="2.1" ry="2.1"/>
		
			<linearGradient id="SVGID_5_" gradientUnits="userSpaceOnUse" x1="551.3406" y1="241.0891" x2="534.8005" y2="234.8091" gradientTransform="matrix(1 0 0 -1 0 668)">
			<stop  offset="0" style="stop-color:#FDF9EC"/>
			<stop  offset="0.46" style="stop-color:#D6D3C8"/>
			<stop  offset="1" style="stop-color:#A9A6A0"/>
		</linearGradient>
		<path class="st11" d="M536.7,425v6.3l12.1,4.1c0.9-2.9,1.1-6.1,0.5-9.1L536.7,425z"/>
		<path class="st1" d="M339.5,428.1l-5,2.1l-0.7,10.6l3,1.7C336.8,442.5,336.6,434.3,339.5,428.1z"/>
		<rect x="333.7" y="431.5" class="st12" width="2.7" height="2.6"/>
		<path class="st13" d="M535.5,430.4l-12.5-0.9v-0.2c-2.8-16.7-22.9-16.7-23.1-16.6h-0.2l-3.8-68.4h0.5l3.8,67.8
			c2.3,0,20.6,1,23.4,16.9l11.6,0.9v-6.8l4.8,0.1c0-3.5-0.2-39.5-1.6-42.8c-1.4-3.5-5.1-33.5-5.3-34.8h0.5c0,0.3,3.9,31.2,5.2,34.6
			s1.6,41.6,1.6,43.2v0.3l-4.8-0.1L535.5,430.4z"/>
		<polygon class="st13" points="540.5,339.9 461.9,335.9 461.9,335.4 540.5,339.4 		"/>
		<path class="st13" d="M488.7,422.9L459,421v-0.5l29.5,1.9c7.3-4.7,16.4-5.4,24.3-1.9l-0.2,0.5
			C504.9,417.5,495.8,418.2,488.7,422.9L488.7,422.9z"/>
		<path class="st1" d="M539.3,379.6c0-0.2-1.6-22.1-2.2-27.9c-0.3-3-1.2-4-1.7-4.3c-0.5-0.2-1.2-0.3-1.7-0.2l-0.2-1.5
			c1-0.2,2,0,2.8,0.5c1.2,0.8,2,2.6,2.3,5.4c0.6,5.8,2.2,27.7,2.2,27.9L539.3,379.6z"/>
		<polygon class="st1" points="539.2,368.7 532.5,369.1 531.3,352.4 537.9,351.7 		"/>
		<rect x="500.2" y="379.6" class="st13" width="4.4" height="7.4"/>
		
			<linearGradient id="SVGID_6_" gradientUnits="userSpaceOnUse" x1="535.7828" y1="238.3624" x2="551.2228" y2="245.1324" gradientTransform="matrix(1 0 0 -1 0 668)">
			<stop  offset="0" style="stop-color:#D77A2C"/>
			<stop  offset="1" style="stop-color:#E5E1D6"/>
		</linearGradient>
		<polygon class="st14" points="536.7,425 536.7,431.3 539.6,432.3 539.6,425.3 		"/>
		
			<radialGradient id="SVGID_7_" cx="281.5541" cy="296.2004" r="168.31" gradientTransform="matrix(0.86 0 0 -0.86 -77.21 497.94)" gradientUnits="userSpaceOnUse">
			<stop  offset="0.16" style="stop-color:#86BCFC"/>
			<stop  offset="0.58" style="stop-color:#5B9AFB"/>
			<stop  offset="1" style="stop-color:#546CFA"/>
		</radialGradient>
		<path class="st15" d="M346.4,324.9c0,75.1-60.9,136-136,136s-136-60.9-136-136s60.9-136,136-136S346.4,249.8,346.4,324.9z"/>
		<path class="st4" d="M251.7,238.3c0,0-3.8,0.6-3.8,3.1c0.2,2.3,0.6,4.7,1.3,6.9l1.2,4.7l3.7,3.1l1.4-1.9c0.8-0.7,1.8-1.2,2.8-1.5
			c4.7-0.6,4.7-1.9,4.7-1.9l4.1-2.3c0,0,1.6-3.1,0-4.1s-6.1-3.8-6.5-3.8s-2.6-6-2.6-6l-4.6-6.3c0,0-3.2,2.6-2.6,4.3s1.6,2.3,1.3,3.9
			L251.7,238.3z"/>
		<path class="st4" d="M345.5,308.4c-2.4,1.4-5,2.5-7.7,3.2c-9.5,2.9-12.1,4-22.7,5.8s-22.1-2.9-31.4,2.9s-10.9,6-10.9,6l-4.5,0.9
			c0,0-12.1-1.9-14.1-0.1c-1.7,1.6,0.4,0.1-7.5,9.6s-5.2,5.5-7.9,9.5c-5.8,8.6-7.4,4.8-5.3,12.7s11.1,15.3,11.1,15.3
			s13.7,1.1,16.3,2.1s22.1,2.4,22.1,2.4s14,20,16.6,24.2s2.8,8.7,4.8,16.4c0.3,1.2,0.6,2.3,0.8,3.2c26.4-25.6,41.2-60.8,41.2-97.5
			C346.4,319.4,346.1,313.9,345.5,308.4z"/>
		<path class="st4" d="M312.6,307.5c1.3,2.8,2.2-6.9,6-7.2s0.3-2.8-3.8-5.1s-6.9-11.9-9.4-15s3.8-10.1,10.1-12.8s5,3.4,7.9,6.2
			s-0.6,5.4,1.9,10.2s2.8,5.8,5.6,4.3s-1.2-3.3-1.7-8.8c-0.2-2.6-0.2-5.4,3.9-2s5.9,15,5.1,0.9c-18.5-50.2-64.6-85-118-88.8
			l20.5,10.3l11.3,4.6c0,0,16.6,2.1,18.3,3.5s1.8,5.6,3.5,6.6s8.8,7.5,18.3,10c5.6,1.4,7.6,7.4,8.4,12c-1.9,1-2.7,3.7-2.7,4.7
			c0,1.3,1.6,2.8,1.3,4.5s-4.4,1.2-7.2,0.4s-1.3-0.1-2.8,0s-4.1,2.1-6.3,5s-6.9,2.8-10.7,3.4s-2.8-1.6-7.9,0s-7.2,12.6-5.4,17.3
			s0.9,7.6-0.3,12.1s-3,6.5-3.5,20.3c-0.7,23,9.4,13.5,15.8,14.5s5.4-2.2,6.6-4.7s-2.8-9.1-3.2-15.1s-0.6-7.2,0-8.9s3.5-4.7,6-7.5
			s9.1-3.1,11.3-3.1s15.1,12.6,19.2,18.3S311.3,304.6,312.6,307.5z"/>
		<path class="st4" d="M88.9,263.8c0,0.1-0.1,0.3-0.1,0.4c-0.3,4.8-2.3,10-5.1,15.9c-2.2,4.8-2.7,6.3-4.1,8
			c-0.1,0.2-0.3,0.3-0.3,0.5c-3.3,11.8-4.9,24-4.9,36.3c0,2.7,0.1,5.4,0.2,8c0.1,0.4,0.3,0.7,0.5,1l1.5,1.8c0.5,0.6,1.2,1,1.9,1
			c1.5,0,4.1,0.5,3.8,3c-0.4,3.5,2,7.3,1.9,8.8s3.7,1.9,3.5,7.9c-0.2,3,0.1,5.9,0.7,8.8c0.1,0.3,0.1,0.6,0.1,0.9
			c-0.1,1.4-0.4,5.9-0.7,9.7c-0.3,4.6,1.5,7.2,2.8,9.4s1.8,2.6,1.8,7.1c0,0.2,0,0.4,0.1,0.5c18.2,31.7,48.5,54.7,83.8,63.9
			c0.4-0.8,0.7-1.7,0.8-2.5l0,0c0.1-1.3,0.9-7.5,1.1-8.8c0-0.2,0-0.3,0-0.5c-0.1-1.3-0.3-8.1,0.3-10.3c0.7-2.5-1.3-3.6-5.8-11.6
			s0-7.1,0.9-12.1s0.5-6.6,1.8-9.5s0,0-0.8-2.6s-13.3-14.9-16.3-20.1s-5.5-1.4-10-2.3s0,0-10.2-1.4c-5.1-0.7-5.3,0.7-7,0.4
			c-2.2-0.4-4.1,0.4-7.7-0.6s-8.5,4.3-11.4,2.6s-3.3-2.6-4.7-3.8s-5.7-1.6-7.4-6.8s0.1-4.3-1.2-8.9s-0.9-5.3-1.3-5.8
			s-3.7-3.1-1.8-8.9c0.9-2.7-0.8-1.2-0.3-7.3s4.8-1.8,7.1-4.5s5.2-1.4,8-5.3s8.4-3.4,13.2-8.1c4.8-4.7,9.4-5,9.9-6l15-11.2l0.2-0.2
			c0.7-0.7,4.4-4.5,0.6-8.9c-4.2-4.9,1.9-5.2-4.2-4.9c-2.8,0.2-5.5,1.1-7.7,2.7c-1.2,0.8-2.8,0.5-3.7-0.7c0-0.1-0.1-0.1-0.1-0.2
			c-0.6-1-1.3-2.2-1.9-3.1c-1.3-1.7-4.2-5.8-5.3-7.3c-0.3-0.4-0.6-0.7-1.1-0.8c-1.1-0.5-3.2-1.4-4.6-1.9c-0.8-0.3-1.4-0.9-1.7-1.6
			c-0.4-1.1-0.8-2.2-1.1-3.2c-0.4-1.2,0.2-2.5,1.3-3.1l12-6.4c1.3-0.7,2.8-0.2,3.5,1c1.2,2.2,2.8,4,4.7,5.6c3,2.1,8.2,3,10.1,3.2
			c0.4,0.1,0.8,0,1.2-0.1c1-0.3,2.9-0.8,3.3,0.5c1.1,3.8,3.5,7.1,6.7,9.5c1.2,0.9,2.8,0.7,3.7-0.5c0.2-0.3,0.3-0.6,0.4-0.9l4-13.6
			c0.1-0.3,0.2-0.6,0.4-0.8l8.3-11.2c1.5-2.1,1.8-4.8,0.8-7.2l-1.5-3.3c-0.9-1.9-2.7-3.2-4.7-3.3l-4.2-0.3l-16.2-0.4
			c-0.8,0-1.5-0.4-2-1c-0.8-1-2.4-2.1-4.7,0.6l-2.5,3c-0.5,0.7-1.4,1.1-2.3,1l-11.2-1c-0.2,0-0.4-0.1-0.6-0.1
			c-0.8-0.3-3.1-1-4.6-1.4c-0.7-0.2-1.3-0.6-1.6-1.2c-0.4-0.7-1.3-1.6-1.3-2.5c-0.2-10.5,7.9-19.6,10.1-21.9
			C113.2,227.5,98.8,244.3,88.9,263.8z"/>
		<path class="st16" d="M333.8,231.6c0-6.9-5.6-12.5-12.5-12.5s-12.5,5.6-12.5,12.5c0,0.2,0,0.5,0,0.7l0,0
			c0,9.5,12.5,24.4,12.5,24.4s12.5-14.9,12.5-24.4l0,0C333.8,232,333.8,231.8,333.8,231.6z M321.4,239.6c-4.5,0-8.1-3.6-8.1-8.1
			c0-4.5,3.6-8.1,8.1-8.1c4.5,0,8.1,3.6,8.1,8.1c0,0,0,0,0,0C329.5,236,325.9,239.6,321.4,239.6L321.4,239.6z"/>
		<path class="st16" d="M292.2,350c0-6.9-5.6-12.5-12.5-12.5s-12.5,5.6-12.5,12.5c0,0.2,0,0.5,0,0.7l0,0c0,9.5,12.5,24.4,12.5,24.4
			s12.5-14.9,12.5-24.4l0,0C292.2,350.5,292.2,350.3,292.2,350z M279.7,358.1c-4.5,0-8.1-3.6-8.1-8.1c0-4.5,3.6-8.1,8.1-8.1
			c4.5,0,8.1,3.6,8.1,8.1c0,0,0,0,0,0C287.8,354.5,284.2,358.1,279.7,358.1C279.8,358.1,279.7,358.1,279.7,358.1L279.7,358.1z"/>
		<path class="st16" d="M114.3,295.7c0-6.9-5.6-12.5-12.5-12.5s-12.5,5.6-12.5,12.5c0,0.2,0,0.5,0,0.7l0,0
			c0,9.5,12.5,24.4,12.5,24.4s12.5-14.9,12.5-24.4l0,0C114.3,296.2,114.3,295.9,114.3,295.7z M101.8,303.8c-4.5,0-8.1-3.6-8.1-8.1
			c0-4.5,3.6-8.1,8.1-8.1c4.5,0,8.1,3.6,8.1,8.1c0,0,0,0,0,0C109.9,300.1,106.2,303.8,101.8,303.8
			C101.8,303.8,101.8,303.8,101.8,303.8L101.8,303.8z"/>
		<path class="st17" d="M284.3,444.6c0,0-2-0.4-5.3-1.4l0.2-0.9c3.2,0.9,5.2,1.3,5.2,1.3L284.3,444.6z"/>
		<path class="st17" d="M268.8,439.7c-3.3-1.4-6.6-2.9-9.8-4.5l0.4-0.8c3.1,1.6,6.4,3.2,9.7,4.5L268.8,439.7z M249.8,429.6
			c-3-2-5.9-4.2-8.6-6.5l0.6-0.7c2.7,2.3,5.5,4.5,8.5,6.5L249.8,429.6z M233.5,415.5c-2.4-2.7-4.6-5.6-6.5-8.6l0.8-0.5
			c1.9,3,4.1,5.8,6.5,8.5L233.5,415.5z M221.8,397.4c-1.5-3.3-2.7-6.7-3.7-10.1l0.9-0.2c1,3.4,2.2,6.8,3.6,10L221.8,397.4z
			 M216,376.6c-0.4-3.6-0.6-7.2-0.6-10.8h0.9c0,3.6,0.2,7.1,0.6,10.7L216,376.6z M216.4,355.1h-0.9c0.2-3.7,0.4-7.5,0.5-10.8l0.9,0
			C216.8,347.7,216.6,351.5,216.4,355.1L216.4,355.1z M217.6,333.7h-0.9c0.2-4.1,0.4-7.6,0.5-10.7h0.9
			C217.9,326.1,217.8,329.5,217.6,333.7L217.6,333.7z M217.4,312.2c0-3.8-0.1-7.3-0.3-10.7l0.9,0c0.2,3.4,0.3,7,0.3,10.8H217.4z
			 M216.2,290.7c-0.4-3.7-1-7.2-1.7-10.6l0.9-0.2c0.7,3.4,1.3,7,1.7,10.6L216.2,290.7z M211.8,269.8c-1.1-3.4-2.4-6.7-3.9-9.9
			l0.8-0.4c1.5,3.2,2.9,6.6,4,10L211.8,269.8z M202.7,250.6c-2-3-4.1-5.8-6.5-8.4l0.7-0.6c2.4,2.7,4.6,5.5,6.6,8.5L202.7,250.6z
			 M188.5,234.8c-2.7-2.3-5.6-4.4-8.7-6.2l0.5-0.8c3,1.9,6,4,8.7,6.3L188.5,234.8z M170.5,223.4c-3.1-1.5-6.4-2.9-9.8-4.1l0.3-0.9
			c3.5,1.3,6.8,2.7,9.9,4.2L170.5,223.4z M150.5,216c-3.3-0.9-6.8-1.8-10.4-2.5l0.2-0.9c3.6,0.7,7.1,1.6,10.5,2.5L150.5,216z"/>
		<path class="st17" d="M129.3,211.6c-1.7-0.3-3.6-0.5-5.3-0.7l0.1-0.9c1.8,0.2,3.6,0.5,5.4,0.7L129.3,211.6z"/>
		<path class="st17" d="M117.6,446.3c0,0-0.8-1.9-1.8-5.1l0.8-0.3c1,3.2,1.8,5,1.8,5.1L117.6,446.3z"/>
		<path class="st17" d="M113,431c-0.8-3.5-1.5-6.9-2.1-10.4l0.9-0.1c0.5,3.4,1.2,6.9,2,10.3L113,431z M109.7,410.1
			c-0.2-3.2-0.4-6.4-0.4-9.5v-1.1h0.9v1.1c0,3.1,0.1,6.2,0.4,9.4L109.7,410.1z M110.8,389l-0.9-0.1c0.4-3.5,1-7,1.8-10.5l0.9,0.2
			C111.8,382.1,111.2,385.5,110.8,389L110.8,389z M115.8,368.6l-0.8-0.3c1.3-3.3,2.8-6.5,4.6-9.6l0.8,0.5
			C118.5,362.2,117,365.4,115.8,368.6L115.8,368.6z M126.3,350.6l-0.7-0.6c2.3-2.7,4.7-5.3,7.4-7.6l0.6,0.7
			C130.9,345.4,128.5,347.9,126.3,350.6L126.3,350.6z M141.8,336.7l-0.5-0.8c3-1.9,6-3.7,9.2-5.2l0.4,0.8
			C147.8,333,144.8,334.8,141.8,336.7z M160.6,327.4l-0.3-0.8c2-0.7,4.2-1.4,6.3-2.1l3.8-1.1l0.3,0.9l-3.8,1.1
			C164.8,326,162.7,326.7,160.6,327.4z M180.8,321.1l-0.3-0.9c3.4-1.1,6.8-2.2,10-3.3l0.3,0.9C187.6,318.9,184.2,320,180.8,321.1
			L180.8,321.1z M200.8,314.4l-0.3-0.9c3.4-1.2,6.7-2.4,9.9-3.6l0.3,0.8C207.5,312,204.2,313.2,200.8,314.4L200.8,314.4z
			 M220.5,306.9l-0.3-0.8c3.3-1.4,6.6-2.8,9.7-4.1l0.4,0.8C227.2,304.1,223.9,305.5,220.5,306.9L220.5,306.9z M239.8,298.3l-0.4-0.8
			c3.3-1.6,6.4-3.2,9.4-4.8l0.4,0.8C246.3,295.1,243.1,296.7,239.8,298.3L239.8,298.3z M258.4,288.3l-0.5-0.8
			c3.1-1.9,6.1-3.8,8.8-5.8l0.5,0.7C264.5,284.4,261.6,286.3,258.4,288.3z M275.6,276l-0.6-0.7c2.7-2.3,5.2-4.7,7.6-7.2l0.7,0.6
			C280.9,271.2,278.3,273.6,275.6,276L275.6,276z M290,260.4l-0.7-0.5c2-2.9,3.8-5.9,5.3-9l0.8,0.4C293.8,254.5,292,257.5,290,260.4
			L290,260.4z M299.2,241.4l-0.9-0.3c1-3.4,1.8-6.8,2.4-10.2l0.9,0.2C301.1,234.6,300.3,238,299.2,241.4L299.2,241.4z"/>
		<path class="st17" d="M303.1,220.3l-0.9-0.1c0.2-1.8,0.3-3.6,0.5-5.4l0.9,0.1C303.4,216.7,303.3,218.5,303.1,220.3z"/>
		<path class="st18" d="M580.5,396.4c0,0-1,0.5-2.3,2.7c-0.6,1.1-3.1,1.2-3.6,5.1c-0.3,3,5.3,2.2,7.4,2.1s2.2-1.7,3.1-3.4
			s1.5-1.7,1.7-3c0-1.2-0.2-2.4-0.5-3.6L580.5,396.4z"/>
		<path class="st19" d="M580.3,394.7l0.2,1.7c1.9,0.5,3.9,0.4,5.8-0.2l0.1-2L580.3,394.7z"/>
		<path class="st18" d="M630,396.4c0,0,1.2,0.3,2.5,2.6c0.6,1.1,2.9,1.4,3.3,5.2c0.3,3-5.3,2.2-7.4,2.1s-2.2-1.7-3.1-3.4
			s-1.5-1.7-1.7-3.1c0-1.2,0.1-2.4,0.4-3.6L630,396.4z"/>
		<path class="st19" d="M630.2,394.7l-0.2,1.8c-1.9,0.5-4,0.4-5.9-0.2v-1.9L630.2,394.7z"/>
		<path class="st20" d="M566.7,260.6c0,0-0.1-3.5-0.3-4.6c-0.3-1.7,2.3-6.8,2.6-6.9c0.6-0.1,0.7,0.1,0.7,0.1l-0.7,12.3L566.7,260.6z
			"/>
		<path class="st20" d="M643.1,260.6c0,0,0.1-3.5,0.3-4.6c0.3-1.7-2.3-6.8-2.6-6.9c-0.6-0.1-0.7,0.1-0.7,0.1l0.7,12.3L643.1,260.6z"
			/>
		<path class="st21" d="M618.3,317.7c0,0,0.5,2.7,0.7,3.6s3.6,17.5,4.3,21.5c1.2,7,3,17.6,3.3,19c0.5,2.1,1.4,8,2.1,14.3
			c0.7,6.7,2.6,16.8,2.9,18.2s-9.5,0.6-9.5,0.6s-2.8-16.4-3.4-20s-1.8-7.9-2.4-11.1c-0.6-3.6-1.3-7.1-2.3-10.6
			c-1.7-5.5-7.8-20.2-9.2-22.1s-2.5-2-2.5-2l2.5-13L618.3,317.7z"/>
		<path class="st21" d="M592.1,317.8c0,0-0.5,2.7-0.7,3.6s-3.6,17.5-4.3,21.5c-1.2,7-3,17.6-3.3,19c-0.5,2.1-1.4,8-2.1,14.3
			c-0.7,6.7-2.6,16.9-2.9,18.2s9.5,0.6,9.5,0.6s2.8-16.4,3.4-20s1.8-7.9,2.3-11.1c0.6-3.6,1.3-7.1,2.3-10.6
			c1.7-5.5,7.8-20.2,9.2-22.1s2.5-2,2.5-2l-2.5-13L592.1,317.8z"/>
		<path class="st22" d="M620.3,287.3c-1.4-5,2-15,2-15c-2.8-1.2-6.4-0.1-8-0.1c-2-0.2-3.9-0.6-5.8-1.2h-6.9
			c-1.9,0.5-3.8,0.9-5.8,1.2c-1.6,0-5.2-1.1-8,0.1c0,0,3.6,10,2.2,15c0,0,2,8.2,2.7,11.3c0.4,1.6,0,6.5,0,7.7
			c0,1.8-0.3,7.1-0.7,11.6c0,0,4.1,2.5,13,2.7c8.8-0.6,13.2-2.7,13.2-2.7c-0.6-5.4-0.9-9.9-1.1-11.6c-0.1-2.6,0-5.1,0.2-7.7
			C617.6,296.3,620.3,287.3,620.3,287.3z"/>
		<path class="st22" d="M622.3,272.3c1.1,0.5,2.3,0.9,3.5,1.2c1.1,0.1,2.8-1.6,5-1.4s3,1.3,5,1.2s2.7-0.5,2.9-1.3
			c1.4-3.7,1.9-7.6,1.6-11.6c-0.2-2,3.1-2,3.1-2s1.8,3,2.4,8.9c0.3,3.5-0.1,7.1-1.2,10.4c-0.1,0.8-2.7,1.1-3.3,1.5
			c-3.2,0.7-6.4,1.1-9.7,1.3c-2.4,0.1-7.2,0.3-8.6,1.2s-2.8,5.6-2.8,5.6S617.9,276.4,622.3,272.3z"/>
		<path class="st22" d="M588,272.3c-1.1,0.5-2.3,0.9-3.5,1.2c-1.1,0.1-2.9-1.6-5-1.4s-3,1.3-5,1.2s-2.7-0.5-2.8-1.3
			c-0.3-3.9-0.8-7.8-1.6-11.6c-0.3-1.3-3.4-1.3-3.4-1.3s-1.5,2.3-2.1,8.2c-0.3,3.5,0.1,7.1,1.2,10.4c0.1,0.8,2.7,1.1,3.2,1.5
			c3.2,0.7,6.4,1.1,9.7,1.3c2.4,0.1,7.2,0.3,8.6,1.2s2.8,5.6,2.8,5.6S592.7,277.3,588,272.3z"/>
		<path class="st23" d="M609.2,265.9c0,0-0.5,3.3,0.5,5.4c0,0,1.1,4.8-4,5.1s-5.3-4.2-5.3-4.2s1.2-1.7,0.3-6.1
			S609.2,265.9,609.2,265.9z"/>
		<path class="st23" d="M605.8,248c0,0,6.5,0.9,5.7,11.3c-0.8,10.4-6.5,9.7-6.9,9.7s-5.7,0.3-6.4-12.3
			C598.2,256.6,597.8,247.3,605.8,248z"/>
		<path class="st23" d="M611.5,256.3c0,0,0.7-0.8,1,0c0.3,0.8-0.8,4.2-0.9,4.5c0,0-0.1,0.3-0.3,0.1
			C611.3,259.4,611.4,257.9,611.5,256.3z"/>
		<path class="st23" d="M598.4,256.5c0,0-0.7-0.8-1,0c-0.3,0.8,1,4.3,1,4.4s0.1,0.3,0.3,0.1C598.7,259.6,598.6,258,598.4,256.5z"/>
		<path class="st24" d="M611.6,257.9l-0.9,1.3c0-1.1-0.1-2.1-0.2-3.2c-0.2-0.4,0.1-2,0-2.3s-4.4,1-11.5,0.4c0,0,0.8,2.5,0.4,2.7
			c-0.4,0.2-0.2,3.3-0.2,3.3l-0.8-0.9c0,0-1-5.2-0.9-6.1c0.1-1.2-0.4-6.6,9.5-5.9c1.1,0.1,2.2,0.5,3.2,1.2c1.3,0.8,2,2.2,2.1,3.7
			C612.1,254,611.9,256,611.6,257.9z"/>
		<path class="st25" d="M601.7,267.3c0,0,2.8,3.1,6.9-0.2c-0.7,1.4-2.1,2.4-3.6,2.5C603.5,269.6,602.2,268.7,601.7,267.3z"/>
		<path class="st21" d="M605.4,331.8l15.1-3.4c0,0-1.9-9-2-10.4c-0.1-1.2-1.3-13-1.1-19.4c0,0-3.1-3.8-3.5-7.7l-8.6-0.1h-0.1
			l-8.6,0.2c-0.4,4-3.7,7.6-3.7,7.6c0.1,6.7-0.7,18.1-0.8,19.4c-0.1,1.4-2.1,10.4-2.1,10.4l15.1,3.4v0.1h0.2L605.4,331.8
			L605.4,331.8z"/>
		<path class="st21" d="M613.9,290.7c0,0,1.7-14.8,4.8-18.7c-0.7-0.2-1.4-0.2-2.1,0c0,0-4.2,9.9-4.5,18.7S613.9,290.7,613.9,290.7z"
			/>
		<path class="st21" d="M596.5,290.7c0,0-1.7-14.8-4.8-18.7c0.7-0.2,1.4-0.2,2.1,0c0,0,4.2,9.9,4.5,18.7S596.5,290.7,596.5,290.7z"
			/>
		<rect x="614.3" y="247" class="st26" width="26.6" height="26.6"/>
		<rect x="624.5" y="247" class="st27" width="6.2" height="3.1"/>
		<rect x="568.4" y="247" class="st26" width="26.6" height="26.6"/>
		<polygon class="st28" points="609.3,299.4 605.2,299.4 601.2,299.4 597.4,303.2 597.4,314.6 605.2,314.6 613,314.6 613,303.2 		
			"/>
		<rect x="578.6" y="247" class="st27" width="6.2" height="3.1"/>
	</g>
	<g id="OBJECTS">
		<path class="st4" d="M1765.5,468.9c-340.2,46.4-691.7,46.4-1054.6,0l247.9-51.5h558.7L1765.5,468.9z"/>
		<path class="st29" d="M1792.6,468.2h-109.9l-86.3-23.6h151v-1h-154.6l-38.2-10.5h89.2v-1H1551l-41.7-11.4l-0.6,0.9l38.4,10.5
			h-80.9l-29.7-11.4l-0.8,0.9l27.5,10.5h-81.8l-17.7-11.3l-1.1,0.7l16.6,10.6h-82.5l-5.8-11.1l-1.5,0.3l5.6,10.8h-82.8l5.6-10.8
			l-1.5-0.3l-5.8,11.1h-82.5l16.6-10.6l-1.1-0.7l-17.7,11.3h-81.8l27.5-10.5l-0.8-0.9l-29.7,11.4h-80.9l38.4-10.5l-0.6-0.9
			l-41.7,11.4h-112v1h108.3l-38.2,10.5H740.6v1h170.1l-86.3,23.6H695.4v1h125.4l-104.8,28.7l0.6,0.9l108.1-29.6h119.6l-74.9,28.7
			l0.8,0.9l77.2-29.6h120.5l-45.1,28.8l1.1,0.7l46.2-29.5h121.2l-15.1,29l1.5,0.3l15.3-29.3h121.5l15.3,29.3l1.5-0.3l-15.1-29h121.2
			l46.2,29.5l1.1-0.7l-45.1-28.8h120.5l77.2,29.6l0.8-0.9l-74.9-28.7h119.6l108.1,29.6l0.6-0.9l-104.8-28.7h106.2V468.2z
			 M1550.6,433.1l38.2,10.5H1496l-27.3-10.5L1550.6,433.1z M1465.6,433.1l27.3,10.5h-93.7l-16.4-10.5H1465.6z M1380.6,433.1
			l16.4,10.5h-94.4l-5.4-10.5H1380.6z M1295.5,433.1l5.5,10.5h-94.7l5.5-10.5H1295.5z M1210,433.1l-5.4,10.5h-94.4l16.4-10.5H1210z
			 M1124.3,433.1l-16.4,10.5h-93.7l27.3-10.5H1124.3z M956.5,433.1h82l-27.3,10.5h-92.8L956.5,433.1z M828.4,468.2l86.3-23.6h93.9
			L947,468.2H828.4z M950,468.2l61.6-23.6h94.8l-37,23.6L950,468.2z M1071.6,468.2l37-23.6h95.5l-12.3,23.6H1071.6z M1193.4,468.2
			l12.3-23.6h95.8l12.3,23.6H1193.4z M1315.4,468.2l-12.2-23.6h95.5l37,23.6L1315.4,468.2z M1437.7,468.2l-37-23.6h94.9l61.6,23.6
			H1437.7z M1560.1,468.2l-61.5-23.6h93.9l86.3,23.6L1560.1,468.2z"/>
		<path class="st0" d="M1470.1,362.3c-0.9-20-13.8-41-37.1-48.3c-11-3.4-23.5-3.6-33.9-8.2c-22.3-10-24.2-34.6-25.6-55
			c-2-28.3-8.6-56.8-24.8-82c-17.7-27.3-44.7-47.4-75.9-56.5c-33.3-9.7-73.4-5.8-99.8,13.1c-15.4,11-31,27.9-51,23.7
			c-10.3-2.1-17.3-9.4-24.3-15.8c-16.5-14.9-39.9-27.4-64.6-24.8c-25,2.6-43.8,19.6-55.4,37.4c-11.6,17.9-18.5,37.7-32.7,54.3
			c-10.6,12.4-31.1,23.4-47.2,15.6c-10.8-5.2-14.1-16.2-17.8-25.9c-3.7-9.7-10.8-20.4-23.4-21.5c-15.2-1.3-28,12.8-43.1,10.6
			c-8.3-1.2-14.1-7-21.4-10.3c-15-6.8-35-2.2-47.3,7.4c-12.3,9.6-18.5,23.1-23.2,36.4c-3.2,9.3-5.9,18.7-8,28.3v174.1h742.4
			C1463.9,397.9,1470.9,380.4,1470.1,362.3z"/>
		<path class="st4" d="M1344.7,207.4v-1h-11v-37.3h-1v37.3h-34.2v-37.3h-1v37.3h-34.2v-37.3h-1v37.3h-34.2v-37.3h-1v37.3h-34.2
			v-37.3h-1v37.3h-34.2v-37.3h-1v37.3h-34.2v-37.3h-1v37.3h-34.2v-37.3h-1v37.3h-3v1h3v34.5h-3v1h3v34.5h-3v1h3v34.5h-3v1h3v34.5h-3
			v1h3v11.5h1v-11.5h34.2v11.5h1v-11.5h34.2v11.5h1v-11.5h34.2v11.5h1v-11.5h34.2v11.5h1v-11.5h34.2v11.5h1v-11.5h34.2v11.5h1v-11.5
			h34.2v11.5h1v-11.5h11v-1h-11v-34.5h11v-1h-11v-34.5h11v-1h-11v-34.5h11v-1h-11v-34.5H1344.7z M1297.5,207.4v34.5h-34.2v-34.5
			H1297.5z M1227.1,277.4h-34.2v-34.5h34.2L1227.1,277.4z M1228.1,242.8h34.2v34.5h-34.2V242.8z M1191.8,277.4h-34.2v-34.5h34.2
			V277.4z M1156.6,277.4h-34.2v-34.5h34.2V277.4z M1156.6,278.4v34.5h-34.2v-34.5L1156.6,278.4z M1157.6,278.4h34.2v34.5h-34.2
			V278.4z M1192.8,278.4h34.2v34.5h-34.2V278.4z M1228.1,278.4h34.2v34.5h-34.2L1228.1,278.4z M1263.3,278.4h34.2v34.5h-34.2
			L1263.3,278.4z M1263.3,277.4v-34.5h34.2v34.5L1263.3,277.4z M1262.3,207.4v34.5h-34.2v-34.5H1262.3z M1227.1,207.4v34.5h-34.2
			v-34.5H1227.1z M1191.8,207.4v34.5h-34.2v-34.5H1191.8z M1156.6,207.4v34.5h-34.2v-34.5H1156.6z M1087.2,207.4h34.2v34.5h-34.2
			L1087.2,207.4z M1087.2,242.9h34.2v34.5h-34.2L1087.2,242.9z M1087.2,278.4h34.2v34.5h-34.2L1087.2,278.4z M1087.2,348.4v-34.5
			h34.2v34.5H1087.2z M1122.4,348.4v-34.5h34.2v34.5H1122.4z M1157.6,348.4v-34.5h34.2v34.5H1157.6z M1192.8,348.4v-34.5h34.2v34.5
			H1192.8z M1228.1,348.4v-34.5h34.2v34.5H1228.1z M1263.3,348.4v-34.5h34.2v34.5H1263.3z M1332.7,348.4h-34.2v-34.5h34.2V348.4z
			 M1332.7,312.9h-34.2v-34.5h34.2V312.9z M1332.7,277.4h-34.2v-34.5h34.2V277.4z M1332.7,241.9h-34.2v-34.5h34.2V241.9z"/>
		<rect x="1182" y="174.1" class="st4" width="7.3" height="2.3"/>
		<rect x="1182" y="180.1" class="st4" width="10.8" height="2.3"/>
		<rect x="1194.3" y="180.1" class="st4" width="5.3" height="2.3"/>
		<rect x="1200" y="180.1" class="st4" width="3.4" height="2.3"/>
		<rect x="1182" y="186.2" class="st4" width="5.2" height="2.3"/>
		<rect x="1188.5" y="186.2" class="st4" width="13.3" height="2.3"/>
		<rect x="1197.4" y="192.3" class="st4" width="6.1" height="2.3"/>
		<rect x="1182" y="192.3" class="st4" width="14.8" height="2.3"/>
		<rect x="1182" y="198.4" class="st4" width="9.3" height="2.3"/>
		<rect x="1192.8" y="198.4" class="st4" width="4" height="2.3"/>
		<rect x="1197.4" y="198.4" class="st4" width="2.3" height="2.3"/>
		<rect x="1219.6" y="205.7" class="st4" width="23.5" height="3.9"/>
		<path class="st4" d="M1243.1,213.3h-23.6H1243.1z"/>
		<rect x="1219.5" y="212.9" class="st4" width="23.6" height="0.8"/>
		<path class="st4" d="M1243.1,217.7h-23.6H1243.1z"/>
		<rect x="1219.5" y="217.3" class="st4" width="23.6" height="0.8"/>
		<rect x="1264.2" y="205.7" class="st4" width="23.5" height="3.9"/>
		<path class="st4" d="M1287.8,213.2h-23.6H1287.8z"/>
		<rect x="1264.1" y="212.8" class="st4" width="23.6" height="0.8"/>
		<path class="st4" d="M1287.8,217.7h-23.6H1287.8z"/>
		<rect x="1264.2" y="217.3" class="st4" width="23.6" height="0.8"/>
		<rect x="1308.8" y="205.7" class="st4" width="24.1" height="3.9"/>
		<path class="st4" d="M1333,213.2h-24.2H1333z"/>
		<rect x="1308.8" y="212.8" class="st4" width="24.2" height="0.8"/>
		<path class="st4" d="M1333,217.6h-24.2H1333z"/>
		<rect x="1308.8" y="217.3" class="st4" width="24.2" height="0.8"/>
		<polygon class="st4" points="1178.6,223.2 1178.4,223 1143.9,201.9 1128.5,211.4 1128.2,211.2 1086.7,185.8 1027.7,222 
			1027.1,221.1 1086.7,184.7 1128.5,210.2 1143.9,200.8 1144.2,200.9 1178.6,222 1250.6,178 1250.8,178.2 1278.3,195 1329.2,163.8 
			1329.8,164.6 1278.3,196.1 1278,196 1250.6,179.2 		"/>
		<path class="st4" d="M1089.5,185.4c0,1.9-1.5,3.4-3.4,3.4c-1.9,0-3.4-1.5-3.4-3.4s1.5-3.4,3.4-3.4
			C1088,181.9,1089.5,183.5,1089.5,185.4L1089.5,185.4z"/>
		<path class="st4" d="M1148.2,202.3c0,1.9-1.5,3.4-3.4,3.4c-1.9,0-3.4-1.5-3.4-3.4s1.5-3.4,3.4-3.4
			C1146.7,198.8,1148.2,200.4,1148.2,202.3L1148.2,202.3z"/>
		<circle class="st4" cx="1249.9" cy="179.1" r="3.4"/>
		<ellipse class="st29" cx="1090.6" cy="439.2" rx="39.5" ry="6.6"/>
		<ellipse class="st29" cx="1614.3" cy="456.9" rx="45.5" ry="6.9"/>
		<ellipse class="st29" cx="1380.3" cy="472.5" rx="43.6" ry="8"/>
		<polygon class="st30" points="923,373.2 707.9,417.9 707.9,165.2 923,239.2 		"/>
		<polygon class="st31" points="785.2,401.8 923,373.2 923,239.2 894.3,229.4 		"/>
		<polygon class="st32" points="892.5,333.7 722.3,345.8 722.3,207.3 892.5,248.9 		"/>
		<polygon class="st0" points="776.2,325.9 755.4,326.5 755.4,248.5 776.2,251.9 		"/>
		<path class="st33" d="M772.5,309.8c0-2.5-2.8-4.6-6.4-4.7s-6.6,1.9-6.6,4.5c0,2.1,1.9,3.8,4.5,4.5v12.3l4.2-0.1v-12.1
			C770.6,313.5,772.5,311.8,772.5,309.8z"/>
		<polygon class="st0" points="799,325.2 780.6,325.8 780.6,252.6 799,255.6 		"/>
		<path class="st33" d="M795.6,278.1c0-2.4-2.5-4.5-5.6-4.9c-3.1-0.4-5.8,1.3-5.8,3.8c0,1.9,1.7,3.7,4,4.5v44.2l3.7-0.1v-43.8
			C794.1,281.4,795.6,280,795.6,278.1z"/>
		<polygon class="st0" points="819,324.6 802.6,325.1 802.6,256.2 819,258.9 		"/>
		<path class="st33" d="M816,292.7c0-2.2-2.2-4.2-5-4.4s-5.2,1.5-5.2,3.8c0.2,2,1.6,3.6,3.5,4.1V325l3.3-0.1v-28.6
			C814.5,296.1,815.9,294.6,816,292.7z"/>
		<polygon class="st0" points="837.1,324.1 822.4,324.5 822.4,259.5 837.1,261.8 		"/>
		<path class="st33" d="M834.4,286c0-2.1-2-4-4.5-4.3s-4.6,1.3-4.6,3.5c0.1,1.9,1.4,3.5,3.2,4v35.3l2.9-0.1v-35
			C833.1,289.2,834.4,287.7,834.4,286z"/>
		<polygon class="st0" points="853.3,323.6 840.2,324 840.2,262.3 853.3,264.5 		"/>
		<path class="st33" d="M851,304.3c-0.1-2.1-1.9-3.8-4.1-3.8c-2.1-0.2-3.9,1.3-4.1,3.3c0,0.1,0,0.1,0,0.2c0.1,1.7,1.2,3.1,2.8,3.6
			V324l2.6-0.1v-16.3C849.8,307.2,850.9,305.9,851,304.3z"/>
		<polygon class="st0" points="868.1,323.2 856.2,323.5 856.2,264.9 868.1,266.9 		"/>
		<path class="st33" d="M865.9,290.6c-0.1-2-1.7-3.6-3.7-3.8c-1.8-0.3-3.5,1-3.7,2.8c0,0.1,0,0.3,0,0.4c0.1,1.6,1.1,3,2.6,3.5v30
			l2.4-0.1v-29.8C864.9,293.4,865.9,292.1,865.9,290.6z"/>
		<polygon class="st0" points="881.4,322.8 870.6,323.1 870.6,267.3 881.4,269.1 		"/>
		<path class="st33" d="M879.5,275.9c-0.1-1.9-1.5-3.5-3.3-3.8c-1.5-0.3-3.1,0.7-3.4,2.2c0,0.2-0.1,0.4-0.1,0.6
			c0.1,1.5,1,2.9,2.3,3.5v44.6l2.2-0.1v-44.3C878.6,278.5,879.5,277.3,879.5,275.9z"/>
		<polygon class="st0" points="776.2,247.7 755.4,244.1 755.4,239.2 776.2,243 		"/>
		<polygon class="st0" points="747.9,257.5 734.1,255.6 734.1,252.5 747.9,254.5 		"/>
		<polygon class="st0" points="747.9,271.7 734.1,270.3 734.1,267.2 747.9,268.8 		"/>
		<polygon class="st0" points="747.9,286 734.1,285 734.1,282 747.9,283 		"/>
		<polygon class="st0" points="747.9,300.2 734.1,299.7 734.1,296.7 747.9,297.3 		"/>
		<polygon class="st0" points="747.9,314.5 734.1,314.5 734.1,311.4 747.9,311.5 		"/>
		<polygon class="st0" points="747.9,328.7 734.1,329.2 734.1,326.1 747.9,325.8 		"/>
		<polygon class="st0" points="799,251.7 780.6,248.5 780.6,243.8 799,247.3 		"/>
		<polygon class="st0" points="819,255.1 802.6,252.3 802.6,247.9 819,251 		"/>
		<polygon class="st0" points="837.1,258.3 822.4,255.8 822.4,251.6 837.1,254.4 		"/>
		<polygon class="st0" points="853.3,261.1 840.2,258.8 840.2,254.9 853.3,257.4 		"/>
		<polygon class="st0" points="868.1,263.7 856.2,261.6 856.2,257.9 868.1,260.1 		"/>
		<polygon class="st0" points="881.4,266 870.6,264.1 870.6,260.6 881.4,262.6 		"/>
		<polygon class="st4" points="761.8,356.2 718.4,360.8 718.4,355.8 761.8,351.7 		"/>
		
			<rect x="718.1" y="362.6" transform="matrix(0.9934 -0.1148 0.1148 0.9934 -36.7712 87.3329)" class="st29" width="43.9" height="0.8"/>
		
			<rect x="719" y="367.2" transform="matrix(0.9915 -0.1302 0.1302 0.9915 -41.5517 99.597)" class="st29" width="43.9" height="0.7"/>
		<polygon class="st33" points="824.4,349.6 794.1,352.8 794.1,348.7 824.4,345.8 		"/>
		
			<rect x="793.9" y="354.7" transform="matrix(0.9934 -0.1146 0.1146 0.9934 -35.3531 95.0689)" class="st29" width="30.7" height="0.8"/>
		
			<rect x="793.9" y="359.2" transform="matrix(0.9918 -0.1276 0.1276 0.9918 -39.2673 106.1887)" class="st29" width="30.7" height="0.8"/>
		<polygon class="st4" points="870.6,344.8 847.7,347.2 847.7,343.7 870.6,341.5 		"/>
		
			<rect x="847.6" y="348.9" transform="matrix(0.9934 -0.1148 0.1148 0.9934 -34.4029 100.9085)" class="st29" width="23.2" height="0.8"/>
		
			<rect x="847.5" y="352.8" transform="matrix(0.9918 -0.1276 0.1276 0.9918 -38.0402 112.5012)" class="st29" width="23.2" height="0.8"/>
		<polygon class="st33" points="766.2,374.9 720.1,381.9 720.1,383.9 766.2,376.7 		"/>
		<polygon class="st33" points="774.5,378.3 720.1,387.3 720.1,389.3 774.5,380.1 		"/>
		<polygon class="st33" points="774.5,383 742.6,388.7 742.6,390.6 774.5,384.8 		"/>
		<polygon class="st33" points="737.5,389.6 720.1,392.7 720.1,394.7 737.5,391.5 		"/>
		<polygon class="st33" points="774.5,387.8 720.1,398 720.1,400.1 774.5,389.5 		"/>
		<polygon class="st33" points="774.5,392.5 720.1,403.4 720.1,405.4 774.5,394.2 		"/>
		<path class="st29" d="M737.1,194.9c0,3.1-3.9,4.6-8.8,3.3c-4.9-1.3-9.2-5.1-9.2-8.4s4.1-4.7,9.2-3.2S737.1,191.7,737.1,194.9z"/>
		<polygon class="st33" points="807.8,214.8 742.4,196.4 742.4,191.8 807.8,211 		"/>
		<rect x="1417.3" y="187" class="st34" width="260.1" height="160.4"/>
		<polygon class="st35" points="1677.1,187.2 1643.9,187.2 1583.5,347.6 1677.1,347.6 		"/>
		<rect x="1441.1" y="202.2" class="st4" width="142.6" height="103.1"/>
		<rect x="1458.9" y="211.5" class="st29" width="12" height="89"/>
		<rect x="1474.3" y="211.5" class="st29" width="12" height="89"/>
		<rect x="1489.6" y="211.5" class="st29" width="12" height="89"/>
		<rect x="1505" y="211.5" class="st29" width="12" height="89"/>
		<rect x="1520.3" y="211.5" class="st29" width="12" height="89"/>
		<rect x="1535.7" y="211.5" class="st29" width="12" height="89"/>
		<rect x="1551.1" y="211.5" class="st29" width="12" height="89"/>
		<path class="st33" d="M1469.5,300.6h-9.1v-53.7c0-2.5,2-4.5,4.5-4.5c0,0,0,0,0,0h0.1c2.5,0,4.5,2,4.5,4.5c0,0,0,0,0,0
			L1469.5,300.6z"/>
		<path class="st33" d="M1484.8,300.6h-9.2v-64.3c0-2.5,2-4.5,4.5-4.5c0,0,0,0,0,0h0.1c2.5,0,4.5,2,4.5,4.5c0,0,0,0,0,0V300.6z"/>
		<path class="st33" d="M1500.2,300.6h-9.1v-37.6c0-2.5,2-4.5,4.5-4.5c0,0,0,0,0,0h0c2.5,0,4.5,2,4.5,4.5c0,0,0,0,0,0L1500.2,300.6z
			"/>
		<path class="st33" d="M1515.5,300.6h-9.1v-70.8c0-2.5,2-4.5,4.5-4.5c0,0,0,0,0,0h0.1c2.5,0,4.5,2,4.5,4.5c0,0,0,0,0,0V300.6z"/>
		<path class="st33" d="M1530.9,300.6h-9.1v-53.7c0-2.5,2-4.5,4.5-4.5c0,0,0,0,0,0h0.1c2.5,0,4.5,2,4.5,4.5c0,0,0,0,0,0V300.6z"/>
		<path class="st33" d="M1546.3,300.6h-9.1V261c0-2.5,2-4.5,4.5-4.5c0,0,0,0,0,0h0.1c2.5,0,4.5,2,4.5,4.5c0,0,0,0,0,0L1546.3,300.6z
			"/>
		<path class="st33" d="M1561.6,300.6h-9.1v-53.7c0-2.5,2-4.5,4.5-4.5c0,0,0,0,0,0h0.1c2.5,0,4.5,2,4.5,4.5c0,0,0,0,0,0
			L1561.6,300.6z"/>
		<rect x="1593.3" y="224.3" class="st4" width="33.4" height="3.9"/>
		<rect x="1593.2" y="231.5" class="st29" width="33.5" height="0.8"/>
		<rect x="1593.2" y="235.9" class="st29" width="33.5" height="0.8"/>
		<rect x="1593.3" y="244.2" class="st4" width="33.4" height="3.9"/>
		<rect x="1593.2" y="251.4" class="st29" width="33.5" height="0.8"/>
		<rect x="1593.2" y="255.8" class="st29" width="33.5" height="0.8"/>
		<rect x="1593.3" y="264.1" class="st4" width="33.4" height="3.9"/>
		<rect x="1593.2" y="271.3" class="st29" width="33.5" height="0.8"/>
		<rect x="1593.2" y="275.7" class="st29" width="33.5" height="0.8"/>
		<rect x="1593.9" y="202.4" class="st36" width="19.2" height="1.2"/>
		<rect x="1593.9" y="205.5" class="st29" width="28.5" height="1.2"/>
		<rect x="1593.9" y="208.7" class="st29" width="4.9" height="1.2"/>
		<rect x="1601.7" y="208.7" class="st29" width="7.2" height="1.2"/>
		<rect x="1611.7" y="208.7" class="st29" width="12.9" height="1.2"/>
		<rect x="1593.9" y="211.8" class="st29" width="11.6" height="1.2"/>
		<rect x="1607.3" y="211.8" class="st29" width="17.2" height="1.2"/>
		<rect x="1593.9" y="215" class="st29" width="18.5" height="1.2"/>
		<rect x="1618.1" y="215" class="st29" width="6.4" height="1.2"/>
		<rect x="1553.3" y="315.8" class="st36" width="19.2" height="1.2"/>
		<rect x="1553.3" y="318.9" class="st29" width="28.5" height="1.2"/>
		<rect x="1553.3" y="322.1" class="st29" width="4.9" height="1.2"/>
		<rect x="1561.1" y="322.1" class="st29" width="7.2" height="1.2"/>
		<rect x="1571.1" y="322.1" class="st29" width="12.9" height="1.2"/>
		<rect x="1553.3" y="325.2" class="st29" width="11.6" height="1.2"/>
		<rect x="1566.7" y="325.2" class="st29" width="17.2" height="1.2"/>
		<rect x="1553.3" y="328.3" class="st29" width="18.5" height="1.2"/>
		<rect x="1577.5" y="328.3" class="st29" width="6.4" height="1.2"/>
		<rect x="1441.9" y="193.2" class="st29" width="60.2" height="6.9"/>
		<rect x="1644" y="192.6" class="st29" width="26.4" height="6.9"/>
		<rect x="1520.1" y="318.2" class="st33" width="18.9" height="2.8"/>
		<rect x="1520.1" y="324.4" class="st33" width="9.8" height="1.1"/>
		<rect x="1531.4" y="324.4" class="st33" width="6.2" height="1.1"/>
		<polygon class="st33" points="1534.1,327.4 1534.1,328.1 1533.5,328.1 1533.5,327.4 1523.4,327.4 1523.4,328.5 1538.4,328.5 
			1538.4,327.4 		"/>
		<rect x="1520.1" y="327.4" class="st33" width="2.5" height="1.1"/>
		<rect x="1539" y="327.4" class="st33" width="2.4" height="1.1"/>
		<polygon class="st30" points="1001.4,412.6 896.5,434.8 896.5,170.1 1001.4,222 		"/>
		<polygon class="st31" points="1001.4,222 971.9,207.4 910.1,431.9 1001.4,412.6 		"/>
		<path class="st34" d="M927,271.4c-8.2-1.2-15.2,5.7-15.2,15.3s7,17.6,15.2,17.8c7.7,0.2,13.6-6.8,13.6-15.5S934.7,272.5,927,271.4
			z M927,302.2c-7-0.2-12.9-7-12.9-15.2s5.9-14,12.9-13.1c6.6,0.9,11.8,7.6,11.8,15.1S933.6,302.4,927,302.2z"/>
		<path class="st33" d="M935.3,278.8l1.2-1.6c-2.2-3-5.5-5-9.2-5.6v2.4C930.5,274.5,933.3,276.2,935.3,278.8z"/>
		<path class="st4" d="M931.7,288.4c0,3-2.1,5.3-4.7,5.2s-4.9-2.8-4.9-5.9s2.2-5.4,4.9-5.1C929.7,282.7,931.7,285.4,931.7,288.4z"/>
		<path class="st34" d="M955.8,275.5c-6.5-0.9-12.1,5.2-12.1,13.8s5.5,15.7,12.1,15.8c6.2,0.1,11-6.1,11-13.9S962,276.4,955.8,275.5
			z M955.8,303c-5.5-0.2-10.2-6.2-10.2-13.5s4.7-12.6,10.2-11.9c5.3,0.7,9.5,6.7,9.5,13.4S961.1,303.2,955.8,303z"/>
		<path class="st33" d="M955.8,277.7c3.7,0.5,6.9,3.6,8.4,7.7l1.3-1c-1.8-4.7-5.4-8.2-9.7-8.9c-2-0.3-4,0.1-5.7,1.1l0.9,2
			C952.4,277.7,954.1,277.4,955.8,277.7z"/>
		<path class="st4" d="M959.6,290.6c0,2.7-1.7,4.8-3.8,4.6c-2.1-0.1-3.9-2.5-3.9-5.3s1.8-4.9,3.9-4.6S959.6,287.9,959.6,290.6z"/>
		<path class="st34" d="M979.1,278.8c-5.3-0.8-9.8,4.9-9.8,12.6s4.5,14.1,9.8,14.2c5.1,0.1,9-5.6,9-12.7S984.2,279.5,979.1,278.8z
			 M979.1,303.7c-4.5-0.1-8.3-5.6-8.3-12.1s3.8-11.4,8.3-10.8c4.4,0.6,7.8,6,7.8,12.1S983.4,303.8,979.1,303.7z"/>
		<path class="st33" d="M986.8,292.8c0.1,2.7-0.7,5.3-2.1,7.6l1,1.2c1.6-2.6,2.5-5.7,2.4-8.7c0-7-3.9-13.3-8.9-14.1v1.9
			C983.5,281.4,986.8,286.8,986.8,292.8z"/>
		<path class="st4" d="M982.2,292.5c0,2.4-1.4,4.3-3.1,4.2s-3.2-2.2-3.2-4.7s1.4-4.4,3.2-4.2S982.2,290,982.2,292.5z"/>
		<path class="st0" d="M935.4,197.7c-17.2-7.3-32.8,3.5-32.8,25.1s15.6,41.5,32.8,44.3c15.2,2.5,26.3-9.7,26.3-27
			S950.6,204.2,935.4,197.7z M935.4,239c-3.1-0.8-5.6-4.5-5.6-8.2s2.5-5.9,5.6-4.9c3.1,1,5.4,4.6,5.4,8.1S938.4,239.8,935.4,239z"/>
		<path class="st36" d="M935.4,197.7c-3.5-1.6-7.4-2.3-11.2-2.2l10.3,30.2c0.3,0,0.6,0.1,0.9,0.2c0.3,0.1,0.5,0.2,0.8,0.3l10.1-21.2
			C943.1,201.9,939.4,199.5,935.4,197.7z"/>
		<path class="st33" d="M934.5,225.7l-10.3-30.2c-3.6,0.1-7.1,1.2-10.1,3.1l16.9,28.5C931.8,226.1,933.1,225.5,934.5,225.7z"/>
		<path class="st29" d="M946.3,205l-10.1,21.2c2.8,1.6,4.6,4.6,4.6,7.8c0,0.5-0.1,1.1-0.2,1.6l21,6c0-0.5,0-1,0-1.5
			C961.6,227.2,955.6,213.7,946.3,205z"/>
		<polygon class="st33" points="940.8,318.8 915.1,319.7 915.1,321.6 940.8,320.6 		"/>
		<polygon class="st33" points="945.5,323.2 915.1,324.8 915.1,326.7 945.5,325 		"/>
		<polygon class="st33" points="945.5,327.8 927.5,329.1 927.5,330.9 945.5,329.5 		"/>
		<polygon class="st33" points="924.6,329.3 915.1,329.9 915.1,331.8 924.6,331.1 		"/>
		<polygon class="st33" points="945.5,332.4 915.1,335 915.1,337 945.5,334.1 		"/>
		<polygon class="st33" points="945.5,336.9 915.1,340.2 915.1,342.1 945.5,338.7 		"/>
		<polygon class="st33" points="982.9,240.5 970.3,236.5 970.3,231.7 982.9,236 		"/>
		<polygon class="st33" points="982.9,249.4 970.3,245.9 970.3,241.1 982.9,244.8 		"/>
		<polygon class="st33" points="982.9,258.3 970.3,255.3 970.3,250.4 982.9,253.7 		"/>
		<polygon class="st34" points="1734,370.9 1662.7,341.1 1662.7,220.7 1734,190.9 		"/>
		<polygon class="st33" points="1725.9,331.6 1665.2,310.7 1665.2,241.3 1725.9,220.5 		"/>
		<polygon class="st4" points="1678,296.5 1673.6,295.7 1673.6,268.5 1678,268.2 		"/>
		<polygon class="st4" points="1684.7,297.7 1679.8,296.8 1679.8,268.1 1684.7,267.8 		"/>
		<polygon class="st4" points="1692.3,299 1686.8,298 1686.8,267.6 1692.3,267.2 		"/>
		<polygon class="st4" points="1701,300.6 1694.6,299.4 1694.6,267.1 1701,266.7 		"/>
		<polygon class="st4" points="1710.8,302.3 1703.6,301 1703.6,266.5 1710.8,266 		"/>
		<polygon class="st4" points="1722.2,304.4 1713.8,302.9 1713.8,265.8 1722.2,265.2 		"/>
		<polygon class="st36" points="1674.5,295.8 1674.5,282.9 1677,283.1 1677,296.3 		"/>
		<polygon class="st36" points="1680.9,297 1680.9,277.3 1683.6,277.3 1683.6,297.5 		"/>
		<polygon class="st36" points="1688,298.2 1688,287.8 1691.1,288.1 1691.1,298.8 		"/>
		<polygon class="st36" points="1696,299.7 1696,281.6 1699.5,281.8 1699.5,300.3 		"/>
		<polygon class="st36" points="1705.1,301.3 1705.1,275.4 1709.1,275.3 1709.1,302 		"/>
		<polygon class="st36" points="1715.6,303.2 1715.6,272.1 1720.3,272 1720.3,304 		"/>
		<polygon class="st4" points="1668.7,254.3 1666.9,254.7 1666.9,256.1 1668.7,255.8 		"/>
		<polygon class="st4" points="1669.6,258.1 1666.9,258.5 1666.9,260 1669.6,259.6 		"/>
		<polygon class="st4" points="1670,258 1670,259.5 1671.4,259.3 1671.4,257.8 		"/>
		<polygon class="st4" points="1671.5,257.8 1671.5,259.3 1672.4,259.1 1672.4,257.6 		"/>
		<polygon class="st4" points="1668.2,262.2 1666.9,262.4 1666.9,263.9 1668.2,263.7 		"/>
		<polygon class="st4" points="1672,261.7 1668.6,262.2 1668.6,263.7 1672,263.3 		"/>
		<polygon class="st4" points="1670.8,265.9 1670.8,267.4 1672.4,267.3 1672.4,265.8 		"/>
		<polygon class="st4" points="1670.7,265.9 1666.9,266.3 1666.9,267.7 1670.7,267.4 		"/>
		<polygon class="st4" points="1669.3,270 1666.9,270.1 1666.9,271.6 1669.3,271.5 		"/>
		<polygon class="st4" points="1669.6,270 1669.6,271.5 1670.7,271.4 1670.7,269.9 		"/>
		<polygon class="st4" points="1671.4,269.9 1670.8,269.9 1670.8,271.4 1671.4,271.4 		"/>
		<path class="st36" d="M1675.9,254.9l-2.6,0.5c-0.2,0-0.4-0.4-0.4-0.9l0,0c0-0.5,0.2-1,0.4-1.1l2.6-0.5c0.2,0,0.4,0.4,0.4,0.9l0,0
			C1676.3,254.4,1676.1,254.9,1675.9,254.9z"/>
		<path class="st36" d="M1681.6,253.8l-2.9,0.5c-0.2,0-0.4-0.4-0.4-1l0,0c0-0.6,0.2-1.1,0.4-1.1l2.9-0.6c0.3-0.1,0.5,0.4,0.5,1l0,0
			C1682,253.3,1681.8,253.8,1681.6,253.8z"/>
		<path class="st36" d="M1687.9,252.6l-3.2,0.6c-0.3,0-0.5-0.4-0.5-1l0,0c0-0.6,0.2-1.1,0.5-1.2l3.2-0.7c0.3-0.1,0.5,0.4,0.5,1l0,0
			C1688.4,252,1688.2,252.6,1687.9,252.6z"/>
		<path class="st36" d="M1695,251.3l-3.6,0.7c-0.3,0.1-0.6-0.4-0.6-1l0,0c0-0.6,0.2-1.2,0.6-1.3l3.6-0.7c0.3-0.1,0.6,0.4,0.6,1.1
			l0,0C1695.6,250.6,1695.3,251.3,1695,251.3z"/>
		<path class="st36" d="M1703,249.8l-4,0.8c-0.3,0.1-0.6-0.4-0.6-1.1l0,0c0-0.7,0.3-1.3,0.6-1.4l4-0.8c0.4-0.1,0.7,0.4,0.7,1.1l0,0
			C1703.6,249.1,1703.3,249.7,1703,249.8z"/>
		<path class="st36" d="M1712,248.1l-4.5,0.9c-0.4,0.1-0.7-0.5-0.7-1.2l0,0c0-0.7,0.3-1.4,0.7-1.4l4.5-0.9c0.4-0.1,0.8,0.5,0.8,1.2
			l0,0C1712.7,247.3,1712.4,248,1712,248.1z"/>
		<path class="st36" d="M1722,246.2l-5.1,1c-0.4,0.1-0.8-0.5-0.8-1.2l0,0c0-0.8,0.3-1.5,0.8-1.5l5.1-1.1c0.5-0.1,0.8,0.5,0.8,1.3
			l0,0C1722.8,245.4,1722.5,246.1,1722,246.2z"/>
		<path class="st4" d="M1672,277.6c0,1.2-0.4,2.1-0.8,2.1c-0.5,0-0.8-1-0.8-2.1s0.4-2.1,0.8-2.1C1671.7,275.5,1672,276.4,1672,277.6
			z"/>
		<path class="st4" d="M1672,286.7c0,1.2-0.4,2-0.8,2c-0.5,0-0.8-1-0.8-2.2s0.4-2,0.8-2C1671.7,284.6,1672,285.6,1672,286.7z"/>
		<path class="st4" d="M1672,295.9c0,1.2-0.4,2-0.8,1.9c-0.5-0.1-0.8-1.1-0.8-2.2s0.4-2,0.8-1.9C1671.7,293.7,1672,294.7,1672,295.9
			z"/>
		<path class="st37" d="M872.5,263.1c0.3-0.1,0.6-0.1,0.9,0.1c0.2,0.2,0.5,0.5,0.6,0.7c0.2,0.3,0.4,0.7,0.2,1
			c-0.2,0.3-0.6,0.5-0.6,0.8c0,0.3,0.6,0.6,0.8,1c0.1,0.3,0,0.6-0.2,0.8c-0.2,0.2-0.5,0.4-0.8,0.5c-0.3,0.2-0.4,0.5-0.5,0.8
			c-1-1.1-0.9-2.7,0.1-3.7c-0.6-0.1-1-0.7-1-1.3C872.1,263.6,872.2,263.3,872.5,263.1z"/>
		<path class="st38" d="M1099.6,310.4c-2.3-2.8-4.7-5.5-7.3-8c-2.5-2.7-4.8-5.5-6.9-8.5c-0.3-0.4-0.6-0.8-1-1.1
			c-0.4-0.3-0.9-0.5-1.4-0.8c-0.7-0.5-1.3-1.2-2.2-1.4c-0.4,0-0.8,0-1.2,0c-0.5,0-0.6-0.1-1.1-0.1c-0.8,0-1.6,0-2.4,0.1
			c-1.1,0.3-1.9,0.9-2.5,0.9c0.1,0.4,0.4,0.7,0.8,0.8c0.8,0,1.6-0.2,2.4-0.4c0.8,0,1.5,0.1,2.2,0.4c1.1,0.4,1.9,0.7,1.9,1.8
			c-0.5,0.5-0.6,0.3-1,0.3c-0.4,0-0.8,0-1.2-0.1c-0.4-0.1-0.6-0.4-1-0.6c-0.7-0.4-1.7-0.7-1.9,0.4c0.3,0.7,1,1.3,1.8,1.4
			c0.5,0.2,0.9,0.4,1.4,0.7c0.5,0.3,0.9,0.8,1.4,1.1c0.6,0.3,1.3,0.4,1.9,0.3c0.2,0,0.4,0,0.6,0.1l0,0c0.4,0.2,0.8,0.6,1.1,1
			c2.2,4.1,2.7,8.5,4.8,12.7c2.2,4.4,4.8,8.8,9.7,9.1c0.8,0.1,1.7-0.1,2.4-0.7c0.3-0.3,0.5-0.7,0.6-1.2
			C1102.2,315.8,1101.4,312.8,1099.6,310.4z"/>
		<path class="st37" d="M1081.6,293.1c-2-2.9-4.9-2-7.8-1c0.1,0.2,0.4,0.3,0.6,0.3c0.8,0,1.6-0.2,2.4-0.4c0.8,0,1.5,0.1,2.2,0.4
			c1,0.3,1.7,0.6,1.9,1.5C1081.6,294,1082.3,294.4,1081.6,293.1z"/>
		<path class="st38" d="M1099.6,310.4c-2.3-2.8-4.7-5.5-7.3-8c-2.5-2.7-4.8-5.5-6.9-8.5c-0.3-0.4-0.6-0.8-1-1.1
			c-0.4-0.3-0.9-0.5-1.4-0.8c-0.7-0.5-1.3-1.2-2.2-1.4c-0.4,0-0.8,0-1.2,0c-0.5,0-0.6-0.1-1.1-0.1c-0.8,0-1.6,0-2.4,0.1
			c-1.1,0.3-1.9,0.9-2.5,0.9c0.1,0.2,0.1,0.3,0.2,0.4c2.9-1,5.9-1.9,7.8,1c0.6,1.3,0,0.9-0.7,0.8c0,0.1,0,0.2,0,0.3
			c-0.5,0.5-0.6,0.3-1,0.3c-0.4,0-0.8,0-1.2-0.1c-0.4-0.1-0.6-0.4-1-0.6c-0.7-0.4-1.7-0.7-1.9,0.4c0.3,0.7,1,1.3,1.8,1.4
			c0.5,0.2,0.9,0.4,1.4,0.7c0.5,0.3,0.9,0.8,1.4,1.1c0.6,0.3,1.3,0.4,1.9,0.3c0.2,0,0.4,0,0.6,0.1l0,0c0.4,0.2,0.8,0.6,1.1,1
			c2.2,4.1,2.7,8.5,4.8,12.7c2.2,4.4,4.8,8.8,9.7,9.1c0.8,0.1,1.7-0.1,2.4-0.7c0.3-0.3,0.5-0.7,0.6-1.2
			C1102.2,315.8,1101.4,312.8,1099.6,310.4z"/>
		<path class="st37" d="M1084.6,297.1c-0.8-1.5-2.7,0.4-4.4,0.1l0.1,0.1c0.6,0.3,1.3,0.4,2,0.3c0.2,0,0.4,0,0.6,0.1l0,0
			c0.4,0.2,0.8,0.6,1.1,1c2.2,4.1,2.7,8.5,4.8,12.7c2.2,4.4,4.8,8.8,9.7,9.1c0.8,0.1,1.7-0.1,2.4-0.7c0.3-0.3,0.5-0.7,0.6-1.2
			c0.1-0.1,0.1-0.3,0.1-0.4C1093.9,313.1,1088,305.7,1084.6,297.1z"/>
		<path class="st38" d="M1079.3,283.2c-0.5-0.6,0.1-2-0.5-2.4l-2.8-2.4c-2.2-0.9-4.7-1-7-0.2c-0.6,0.2-1.2,0.5-1.7,0.9
			c-1.1,1-1.7,2.4-1.7,3.9c0,1.5,0.2,2.9,0.7,4.3c0.1,0.8,0.4,1.5,0.9,2.1c1.4,2.6,4.2,4.1,7.2,4c1.1-0.1,3.5-0.2,4.2-1
			c0.3-0.3,1.3-1.1,1.3-1.5C1079.5,287.5,1080.9,285.3,1079.3,283.2z"/>
		<path class="st37" d="M1068.1,290.6c1.6,1.8,3.8,3.3,6.2,2.7c1.4-0.2,2.7-0.5,4-0.9C1074.9,291.6,1071.5,289.7,1068.1,290.6z"/>
		<path class="st38" d="M1077.7,300.4c-2-3.3-3-7.2-2.7-11.2h-7.9c0.5,3.7,0,7.5-1.4,10.9L1077.7,300.4z"/>
		<path class="st39" d="M1075.9,286.4c-0.7,2.1-2.8,3.5-4.7,4.6c-0.7,0.5-1.4,0.8-2.2,0.9c-1.1,0-2.2-0.7-2.7-1.6
			c-0.6-1-1-2.2-1.1-3.4c-0.4-1.6-0.6-3.1-0.8-4.7c0.1-1.5,0.8-2.9,1.9-3.8c0.8-0.7,0.9-1.6,1.9-1.9c0.9-0.3,1.9-0.4,2.9-0.3
			c2.4,0.2,4.8,0.5,7.2,0.9c0.5,0,0.9,0.2,1.3,0.5c0.8,0.7,0.4,2-0.3,2.8c-0.8,0.6-1.5,1.4-2.2,2.1
			C1076.2,283.6,1076.4,285.1,1075.9,286.4z"/>
		<path class="st38" d="M1076.7,284.8c-0.3-0.2-0.5-0.5-0.6-0.8c-0.2-0.3-0.4-0.6-0.7-0.7c-0.3,0-0.6,0.1-0.8,0.4
			c-0.2,0.3-0.3,0.5-0.3,0.9c-0.1,0.5-0.2,0.9-0.2,1.4c0,0.5,0.2,1,0.5,1.4c0.3,0.4,0.8,0.6,1.3,0.5c0.5-0.1,0.9-0.5,0.9-1
			L1076.7,284.8z"/>
		<path class="st37" d="M1075.6,286c0,0.1-0.1,0.1-0.2,0.2c-0.4,0.2-0.6,0.5-0.8,0.9c-0.1-0.5-0.2-1-0.1-1.5c0-0.1,0.1-0.3,0.2-0.4
			c0.1-0.1,0.2-0.2,0.4-0.2c-0.2-0.1-0.4-0.3-0.4-0.5c0-0.2,0.1-0.5,0.3-0.6c0.4,0.1,0.5,0.5,0.7,0.8c0.1,0.1,0.1,0.3,0.1,0.4
			c-0.1,0.1-0.1,0.3-0.2,0.4c-0.1,0.1-0.1,0.3-0.1,0.4C1075.5,285.9,1075.6,285.9,1075.6,286z"/>
		<path class="st38" d="M1064.4,333.1c-4.7-2.1-8.3-7.4-12.6-11.1c-1.3,3.3-3.6,6-6.7,7.8c5.6,2.3,11.4,3.6,16.6,7.3
			C1063.4,334.4,1062.8,335.7,1064.4,333.1z"/>
		<path class="st37" d="M1056.6,332.1c-2.8-0.9-7.4-5.4-3.8-9.3c-0.3-0.3-0.6-0.6-0.9-0.9c-1.3,3.3-3.6,6-6.7,7.8
			c5.6,2.3,11.4,3.6,16.7,7.3c0.7-1.2,1-1.6,1.2-1.9C1060.8,334.4,1058.7,333.4,1056.6,332.1z"/>
		<path class="st40" d="M1052.5,322.1c-0.6-0.4-1.8-1-2.4-1.4c2.3-3.2,5.5-4.5,8.3-7.3c1.6-1.8,2.9-4,3.7-6.3c0.8-2.2,0.2-7-1.8-8.1
			c-1.4-0.6-3.1-0.5-4.4,0.4c-1.3,0.8-2.4,1.9-3.3,3.1c-4.3,5.1-11,14-13.6,21.1c-0.5,1.3,0,2.8,1.2,3.6c1.9,1.3,3.9,2.4,5.9,3.3
			C1049,328.8,1051.2,325.6,1052.5,322.1z"/>
		<path class="st39" d="M1062.2,302.4c-8.9-0.8-12.5,14.4-19.2,19.8c-0.9,0.5-1.8,0.9-2.8,1.2c0.9,0.1,1.7,0,2.6-0.2
			c0.2,0.1,0.3,0.2,0.5,0.2c-1,0.4-2,0.7-3.1,0.9c1.5,0.3,3,0.2,4.4-0.3c1.8,0.9,3.6,2,5.3,3.1c1-1.1,1.7-2.5,2.2-3.9
			c-0.6-0.4-2.8-1.7-3.4-2.1c2.3-3.2,7.1-5,9.9-7.8c1.6-1.8,2.9-4,3.7-6.3C1062.6,305.6,1062.6,304,1062.2,302.4z"/>
		<path class="st41" d="M1059.6,429.9c-1,2.1-1.3,4.5-1,6.8c4.2-0.2,8.3-0.5,12.5-1c0-1.1-0.4-2.3-1.1-3.1c-0.7-0.4-1.4-0.8-2.1-1.1
			c-0.7-0.5-1.2-1.2-1.3-2.1C1064.7,429.5,1061.3,430.4,1059.6,429.9z"/>
		<path class="st4" d="M1058.4,437.3c3.6,0.4,12.8-0.9,12.8-0.9l0.1-1.1c-0.8,0.2-12.8,1-12.8,1L1058.4,437.3z"/>
		<path class="st40" d="M1062.8,337.9c-0.3,0.2-0.5,0.4-0.7,0.7c-3.5,5.7-1.7,13-0.9,19.7c0.4,4,0.6,8,0.5,12
			c0.1,4.4,0,8.8-0.3,13.1c-0.5,4.2-1.6,8.3-1.9,12.4c-0.6,10.2-0.1,20.3-0.9,30.6c3.4-0.2,6.8,0.1,10.2,0.9
			c0.5-15.1,4.2-28.2,6.8-43.4c1.8-10.6,1.7-22.1,2.2-35.1c0.1-3.9-0.4-7.9,0-11.7c-4.5,0.9-9.1,1.1-13.6,0.7
			C1063.7,337.7,1063.3,337.8,1062.8,337.9z"/>
		<path class="st39" d="M1067.2,345.7c-2.3,0-4.6-0.2-6.8-0.6l-0.3-0.1v0.3c0,0.9,0,1.8,0,2.6v0.1l0,0c0,0.8,0.1,1.7,0.2,2.5
			c0.2,1.4,0.6,2.8,1.3,4c0.2,0.3,0.6,0.6,1,0.6c0.3,0,0.6-0.1,0.8-0.3c1-1,2.2-1.9,3.5-2.5l0.1-0.1l0.7-6.6L1067.2,345.7z
			 M1060.7,345.7c2.1,0.3,4.2,0.5,6.2,0.5l-0.2,1.6c-1.5,0.2-2.9,0.7-4.1,1.6c-0.6-0.6-1.2-1.2-2-1.6
			C1060.6,347.1,1060.6,346.4,1060.7,345.7L1060.7,345.7z M1062.8,350.6l-0.2-0.1l-0.3-0.1l0.3-0.3L1062.8,350.6z M1062.9,354.5
			c-0.2,0.2-0.6,0.2-0.8,0c0,0,0,0-0.1-0.1c-0.6-1.2-1-2.5-1.2-3.8c-0.1-0.7-0.1-1.4-0.2-2.1c0.6,0.4,1.1,0.8,1.5,1.3
			c-0.3,0.2-0.5,0.5-0.7,0.8l-0.4,0.5l0.7-0.1c0.2,0,0.5,0,0.7,0.1c0.3,0.1,0.5,0.1,0.8,0.1h0.2h0.4l-0.2-0.4
			c-0.2-0.4-0.4-0.7-0.6-1c1.1-0.8,2.4-1.3,3.7-1.4l-0.4,3.5C1065.1,352.7,1063.9,353.5,1062.9,354.5L1062.9,354.5z"/>
		<path class="st39" d="M1077.8,337.1c-2.2,0.4-4.5,0.7-6.8,0.9c-1.5,11.4-1.6,22.9-0.2,34.3c1.7,12.1-1.7,23.7-3.5,36.4
			c-0.7,2.3-1.1,4.6-1.2,6.9c-0.4,3.7-0.7,7.4-0.7,11.2c1.1,0.1,2.2,0.3,3.3,0.6c0.5-15.1,4.2-28.2,6.8-43.4
			c1.8-10.6,1.7-22.1,2.2-35.1C1077.9,344.9,1077.3,341,1077.8,337.1z"/>
		<path class="st40" d="M1057.1,426.3c-0.1-0.2-0.1-0.4,0-0.6c0.2-0.2,0.4-0.4,0.7-0.4c3.8-0.8,7.7-0.2,11.1,1.7
			c0.3,0.2,0.5,0.5,0.4,0.9c-0.2,1-0.3,2-0.4,3c0,0.3-0.3,0.6-0.6,0.5c0,0-0.1,0-0.1,0c-3.1-0.6-6.4-1.1-9.5-0.5
			c-0.3,0.1-0.7-0.1-0.7-0.5c0-0.1,0-0.2,0-0.3c0.2-0.4,0.3-0.8,0.2-1.2c-0.1-0.3-0.3-0.6-0.5-0.9
			C1057.5,427.4,1057.2,426.9,1057.1,426.3z"/>
		<path class="st39" d="M1064.9,428.1c-2.1-0.2-4.3-0.4-6.3,0.5v-1C1060.7,427.2,1062.9,427.3,1064.9,428.1z"/>
		<path class="st41" d="M1096.4,433.6c1.1,0.2,2.2,0.5,3.2,1c1,0.5,1.7,1.6,1.6,2.8l-16.8,0.3c-0.5-1.1-0.6-2.4-0.3-3.6
			c0.3-1.2,0.5-2.4,0.5-3.7l5.7-0.2c0.2,1.4,1.7,2.2,3.1,2.6C1094.4,433.1,1095.4,433.4,1096.4,433.6z"/>
		<polygon class="st4" points="1083.9,436.9 1084,438.3 1101.4,437.8 1101.5,437 		"/>
		<path class="st40" d="M1070.1,337.6c-0.9,5.1-1.9,7-1.5,12.1c0.5,7.4,4.7,11.5,5.6,15.7c2.3,11,4.3,17.6,5,26
			c1.1,12.8,0.3,24.8,3.5,37.5c3.1-0.1,6.2-0.1,9.3,0.1c0.7-14.1,0.5-26.9-0.1-41.1c-0.2-5.2-0.4-8.6-0.6-15.6
			c-0.4-11.8-3.8-24.3-5.2-35.8C1081.5,337.4,1074.7,338.1,1070.1,337.6z"/>
		<path class="st39" d="M1083.6,351.9l-1.1-6.2l-10.6,0.9v0.3c0.1,1.5,0.3,3.1,0.6,4.6c0.4,1.6,1.1,3,2.3,4.1
			c0.8,0.7,1.8,1.3,2.8,1.8c0.4,0.2,0.8,0.4,1.3,0.4h0.2c0.5-0.1,1-0.4,1.3-0.8l2.4-2.3C1083.6,354,1083.9,352.9,1083.6,351.9
			L1083.6,351.9z M1082,346.3l0.3,1.8c-1.8,0.7-3.3,1.8-4.5,3.3c-1.5-1.1-3.3-1.9-5.2-2.2c-0.1-0.7-0.1-1.3-0.2-2L1082,346.3z
			 M1077.9,352.1c0.3,0.2,0.5,0.4,0.7,0.6l-1.3,0.3C1077.5,352.7,1077.7,352.4,1077.9,352.1L1077.9,352.1z M1083.1,353.2
			c-0.2,0.4-0.4,0.7-0.7,1l-2.4,2.3c-0.3,0.3-0.6,0.5-1,0.7h-0.1c-0.4,0-0.7-0.2-1-0.4c-1-0.4-1.8-1-2.6-1.7c-1-1-1.8-2.4-2.1-3.8
			c-0.1-0.5-0.2-1.1-0.3-1.6c1.7,0.4,3.3,1.1,4.7,2.1c-0.4,0.5-0.7,1-1,1.6l-0.3,0.5l3.6-0.8l-0.4-0.4c-0.4-0.4-0.7-0.7-1.2-1
			c1.1-1.3,2.6-2.3,4.2-3l0.6,3.3C1083.1,352.4,1083.1,352.8,1083.1,353.2L1083.1,353.2z"/>
		<path class="st39" d="M1091.9,387.9c-0.2-5.2-0.1-8.7-0.3-15.7c-0.4-11.8-3.9-24.3-5.3-35.8c-0.4,0.1-3.5,0.4-4,0.5
			c7.9,30.2,8.5,61.1,7.5,91.9c0.7,0,1.6,0.2,2.3,0.2C1092.8,414.9,1092.5,402,1091.9,387.9z"/>
		<path class="st40" d="M1082.2,431.9c0.4-1.6-0.4-2-0.4-3c0-0.4,0.2-0.7,0.6-0.8c3.2-0.9,6.5-1.3,9.9-1.1c0.4,0,0.8,0.4,0.7,0.9
			c0,0,0,0,0,0c-0.1,1.1-0.1,2.2,0,3.4c0,0.4-0.3,0.8-0.8,0.9c0,0-0.1,0-0.1,0c-3-0.3-6-0.2-8.9,0.4
			C1082.8,432.6,1082.1,432.3,1082.2,431.9z"/>
		<path class="st39" d="M1092.5,428.3c-1.2-0.6-2.6-0.7-3.9-0.4c-1.3,0.3-2.5,0.8-3.8,1.1L1092.5,428.3z"/>
		<path class="st39" d="M1090.4,431.1c-2.5,0.2-5,0.4-7.5,0.4C1085.4,430.9,1087.9,430.8,1090.4,431.1z"/>
		<path class="st39" d="M1067.1,430.5c-2.5-0.3-5.1-0.4-7.6-0.4C1062,429.7,1064.6,429.8,1067.1,430.5z"/>
		<path class="st36" d="M1061.1,300c0.1-1,0.1-2,0-3c4.8-1.8,10-1.6,14.7,0.5c1.7,0.7,3.1,1.9,4,3.5c-6.2-0.7-12.5-0.6-18.7,0.2
			L1061.1,300z"/>
		<path class="st42" d="M1061.6,297.4l0.1,0.9h1.1l-0.1-1.3C1062.3,297.1,1062,297.2,1061.6,297.4z"/>
		<path class="st42" d="M1062.9,298.3h0.7v-1.6l-0.7,0.2V298.3z"/>
		<path class="st42" d="M1064.2,296.4v1.7h0.8v-1.9L1064.2,296.4z"/>
		<path class="st42" d="M1067.1,296.1h-0.5v2h0.5L1067.1,296.1z"/>
		<path class="st42" d="M1065.7,298.1h0.5v-2l-0.5,0V298.1z"/>
		<path class="st36" d="M1059.7,343.3c-0.4,1.1-0.5,2.2-0.5,3.4c4.8,0.9,9.7,1.5,14.7,1.7c4.9,0.3,9.9-0.4,14.5-2.1
			c-0.2-1.5-0.3-3-0.5-4.6C1078.8,344.2,1069.2,343.8,1059.7,343.3z"/>
		<path class="st42" d="M1061,345.2c-0.5,0-1.1-0.2-1.5-0.5c0,0.6,0,1.2-0.1,1.7l1.6,0.3L1061,345.2L1061,345.2z"/>
		<path class="st42" d="M1061.6,345.3v1.5l1.2,0.2v-1.7L1061.6,345.3z"/>
		<path class="st42" d="M1063.6,345.3l-0.1,1.8c0.7,0.1,1.4,0.2,2.1,0.3l0.1-2L1063.6,345.3z"/>
		<path class="st42" d="M1068.1,345.4l0,2.3c0.5,0,1,0.1,1.5,0.1v-2.4L1068.1,345.4z"/>
		<path class="st42" d="M1072.7,345.4v2.5h1.3l-0.1-2.6L1072.7,345.4z"/>
		<path class="st42" d="M1074.5,345.3l0.1,2.6h0.8l-0.1-2.5L1074.5,345.3z"/>
		<path class="st42" d="M1076.6,345.3h-0.8l0.1,2.5l0.8,0C1076.6,346.9,1076.5,346.1,1076.6,345.3z"/>
		<path class="st42" d="M1070.5,345.4v2.4c0.5,0,1,0.1,1.5,0.1v-2.5L1070.5,345.4z"/>
		<path class="st42" d="M1066.5,345.4l-0.1,2.1l1.2,0.1v-2.2L1066.5,345.4z"/>
		<path class="st40" d="M1083.7,300.3c-4.8-0.9-9.6-1.5-14.5-1.8c-2.5-0.1-5-0.1-7.5,0.1c-2,0.2-4.1,0-5.4,1.7
			c-3.1,4.2-2.4,10.6-1.5,16.1c0.6,2.8,1.4,5.5,2.5,8.2c0.9,2.5,1.8,4.8,2.5,7.4c0.9,3.3,0.8,6.9-0.3,10.1c-0.2,0.5-0.2,1.1-0.1,1.6
			c0.3,0.7,1,0.9,1.7,0.9c7.4,0.4,17.9,1.1,26.3-1.4c1.4-0.4,0.7-1.8,1-3.1c0.3-1.6-0.1-3.1-0.3-4.7
			C1086.3,320.7,1088.3,305.5,1083.7,300.3z"/>
		<path class="st4" d="M1088.3,335.4c-1.9-14.7,0.2-29.9-4.4-35.1l-1.6-0.3c1.1,2.5,1.6,5.1,1.6,7.8c0,12.1,2.6,23.8,1.9,35.9
			c0.6-0.1,1.3-0.3,1.9-0.5c1.4-0.4,0.7-1.8,0.9-3.1C1089,338.5,1088.5,337,1088.3,335.4z"/>
		<path class="st39" d="M1060.5,300.3c-1.8,0.3-3.5,1.3-4.7,2.8c-1.1,1.6-1.1,3.8-1,5.8c0.2,2.6,0.4,5.2,0.9,7.8
			c0.5,2.6,1.1,5.3,2.7,7.3c0.6,0.8,1.4,1.5,2,2.3c0.8,0.9,1,2.3,0.4,3.4c-0.2,0.4-0.3,0.8-0.2,1.2c0.2,1.1,1.3,0.5,1.7,1.1
			c0.1,0.3,0.2,0.6,0.1,0.9c-0.5,2.4-1.1,4.8-1.6,7.3c-0.3,0.8-0.3,1.7,0,2.5c0.6,1.5,2.5,1.8,4.1,1.9c6.2,0.4,12.5,0.7,18.4-1
			c0.2-0.1,0.3-0.3,0.3-0.5c0-0.2-0.2-0.3-0.3-0.3l-11-0.3c-0.3,0-1.2-0.9,2.3-0.8l7.8-0.2c0.6,0,1-0.5,0.6-0.9l-0.1-0.1
			c-0.3-0.1-0.4-0.4-0.3-0.7c0-0.1,0.1-0.1,0.1-0.2c0.1-0.1,0.2-0.1,0.1-0.2c-0.1-0.2-0.3-0.4-0.5-0.5c-1-0.5-2-0.8-3-1.1
			c-0.5-0.3-0.7-0.9-0.4-1.5c0.1-0.3,0.4-0.5,0.7-0.5c1.6-0.3,3-1.1,4.2-2.3c1.1-1.5-7.5-0.5-11.3-0.8c-0.3,0-0.5-0.1-0.8-0.1
			c-0.6-0.1-0.5-1.1,0.1-1.1c5,0.2,6.9,0,10.1-1.4c0.6-0.2,1.1-0.5,1.5-0.9c0.7-1-0.1-2-0.9-2.5c-0.6-0.3-1.3-0.7-1.8-1.2
			c-1.3-1.2-1.3-3.4-0.7-5.1c1.9-5.6-0.4-7.7-0.7-11.4c-0.2-2.6,0.5-5.2-1.5-6.9c-2-1.7-4.6-1.8-7.1-2
			C1067.3,299.5,1063.9,299.6,1060.5,300.3z"/>
		<path class="st40" d="M1100.3,319.8c1.3-3.3,0.2-7-2.7-9.1c-2.4-1.8-4.1-3-6.5-4.6c-1.8-1.2-2.6-1.3-3.8-3.1
			c-0.7-1.1-2.7-3.4-4-3.2c-0.5,0.1-0.9,0.3-1.2,0.7c-2,2-2.7,4.9-2,7.6c0.6,2.7,2.2,6.8,4.5,8.2c6.3,4.1,8.8,7,12.6,6.7
			c0,0,1.8-1.3,1.9-1.3C1099.6,321.2,1100,320.6,1100.3,319.8z"/>
		<path class="st39" d="M1097,321.1c1.2-1.2,1.7-1.7,1.7-3.5c-8.1,1.1-9.2-8.7-14.4-11.6c-1.5-0.4-3-1-4.3-1.8
			c-0.2,1.2-0.2,2.5,0.1,3.8c0.6,2.7,2.2,6.8,4.5,8.2c6.3,4.1,8.8,7,12.6,6.7c0,0,1.8-1.3,1.9-1.3c0.6-0.5,1-1.2,1.2-1.9
			c0.1-0.3,0.2-0.6,0.3-0.9C1099.6,319.9,1098.5,321.1,1097,321.1z"/>
		<path class="st38" d="M1592.6,276.3c-0.4,5.5-1.6,11-3.7,16.1c5.1-0.2,10.2,0.7,14.9,2.7c-1.7-5.7-3.3-11.7-2.8-17.7
			C1598.3,276.7,1595.5,276.3,1592.6,276.3z"/>
		<path class="st37" d="M1601.1,277.5c-2.5-0.8-5-1.1-7.6-1.2c1.2,6.1,4.8,11.8,7.1,17.6c1.1,0.3,2.2,0.7,3.3,1.2
			C1602.2,289.5,1600.6,283.5,1601.1,277.5z"/>
		<path class="st39" d="M1601.1,277.5c-2.2-0.7-4.5-1.1-6.8-1.2c1.2,3.5,3.7,6.4,7.1,8.1C1601,282.1,1600.9,279.8,1601.1,277.5z"/>
		<path class="st38" d="M1609.1,270.9c-0.9-0.9-2.3-1.9-2.9-2.9c-0.4-1-0.1-2.7-0.2-3.8c-0.3-2.3-2.6-3.9-4.8-4.3
			c-3.4-0.6-7.7,0.1-9.4,3.5c-2.1,4.3-1.4,10.8,2.4,13.9c2.7,2.1,7.3,3.1,10.7,3.2c1.2,0.1,1.8-3.8,2-4.5c0.2-0.8,0.5-2,0.6-3.1
			c0.6-0.2,1.1-0.4,1.6-0.7c0.2-0.1,0.3-0.7,0.3-0.9S1609.2,271,1609.1,270.9z"/>
		<path class="st37" d="M1601.1,259.9c-3.4-0.6-7.7,0.1-9.4,3.5c-2,4-1.5,10,1.8,13.3c0.6-0.7,1.2-1.4,1.9-2.1
			c-1.2-2-1.2-4.5-0.1-6.5c1.7-0.9,3.4,0.5,5.2,1.5c2-1.9,3.8-4.1,5.3-6.5C1604.8,261.4,1603.1,260.2,1601.1,259.9z"/>
		<path class="st38" d="M1609.1,270.9c-0.9-0.9-2.3-1.9-2.9-2.9c-0.4-1-0.1-2.7-0.2-3.8c-0.1-0.3-0.2-0.7-0.3-1
			c-3.1,5.4-8.4,9-12.2,13.5c0.2,0.2,0.4,0.4,0.6,0.6c2.7,2.1,7.3,3.1,10.7,3.2c1.2,0.1,1.8-3.8,2-4.5c0.2-0.8,0.5-2,0.6-3.1
			c0.6-0.2,1.1-0.4,1.6-0.7c0.2-0.1,0.3-0.7,0.3-0.9S1609.2,271,1609.1,270.9z"/>
		<path class="st37" d="M1598.8,269.8c0.1,0.2,0.2,0.4,0.1,0.6c-0.1,0.2-0.4,0.3-0.4,0.5s0.5,0.5,0.6,0.9c0,0.2-0.1,0.4-0.3,0.5
			c-0.2,0.1-0.4,0.1-0.5,0.2c-0.4,0.2-0.6,0.5-0.8,0.9c-0.3-0.3-0.5-0.6-0.7-0.9c-0.2-0.4-0.1-0.8,0.2-1.1c0.2-0.2,0.6-0.3,0.7-0.6
			c-0.4,0.2-0.8,0-1-0.3c-0.2-0.3-0.1-0.8,0.2-1c0.3-0.3,0.6-0.4,1-0.3C1598.3,269.3,1598.6,269.5,1598.8,269.8z"/>
		<path class="st39" d="M1585,261.5c0.6-0.9,0.4-2.2-0.4-2.9c-0.9-0.6-2.1-0.7-3.1-0.2c-1,0.5-1.7,1.4-2,2.4
			c-0.9,2.3-0.5,4.9-0.8,7.4c-0.2,1.6-0.8,3.1-1.2,4.8c-0.5,1.6-0.4,3.3,0.2,4.8c0.9,1.7,2.6,2.9,4.5,3c1.9,0.1,3.8-0.6,5.2-1.8
			c1.4-1.3,2.5-2.9,3.1-4.7c-3.8-3.3-5.3-8.7-3.7-13.5L1585,261.5z"/>
		<path class="st39" d="M1604.5,258.5c-3.5-0.4-7-0.6-10.5-0.7c-2.1-0.1-4.2,0.3-6.1,1.3c-2.7,1.7-4.1,4.8-3.7,8
			c0.4,3.1,1.9,6.6,4.5,8.3s2.6,2.3,3.7,2.5c0.3-2.5,2.3-2,4.6-4.1c-0.3-0.5-0.5-1.1-0.7-1.7c-0.3-0.7-0.4-1.5-0.3-2.3
			c0.1-0.8,0.8-1.4,1.6-1.5c0.6,0,1.7,0.8,2.3,1.4c0.3-0.5,0.5-1.1,0.8-1.8c0.6-1.5,2.2-2.4,3.2-3.8
			C1605.1,262.5,1605.3,260.4,1604.5,258.5z"/>
		<path class="st33" d="M1584,267.1c-0.1-1.9,0.4-3.8,1.3-5.4c-1.7,0.6-2.6,2.5-2,4.3C1583.4,266.4,1583.7,266.8,1584,267.1z"/>
		<path class="st39" d="M1625.1,455.6c-0.5-0.3-1-0.6-1.6-0.8l-3-1.4c-0.1,0.3-0.3,0.6-0.6,0.8c-5.2,1.6-10.5,3-15.1-2.2
			c0,0.2-0.4,0.9-0.5,1.1c-0.3,1.1-0.3,2.6,0.6,3.3c0.9,0.4,1.9,0.8,2.9,1c2.8,0.4,4,0.1,6.7,0.4c2.2,0.4,4.4,0.6,6.6,0.7
			c1.2,0,4.6-0.2,4.8-1.4C1625.9,456.5,1625.6,455.9,1625.1,455.6z"/>
		<path class="st37" d="M1614.3,450c-1.5-0.9-2.2-2.6-2-4.3c0-1,0-2-0.1-3c2.8-29.5,5-58.6,7.8-88.1h-26.8c0,6.5,1.6,13,3,19.4
			c2.2,10.2,3.5,15.6,5,26c0.3,2.4-0.7,15.8-0.4,18.2c1.4,11.2,4.4,16.5,4.7,27.7c-0.1,2.2-0.4,4.4-0.9,6.6
			c4.6,5.2,11.2,4.1,15.7,1.8c0.2-0.2,0.3-0.4,0.4-0.6C1618.5,452.7,1616.4,451.5,1614.3,450z"/>
		<path class="st41" d="M1614,400.8c0.1-0.7,0.6-1.3,1.3-1.6c0.3-0.1,0.6-0.3,0.9-0.5c1.3-14.7,2.5-29.4,3.9-44.2h-26.8
			c0,6.5,1.6,13,3,19.4c2.2,10.2,3.5,15.6,5,26c0.3,2.4-0.7,15.8-0.4,18.2c1.4,11.2,4.4,16.5,4.7,27.7c-0.1,2.2-0.4,4.4-0.9,6.6
			c1.1,1.3,2.5,2.3,4,2.9C1606.9,437.2,1611.1,419,1614,400.8z"/>
		<path class="st39" d="M1619.9,460.8c-0.5-0.3-1-0.6-1.6-0.8l-3-1.4c-0.1,0.3-0.3,0.6-0.6,0.8c-5.2,1.6-10.5,3-15.1-2.2
			c-0.1,0.2-0.4,0.9-0.5,1.1c-0.3,1.1-0.4,2.6,0.6,3.3c0.9,0.4,1.9,0.8,2.9,1c2.8,0.3,4,0.1,6.7,0.4c2.2,0.4,4.4,0.6,6.6,0.7
			c1.2,0,4.5-0.2,4.8-1.4C1620.7,461.8,1620.4,461.2,1619.9,460.8z"/>
		<path class="st38" d="M1609.1,455.3c-1.4-0.9-2.2-2.6-2-4.3c0-1,0-2-0.1-3c2.8-29.5,5-58.6,7.8-88.1H1588c0,6.5,1.6,13,3,19.4
			c2.2,10.2,3.5,15.6,5,26c0.3,2.4-0.7,15.8-0.4,18.2c1.4,11.2,4.4,16.5,4.7,27.7c-0.1,2.2-0.4,4.4-0.9,6.6
			c4.6,5.2,11.2,4.1,15.7,1.9c0.2-0.2,0.3-0.4,0.4-0.6C1613.3,457.9,1611.1,456.7,1609.1,455.3z"/>
		<path class="st37" d="M1615.5,458.9c-2.3-1-4.4-2.2-6.4-3.6c-1.4-0.9-2.2-2.6-2-4.3c0-1,0-2-0.1-3c2.8-29.5,5-58.6,7.8-88.1H1588
			c0,6.5,1.6,13,3,19.4c2.1,9.6,3.3,15,4.7,24.2c3.9-2.5,8.7-4.7,9.5-2.2c6.1,20.1-5.3,41.8,3,60.2c2.4-0.1,4.8-0.8,6.9-1.9
			C1615.3,459.4,1615.5,459.1,1615.5,458.9z"/>
		<path class="st41" d="M1611.3,399c1.1-13,2.2-26.1,3.5-39.2h-26.8c0,6.5,1.6,13,3,19.4c1.9,8.9,3.1,14.1,4.4,22.2
			C1600.4,399,1605.9,398.2,1611.3,399z"/>
		<path class="st36" d="M1620.6,397.7c0.2-8.9,1.1-33.1,1-44.1c-0.1-4.2-0.9-8.4-2.2-12.3c-1.1-3.6-1.6-4.9-2.8-8.6
			c-8.4,1.5-17.1,1.1-25.3-1.4c-0.3,13.5-1.8,11.5-3,17.1c-0.5,2.5-1.2,3-1.5,7.5c-0.7,9.5,6.1,25.6,5.4,42L1620.6,397.7z"/>
		<path class="st39" d="M1618.8,338.6c-0.7-2-0.7-4.3-1-6.4c-9,0.7-18.1-0.4-26.7-3c0.3,3,0,6.1-0.7,9.1c2.7,2.3,6.7,2.3,10.2,2.9
			C1610.9,343.1,1612.9,341.6,1618.8,338.6z"/>
		<path class="st33" d="M1616.6,332.7c-1.8-5.8-3-11.6-2-17.5c0.7-3.8,2.3-7.5,1.6-11.3c-0.5-2.5-1.9-4.9-3.2-7.2
			c-2.2-3.9-6.3-6.3-10.8-6.3h-10.5l-1.8,0.2c-1.5,0.1-3.1,0.4-4.4,1.1c-2.8,1.7-2.8,5.4-2,8.3c1.5,5.6,4.8,10.8,6.4,16.4
			c1.4,4.9-1.7,12.4,1.3,14.9C1599.4,333.7,1608.1,334.2,1616.6,332.7z"/>
		<path class="st37" d="M1616.6,332.7c-1.8-5.8-3-11.6-2-17.5c0.7-3.8,2.3-7.5,1.6-11.3c-0.5-2.5-1.9-4.9-3.2-7.2
			c-2.2-3.9-6.3-6.3-10.8-6.3h-10.5l-1.8,0.2c-0.5,0.1-1.1,0.1-1.6,0.2c0.2,3.6,1.3,7.7,3.9,10.3c4,4,13,6,12,11
			c-1.5,8.3-0.4,15.4,2.3,21.4C1609.9,333.5,1613.3,333.2,1616.6,332.7z"/>
		<path class="st4" d="M1595.6,287.4c3.7,4.4,10,7,12.5,11.9c1.5,3,1.3,6.3,0.6,9.5c-0.7,3.2-1.8,6.3-2.1,9.5
			c-0.3,3.2,0.2,6.6,2.6,9.1c0.8,0.9,1.9,1.6,3.1,1.8c1.2,0.3,2.5-0.1,3.4-1c0.8-0.9,0.5-2.2,0.3-3.3c-0.9-5.2-0.1-10.6-0.1-15.9
			c-0.1-5.3-1.2-10.9-5.4-14.9c-2.6-2.5-6.2-4.2-8.2-7C1600.1,287.6,1597.9,287.7,1595.6,287.4z"/>
		<path class="st39" d="M1616.1,325c-0.9-5.2-0.1-10.6-0.1-15.9c-0.1-5.3-1.2-10.9-5.4-14.9c-2.6-2.5-6.2-4.2-8.2-7
			c-0.3,0.1-0.7,0.1-1.1,0.2c3.1,5.4,8.6,9.6,11.5,14.8c3.7,8.2,2.9,17.5,2.1,26.9c0.3-0.2,0.6-0.4,0.9-0.7
			C1616.5,327.4,1616.3,326.2,1616.1,325z"/>
		<path class="st39" d="M1585.9,296c0.9,3.4,4.2,6,7.9,7.1s7.4,3.9,11.1,2.9s3.7-5.6,7.2-7.2C1602.2,300.8,1595.6,299.2,1585.9,296z
			"/>
		<path class="st39" d="M1592.3,309c0.8,1.5,1.6,3,2.3,4.5c2.6,5.9,4,12.1,4.3,18.5h0.6c-0.2-6.5-1.7-12.8-4.3-18.7
			c-0.7-1.5-1.5-3-2.3-4.5c-1.5-2.6-2.7-5.3-3.7-8.1c-0.1-0.1-0.2-0.2-0.4-0.2c-0.1,0-0.2,0.2-0.2,0.3c0,0,0,0,0,0
			C1589.6,303.7,1590.8,306.4,1592.3,309z"/>
		<path class="st4" d="M1592.8,285.3c1.8-0.2,3.7-0.3,5.5-0.4c1.1-0.2,2.3-0.1,3.4,0.3c2,0.8,2.9,3.2,3.6,5.3
			c-4.3-0.2-10.5,1-17.8,0.8c0.3-1.3,1.4-4.5,2.6-5.2C1591,285.5,1591.9,285.3,1592.8,285.3z"/>
		<path class="st37" d="M1657.6,279.6c0.1-0.5,0.7-1,1.1-1.3c0.3-0.2,0.5-0.4,0.7-0.7c0.3-0.4,0.7-1.2,0.4-1.6c-2,0.4-2,1.6-4,2.3
			c-0.6,0.2-1,0.7-1.1,1.3c-0.4,2.2-1.7,3.5-3.5,4.8l-2.5,1.1c0.4,1.3,1.2,3.2,1.6,4.4c2.4-0.8,3.3-1.8,5.6-2.5
			c0.6-0.1,2.4-0.3,3.2-0.4c0.7-0.1,1.4-0.4,1.9-0.9c0.8-0.7,1.5-1.2,0.9-2c0.5-0.5,1-0.7,1.1-1.1s0-0.7-0.3-1
			c0.3-0.2,0.5-0.6,0.5-1c-0.2-0.5-0.5-0.9-1-1.1c1.1-0.5,2.3-1,3.5-1.4c1-0.5,2-0.5,2.2-1.7
			C1664.2,277.5,1660.8,278.4,1657.6,279.6z"/>
		<path class="st33" d="M1653.3,282.3c-14.6,6.3-31.3,8.1-47.1,6.1c-3.7-0.6-7.5-0.9-11.2-0.8c-3.5,0.2-7.6,1.3-9.8,4.3
			c-0.5,0.6-0.8,1.4-0.9,2.1c-0.4,3.4,3,7.1,5.7,7.9c10,2.9,21,0.6,31.2-1.2s18-4.6,27.7-8.6c2.5-1.1,4.9-2.4,7.3-3.7
			C1655.2,286.7,1654.2,283.8,1653.3,282.3z"/>
		<path class="st4" d="M1653.3,281.9c-1.4,0.6-2.8,1.1-4.2,1.6c0.9,2.5,1.6,5.1,2.1,7.7c1.7-0.8,3.6-1.8,5.2-2.8
			C1655.4,286.7,1654.3,283.6,1653.3,281.9z"/>
		<path class="st39" d="M1650.6,288.1c-16.2,8.3-34.6,11.3-52.5,8.3l-0.5-0.1c-1.4-0.3-2.8-0.4-4.2-0.4c-1.6,0-3.2,0.6-4.4,1.7
			c-0.1,0.1-0.1,0.3,0,0.4c0.1,0.1,0.3,0.1,0.4,0c1.1-1,2.5-1.5,4-1.5c1.3,0,2.7,0.1,4,0.4l0.5,0.1c4.5,0.8,9.1,1.1,13.6,1.1
			c13.6,0,26.9-3.2,39-9.4V288.1z"/>
		<path class="st4" d="M1619.9,335.1l-10.2-0.6c-0.7,0-1.3-0.6-1.2-1.4c0-0.1,0-0.2,0-0.3l8.9-30.7c0.2-0.7,0.9-1.1,1.6-0.9
			c0.1,0,0.1,0,0.2,0.1l10.7,4.5c0.6,0.3,1,1,0.7,1.6l-9.3,26.8C1621,334.8,1620.5,335.2,1619.9,335.1z"/>
		<path class="st39" d="M1621,335.8l-11.4-0.6c-0.4,0-0.7-0.4-0.7-0.8c0-0.1,0-0.1,0-0.2l9.2-32.1c0.1-0.4,0.5-0.6,0.9-0.5
			c0,0,0.1,0,0.1,0l11.9,5c0.3,0.1,0.5,0.5,0.4,0.9l-9.7,27.7C1621.6,335.6,1621.3,335.8,1621,335.8z"/>
		<path class="st38" d="M1631.3,319.1c-0.1-0.3-0.2-0.6-0.3-1c0,0,0-0.1,0-0.1c-0.2-0.6-0.3-1.1-0.3-1.7c0.2-0.6,0.4-1.1,0.3-1.8
			c-0.1-0.2-0.1-0.5-0.3-0.7c-0.5-1-1-2.1-1.5-3.1c-0.9,0.3-1.4,1.2-1.2,2.1c0.2,0.6,0.6,1,0.8,1.6c0.1,0.2,0.1,0.4,0.1,0.6
			c-0.1,0.6-0.3,1.2-0.5,1.8c-0.9-0.2-1.9-0.4-2.8-0.5c-0.2-0.1-0.4-0.1-0.6,0c-0.2,0.1-0.4,0.2-0.4,0.5c0,0.2,0.3,0.4,0.5,0.5
			l2.6,1.1l-0.1,0.2l-3.3-0.7c-0.4-0.1-1-0.1-1.3,0.2c-0.2,0.3-0.2,0.6,0,0.9c0.2,0.2,0.4,0.4,0.7,0.6c-0.2,0-0.3,0-0.5,0.1
			c-0.2,0.2-0.3,0.5-0.2,0.8c0.2,0.4,0.6,0.8,1,1l2.2,1.2l-0.3,1.1l-2.9,1.4c-0.2,0.1-0.3,0.2-0.4,0.4c0,0.2,0.1,0.4,0.3,0.4
			c0.2,0,0.4,0,0.6,0c0.6-0.1,1.2-0.2,1.8-0.3l0,0h0.2l0.6-0.1l0.2-0.1c0.4-0.1,0.8-0.2,1.3-0.4l1-0.4c0.8-0.2,1.6-0.6,2.2-1.2
			C1631.9,322.3,1631.7,320.6,1631.3,319.1z M1626,320.1c0.4,0.1,0.8,0.1,1.1,0.2l-0.1,0.3C1626.7,320.5,1626.4,320.3,1626,320.1
			L1626,320.1z"/>
		<path class="st38" d="M1389.8,467.9c-3.4-1.8-3.5-1.5-6.3-4.5l-1.6-1.4c-2-2.1-2.6-4.9-2.7-8.1c-1.9-41.4,3.1-53.9-0.1-57.2
			c-3.2,0.5-6.5-0.1-9.6,1.4c-0.8,0.4-1.5,1-2.1,1.7c-1.9,2-3,4.6-3.2,7.4c-0.6,6.2,0.7,17.3,2.4,23.2c2.3,7.9,4.3,16,5.8,24.1
			c0.4,2.1,0.4,4.3-0.1,6.4c-0.4,1.6-0.7,3.3-0.8,5c0,2.4,0.5,3.2,2.5,3.8c2.3,0.6,3.1,0,4.5,0.4c1.2,0.4,2.4,1,3.4,1.7
			c3.3,1.9,4.8,0.8,8.5-0.1c1.7-0.4,3.1-1.9,1.4-2.8L1389.8,467.9z"/>
		<path class="st37" d="M1380.2,402.9c0.1-3.3-0.1-5.2-1.1-6.2c-3.2,0.5-6.5-0.1-9.6,1.4c-0.8,0.4-1.5,1-2.1,1.7
			c-1.9,2-3,4.6-3.2,7.4c-0.6,6.2,0.7,17.3,2.4,23.2c2.3,7.9,4.3,16,5.8,24.1c0.4,2.1,0.4,4.3-0.1,6.4c-0.4,1.6-0.7,3.3-0.8,5
			c0,2.4,0.5,3.2,2.5,3.8c0.5-2.2,0.9-4.4,0.9-6.6C1375.8,444.2,1366,419.9,1380.2,402.9z"/>
		<path class="st41" d="M1377.2,406.9c0.9-0.9,1.9-1.7,3-2.3c0.2-4.3,0.1-6.7-1-7.9c-3.2,0.5-6.5-0.1-9.6,1.4
			c-0.8,0.4-1.5,1-2.1,1.7c-1.9,2-3,4.6-3.2,7.4c-0.6,6.2,0.7,17.3,2.4,23.2c0.5,1.7,0.9,3.3,1.3,4.7
			C1369.6,425,1368.9,413.6,1377.2,406.9z"/>
		<path class="st41" d="M1391.8,468.9l-2-1l-2.3-1.2c-0.6,0.9-1.4,1.6-2.4,2.1c-5.8-0.8-10.8-0.7-13.5-5c-0.3,0.6-0.4,1.3-0.4,1.9
			c0,2.4,0.5,3.5,2.5,4c2.3,0.6,3.3,0.1,4.7,0.5c1.2,0.4,2.4,0.9,3.5,1.7c3.3,1.9,4.7,0.8,8.4-0.1
			C1392,471.4,1393.4,469.8,1391.8,468.9z"/>
		<path class="st38" d="M1364.9,469.7c0,0-0.7-5.7-1.2-7.8c0.6-23,6.5-59.3,4.4-66.3c-5.8,0.4-10.3,2.8-16.1,2.4
			c-2,21.9,3.9,48.5,4.9,65.5c-0.5,3.1-0.8,4.8-2.3,7.4c-0.5,0.8-1.1,1.5-1.6,2.4c-0.3,0.9-0.4,1.8-0.3,2.8c0.1,1.9,0.7,3.7,1.7,5.3
			c0.8,1.4,2,1.2,3.3,1.2c1.7-0.1,3.3-0.7,4.5-1.9c1.9-1.9,3-4.5,3-7.1C1365.2,472.2,1365.1,470.9,1364.9,469.7z"/>
		<path class="st37" d="M1354.6,470.9c-0.5,0.8-1.1,1.5-1.5,2.4c-0.3,0.9-0.4,1.8-0.3,2.8c0.1,1.2,0.3,2.3,0.8,3.4
			c1.2-3.8,2-7.7,2.5-11.7C1355.7,468.9,1355.2,469.9,1354.6,470.9z"/>
		<path class="st37" d="M1358.8,414.1c0.9-2.7,4.9-5.3,9.3-5.2c0.5-6.4,0.6-11.2,0-13.3c-5.8,0.4-10.3,2.8-16.1,2.4
			c-1.8,20.5,3.2,45,4.7,62C1357.4,445.2,1355.5,429.5,1358.8,414.1z"/>
		<path class="st41" d="M1368.2,408c0.4-5.9,0.5-10.4-0.1-12.4c-5.8,0.4-10.3,2.8-16.1,2.4c-0.3,3-0.4,6.1-0.4,9.3
			C1357,408.8,1362.7,409.1,1368.2,408z"/>
		<path class="st41" d="M1355.2,476.1c-1.6-0.5-1.5-2.5-1.2-4.2c-0.3,0.5-0.6,0.9-0.9,1.4c-0.3,0.9-0.4,1.8-0.3,2.8
			c0.1,1.9,0.7,3.7,1.7,5.3c0.8,1.4,2,1.2,3.3,1.2c1.7-0.1,3.3-0.7,4.5-1.9c1.9-1.9,3-4.5,3-7.1c-0.1-1.3-0.2-2.6-0.4-3.8
			c0,0,0-0.1,0-0.3C1363.7,475.1,1361.9,477.7,1355.2,476.1z"/>
		<path class="st39" d="M1382.2,401.1c1.6-14.6,1.1-28.4,0.8-43.2c-12.5,0.5-25-0.9-37-4.2c-2.3,8.3-0.6,17.4,1.5,25.8
			c2.1,8.4,4.5,17,3.7,25.7C1363.2,409.3,1377.4,402.8,1382.2,401.1z"/>
		<path class="st41" d="M1345.9,353.6c-1.2,4.6-1.4,9.4-0.8,14.1c12,0.4,25.5,0.5,38-2.4c0-2.5-0.1-4.9-0.2-7.4
			C1370.5,358.4,1358,357,1345.9,353.6z"/>
		<path class="st33" d="M1394.6,314.7l-4.9-11.6c-2.5-5.9-3.8-9.8-7.2-15.2l-1.7-0.2c-2.5,0.1-5.2,3.1-5.6,5.5
			c-0.4,2.4,0.4,4.9,1.2,7.2l3.7,11.1c0.8,2.6,1.8,5,3,7.4c1.2,2.4,3.1,4.4,5.3,5.8c1.4,0.9,3.2,1.2,4.8,0.8
			c1.9-0.7,2.9-2.9,2.9-4.9C1396.1,318.5,1395.5,316.5,1394.6,314.7z"/>
		<path class="st41" d="M1379.3,288.1c-2.1,1-3.6,2.9-4.1,5.2c-0.3,2.4,0.4,4.9,1.2,7.2l3.7,11.1c0.7,2.6,1.7,5.1,3,7.4
			c1.4,2.3,3.2,4.2,5.3,5.8c1.4,1,3.2,1.3,4.8,0.8l0.1-0.1c-0.4-0.6-0.7-1.1-1-1.7C1385.6,312.9,1391.1,300.8,1379.3,288.1z"/>
		<path class="st33" d="M1391.3,325.3c2.2,0.2,4.2-0.8,5.5-2.6c1.2-1.8,2.1-3.7,2.7-5.7c2.3-6.6,5.3-13,9-19
			c-1.7-3.2-4.9-2.8-7.1-4.2c-3.9,5.7-7.3,11.4-11,17.2c-1.5,2.4-3.1,4.9-3.3,7.8S1388.5,324.9,1391.3,325.3z"/>
		<path class="st41" d="M1407.2,297.6c-0.1-0.3-0.3-0.5-0.6-0.7c-1.6-1.2-3.4-2-5.3-2.3c-0.2,2.4,0.7,4.9,2.3,6.7
			c0.7-0.1,1.4-0.4,1.9-0.9c0.5-0.5,0.9-1.1,1.3-1.7C1407.1,298.4,1407.2,298,1407.2,297.6z"/>
		<path class="st38" d="M1417.2,289.5c-0.1-0.2-0.4-0.2-0.6-0.2c-0.2,0-0.4,0.1-0.6,0.2l-3.1,1.8l-0.2-0.1c1.3-0.9,2.6-1.8,3.8-2.7
			c0.1-0.1,0.3-0.2,0.4-0.4c0.1-0.2,0.1-0.4,0-0.5c-0.1-0.2-0.3-0.3-0.5-0.2c-0.2,0-0.4,0.1-0.6,0.2c-1.6,0.8-3.1,1.7-4.5,2.6
			l-0.2-0.1l4.4-3.2c0.2-0.2,0.5-0.4,0.4-0.7c-0.1-0.2-0.2-0.3-0.4-0.3c-0.2,0-0.4,0-0.5,0.1c-2.1,0.9-4.1,2-5.9,3.3h-0.1
			c1.4-1.1,3-2,4.3-3.2c0.1-0.1-0.1-0.6-0.2-0.8s-0.3-0.1-0.4,0c-1.4,0.6-2.8,1.4-4,2.3c-0.7,0.6-1.4,1-2.2,1.5c-0.3,0-0.6,0-0.8,0
			c-0.6-0.1-0.9-0.1-1.1-0.6c-0.2-0.5-0.3-0.9-0.3-1.4c0-0.5-0.9-2.3-1.4-2.3c-0.5,0-0.8,1.5-0.7,2c0.1,0.7,0.3,1.3,0.6,2
			c0.4,1,0.4,2.2,0.1,3.2c-0.4,1.2-0.6,2.5-0.6,3.8c0,1.3,0.6,2.5,1.7,3.2c0.3,0.2,0.7,0.3,1,0.2c0.3-0.1,0.6-0.3,0.8-0.5
			c0.5-0.5,1.1-1,1.7-1.5c2.3-1,4.4-2.3,6.2-4c1.2-0.7,2.4-1.5,3.4-2.5c0.1-0.1,0.3-0.3,0.4-0.5
			C1417.3,289.9,1417.3,289.7,1417.2,289.5z"/>
		<path class="st37" d="M1405.4,290.1c0,0.1,0,0.3,0.1,0.4c0.5,1,0.6,2.1,0.3,3.2c-0.1,0.2-0.1,0.4-0.1,0.7c0,0.2,0.1,0.5,0.3,0.6
			c0.2,0.1,0.5,0.1,0.7-0.1l4.1-1.6c0.2-0.4,0.1-0.8-0.2-1.1c-0.3-0.3-0.6-0.6-0.8-0.9c-0.1-0.2-0.1-0.4-0.3-0.5
			c-0.2-0.2-0.4-0.3-0.6-0.3l-1-0.3c-0.7-0.3-1.5-0.4-2.2-0.2C1405.5,289.9,1405.4,290,1405.4,290.1z"/>
		<path class="st33" d="M1346.3,287.5c1.3-1.7,3.4-2.5,5.4-3.1c8.8-2.6,18.2-2.1,26.7,1.3c1.6,0.5,3,1.5,3.9,2.9
			c1.2,2,0.6,4.5,0.7,6.8c0.3,5.3,3.8,10.1,2.2,15.2c-1.1,3.4-3.7,5.8-5.5,8.9c-1.4,2.7-1.9,5.8-1.4,8.8c0.5,3,1.1,5.9,2,8.8
			c2.2,8.5,4.5,14,4.3,25.1c-13.3,0.1-28.1,2.2-41.6,1.2c-1.3-10.1,4.9-20.6,6.3-30.8c1.9-13-5-25.8-4.7-39
			C1344.8,291.4,1345.1,289.2,1346.3,287.5z"/>
		<path class="st40" d="M1363.9,283.6c2.2,3.6,3.6,7.6,4.2,11.8c0.8,5,0.3,10.2-0.1,15.3l-2,22.3l10.9,0.2c5.1-16.6,3.3-34.6-5-49.9
			L1363.9,283.6z"/>
		<path class="st41" d="M1376.2,324.1c0-6.7-0.4-13.4-1.1-20.1c-0.7-6.7-2.6-13.2-5.4-19.2l0.4-0.2c2.9,6.1,4.7,12.7,5.5,19.4
			c0.7,6.7,1.1,13.4,1.2,20.1L1376.2,324.1z"/>
		<path class="st36" d="M1347.5,355.4c9.4-4.3,21.7-1.5,32.5-0.7c0-5.8,1.4-12.3-2.2-17.3c-5.1-8-15.2-10.8-20.2-18.8
			c-3.6-6.5,2.9-13-0.7-19.5c-2.4-4.8-6.7-8.5-11.9-10.1c-0.2,1-0.3,2.1-0.3,3.1c-0.2,13.1,6.6,26,4.7,39
			c-1.3,9.4-6.8,19.1-6.5,28.5C1344,357.7,1345.6,356.3,1347.5,355.4z"/>
		<polygon class="st41" points="1378.3,353.8 1351.3,353.1 1358.7,310.9 1385.7,311.6 		"/>
		<polygon class="st4" points="1380.8,350.9 1353.9,351 1353.5,350.1 1360.9,308 1388,308.7 1388.3,309.5 		"/>
		<polygon class="st39" points="1380.9,351.7 1353.9,351 1361.4,308.9 1388.4,309.5 		"/>
		<path class="st41" d="M1355.9,339.7c6.4,4.8,13.4,8.8,20.9,11.9l4.1,0.1l1.7-9.4c-8.8-3.4-17.1-8-24.7-13.7L1355.9,339.7z"/>
		<path class="st38" d="M1372.9,282.5c-0.8-3.3-1.2-6.8-1.3-10.2c-2.8,0.3-5.7,0.1-8.4-0.7c-0.3,3.7-1.4,7.3-3.2,10.6
			C1364.5,284.2,1368.9,284.5,1372.9,282.5z"/>
		<path class="st37" d="M1363.2,271.6c-0.3,3.7-1.4,7.3-3.2,10.6c2.5,1.1,5.2,1.7,8,1.6c-2-3.7-3.3-7.8-3.7-12
			C1363.9,271.8,1363.5,271.7,1363.2,271.6z"/>
		<path class="st40" d="M1358.8,281.6c0.2-0.3,0.7-0.3,0.9-0.5c0.1-0.2,0.2-0.4,0.2-0.6c0-0.2,0.1-0.4,0.2-0.6
			c0.1-0.2,0.4-0.2,0.6-0.1c0.9,0.8,2.1,1.3,3.3,1.4c2.6,0.5,5.4,0.4,7.9-0.4c0.2-0.1,0.5-0.1,0.7-0.1c0.2,0,0.5,0.1,0.6,0.3
			c0.2,0.3,0,0.7,0.1,1s0.3,0.3,0.4,0.5c0.1,0.2,0,0.5-0.1,0.6c-0.2,0.2-0.3,0.3-0.5,0.4c-2.7,1.2-5.6,1.6-8.5,1.1
			c-1.2-0.1-2.3-0.4-3.4-0.9c-0.7-0.3-1.3-0.7-1.9-1.2c-0.2-0.1-0.3-0.3-0.4-0.5C1358.7,282,1358.7,281.8,1358.8,281.6z"/>
		<path class="st41" d="M1364.1,271.8c0.3,4.6,3.9,7.1,8.3,8.2c-0.5-2.5-0.8-5.1-0.8-7.7C1369.1,272.6,1366.6,272.5,1364.1,271.8z"
			/>
		<path class="st39" d="M1369.3,255.9c0.6-1.3,1.7-2.3,3-2.8c1.4-0.7,3-0.6,4.4,0.1c1.7,1.1,2.4,3.2,1.9,5.1
			c-0.6,1.9-1.7,3.6-3.3,4.7c-0.4,0.3-0.8,0.5-1.2,0.7c-0.8,0-1.6-0.3-2.2-0.8c-1.1-0.8-1.9-1.9-2.5-3.1
			C1368.9,258.5,1368.8,257.1,1369.3,255.9z"/>
		<path class="st38" d="M1370.8,253.9c1.3,0.1,2.5,0.5,3.6,1.1c1.2,0.9,1.9,2.3,2,3.8c0.1,2.1-0.6,3-0.5,3.7c0,0.4,0.1,0.9,0.3,1.3
			c0.8,2.1,0.9,4.5,0.2,6.6c-0.7,1.7-1.7,3.2-2.6,4.9c-0.2,0.5-0.8,0.9-1.3,0.9c-3.4,0-6.7-1.1-9.3-3.1c-2.9-2.3-4.5-5.8-4.5-9.5
			c0.1-3.7,2.3-7.1,5.6-8.8C1366.3,253.9,1368.6,253.6,1370.8,253.9z"/>
		<path class="st37" d="M1373.8,257.1c0.9,1.1,1.7,2.2,2.5,3.4c0-0.2,0.1-0.3,0.1-0.5c0.2-1.3-0.7-4.1-1.8-4.9
			c-1.1-0.7-2.4-1.1-3.8-1.2c-2.2-0.3-4.5,0-6.6,0.8c-2.5,1.2-4.4,3.4-5.2,6.1c1.2,0.9,2.4,1.7,3.8,2.3
			C1367.8,265.1,1370.8,260.1,1373.8,257.1z"/>
		<path class="st39" d="M1362.1,250.7c-2.5,0.7-5.3,1.9-6.4,4.3c-3.7,7.9-2,10.7-0.3,12.5c0,0.5,0.2,1.1,0.5,1.5
			c1.2,2.2,5.3,2.9,6.9,4.9c1.2-1.1-0.1-2.9,0.4-4.5c0.4-1.4,0.9-4,1.8-5.1c2.6-1.2,4.6-2.8,5.7-5.4c0.5-1.3,1-2.6,1.7-3.9
			c0.7-1.3,2-2.1,3.4-2.2C1375.4,248.3,1366.6,249.3,1362.1,250.7z"/>
		<path class="st38" d="M1363.6,264.4c-0.5-0.4-0.9-0.8-1.2-1.4c-0.2-0.4-0.4-0.8-0.8-0.8c-0.7,0-1.3,0.4-1.5,1
			c-0.3,0.6-0.4,1.3-0.5,2c0.1,1,0.4,2,0.8,2.9c0.1,0.5,0.4,0.9,0.7,1.3c0.5,0.5,2.4,0.1,2.9-0.4L1363.6,264.4z"/>
		<path class="st38" d="M1371.7,336.5c1,0.7,2.2,1,3.4,0.7c1.2-0.2,2.3-0.6,3.5-0.8c1.2-0.3,2.5-0.1,3.7,0.4
			c0.2,0.2,0.3,0.5,0.2,0.7c-0.1,0.2-1,0.5-1.2,0.6c-0.7,0.2-1.2-0.1-1.8,0.1c-0.5,0.3-0.7,0.8-0.5,1.3c0.1,0.2,0.3,0.3,0.4,0.4
			c0.7,0.3,1.4,0.5,2.2,0.6c0.6,0.1,1.8-0.1,2.2,0.3c0.4,0.4,0.2,1.5,0.1,2.2c-0.2,1.3-0.2,2.1-1.1,3.1c-1.2,1.2-3.9,1.5-5.6,1.1
			c-3-0.9-5.7-2.6-7.9-4.9L1371.7,336.5z"/>
		<path class="st33" d="M1368.8,344.1c-8.6-5.3-17.7-9.2-24.6-16.4c-1.2-1.2-2.3-2.5-3.2-3.9c-0.6-1.6-1-3.3-1-5
			c-0.4-3.9,0.4-7.6,0.7-11.4c0.2-4,0.7-8.1,1.5-12c0.8-3.3,1.7-7,4.1-9.5c1.8-1.8,3.3-1.4,5,0.5c1.9,2.2,2.5,5.4,2.8,8.3
			c0.5,6.1,0.1,12.3-1.2,18.3c-0.4,1.8-0.9,3.8-0.3,5.5c0.6,1.6,1.6,2.9,2.9,4c5.4,5.1,11.3,9.6,17.8,13.3
			C1371.4,338.1,1370.7,341.7,1368.8,344.1z"/>
		<path class="st41" d="M1352.2,317.6L1352.2,317.6c-0.2,0-0.3-0.2-0.2-0.3c1.7-7,3-14.5,1.8-22.6c0-0.1,0.1-0.3,0.2-0.3
			c0.1,0,0.3,0.1,0.3,0.2l0,0c1.3,8.2-0.1,15.8-1.8,22.8C1352.4,317.6,1352.3,317.6,1352.2,317.6z"/>
		<path class="st41" d="M1373.1,336c-0.1,0-0.1,0-0.2,0c-1.2-0.8-2.5-1.7-3.7-2.5c-6-4-12.2-8-16.3-13.5c-0.1-0.1-0.1-0.3,0-0.4
			s0.3-0.1,0.4,0c4.1,5.4,10.2,9.5,16.2,13.4c1.3,0.8,2.5,1.7,3.8,2.5c0.1,0.1,0.1,0.2,0.1,0.4C1373.3,336,1373.2,336,1373.1,336z"
			/>
		<path class="st41" d="M1368.7,344.3c-0.1,0-0.2,0-0.2-0.1c-0.1-0.1-0.1-0.3,0-0.4c1.1-1.1,1.9-2.5,2.2-4l0-0.2
			c0.4-1.5,1.1-2.9,2.2-4.1c0.1-0.1,0.3-0.1,0.4,0c0.1,0.1,0.1,0.3,0,0.4c0,0,0,0,0,0c-0.9,1.2-1.6,2.5-2,4l-0.1,0.2
			c-0.4,1.6-1.2,3-2.4,4.2C1368.8,344.3,1368.8,344.3,1368.7,344.3z"/>
		<path class="st41" d="M1365.6,342.6h-0.1c-0.1-0.1-0.2-0.2-0.1-0.4c1.2-2.3,2.2-4.6,3-7.1c0-0.1,0.2-0.2,0.3-0.2c0,0,0,0,0,0
			c0.1,0,0.2,0.2,0.2,0.3c-0.8,2.5-1.8,4.9-3.1,7.2C1365.8,342.5,1365.7,342.6,1365.6,342.6z"/>
		<path class="st37" d="M978.3,327.3c0.1-0.2,0.1-0.4,0-0.5c-0.1-0.5-0.1-1-0.2-1.5c-0.1-0.5-0.2-1.1-0.7-1.2
			c-0.5-0.1-0.9,0.3-1,0.7c-0.1,0.5,0.1,1,0.4,1.3c0.1,0.2,0.2,0.4,0.1,0.5s-0.3,0.1-0.4,0.1c-0.3,0.1-0.5,0.3-0.6,0.5
			c-0.1,0.3-0.1,0.5-0.1,0.8c0,0.5,0,1,0.1,1.5c0.1,0.5,0.4,0.9,0.9,1.1c0-0.4,0-0.8,0.3-1c0.4-0.2,0.8,0,1-0.3
			c0.3-0.4-0.5-1-0.3-1.5C977.8,327.5,978.1,327.4,978.3,327.3z"/>
		<path class="st37" d="M1001.1,327.2c0.9,0.3,1.5,1,1.9,1.9c0.3,0.9,0.4,1.8,0.3,2.7c1.6-1.5,3.6-2.4,5.7-2.6
			c0-0.6-0.1-1.2-0.2-1.8c-0.2-0.6-0.6-1.1-1.1-1.4c-0.6-0.3-1.3-0.2-1.8-0.5c-0.3-0.2-0.5-0.4-0.8-0.5c-0.6-0.1-1.2,0.1-1.5,0.6
			C1002.7,326.1,1001.9,326.7,1001.1,327.2z"/>
		
			<linearGradient id="SVGID_8_" gradientUnits="userSpaceOnUse" x1="-222.1045" y1="331.8501" x2="-190.4387" y2="331.8501" gradientTransform="matrix(-1 0 0 -1 579 668)">
			<stop  offset="0" style="stop-color:#E1B1B7"/>
			<stop  offset="1" style="stop-color:#E7CDB9"/>
		</linearGradient>
		<path class="st43" d="M795,333.4c0,0-14.2,17.6-20.7,16c0,0-5.2-3.8-4.8-7.3s7.2-3.5,7.2-3.5s14.2-3.8,17.6-7.8
			c0-1.2,0.2-2.3,0.5-3.4c0.5-1.2,0-4.6,0-4.6h0.2c0.5,0,1.5,2.5,1.5,3.1s1.5-0.6,1.5-0.6v-1.9c0,0,1.5,0.6,1.7,1.5s2,3.7,1.5,4.3
			c-0.5,0.6-1.7,4.9-2.4,4.6c-1.1-0.3-2.3-0.5-3.4-0.6"/>
		<path class="st44" d="M762.4,316.4c0,0,5.5,11.1,6.7,15.9s6.2,6.7,6.2,6.7s6.8,7,5.7,9.6s-7.1,2.6-10.7,1.4s-10.7-3.6-11.9-7.1
			S758.1,316,762.4,316.4z"/>
		
			<linearGradient id="SVGID_9_" gradientUnits="userSpaceOnUse" x1="-916.67" y1="331.7065" x2="-876.92" y2="331.7065" gradientTransform="matrix(1 0 0 -1 1591 668)">
			<stop  offset="0" style="stop-color:#E1B1B7"/>
			<stop  offset="1" style="stop-color:#E7CDB9"/>
		</linearGradient>
		<path class="st45" d="M681.9,333.6c0,0,17.8,17.4,26,15.9c0,0,6.5-3.7,6.1-7.2s-9-3.5-9-3.5s-17.9-3.7-22-7.8
			c0-1.2-0.2-2.3-0.6-3.4c-0.6-1.2,0-4.6,0-4.6h-0.3c-0.6,0-1.8,2.5-1.8,3.1s-1.8-0.6-1.8-0.6v-1.8c0,0-1.8,0.6-2.1,1.5
			s-2.5,3.7-1.8,4.3s2.1,4.9,3,4.6c1.4-0.3,2.8-0.5,4.3-0.6"/>
		
			<linearGradient id="SVGID_10_" gradientUnits="userSpaceOnUse" x1="2117.968" y1="173.8022" x2="2134.218" y2="173.8022" gradientTransform="matrix(-1 0 0 -1 2838 668)">
			<stop  offset="0" style="stop-color:#E1B1B7"/>
			<stop  offset="1" style="stop-color:#E7CDB9"/>
		</linearGradient>
		<path class="st46" d="M719.1,486.8l-0.9,9.1c0,0,1.8,3.6,1.8,4.5s-16.2,1.6-16.2,0.7s11.7-5.2,11.7-5.2l-0.9-8.2L719.1,486.8z"/>
		<g>
			<defs>
				<path id="SVGID_11_" d="M719.1,486.8l-0.9,9.1c0,0,1.8,3.6,1.8,4.5s-16.2,1.6-16.2,0.7s11.7-5.2,11.7-5.2l-0.9-8.2L719.1,486.8z
					"/>
			</defs>
			<clipPath id="SVGID_12_">
				<use xlink:href="#SVGID_11_"  style="overflow:visible;"/>
			</clipPath>
			<g class="st47">
				<path class="st48" d="M720,495.9c0,0-5.4,0.9-8.2-2.7s-17.2,9.1-17.2,9.1l14.5,4.5l15.4-3.6L720,495.9z"/>
			</g>
		</g>
		
			<linearGradient id="SVGID_13_" gradientUnits="userSpaceOnUse" x1="2087.198" y1="178.4823" x2="2101.218" y2="178.4823" gradientTransform="matrix(-1 0 0 -1 2838 668)">
			<stop  offset="0" style="stop-color:#E1B1B7"/>
			<stop  offset="1" style="stop-color:#E7CDB9"/>
		</linearGradient>
		<path class="st49" d="M749.9,482.3l-0.9,9c0,0,1.8,3.6,1.8,4.5s-14,1.1-14,0.2s9.5-4.8,9.5-4.8l-0.9-8.1L749.9,482.3z"/>
		<g>
			<defs>
				<path id="SVGID_14_" d="M749.9,482.3l-0.9,9c0,0,1.8,3.6,1.8,4.5s-14,1.1-14,0.2s9.5-4.8,9.5-4.8l-0.9-8.1L749.9,482.3z"/>
			</defs>
			<clipPath id="SVGID_15_">
				<use xlink:href="#SVGID_14_"  style="overflow:visible;"/>
			</clipPath>
			<g class="st50">
				<path class="st48" d="M750.8,491.4c0,0-5.4,0.9-8.1-2.7c-2.7-3.6-17.2,9.1-17.2,9.1l14.5,4.5l15.4-3.6L750.8,491.4z"/>
			</g>
		</g>
		
			<linearGradient id="SVGID_16_" gradientUnits="userSpaceOnUse" x1="-171.3457" y1="367.5615" x2="-146.2579" y2="367.5615" gradientTransform="matrix(1 0 0 -1 901 668)">
			<stop  offset="0" style="stop-color:#E1B1B7"/>
			<stop  offset="1" style="stop-color:#E7CDB9"/>
		</linearGradient>
		<path class="st51" d="M754.7,291.3l-12.5-9c0,0-16.1,10.1-11.9,17.3c1.8,3.1,5.4,3.9,9,3.7c0.5,3.8,0.8,11-1.8,15.4
			c0,0,10.1,0,15.5-5.4c0,0-3-7.7-3.5-13.9L754.7,291.3z"/>
		<path class="st52" d="M757.2,288.7c-5.8-4.6-0.6-7-6.4-6.4s-8.2-13.3-11.6-3.5c0,0-3.5,4.1,2.3,8.7s5.2,4.1,5.2,4.1
			s-1,2.5-1.5,3.8c-0.2,0.5-0.6,0.9-1.2,0.9c-2,0.2-5.6,0.4-7.2-1.3c-2.3-2.3-3.5-4.1-4.3-4.4s-7.2,7.3-5.5,11.3s7.5,3.5,9.3,2.3
			c0.8-0.6,1.8-1,2.9-1.2c2-2,4.1-3.8,6.4-5.5c0.7,1.2,1.9,2.6,4.1,1.5c0,0,4,0.6,4.6-1.7S762.9,293.3,757.2,288.7z"/>
		
			<linearGradient id="SVGID_17_" gradientUnits="userSpaceOnUse" x1="667.1528" y1="-447.4362" x2="670.0428" y2="-447.4362" gradientTransform="matrix(0.219 0.9757 0.9757 -0.219 1036.0077 -452.7117)">
			<stop  offset="0" style="stop-color:#E1B1B7"/>
			<stop  offset="1" style="stop-color:#E7CDB9"/>
		</linearGradient>
		<path class="st53" d="M746.2,299.1c-1.1,0.2-2.1-0.2-2.3-1s0.6-1.6,1.7-1.9c1.1-0.2,2.1,0.2,2.3,1S747.3,298.8,746.2,299.1z"/>
		<path class="st52" d="M722.7,375.5c0,0-13.6,47.1-13.4,60.8c0.1,8.5,3.4,60.8,3.4,60.8l6,1c0,0,6.3-57.9,9.1-64.6
			c2.8-6.7,9.5-17.9,9.5-17.9l7.4,76.6l6,2c0,0,9.6-96.5,5.1-103.8S727.2,371.6,722.7,375.5z"/>
		<g>
			<defs>
				<path id="SVGID_18_" d="M722.7,375.5c0,0-13.6,47.1-13.4,60.8c0.1,8.5,3.4,60.8,3.4,60.8l6,1c0,0,6.3-57.9,9.1-64.6
					c2.8-6.7,9.5-17.9,9.5-17.9l7.4,76.6l6,2c0,0,9.6-96.5,5.1-103.8S727.2,371.6,722.7,375.5z"/>
			</defs>
			<clipPath id="SVGID_19_">
				<use xlink:href="#SVGID_18_"  style="overflow:visible;"/>
			</clipPath>
			<g class="st54">
				
					<linearGradient id="SVGID_20_" gradientUnits="userSpaceOnUse" x1="2077.5764" y1="277.4176" x2="2127.5149" y2="277.4176" gradientTransform="matrix(-1 0 0 -1 2838 668)">
					<stop  offset="0" style="stop-color:#D4872F"/>
					<stop  offset="1" style="stop-color:#E2B94A"/>
				</linearGradient>
				<path class="st55" d="M759.9,402.7c0,0-20.8,7.2-30.8-14.5l0,0c0,0-2.7,10.9-15.4,5.4s16.3-16.3,16.3-16.3l24.4,7.2
					C754.4,384.6,762.6,395.4,759.9,402.7z"/>
				
					<linearGradient id="SVGID_21_" gradientUnits="userSpaceOnUse" x1="2093.0554" y1="236.6834" x2="2104.3953" y2="236.6834" gradientTransform="matrix(-1 0 0 -1 2838 668)">
					<stop  offset="0" style="stop-color:#D4872F"/>
					<stop  offset="1" style="stop-color:#E2B94A"/>
				</linearGradient>
				<path class="st56" d="M733.6,428.9l3.6-12.7c0,0,3.6-4.5,4.5-8.1s5.4,8.1,1.8,11.8s-0.9,10-2.7,12.7s0,15.7-0.9,17.8
					s-5.4,4.8-5.4,4.8L733.6,428.9z"/>
			</g>
		</g>
		<path class="st44" d="M705,338.7c0.9-2.8,3.1-5,6-5.8c5-1.7,6.8-6,14.1-16.1c4.8-6.7,10.4-8,13.6-8c2.9-2.6,14-0.3,14-0.3l0.4,2.1
			c3.3,0.9,6.5,2.3,8.5,4.6c5.6,6.2,1.1,26.4-2.2,35.9c-3.4,9.5-2,49.9-2,49.9c-14.3,7.8-27.8-12.3-27.8-12.3
			c-2.2,4.5-11.7,4.7-11.7,4.7c3.5-8.8,6-48.4,6-48.4s-8.5-0.8-10.2,2.5c-1.7,3.4-5.7,2-5.7,2C710.8,346.1,705,338.7,705,338.7z"/>
		<g>
			<defs>
				<path id="SVGID_22_" d="M705,338.7c0.9-2.8,3.1-5,6-5.8c5-1.7,6.8-6,14.1-16.1c4.8-6.7,10.4-8,13.6-8c2.9-2.6,14-0.3,14-0.3
					l0.4,2.1c3.3,0.9,6.5,2.3,8.5,4.6c5.6,6.2,1.1,26.4-2.2,35.9c-3.4,9.5-2,49.9-2,49.9c-14.3,7.8-27.8-12.3-27.8-12.3
					c-2.2,4.5-11.7,4.7-11.7,4.7c3.5-8.8,6-48.4,6-48.4s-8.5-0.8-10.2,2.5c-1.7,3.4-5.7,2-5.7,2C710.8,346.1,705,338.7,705,338.7z"
					/>
			</defs>
			<clipPath id="SVGID_23_">
				<use xlink:href="#SVGID_22_"  style="overflow:visible;"/>
			</clipPath>
			<g class="st57">
				
					<linearGradient id="SVGID_24_" gradientUnits="userSpaceOnUse" x1="2102.8979" y1="321.8094" x2="2120.1619" y2="321.8094" gradientTransform="matrix(-1 0 0 -1 2838 668)">
					<stop  offset="1.000000e-02" style="stop-color:#C67F90"/>
					<stop  offset="1" style="stop-color:#B3496A"/>
				</linearGradient>
				<path class="st58" d="M720.9,347.5l2.7-2.7c0,0,6.3-2.7,7.2-7.2c0.8-3.5,2-6.8,3.6-10c0,0,1.8,10-0.9,12.7
					c-2.7,2.7,1.8,8.1-1.8,10s-6.3,20.8-11.8,12.7S720.9,347.5,720.9,347.5z"/>
				
					<linearGradient id="SVGID_25_" gradientUnits="userSpaceOnUse" x1="2080.8579" y1="360.42" x2="2114.6162" y2="360.42" gradientTransform="matrix(-1 0 0 -1 2838 668)">
					<stop  offset="1.000000e-02" style="stop-color:#C67F90"/>
					<stop  offset="1" style="stop-color:#B3496A"/>
				</linearGradient>
				<path class="st59" d="M755.3,311.1c0,0-19-4.4-29.9-0.8s24.4-6.3,24.4-6.3l7.2,3.6L755.3,311.1"/>
				<path class="st44" d="M713.7,350.2c0,0,1-5.3,0-8.1s-1.8-7.2-3.6-7.2s-2.7-3.6-2.7-3.6l-3.6,3.6l-1.8,7.2l2.5,7.2l0.2,1.9
					L713.7,350.2z"/>
				
					<linearGradient id="SVGID_26_" gradientUnits="userSpaceOnUse" x1="2121.688" y1="324.5992" x2="2125.8079" y2="324.5992" gradientTransform="matrix(-1 0 0 -1 2838 668)">
					<stop  offset="1.000000e-02" style="stop-color:#C67F90"/>
					<stop  offset="1" style="stop-color:#B3496A"/>
				</linearGradient>
				<path class="st60" d="M715.5,348.4c0,0,1.8-3.6,0-6.3c-1-1.5-2.1-3-3.3-4.4c0,0,3.3,8.9,1.5,10.7S715.5,348.4,715.5,348.4z"/>
			</g>
		</g>
	</g>
</g>
</svg>
