<svg xmlns="http://www.w3.org/2000/svg" viewBox="0 0 2966.19 1448.95"><defs><style>.cls-1{fill:#ebf3fa;}.cls-2{fill:#d5e5fb;}.cls-3{fill:#c4dbf7;}.cls-4{fill:#c3dafc;}.cls-5{fill:#d4e4f8;}.cls-6{fill:#9dc3f3;}.cls-7{fill:#e3f0ff;}.cls-8{fill:#fff;}.cls-9{fill:#c1d8f4;}.cls-10{fill:#699dee;}.cls-11{fill:#a9c8ed;}.cls-12{fill:#2a4e96;}.cls-13{fill:#618dc1;}.cls-14{fill:#ed823a;}.cls-15{fill:#ff9e55;}.cls-16{fill:#dd732c;}.cls-17{fill:#ffb27d;}.cls-18{fill:#233862;}.cls-19{fill:#ed975d;}.cls-20{fill:#d8702a;}.cls-21{fill:#c15e1b;}.cls-22{fill:#a9453d;}.cls-23{fill:#2c3a64;}.cls-24{fill:#163560;}.cls-25{fill:#ed7d2b;}.cls-26{fill:#234884;}.cls-27{fill:#ed985f;}.cls-28{fill:#183e7a;}.cls-29{fill:#1f437c;}.cls-30{fill:#80b4ff;}</style></defs><title>bg-shop</title><g id="Layer_2" data-name="Layer 2"><g id="Слой_1" data-name="Слой 1"><rect class="cls-1" width="2966.19" height="1448.95"/><rect class="cls-2" x="895.37" width="140.12" height="1203.19"/><rect class="cls-2" x="1888.06" width="140.12" height="1203.19"/><rect class="cls-3" y="1198.6" width="2966.19" height="250.35"/><rect class="cls-4" x="464.94" y="325.31" width="162.86" height="134.29" transform="translate(1092.74 784.91) rotate(180)"/><rect class="cls-5" x="546.37" y="325.31" width="162.86" height="134.29" transform="translate(1255.59 784.91) rotate(180)"/><polygon class="cls-6" points="465.04 425.54 490.84 425.54 488.57 418.28 490.84 413.09 465.04 413.09 465.04 425.54"/><polygon class="cls-7" points="546.37 366.87 572.17 366.87 569.9 359.61 572.17 354.42 546.37 354.42 546.37 366.87"/><polygon class="cls-6" points="546.37 354.42 520.56 354.42 522.84 361.68 520.56 366.87 546.37 366.87 546.37 354.42"/><polygon class="cls-7" points="709.23 426.98 683.42 426.98 685.7 434.24 683.42 439.43 709.23 439.43 709.23 426.98"/><rect class="cls-8" x="651.7" y="334.42" width="46.87" height="18.23"/><rect class="cls-4" x="1503.75" y="370.07" width="108.57" height="89.53" transform="translate(3116.08 829.67) rotate(180)"/><rect class="cls-5" x="1558.04" y="370.07" width="108.57" height="89.53" transform="translate(3224.65 829.67) rotate(180)"/><polygon class="cls-6" points="1503.81 436.89 1521.02 436.89 1519.5 432.05 1521.02 428.59 1503.81 428.59 1503.81 436.89"/><polygon class="cls-7" points="1558.04 397.78 1575.24 397.78 1573.73 392.94 1575.24 389.48 1558.04 389.48 1558.04 397.78"/><polygon class="cls-6" points="1558.04 389.48 1540.83 389.48 1542.35 394.32 1540.83 397.78 1558.04 397.78 1558.04 389.48"/><polygon class="cls-7" points="1666.61 437.85 1649.41 437.85 1650.92 442.69 1649.41 446.15 1666.61 446.15 1666.61 437.85"/><rect class="cls-8" x="1628.26" y="376.14" width="31.24" height="12.15"/><rect class="cls-4" x="1265.39" y="343.53" width="140.76" height="116.07" transform="translate(2671.54 803.13) rotate(180)"/><rect class="cls-5" x="1335.77" y="343.53" width="140.76" height="116.07" transform="translate(2812.3 803.13) rotate(180)"/><polygon class="cls-6" points="1265.47 430.16 1287.77 430.16 1285.81 423.89 1287.77 419.4 1265.47 419.4 1265.47 430.16"/><polygon class="cls-7" points="1335.77 379.45 1358.07 379.45 1356.11 373.17 1358.07 368.69 1335.77 368.69 1335.77 379.45"/><polygon class="cls-6" points="1335.77 368.69 1313.46 368.69 1315.43 374.96 1313.46 379.45 1335.77 379.45 1335.77 368.69"/><polygon class="cls-7" points="1476.53 431.41 1454.23 431.41 1456.19 437.68 1454.23 442.17 1476.53 442.17 1476.53 431.41"/><rect class="cls-8" x="1426.81" y="351.4" width="40.51" height="15.76"/><rect class="cls-4" x="177.33" y="325.31" width="162.86" height="134.29" transform="translate(517.52 784.91) rotate(180)"/><rect class="cls-5" x="258.76" y="325.31" width="162.86" height="134.29" transform="translate(680.38 784.91) rotate(180)"/><polygon class="cls-6" points="177.43 425.54 203.23 425.54 200.96 418.28 203.23 413.09 177.43 413.09 177.43 425.54"/><polygon class="cls-7" points="258.76 366.87 284.57 366.87 282.3 359.61 284.57 354.42 258.76 354.42 258.76 366.87"/><polygon class="cls-6" points="258.76 354.42 232.96 354.42 235.23 361.68 232.96 366.87 258.76 366.87 258.76 354.42"/><polygon class="cls-7" points="421.62 426.98 395.82 426.98 398.09 434.24 395.82 439.43 421.62 439.43 421.62 426.98"/><rect class="cls-8" x="364.09" y="334.42" width="46.86" height="18.23"/><rect class="cls-9" x="2168.39" y="552.54" width="693.29" height="646.78"/><rect class="cls-7" x="2190.1" y="572.51" width="649.87" height="63.35"/><rect class="cls-7" x="2190.1" y="698.16" width="649.87" height="63.35"/><rect class="cls-5" x="2190.1" y="635.34" width="649.87" height="63.35"/><rect class="cls-7" x="2190.1" y="823.81" width="649.87" height="63.35"/><rect class="cls-5" x="2190.1" y="760.99" width="649.87" height="63.35"/><rect class="cls-7" x="2190.1" y="948.1" width="649.87" height="63.35"/><rect class="cls-5" x="2190.1" y="885.28" width="649.87" height="63.35"/><rect class="cls-5" x="2190.1" y="1010.36" width="649.87" height="63.35"/><rect class="cls-7" x="2190.1" y="1073.71" width="649.87" height="63.35"/><rect class="cls-5" x="2190.1" y="1135.96" width="649.87" height="63.35"/><rect class="cls-2" x="2168.39" y="386.46" width="693.29" height="120.04"/><rect class="cls-4" x="71.99" y="459.6" width="62.64" height="747.13"/><rect class="cls-4" x="758.74" y="459.6" width="52.07" height="747.13"/><rect class="cls-10" x="134.63" y="459.6" width="676.19" height="19.44"/><rect class="cls-10" x="134.63" y="813.72" width="676.19" height="19.44"/><rect class="cls-10" x="134.63" y="1110.72" width="676.19" height="19.44"/><rect class="cls-11" x="476.22" y="674.88" width="168.37" height="138.84" transform="translate(1120.81 1488.6) rotate(180)"/><rect class="cls-5" x="560.4" y="674.88" width="168.37" height="138.84" transform="translate(1289.18 1488.6) rotate(180)"/><polygon class="cls-6" points="476.31 778.51 503 778.51 500.64 771 503 765.64 476.31 765.64 476.31 778.51"/><polygon class="cls-7" points="560.4 717.85 587.08 717.85 584.73 710.34 587.08 704.98 560.4 704.98 560.4 717.85"/><polygon class="cls-6" points="560.4 704.98 533.72 704.98 536.07 712.48 533.72 717.85 560.4 717.85 560.4 704.98"/><polygon class="cls-7" points="728.78 780 702.1 780 704.45 787.51 702.1 792.87 728.78 792.87 728.78 780"/><rect class="cls-8" x="669.3" y="684.29" width="48.45" height="18.85"/><rect class="cls-4" x="260.14" y="674.88" width="168.37" height="138.84" transform="translate(688.65 1488.6) rotate(180)"/><rect class="cls-5" x="344.33" y="674.88" width="168.37" height="138.84" transform="translate(857.03 1488.6) rotate(180)"/><polygon class="cls-6" points="260.24 778.51 286.92 778.51 284.57 771 286.92 765.64 260.24 765.64 260.24 778.51"/><polygon class="cls-7" points="344.33 717.85 371.01 717.85 368.66 710.34 371.01 704.98 344.33 704.98 344.33 717.85"/><polygon class="cls-6" points="344.33 704.98 317.64 704.98 320 712.48 317.64 717.85 344.33 717.85 344.33 704.98"/><polygon class="cls-7" points="512.7 780 486.02 780 488.37 787.51 486.02 792.87 512.7 792.87 512.7 780"/><polygon class="cls-7" points="512.7 703.14 486.02 703.14 488.37 710.65 486.02 716.02 512.7 716.02 512.7 703.14"/><rect class="cls-8" x="361.33" y="768.13" width="78.97" height="30.72"/><rect class="cls-4" x="476.22" y="990.28" width="145.53" height="120" transform="translate(1097.96 2100.55) rotate(180)"/><rect class="cls-5" x="548.98" y="990.28" width="145.53" height="120" transform="translate(1243.49 2100.55) rotate(180)"/><polygon class="cls-6" points="476.3 1079.84 499.36 1079.84 497.33 1073.35 499.36 1068.72 476.3 1068.72 476.3 1079.84"/><polygon class="cls-7" points="548.98 1027.41 572.04 1027.41 570.01 1020.92 572.04 1016.29 548.98 1016.29 548.98 1027.41"/><polygon class="cls-6" points="548.98 1016.29 525.92 1016.29 527.95 1022.78 525.92 1027.41 548.98 1027.41 548.98 1016.29"/><polygon class="cls-7" points="694.51 1081.13 671.45 1081.13 673.48 1087.62 671.45 1092.26 694.51 1092.26 694.51 1081.13"/><rect class="cls-8" x="643.1" y="998.41" width="41.88" height="16.29"/><rect class="cls-4" x="199.83" y="971.44" width="168.37" height="138.84" transform="translate(568.03 2081.72) rotate(180)"/><rect class="cls-5" x="284.01" y="971.44" width="168.37" height="138.84" transform="translate(736.4 2081.72) rotate(180)"/><polygon class="cls-12" points="199.93 1075.07 226.6 1075.07 224.25 1067.56 226.6 1062.19 199.93 1062.19 199.93 1075.07"/><polygon class="cls-13" points="284.01 1014.4 310.69 1014.4 308.34 1006.9 310.69 1001.53 284.01 1001.53 284.01 1014.4"/><polygon class="cls-12" points="284.01 1001.53 257.33 1001.53 259.68 1009.04 257.33 1014.4 284.01 1014.4 284.01 1001.53"/><polygon class="cls-13" points="452.39 1076.56 425.71 1076.56 428.06 1084.07 425.71 1089.43 452.39 1089.43 452.39 1076.56"/><rect class="cls-8" x="392.91" y="980.85" width="48.45" height="18.85"/><rect class="cls-4" x="247.22" y="568.11" width="128.72" height="106.14" transform="translate(623.16 1242.35) rotate(180)"/><rect class="cls-5" x="311.58" y="568.11" width="128.72" height="106.14" transform="translate(751.88 1242.35) rotate(180)"/><polygon class="cls-6" points="247.29 647.33 267.69 647.33 265.89 641.59 267.69 637.49 247.29 637.49 247.29 647.33"/><polygon class="cls-7" points="311.58 600.95 331.98 600.95 330.18 595.21 331.98 591.11 311.58 591.11 311.58 600.95"/><polygon class="cls-6" points="311.58 591.11 291.18 591.11 292.98 596.85 291.18 600.95 311.58 600.95 311.58 591.11"/><polygon class="cls-7" points="440.3 648.47 419.91 648.47 421.7 654.21 419.91 658.31 440.3 658.31 440.3 648.47"/><rect class="cls-8" x="394.83" y="575.3" width="37.04" height="14.41"/><rect class="cls-4" x="477.2" y="568.11" width="128.72" height="106.14" transform="translate(1083.13 1242.35) rotate(180)"/><rect class="cls-5" x="541.56" y="568.11" width="128.72" height="106.14" transform="translate(1211.85 1242.35) rotate(180)"/><polygon class="cls-6" points="477.28 647.33 497.67 647.33 495.88 641.59 497.67 637.49 477.28 637.49 477.28 647.33"/><polygon class="cls-7" points="541.56 600.95 561.96 600.95 560.16 595.21 561.96 591.11 541.56 591.11 541.56 600.95"/><polygon class="cls-6" points="541.56 591.11 521.16 591.11 522.96 596.85 521.16 600.95 541.56 600.95 541.56 591.11"/><polygon class="cls-7" points="670.29 648.47 649.89 648.47 651.69 654.21 649.89 658.31 670.29 658.31 670.29 648.47"/><rect class="cls-8" x="624.81" y="575.3" width="37.04" height="14.41"/><rect class="cls-14" x="291.24" y="890.92" width="97.56" height="80.45"/><rect class="cls-15" x="242.46" y="890.92" width="97.56" height="80.45"/><polygon class="cls-16" points="388.75 950.96 373.29 950.96 374.65 946.61 373.29 943.5 388.75 943.5 388.75 950.96"/><polygon class="cls-17" points="340.02 915.81 324.56 915.81 325.92 911.46 324.56 908.35 340.02 908.35 340.02 915.81"/><polygon class="cls-16" points="340.02 908.35 355.48 908.35 354.12 912.71 355.48 915.81 340.02 915.81 340.02 908.35"/><polygon class="cls-17" points="242.46 951.83 257.91 951.83 256.55 956.18 257.91 959.28 242.46 959.28 242.46 951.83"/><rect class="cls-8" x="248.84" y="896.37" width="28.08" height="10.92" transform="translate(525.76 1803.67) rotate(180)"/><rect class="cls-8" x="134.63" y="459.6" width="153.49" height="153.49"/><rect class="cls-15" x="142.83" y="467.8" width="137.09" height="137.09"/><rect class="cls-4" x="1018.24" y="459.6" width="57.28" height="747.13"/><rect class="cls-4" x="1696.11" y="459.6" width="55.6" height="747.13"/><rect class="cls-10" x="1075.52" y="459.6" width="676.19" height="17.52"/><rect class="cls-10" x="1075.52" y="813.72" width="676.19" height="19.44"/><rect class="cls-10" x="1075.52" y="1110.72" width="676.19" height="23.16"/><rect class="cls-4" x="1417.11" y="674.88" width="168.37" height="138.84" transform="translate(3002.6 1488.6) rotate(180)"/><rect class="cls-5" x="1501.3" y="674.88" width="168.37" height="138.84" transform="translate(3170.97 1488.6) rotate(180)"/><polygon class="cls-6" points="1417.21 778.51 1443.89 778.51 1441.54 771 1443.89 765.64 1417.21 765.64 1417.21 778.51"/><polygon class="cls-7" points="1501.3 717.85 1527.98 717.85 1525.63 710.34 1527.98 704.98 1501.3 704.98 1501.3 717.85"/><polygon class="cls-6" points="1501.3 704.98 1474.62 704.98 1476.97 712.48 1474.62 717.85 1501.3 717.85 1501.3 704.98"/><polygon class="cls-7" points="1669.68 780 1643 780 1645.35 787.51 1643 792.87 1669.68 792.87 1669.68 780"/><rect class="cls-8" x="1610.2" y="684.29" width="48.45" height="18.85"/><rect class="cls-4" x="1201.03" y="674.88" width="168.37" height="138.84" transform="translate(2570.44 1488.6) rotate(180)"/><rect class="cls-5" x="1285.22" y="674.88" width="168.37" height="138.84" transform="translate(2738.81 1488.6) rotate(180)"/><polygon class="cls-18" points="1201.13 778.51 1227.81 778.51 1225.46 771 1227.81 765.64 1201.13 765.64 1201.13 778.51"/><polygon class="cls-12" points="1285.22 717.85 1311.9 717.85 1309.55 710.34 1311.9 704.98 1285.22 704.98 1285.22 717.85"/><polygon class="cls-18" points="1285.22 704.98 1258.54 704.98 1260.89 712.48 1258.54 717.85 1285.22 717.85 1285.22 704.98"/><polygon class="cls-12" points="1453.6 780 1426.92 780 1429.27 787.51 1426.92 792.87 1453.6 792.87 1453.6 780"/><rect class="cls-8" x="1298.56" y="773.55" width="65.02" height="25.3"/><rect class="cls-4" x="1169.62" y="992.25" width="143.14" height="118.03" transform="translate(2482.38 2102.52) rotate(180)"/><rect class="cls-5" x="1241.19" y="992.25" width="143.14" height="118.03" transform="translate(2625.52 2102.52) rotate(180)"/><polygon class="cls-6" points="1169.7 1080.34 1192.38 1080.34 1190.38 1073.96 1192.38 1069.4 1169.7 1069.4 1169.7 1080.34"/><polygon class="cls-7" points="1241.19 1028.77 1263.87 1028.77 1261.87 1022.39 1263.87 1017.83 1241.19 1017.83 1241.19 1028.77"/><polygon class="cls-6" points="1241.19 1017.83 1218.51 1017.83 1220.5 1024.21 1218.51 1028.77 1241.19 1028.77 1241.19 1017.83"/><polygon class="cls-7" points="1384.33 1081.61 1361.65 1081.61 1363.65 1087.99 1361.65 1092.55 1384.33 1092.55 1384.33 1081.61"/><rect class="cls-8" x="1333.77" y="1000.25" width="41.19" height="16.03"/><rect class="cls-4" x="1401.7" y="991.96" width="143.5" height="118.32" transform="translate(2946.89 2102.23) rotate(180)"/><rect class="cls-5" x="1473.44" y="991.96" width="143.5" height="118.32" transform="translate(3090.38 2102.23) rotate(180)"/><polygon class="cls-6" points="1401.78 1080.27 1424.52 1080.27 1422.52 1073.87 1424.52 1069.3 1401.78 1069.3 1401.78 1080.27"/><polygon class="cls-7" points="1473.44 1028.57 1496.18 1028.57 1494.18 1022.17 1496.18 1017.6 1473.44 1017.6 1473.44 1028.57"/><polygon class="cls-6" points="1473.44 1017.6 1450.71 1017.6 1452.71 1024 1450.71 1028.57 1473.44 1028.57 1473.44 1017.6"/><polygon class="cls-7" points="1616.94 1081.54 1594.2 1081.54 1596.21 1087.94 1594.2 1092.51 1616.94 1092.51 1616.94 1081.54"/><rect class="cls-8" x="1566.25" y="999.98" width="41.29" height="16.06"/><rect class="cls-4" x="1188.02" y="568.93" width="128.72" height="106.14" transform="translate(2504.77 1243.99) rotate(180)"/><rect class="cls-5" x="1252.38" y="568.93" width="128.72" height="106.14" transform="translate(2633.49 1243.99) rotate(180)"/><polygon class="cls-6" points="1188.1 648.15 1208.49 648.15 1206.7 642.41 1208.49 638.31 1188.1 638.31 1188.1 648.15"/><polygon class="cls-7" points="1252.38 601.77 1272.78 601.77 1270.98 596.03 1272.78 591.93 1252.38 591.93 1252.38 601.77"/><polygon class="cls-6" points="1252.38 591.93 1231.99 591.93 1233.78 597.67 1231.99 601.77 1252.38 601.77 1252.38 591.93"/><polygon class="cls-7" points="1381.11 649.29 1360.71 649.29 1362.51 655.03 1360.71 659.13 1381.11 659.13 1381.11 649.29"/><rect class="cls-8" x="1335.63" y="576.12" width="37.04" height="14.41"/><rect class="cls-14" x="1453.97" y="594.53" width="97.56" height="80.45"/><rect class="cls-15" x="1405.19" y="594.53" width="97.56" height="80.45"/><polygon class="cls-16" points="1551.47 654.58 1536.01 654.58 1537.38 650.23 1536.01 647.12 1551.47 647.12 1551.47 654.58"/><polygon class="cls-17" points="1502.75 619.42 1487.29 619.42 1488.65 615.08 1487.29 611.97 1502.75 611.97 1502.75 619.42"/><polygon class="cls-16" points="1502.75 611.97 1518.21 611.97 1516.85 616.32 1518.21 619.42 1502.75 619.42 1502.75 611.97"/><polygon class="cls-17" points="1405.18 655.44 1420.64 655.44 1419.28 659.79 1420.64 662.9 1405.18 662.9 1405.18 655.44"/><rect class="cls-8" x="1411.57" y="599.98" width="28.08" height="10.92" transform="translate(2851.22 1210.89) rotate(180)"/><rect class="cls-8" x="1075.52" y="459.6" width="153.49" height="153.49"/><rect class="cls-15" x="1083.72" y="467.8" width="137.09" height="137.09"/><g id="P297LW"><path class="cls-18" d="M1191.63,853.61s-6.56-13.82-1.42-22.32,25.52-9,25.52-9-1.78,1-1.86,1.86,5.84-2.3,9.92,4.88,3.88,13.89-.45,23.82S1191.63,853.61,1191.63,853.61Z"/><path class="cls-15" d="M1294.06,991.64c-3.94.91-21.73,1.12-34.22-1.69a37.91,37.91,0,0,1-7-2.16,10.78,10.78,0,0,1-5-3.8c-1.41-2.36-4-10.41-7-21-8.37-29.09-20.14-77.15-20.14-77.15s23.64,4.82,28.64,8.94,9.42,69.46,14.13,71.22c.69.26,1.89.81,3.42,1.56l.22.12c.92.45,2,1,3.06,1.54,9.76,5,23.94,14.39,27.59,16.06C1300.87,986.75,1299.8,990.31,1294.06,991.64Z"/><path class="cls-15" d="M1248.7,923.07a19,19,0,0,0-.31-3.35c-3.05-16.72-27.23-33.51-27.71-33.51h0c0,2.55-4,7.27-10.24,7.68-7.37.48-16.4-3.18-16.4-7.43,0,0-4.19,0-5.58.18-5.9.67-17.68,3.85-22.72,7.67-4.8,3.62,2,26.48,6.18,42.66,1.78,6.85,3.09,12.5,2.87,15-.1,1.22-1.2,17.84-2.18,32.86-.82,12.4-1.55,23.71-1.57,24.42,0,1.41,7,6.34,18.7,10.07a92,92,0,0,0,9.33,2.42,98.87,98.87,0,0,0,20.28,2q3.64,0,6.9-.35C1243,1021.76,1248.8,1002.63,1248.7,923.07Z"/><path class="cls-17" d="M1294.09,991.6c-.57.14-1.35.21-2.34.36a125.8,125.8,0,0,1-14.07.14c-8.7-.43-18.67-1.63-24.82-4.32,3-11.31,9.2-17.11,14.22-20.08,4.31,2.12,11.17,5.73,17.32,9.26h.07c6.58,3.68,11.33,7.7,13.29,8.35C1301,986.37,1299.81,990.33,1294.09,991.6Z"/><path class="cls-17" d="M1194,885.74a142.41,142.41,0,0,1,.85-20.81l25.93,4.24s0,7.91-.12,16.69h0s.71,8.14-9.33,9.34S1193.72,892,1194,885.74Z"/><path class="cls-18" d="M1215.69,1230.14c-3.26-2-1.35-16.88-1.35-16.88s15.27-12.12,17.33-2.78,14.41,13.56,21.45,14.73c4.86.81,6.35,3.51,6.82,5.1Z"/><path class="cls-18" d="M1168.89,1230.14c-3.26-2-1.34-16.88-1.34-16.88s15.27-12.12,17.33-2.78,14.41,13.56,21.45,14.73c4.86.81,6.35,3.51,6.81,5.1Z"/><path class="cls-12" d="M1171,1009.26c0,1.41,7,6.34,18.7,10.07q1.42.45,2.94.87s0,0,0,0c1.1,12.87,4.07,31,6.75,48.58h0c.69,4.55,1.36,9,2,13.41,1.63,11.53,2.86,22,3,29.6v.07c.06,3.47-2.87,12.13-3.09,14.13-.14,1.22-.25,2.52-.33,3.87a156.12,156.12,0,0,0,.25,18.65c1.92,29.83,9.8,68,12.61,69.61,5.59,3.23,15.76,0,20.93-.76a4.27,4.27,0,0,0,3.74-4.3c-2.52-49.49,4.73-118.43,10.15-160.8.14-1.1.29-2.19.42-3.25.65-5,1.08-9.66,1.35-13.87.25-3.69.36-7,.42-10,0-.9,0-1.77,0-2.58,0-2.66-2.09-20-2.19-99.59h0a3.36,3.36,0,0,0-3.34-3.34H1196.7a8.44,8.44,0,0,0-8.43,8.55,134.81,134.81,0,0,1-1.46,22.63c-1.79,11.05-5.64,21.37-13.57,23.85l0,0c0,.08-.26.56-.61,1.37h0c-.07,2-.16,4-.25,6.1,0,.42,0,.84-.06,1.26l0,.74-.06,1.26c0,.7-.07,1.4-.11,2.11l-.09,1.68c-.06,1.07-.13,2.16-.2,3.26,0,.36,0,.7-.06,1.06-.1,1.42-.19,2.87-.3,4.32,0,.44-.07.89-.1,1.34,0,.22,0,.43,0,.65,0,.57-.09,1.14-.14,1.71l-.15,1.83C1170.81,1005.7,1171.1,1007.7,1171,1009.26Z"/><path class="cls-18" d="M1201.25,1148.55c1.92,29.83,9.8,68,12.61,69.61,5.59,3.23,15.76,0,20.93-.76a4.27,4.27,0,0,0,3.74-4.3c-2.52-49.49,4.73-118.43,10.15-160.8.14-1.1.29-2.19.42-3.25.65-5,1.08-9.66,1.35-13.87-2.58-16.8-17.13-17.7-30.32,17,1.63,11.53-15.71,51.82-15.71,59.6v.07c.06,3.47-2.87,12.13-3.09,14.13-.14,1.22-.25,2.52-.33,3.87A156.12,156.12,0,0,0,1201.25,1148.55Z"/><path class="cls-12" d="M1170.49,1110.42c-.39,3.45-4.43,11.65-4.91,13.6-6.68,26.83-3,90.44.32,93,5.11,3.94,15.62,2.07,20.85,2a4.27,4.27,0,0,0,4.27-3.77c4.1-50.68,21.1-120.3,32-161.25a192.24,192.24,0,0,0,6.28-35.79s-51.08-31.3-56.61-14.2C1167.83,1019.12,1173.58,1084,1170.49,1110.42Z"/><path class="cls-12" d="M1186.71,886.88s15.06,17.54,15.94,32.84H1195a73.3,73.3,0,0,0-13.28-31.79Z"/><path class="cls-12" d="M1224.14,886.84a76.92,76.92,0,0,1,12.06,32.88h7.65c-.63-12-8.11-24.84-12.29-31.11h0C1228.72,887.82,1226.1,887.24,1224.14,886.84Z"/><path class="cls-15" d="M1174.66,981c.38,18-1.86,53.72-1.86,53.72h-10.59c-5-25.16-6.77-41.35-6.77-50.18,0-1.74,0-3.36,0-4.85.07-7.54.27-11.92.27-11.92-2-45.69,7.14-70.12,10-73.48s16-6.39,16-6.39a179.45,179.45,0,0,1,6.09,22.78c1.77,10.15-13.88,52.81-13.24,67.39C1174.61,979,1174.64,980,1174.66,981Z"/><path class="cls-17" d="M1174,1010.76c-.49,12.94-1.2,24-1.2,24h-10.61c-1.84-9-3.18-16.83-4.24-23.54-1.84-12.23-2.55-20.93-2.55-26.59,0-1.77,0-3.39.08-4.88a36.84,36.84,0,0,1,19.16,1.35C1174.8,989.06,1174.45,1000.51,1174,1010.76Z"/><path class="cls-17" d="M1180.31,1048c.15,2.9-12.51,9.54-16.33,7.78s-4-11.81-1.77-21.08,10.61,0,10.61,0S1180.17,1045.06,1180.31,1048Z"/><path class="cls-17" d="M1318.69,992h-26.94l6-6.65s6.93,1.41,11.46,0S1318.69,992,1318.69,992Z"/><path class="cls-19" d="M1194.21,871.63s6.42,7.6,13.27,7.62c8.55,0,13.2-8.21,13.2-8.21Z"/><path class="cls-17" d="M1220,871.7c-2.52,2-9.91,3.95-12,4.18,0,0-11-2.44-12.94-3.64-3.09-1.87-2.89-5.66-3-10.92-.19-6.23-.81-11.12-.12-14.71.83-4.29,3.55-6.73,11.17-7.4,14-1.21,19.83,2.29,20.07,7,.06,1.26.12,2.46.16,3.6C1223.8,864.42,1222.65,869.61,1220,871.7Z"/><path class="cls-18" d="M1191.63,853.61s-1.15-12.49,6.2-12.49,17.28,9.39,21.71,3.37,3.8,8.32,3.8,8.32l.45-19.22-28.35-1.06L1189.5,837Z"/></g><path class="cls-8" d="M764.22,138.64H204.08a17.5,17.5,0,0,1-17.51-17.5h0a17.5,17.5,0,0,1,17.51-17.5H764.22a17.49,17.49,0,0,1,17.5,17.5h0A17.49,17.49,0,0,1,764.22,138.64Z"/><rect class="cls-8" x="256.59" width="17.5" height="103.64"/><rect class="cls-8" x="691.98" width="17.5" height="103.64"/><path class="cls-8" d="M1776.64,138.64H1216.5a17.49,17.49,0,0,1-17.5-17.5h0a17.49,17.49,0,0,1,17.5-17.5h560.14a17.49,17.49,0,0,1,17.5,17.5h0A17.49,17.49,0,0,1,1776.64,138.64Z"/><rect class="cls-8" x="1269.01" width="17.5" height="103.64"/><rect class="cls-8" x="1704.4" width="17.5" height="103.64"/><path class="cls-8" d="M2775.86,138.64H2215.72a17.5,17.5,0,0,1-17.51-17.5h0a17.5,17.5,0,0,1,17.51-17.5h560.14a17.5,17.5,0,0,1,17.5,17.5h0A17.5,17.5,0,0,1,2775.86,138.64Z"/><rect class="cls-8" x="2268.23" width="17.5" height="103.64"/><rect class="cls-8" x="2703.62" width="17.5" height="103.64"/><rect class="cls-20" x="1526.9" y="940.88" width="88.4" height="72.89"/><rect class="cls-15" x="1482.7" y="940.88" width="88.4" height="72.89"/><polygon class="cls-21" points="1615.25 995.28 1601.24 995.28 1602.47 991.34 1601.24 988.52 1615.25 988.52 1615.25 995.28"/><polygon class="cls-17" points="1571.1 963.44 1557.09 963.44 1558.33 959.49 1557.09 956.68 1571.1 956.68 1571.1 963.44"/><polygon class="cls-21" points="1571.1 956.68 1585.11 956.68 1583.87 960.62 1585.11 963.44 1571.1 963.44 1571.1 956.68"/><polygon class="cls-17" points="1482.7 996.07 1496.71 996.07 1495.47 1000.01 1496.71 1002.82 1482.7 1002.82 1482.7 996.07"/><rect class="cls-8" x="1488.49" y="945.82" width="25.44" height="9.9" transform="translate(3002.42 1901.54) rotate(180)"/><path class="cls-17" d="M1524.4,1010.67c-2.14-1.4-7-4.46-7.22-3.73a3.19,3.19,0,0,0,.73,2.3c-2.91-1-5.84-1.55-12.67,0a5.16,5.16,0,0,0-3.3,2.36,2.28,2.28,0,0,0,.93,3.52c3.6,2,2.53.77,7.53,3.76s11,3.58,14.49,1.21l4.76-1,.29-7.9S1527.19,1011,1524.4,1010.67Z"/><path class="cls-17" d="M1648.31,929.31s-13.58,11.1-26.69,2.93c0,0-1.66-7.93-.69-13.36.13-.67.24-1.32.34-1.94,1.07-6.12,1.51-9.59,1.51-9.59h0c.7-.14,23.29-4.82,23.14-4.11C1642.47,919.69,1648.31,929.31,1648.31,929.31Z"/><path class="cls-19" d="M1643.08,906.78c-2.72,3.37-11,9.41-21.81,10.16,1.07-6.12,1.51-9.59,1.51-9.59h0C1623.4,907.31,1643.89,905.79,1643.08,906.78Z"/><path class="cls-17" d="M1618.5,905.9s22.56,10,28.55-4.17,12.94-22.38-1.21-29.34-19.24-2.76-22.39,1.47S1612.79,902.94,1618.5,905.9Z"/><path class="cls-22" d="M1645.49,905.59c.28.27,5.07,2.78,18.27-14.57a17,17,0,0,0,1.88-15.44c-2.44-6.41-14.07-13.26-24.06-17.17s-13.58,1.45-17.12,6.86c-3.71,5.67-12.06,9.35-12.06,9.35,8,6.66,20.1,1.54,23.61,3.42s3.73,8,3.65,9.93.07,3.58,5.07,2.78.88,7-.17,8.49C1644.56,899.24,1643.12,903.37,1645.49,905.59Z"/><path class="cls-23" d="M1680,1282.22h14.54c3,0,6.43-3,7.28-8.63s7.11-8.64,8.46-13.21-5.59-11-5.59-11l-1.16-1.49-1.2-1.55-11.52,2.7s-.28,2.74-.46,6.24c-.12,2.52-.19,5.43,0,8,.34,6.1-1.7,12.66-7.12,13.85S1680,1282.22,1680,1282.22Z"/><path class="cls-23" d="M1578.82,1282.22h38.53a3.71,3.71,0,0,0,.82-.23c2.57-1.29,1.76-11.14,1.45-14.18-.06-.56-.1-.89-.1-.89s-13.55-10.84-15.41-2.54c-.06.26-.13.51-.2.76h0c-2.35,7.77-12.86,11.29-18.94,12.28C1580.33,1278.17,1579.13,1280.87,1578.82,1282.22Z"/><path class="cls-15" d="M1586.59,1060.05s2.05,25.67,4.47,56.53c3.29,41.92,7.24,93.4,7.63,103.16.68,16.93,3.39,44,3.39,44s6.43,6.43,19.3,3.72c0,0,11.48-38.68,14.75-79.6l.15-2c3-41.65,7.79-129.37,7.79-129.37Z"/><path class="cls-14" d="M1594.25,1058.34s-1.33,16,6.08,46.07c5.43,22,35.8,83.48,35.8,83.48l.15-2c3-41.65,7.79-129.37,7.79-129.37Z"/><path class="cls-15" d="M1594.25,1058.34s38.82,97.73,63.2,141.42,32,55.88,32,55.88,14-5.59,15.24-9.4c0,0-9.33-84.34-25.66-104.91-9.23-11.61-20.06-46.48-20.57-58.67s-3.31-36.32-3.31-36.32Z"/><path class="cls-12" d="M1592.3,1056.5c5.43.33,62.73-1.84,62.75-5,0-11.13,2.38-29.15,5.28-51q.8-6.12,1.26-12.13a184.12,184.12,0,0,0,.06-29.51c-1.44-16.83-8.59-30.4-15.88-36.73-1-.8-4.49,1.88-10.42,4.28-5.47,2.22-9.8.63-14.72-.75l-6.29,5.54c-5.23,4.87-10.84,12.31-13.57,19C1600.77,950.14,1591.82,1056.46,1592.3,1056.5Z"/><path class="cls-15" d="M1600.77,950.14l15.65,3.63,21.54,58.34a21.32,21.32,0,0,0,20,13.94h0l-1.89,28.8-69.49,5.2Z"/><path class="cls-12" d="M1525.71,1015.09c-.49-4.56,1.85-5.41,1.85-5.41s46.13-10.22,50-11.61,36.31-37.84,36.31-37.84,12.38-15.1,23.11-12.28c9.31,2.44,13.19,9.49,14.68,16.28a20.16,20.16,0,0,1-8.56,21.06c-15.48,10.34-46.48,30.73-53.87,33.21-16.45,5.52-61.32,2.76-61.32,2.76A14.4,14.4,0,0,1,1525.71,1015.09Z"/><path class="cls-14" d="M1632.64,936.88c3.65-3.39,15.33-12.69,15.33-12.69l-2.2-2.13c-1.56-.33-13.64,8.75-17.66,12.33-4.84,4.32-18.28,18.4-18.28,18.4l6.59,1S1628.35,940.86,1632.64,936.88Z"/><rect class="cls-24" x="2566.71" y="1224.51" width="131.6" height="122.74" rx="20.14"/><path class="cls-17" d="M2433,1042.19s-8.4.41-10.11-.29-6.4-3.45-5.72-6.56c.43-1.93,3.91,1.14,5.33.57s-2.9-1-3.11-1.71,3.56-1.11,4.92-1.35,5.28,2.91,8.38,3.76S2433,1042.19,2433,1042.19Z"/><path class="cls-25" d="M2542.83,1033.05s-11.66,13.2-25.82,15.09-35.07,6.09-41.52,6.15-43.07-11.32-43.07-11.32-.68-1.17.11-3.77a6.19,6.19,0,0,1,2.6-3.51s25.09.61,36.81,2.25c4.87.68,38-19.09,43.21-31C2517.19,1002.25,2542.83,1033.05,2542.83,1033.05Z"/><rect class="cls-14" x="1968.68" y="1149.27" width="231.89" height="191.21"/><rect class="cls-15" x="1852.74" y="1149.27" width="231.88" height="191.21"/><polygon class="cls-16" points="2200.43 1291.99 2163.69 1291.99 2166.93 1281.65 2163.69 1274.26 2200.43 1274.26 2200.43 1291.99"/><polygon class="cls-17" points="2084.63 1208.44 2047.88 1208.44 2051.12 1198.11 2047.88 1190.72 2084.63 1190.72 2084.63 1208.44"/><polygon class="cls-16" points="2084.63 1190.72 2121.37 1190.72 2118.13 1201.06 2121.37 1208.44 2084.63 1208.44 2084.63 1190.72"/><polygon class="cls-17" points="1852.74 1294.04 1889.48 1294.04 1886.24 1304.38 1889.48 1311.77 1852.74 1311.77 1852.74 1294.04"/><rect class="cls-8" x="1867.92" y="1162.24" width="66.73" height="25.96" transform="translate(3802.58 2350.43) rotate(180)"/><rect class="cls-14" x="1943.7" y="958.24" width="231.88" height="191.21"/><rect class="cls-15" x="1827.75" y="958.24" width="231.89" height="191.21"/><polygon class="cls-16" points="2175.45 1100.96 2138.7 1100.96 2141.94 1090.62 2138.7 1083.23 2175.45 1083.23 2175.45 1100.96"/><polygon class="cls-17" points="2059.64 1017.41 2022.9 1017.41 2026.13 1007.07 2022.9 999.69 2059.64 999.69 2059.64 1017.41"/><polygon class="cls-16" points="2059.64 999.69 2096.38 999.69 2093.15 1010.02 2096.38 1017.41 2059.64 1017.41 2059.64 999.69"/><polygon class="cls-17" points="1827.75 1103.01 1864.49 1103.01 1861.26 1113.35 1864.49 1120.74 1827.75 1120.74 1827.75 1103.01"/><rect class="cls-8" x="1842.94" y="971.21" width="66.73" height="25.96" transform="translate(3752.6 1968.37) rotate(180)"/><rect class="cls-24" x="2240.88" y="867.59" width="61.5" height="485.48"/><rect class="cls-10" x="2455.49" y="1156.68" width="197.61" height="80.88" rx="20.89"/><polygon class="cls-26" points="2322.8 1300.3 2573.14 1310.45 2573.14 1207.12 2318.65 1211.27 2322.8 1300.3"/><circle class="cls-12" cx="2335.72" cy="1323.37" r="77.5" transform="translate(-251.65 2039.21) rotate(-45)"/><circle class="cls-24" cx="2335.72" cy="1323.37" r="44.66" transform="translate(655.3 3416.95) rotate(-80.78)"/><circle class="cls-12" cx="2682.63" cy="1339.79" r="61.08" transform="translate(762.34 3642.84) rotate(-76.72)"/><path class="cls-24" d="M2647.43,1339.79a35.2,35.2,0,1,1,35.2,35.2A35.2,35.2,0,0,1,2647.43,1339.79Z"/><path class="cls-15" d="M2638.34,1140.69v46.13h-64.58l-154.39,101.49v75.41h152.75a28.92,28.92,0,0,0,28.93-28.92v-17a56.21,56.21,0,0,1,24.2-46.22h0a51,51,0,0,1,29-9.06H2703a23.9,23.9,0,0,0,23.89-23.89v-72.31a25.6,25.6,0,0,0-25.6-25.59Z"/><path class="cls-24" d="M2323.57,1236l-21.19-2.33,119.06-282.18a99.23,99.23,0,0,1,91.62-60.78h99.87a44.7,44.7,0,0,1,44.65,44.65v251.51h-20.3V935.31A24.38,24.38,0,0,0,2612.93,911h-99.87a79,79,0,0,0-72.92,48.38Z"/><path class="cls-24" d="M2425.52,1369.26a5.54,5.54,0,0,1-5.53-5.54v-56.79a71,71,0,0,0-70.91-70.9c-.22,0-.43,0-.65,0-.43,0-43.89-4.73-77.12,21.16a5.53,5.53,0,1,1-6.8-8.73c35.67-27.79,80.2-24,84.88-23.46a82.06,82.06,0,0,1,81.67,82v56.79A5.54,5.54,0,0,1,2425.52,1369.26Z"/><rect class="cls-24" x="1834.62" y="1338.22" width="406.27" height="14.85"/><rect class="cls-24" x="2227.04" y="1179.44" width="13.84" height="173.64"/><path class="cls-12" d="M2597.68,1063.73l-7.33,93h-115.3s-6.1-26,13-27.11,64.93-8,64.93-8-2.25-57.73,33-67.36A9.24,9.24,0,0,1,2597.68,1063.73Z"/><path class="cls-17" d="M2534.32,1000.93s-11.81,7.18-24.62,5.15c0,0-2.53-.64-1.28-3.61a36,36,0,0,1-1.14-4,59,59,0,0,1-1.47-6.47l7.27-7.64,6.89-7.31C2521.87,994.54,2534.32,1000.93,2534.32,1000.93Z"/><path class="cls-27" d="M2521.07,983.7s-4,10.58-13.79,14.8c-1.13-4.11-1.86-8.4-1.86-8.4l7.66-5.71Z"/><path class="cls-17" d="M2497.65,991.66s22.55,2.82,24.13-11,5.56-22.82-8.77-25.21-17.73,2.6-19.4,7.1S2491.83,990.57,2497.65,991.66Z"/><path class="cls-23" d="M2528.9,953.16c.2-.24.66-.45,1.7-.54a4.3,4.3,0,0,0-2-.48c-.27-1.44-1.15-4-3.67-4.51a3.14,3.14,0,0,1,1.61,2.2c-3-2.86-9.29-4.79-26.42-2.79-22.56,2.65-14.55,16.85-11.56,18.47s10.19-3.4,15.67-3.17,6.81,8.08,8.7,9.09,1.1-.88,3.56-2.1,2.86,2.91,2.24,5.64,2.95,6.16,2.95,6.16l3.34-3.88c3.34-3.88,6-19.87,4.31-23.2C2529.2,953.76,2529.05,953.46,2528.9,953.16Z"/><path class="cls-24" d="M2555.52,1087.3s-102.83,4.6-116.86,14.78-38.57,96-38.57,96,5,4.33,19.74,0c0,0,20.78-26.45,28.73-44.61,7.05-16.12,9.58-24.25,12.6-23.42,6.43,1.75,72.37,4,91.85-8.55C2565.49,1113.48,2553.87,1087.29,2555.52,1087.3Z"/><path class="cls-15" d="M2534.32,998.84s13.18,10.84,17.35,43.22,8.81,60.86,6.25,62c-18,8.13-66.51-.17-65.3-19.44s5.66-76.36,17.08-81.42S2534.32,998.84,2534.32,998.84Z"/><path class="cls-24" d="M2440.4,1088.06h0a4.22,4.22,0,0,1-5.5-2.26l-21.35-51.17a4.21,4.21,0,0,1,2.26-5.5h0a4.22,4.22,0,0,1,5.5,2.26l21.36,51.17A4.22,4.22,0,0,1,2440.4,1088.06Z"/><path class="cls-17" d="M2439.1,1059.25s-8.12,2.22-9.93,1.91-7-2-7-5.18c0-2,4.06.27,5.33-.59s-3.05-.34-3.41-1,3.24-1.85,4.51-2.37,5.79,1.7,9,1.86S2439.1,1059.25,2439.1,1059.25Z"/><path class="cls-15" d="M2544.35,1026.67s-8.55,15.39-22,20.3-32.93,13.5-39.22,15-44.49-1.77-44.49-1.77-.92-1-.71-3.71a6.2,6.2,0,0,1,1.78-4s24.64-4.8,36.43-5.73c4.9-.39,33-26.84,35.51-39.6C2512.67,1002.11,2544.35,1026.67,2544.35,1026.67Z"/><path class="cls-24" d="M2418.1,1195.22s1.16,13.44-1.68,14.83l-36.34-.07s0-4.2,5.83-5.13,16.1-4.35,17.83-12S2418.1,1195.22,2418.1,1195.22Z"/><path class="cls-24" d="M2398.54,1051.93H2415a10.13,10.13,0,0,1,9.54,6.71l4.77,13.27a10.15,10.15,0,0,1-.58,8.16l-2.73,5.19a40.76,40.76,0,0,1-33.12,21.62l-20.13,1.44,16.11-49.4A10.14,10.14,0,0,1,2398.54,1051.93Z"/><rect class="cls-15" x="578.09" y="1098.5" width="12.03" height="211.9" transform="translate(1168.22 2408.91) rotate(180)"/><path class="cls-12" d="M555.37,1108.35H585.3a8.84,8.84,0,0,0,8.84-8.84h0a8.84,8.84,0,0,0-8.84-8.84H555.37a8.84,8.84,0,0,0-8.84,8.84h0A8.84,8.84,0,0,0,555.37,1108.35Z"/><path class="cls-15" d="M590.13,1204.46c1.46.12,64.9,37.64,64.9,37.64v54.74H589Z"/><path class="cls-12" d="M960,1313a17.93,17.93,0,1,0-17.93,17.93A17.94,17.94,0,0,0,960,1313Z"/><path class="cls-28" d="M953.31,1313a11.23,11.23,0,1,0-11.23,11.23A11.23,11.23,0,0,0,953.31,1313Z"/><rect class="cls-15" x="578.09" y="1294.29" width="389.45" height="16.12" transform="translate(1545.63 2604.69) rotate(180)"/><path class="cls-12" d="M618.7,1302.35a28.57,28.57,0,1,0-28.57,28.57A28.57,28.57,0,0,0,618.7,1302.35Z"/><path class="cls-28" d="M608,1302.35a17.9,17.9,0,1,0-17.89,17.89A17.89,17.89,0,0,0,608,1302.35Z"/><path class="cls-17" d="M564.47,1080.46s13.76,5.47,14.49,8,.73,12.39-2.92,12.39-7.47-8.38-9.11-8.57-6.2-1.27-6.75-3.28S564.47,1080.46,564.47,1080.46Z"/><path class="cls-29" d="M564.89,1084.46c2-4.14.05-5.72.05-5.72s-40.2-24.84-43.42-27.44-21.82-47.69-21.82-47.69S493,985.28,481.93,984.4c-9.6-.76-15.58,4.62-19.23,10.54a20.15,20.15,0,0,0,1.15,22.7c11.2,14.86,33.76,44.33,39.92,49.1,13.71,10.64,57,22.82,57,22.82A14.44,14.44,0,0,0,564.89,1084.46Z"/><path class="cls-23" d="M484.28,1327.87H445.75a4.22,4.22,0,0,1-.82-.24c-2.57-1.29-1.77-11.14-1.46-14.18.06-.56.11-.9.11-.9s13.54-10.83,15.41-2.53c.06.26.12.51.2.76h0c2.35,7.77,12.86,11.29,18.93,12.28C482.76,1323.81,484,1326.51,484.28,1327.87Z"/><path class="cls-17" d="M459.84,969.86s9.16,14.95,24.23,11.56c0,0,4.18-6.94,5.05-12.39.11-.67.21-1.32.32-1.94,1-6.13,1.74-9.55,1.74-9.55h0c-.61-.37-20.4-12.23-20.49-11.51C468.52,962.71,459.84,969.86,459.84,969.86Z"/><path class="cls-19" d="M472.19,950.32c1.47,4.08,7.33,12.51,17.25,16.77,1-6.13,1.74-9.55,1.74-9.55h0C490.6,957.29,471.75,949.11,472.19,950.32Z"/><path class="cls-17" d="M495.69,957.58s-24.58,2-25.58-13.35-4.84-25.39,10.81-27.3,19.08,3.73,20.66,8.77S502.06,956.66,495.69,957.58Z"/><path class="cls-12" d="M470.31,948.4c-.35.16-5.7,1-12.45-19.78a17,17,0,0,1,3.31-15.2c4.42-5.24,17.65-7.89,28.38-8.28s12.34,5.84,13.9,12.11c1.64,6.58,8.31,12.8,8.31,12.8-9.75,3.66-19.49-5.16-23.42-4.55s-6.15,6.33-6.72,8.18-1.24,3.36-5.7,1-3.15,6.36-2.63,8.08C473.29,942.71,473.28,947.08,470.31,948.4Z"/><path class="cls-23" d="M383.09,1327.87H368.56c-3.05,0-6.43-3.06-7.28-8.64s-7.11-8.64-8.47-13.21,5.59-11,5.59-11l1.16-1.49,1.21-1.56,11.51,2.71s.29,2.74.47,6.24a78.81,78.81,0,0,1,0,8c-.34,6.1,1.71,12.66,7.13,13.85S383.09,1327.87,383.09,1327.87Z"/><path class="cls-15" d="M476.51,1105.69s-2.06,25.67-4.48,56.53c-3.28,41.92-7.23,93.4-7.63,103.16-.67,16.93-3.38,44-3.38,44s-6.44,6.43-19.31,3.72c0,0-11.47-38.68-14.75-79.6l-.15-2c-3.05-41.65-7.79-129.37-7.79-129.37Z"/><path class="cls-14" d="M466.12,1110.76s4.06,9.24-3.35,39.29c-5.44,22-35.81,83.48-35.81,83.48l-.15-2c-3.05-41.65-7.79-129.37-7.79-129.37Z"/><path class="cls-15" d="M468.84,1104S430,1201.71,405.65,1245.4s-32,55.88-32,55.88-14-5.59-15.24-9.4c0,0,9.33-84.34,25.65-104.9,9.23-11.62,20.07-46.49,20.58-58.68s3.3-36.32,3.3-36.32Z"/><path class="cls-12" d="M470.82,1108.4c-5.24-1.48-58.63-22.4-57.59-25.43,3.62-10.52,7.36-28.3,11.83-49.92q1.26-6,2.8-11.86a185.93,185.93,0,0,1,9.66-27.89c6.91-15.41,18.13-25.88,27.11-29.45,1.16-.44,3.62,3.26,8.42,7.48,4.44,3.89,9.05,3.82,14.15,4.14l4.11,7.3c3.34,6.33,6.18,15.19,6.55,22.42C497.86,1005.19,471.29,1108.53,470.82,1108.4Z"/><path class="cls-15" d="M497.86,1005.19l-16-1.72-39.56,48a21.33,21.33,0,0,1-23.48,6.57h0l-10.92,34L475,1113.64Z"/><path class="cls-14" d="M472.14,982.17c-2.33-4.4-10.3-17-10.3-17l2.79-1.29c1.58.2,10,12.76,12.6,17.47,3.15,5.66,11.2,23.39,11.2,23.39l-6.54-1.24S474.87,987.35,472.14,982.17Z"/><path class="cls-17" d="M547.37,1085.52s13.77,5.48,14.5,8,.73,12.4-2.92,12.4-7.48-8.39-9.12-8.57-6.2-1.28-6.74-3.29S547.37,1085.52,547.37,1085.52Z"/><path class="cls-12" d="M547.33,1091.24c2-4.14,0-5.72,0-5.72s-40.19-24.84-43.41-27.44-21.82-47.68-21.82-47.68-6.72-18.34-17.77-19.22c-9.6-.76-15.59,4.62-19.23,10.54a20.18,20.18,0,0,0,1.14,22.71c11.21,14.86,33.76,44.32,39.92,49.09,13.72,10.64,57,22.82,57,22.82A14.4,14.4,0,0,0,547.33,1091.24Z"/><rect class="cls-10" x="767.99" y="1161.76" width="162.86" height="134.29"/><rect class="cls-30" x="686.56" y="1161.76" width="162.86" height="134.29"/><polygon class="cls-6" points="930.75 1261.99 904.94 1261.99 907.22 1254.73 904.94 1249.54 930.75 1249.54 930.75 1261.99"/><polygon class="cls-7" points="849.42 1203.32 823.61 1203.32 825.88 1196.06 823.61 1190.87 849.42 1190.87 849.42 1203.32"/><polygon class="cls-6" points="849.42 1190.87 875.22 1190.87 872.95 1198.13 875.22 1203.32 849.42 1203.32 849.42 1190.87"/><polygon class="cls-7" points="686.55 1263.43 712.36 1263.43 710.09 1270.69 712.36 1275.88 686.55 1275.88 686.55 1263.43"/><rect class="cls-8" x="697.22" y="1170.86" width="46.87" height="18.23" transform="translate(1441.31 2359.96) rotate(180)"/><rect class="cls-14" x="767.99" y="1082.7" width="97.56" height="80.45" transform="translate(1633.54 2245.84) rotate(180)"/><rect class="cls-15" x="816.77" y="1082.7" width="97.56" height="80.45" transform="translate(1731.1 2245.84) rotate(180)"/><polygon class="cls-16" points="768.04 1142.74 783.5 1142.74 782.14 1138.39 783.5 1135.28 768.04 1135.28 768.04 1142.74"/><polygon class="cls-17" points="816.77 1107.59 832.23 1107.59 830.87 1103.24 832.23 1100.13 816.77 1100.13 816.77 1107.59"/><polygon class="cls-16" points="816.77 1100.13 801.31 1100.13 802.67 1104.48 801.31 1107.59 816.77 1107.59 816.77 1100.13"/><polygon class="cls-17" points="914.34 1143.6 898.88 1143.6 900.24 1147.95 898.88 1151.06 914.34 1151.06 914.34 1143.6"/><rect class="cls-8" x="879.87" y="1088.15" width="28.08" height="10.92"/></g></g></svg>