<svg xmlns="http://www.w3.org/2000/svg" width="580" height="150.144" viewBox="0 0 580 150.144">
  <g id="Group_2234" data-name="Group 2234" transform="translate(-161.069 -408.704)">
    <path id="Path_5261" data-name="Path 5261" d="M732.879,534.943c-3.536-2.228-7.879-3.241-10.84-6.19-6.332-6.3-2.964-16.8-2.39-25.714,1.163-18.057-13.319-35.747-31.25-38.172-4.1-.555-8.367-.422-12.227-1.913-10.78-4.164-13.2-17.974-19.4-27.723C648.984,423,633.485,416.64,619.1,418.5s-27.26,11.275-34.719,23.71l-.218.425c-9.747,9.38-25.922,11.2-37.513,4.229-11.29-6.794-17.2-19.986-27.653-28.012-10.159-7.8-23.87-9.944-36.523-7.946s-24.412,7.77-35.305,14.509c-5.022,3.107-9.938,6.451-15.354,8.8-17.495,7.6-39.5,3.215-52.741-10.519-3.157-3.275-5.864-7.029-9.478-9.792-9.216-7.047-22.411-6.158-33.228-1.965s-20.318,11.206-30.906,15.946-23.352,6.994-33.536,1.437c-6.46-3.525-11.249-9.862-18.148-12.426-7.743-2.877-16.955-.1-22.648,5.885s-8.044,14.677-7.3,22.9c.522,5.784,2.447,11.407,2.566,17.212a28.656,28.656,0,0,1-19.771,27.219c-9.857,2.983-20.994.42-30.394,4.628-11.132,4.983-16.507,18.616-14.877,30.7s8.907,22.7,17.276,31.574l560.594,1.263C743.3,550.425,740.374,539.665,732.879,534.943Z" fill="#e0e0e0" opacity="0.233"/>
    <g id="Group_2234-2" data-name="Group 2234" transform="translate(171.364 473.371)" opacity="0.47">
      <g id="Group_1554" data-name="Group 1554" transform="translate(0 23.997)" style="mix-blend-mode: lighten;isolation: isolate">
        <path id="Path_402" data-name="Path 402" d="M708.346,878.06V834.589h6.831V816.58h8.384V834.9h2.07v-8.073h5.8v7.97H739.6v15.318h5.382v-5.8l6.935-6.935v6.831h4.14V824.55h8.591v53.51Z" transform="translate(-599.674 -816.58)" fill="#fff"/>
        <path id="Path_403" data-name="Path 403" d="M458.387,878.06V834.589h6.831V816.58H473.6V834.9h2.07v-8.073h5.8v7.97h8.177v15.318h5.382v-5.8l6.935-6.935v6.831h4.14V824.55h8.591v53.51Z" transform="translate(-404.051 -816.58)" fill="#fff"/>
        <path id="Path_404" data-name="Path 404" d="M208.428,878.06V834.589h6.831V816.58h8.384V834.9h2.07v-8.073h5.8v7.97h8.177v15.318h5.382v-5.8L252,837.384v6.831h4.14V824.55h8.591v53.51Z" transform="translate(-208.428 -816.58)" fill="#fff"/>
        <path id="Path_405" data-name="Path 405" d="M958.578,878.06V834.589h6.831V816.58h8.384V834.9h2.07v-8.073h5.8v7.97h8.177v15.318h5.382v-5.8l6.935-6.935v6.831h4.14V824.55h8.591v53.51Z" transform="translate(-795.511 -816.58)" fill="#fff"/>
        <path id="Path_406" data-name="Path 406" d="M1209.08,878.06V834.589h6.831V816.58h8.384V834.9h2.07v-8.073h5.8v7.97h8.177v15.318h5.382v-5.8l6.935-6.935v6.831h4.14V824.55h8.591v53.51Z" transform="translate(-991.559 -816.58)" fill="#fff"/>
      </g>
      <g id="Group_1555" data-name="Group 1555" transform="translate(32.341 21.1)" opacity="0.07">
        <path id="Path_407" data-name="Path 407" d="M363.571,807.313h0a3.237,3.237,0,1,0-6.262,0h0v0a3.22,3.22,0,0,0,.384.888,44.919,44.919,0,0,0,2.746,5c1.253-2.145,2.255-3.936,2.788-5.067a3.223,3.223,0,0,0,.342-.818Z" transform="translate(-357.203 -803.253)" fill="#1f60b0"/>
        <circle id="Ellipse_6" data-name="Ellipse 6" cx="1.536" cy="1.536" r="1.536" transform="translate(1.701 1.701)" fill="#fff"/>
      </g>
      <g id="Group_1556" data-name="Group 1556" transform="translate(229.948 6.542)" opacity="0.996">
        <path id="Path_408" data-name="Path 408" d="M1272.615,740.34h0a3.237,3.237,0,1,0-6.262,0h0v0a3.225,3.225,0,0,0,.384.888,44.914,44.914,0,0,0,2.746,5c1.253-2.145,2.256-3.937,2.788-5.067a3.213,3.213,0,0,0,.342-.818Z" transform="translate(-1266.247 -736.28)" fill="#fb8565"/>
        <path id="Path_409" data-name="Path 409" d="M1277.142,745.639a1.536,1.536,0,1,1-1.536-1.536A1.536,1.536,0,0,1,1277.142,745.639Z" transform="translate(-1272.369 -742.402)" fill="#fff"/>
      </g>
      <g id="Group_1557" data-name="Group 1557" transform="translate(249.918)" opacity="0.996">
        <path id="Path_410" data-name="Path 410" d="M1364.482,710.247h0a3.237,3.237,0,1,0-6.262,0h0v0a3.21,3.21,0,0,0,.384.888,44.96,44.96,0,0,0,2.746,5c1.253-2.145,2.255-3.936,2.788-5.067a3.228,3.228,0,0,0,.343-.818Z" transform="translate(-1358.114 -706.187)" fill="#fb8565"/>
        <path id="Path_411" data-name="Path 411" d="M1369.01,715.546a1.536,1.536,0,1,1-1.536-1.536A1.536,1.536,0,0,1,1369.01,715.546Z" transform="translate(-1364.237 -712.309)" fill="#fff"/>
      </g>
      <g id="Group_1558" data-name="Group 1558" transform="translate(12.32 13.573)" opacity="0.07">
        <path id="Path_412" data-name="Path 412" d="M270.262,771.914h0a2.622,2.622,0,1,0-5.072,0h0v0a2.62,2.62,0,0,0,.311.719,36.424,36.424,0,0,0,2.225,4.049c1.015-1.737,1.827-3.189,2.258-4.1a2.6,2.6,0,0,0,.277-.663Z" transform="translate(-265.104 -768.626)" fill="#1f60b0"/>
        <path id="Path_413" data-name="Path 413" d="M273.93,776.207a1.244,1.244,0,1,1-1.244-1.244A1.244,1.244,0,0,1,273.93,776.207Z" transform="translate(-270.063 -773.585)" fill="#fff"/>
      </g>
    </g>
    <g id="Group_2235" data-name="Group 2235" transform="translate(432.243 473.371)" opacity="0.47">
      <g id="Group_1560" data-name="Group 1560" transform="translate(0 23.997)" style="mix-blend-mode: lighten;isolation: isolate">
        <path id="Path_414" data-name="Path 414" d="M1908.454,878.06V834.589h6.831V816.58h8.384V834.9h2.07v-8.073h5.8v7.97h8.177v15.318h5.382v-5.8l6.935-6.935v6.831h4.14V824.55h8.591v53.51Z" transform="translate(-1799.782 -816.58)" fill="#fff"/>
        <path id="Path_415" data-name="Path 415" d="M1658.495,878.06V834.589h6.831V816.58h8.384V834.9h2.07v-8.073h5.8v7.97h8.177v15.318h5.382v-5.8l6.935-6.935v6.831h4.14V824.55h8.591v53.51Z" transform="translate(-1604.159 -816.58)" fill="#fff"/>
        <path id="Path_416" data-name="Path 416" d="M1408.536,878.06V834.589h6.831V816.58h8.384V834.9h2.07v-8.073h5.8v7.97h8.177v15.318h5.382v-5.8l6.934-6.935v6.831h4.14V824.55h8.591v53.51Z" transform="translate(-1408.536 -816.58)" fill="#fff"/>
        <path id="Path_417" data-name="Path 417" d="M2158.685,878.06V834.589h6.831V816.58h8.384V834.9h2.07v-8.073h5.8v7.97h8.177v15.318h5.382v-5.8l6.935-6.935v6.831h4.14V824.55h8.591v53.51Z" transform="translate(-1995.618 -816.58)" fill="#fff"/>
        <path id="Path_418" data-name="Path 418" d="M2409.188,878.06V834.589h6.831V816.58h8.384V834.9h2.07v-8.073h5.8v7.97h8.177v15.318h5.382v-5.8l6.935-6.935v6.831h4.14V824.55h8.591v53.51Z" transform="translate(-2191.667 -816.58)" fill="#fff"/>
      </g>
      <g id="Group_1561" data-name="Group 1561" transform="translate(32.34 15.1)">
        <path id="Path_419" data-name="Path 419" d="M1563.678,807.313h0a3.237,3.237,0,1,0-6.262,0h0v0a3.222,3.222,0,0,0,.384.888,44.967,44.967,0,0,0,2.747,5c1.253-2.145,2.255-3.936,2.788-5.067a3.2,3.2,0,0,0,.342-.818Z" transform="translate(-1557.31 -803.253)" fill="#fb8565"/>
        <circle id="Ellipse_7" data-name="Ellipse 7" cx="1.536" cy="1.536" r="1.536" transform="translate(1.701 1.701)" fill="#fff"/>
      </g>
      <g id="Group_1562" data-name="Group 1562" transform="translate(229.948 6.542)" opacity="0.07">
        <path id="Path_420" data-name="Path 420" d="M2472.722,740.34h0a3.237,3.237,0,1,0-6.262,0h0v0a3.22,3.22,0,0,0,.384.888,44.96,44.96,0,0,0,2.746,5c1.253-2.145,2.255-3.937,2.787-5.067a3.187,3.187,0,0,0,.343-.818Z" transform="translate(-2466.354 -736.28)" fill="#1f60b0"/>
        <path id="Path_421" data-name="Path 421" d="M2477.25,745.639a1.536,1.536,0,1,1-1.536-1.536A1.536,1.536,0,0,1,2477.25,745.639Z" transform="translate(-2472.477 -742.402)" fill="#fff"/>
      </g>
      <g id="Group_1563" data-name="Group 1563" transform="translate(249.918)" opacity="0.07">
        <path id="Path_422" data-name="Path 422" d="M2564.589,710.247h0a3.237,3.237,0,1,0-6.262,0h0v0a3.21,3.21,0,0,0,.384.888,44.847,44.847,0,0,0,2.746,5c1.253-2.145,2.256-3.936,2.788-5.067a3.189,3.189,0,0,0,.342-.818Z" transform="translate(-2558.222 -706.187)" fill="#1f60b0"/>
        <path id="Path_423" data-name="Path 423" d="M2569.118,715.546a1.536,1.536,0,1,1-1.536-1.536A1.536,1.536,0,0,1,2569.118,715.546Z" transform="translate(-2564.345 -712.309)" fill="#fff"/>
      </g>
      <g id="Group_1564" data-name="Group 1564" transform="translate(12.32 7.573)">
        <path id="Path_424" data-name="Path 424" d="M1470.369,771.914h0a2.622,2.622,0,1,0-5.072,0h0v0a2.6,2.6,0,0,0,.311.719,36.4,36.4,0,0,0,2.224,4.049c1.015-1.737,1.827-3.189,2.258-4.1a2.6,2.6,0,0,0,.277-.663Z" transform="translate(-1465.211 -768.626)" fill="#fb8565"/>
        <path id="Path_425" data-name="Path 425" d="M1474.036,776.207a1.244,1.244,0,1,1-1.244-1.244A1.244,1.244,0,0,1,1474.036,776.207Z" transform="translate(-1470.17 -773.585)" fill="#fff"/>
      </g>
    </g>
    <g id="Group_2236" data-name="Group 2236" transform="translate(595.393 449.304)">
      <g id="Group_1591" data-name="Group 1591" transform="translate(19.011 19.961)">
        <path id="Path_473" data-name="Path 473" d="M2271.127,775.607H2254.3v-71.48l16.824-16.824h0Z" transform="translate(-2254.303 -687.303)" fill="#6ccdd8" opacity="0.455"/>
        <rect id="Rectangle_1605" data-name="Rectangle 1605" width="3.232" height="4.372" transform="translate(3.184 17.87)" fill="#fff"/>
        <rect id="Rectangle_1606" data-name="Rectangle 1606" width="3.232" height="4.372" transform="translate(10.408 17.87)" fill="#fff"/>
        <path id="Path_474" data-name="Path 474" d="M2272.183,808.409l-3.232.3v-4.372l3.232-.3Z" transform="translate(-2265.767 -778.661)" fill="#fff"/>
        <rect id="Rectangle_1607" data-name="Rectangle 1607" width="3.232" height="4.372" transform="translate(10.408 25.376)" fill="#fff"/>
        <path id="Path_475" data-name="Path 475" d="M2272.183,844.314l-3.232.3V840.24l3.232-.3Z" transform="translate(-2265.767 -806.761)" fill="#fff"/>
        <rect id="Rectangle_1608" data-name="Rectangle 1608" width="3.232" height="4.372" transform="translate(10.408 33.18)" fill="#fff"/>
        <rect id="Rectangle_1609" data-name="Rectangle 1609" width="3.232" height="4.372" transform="translate(3.184 40.985)" fill="#fff"/>
        <path id="Path_476" data-name="Path 476" d="M2305.416,880.517h-3.232v-4.672l3.232.3Z" transform="translate(-2291.775 -834.86)" fill="#fff"/>
      </g>
      <g id="Group_1594" data-name="Group 1594" transform="translate(35.894)">
        <g id="Group_1593" data-name="Group 1593">
          <g id="Group_1592" data-name="Group 1592" transform="translate(0 9.41)">
            <rect id="Rectangle_1610" data-name="Rectangle 1610" width="20.246" height="94.578" transform="translate(0 4.277)" fill="#6ccdd8"/>
            <rect id="Rectangle_1611" data-name="Rectangle 1611" width="7.984" height="4.277" transform="translate(6.131)" fill="#6ccdd8"/>
          </g>
          <rect id="Rectangle_1612" data-name="Rectangle 1612" width="0.605" height="9.41" transform="translate(9.821)" fill="#6ccdd8"/>
        </g>
        <rect id="Rectangle_1613" data-name="Rectangle 1613" width="3.232" height="4.372" transform="translate(3.261 21.349)" fill="#fff"/>
        <rect id="Rectangle_1614" data-name="Rectangle 1614" width="3.232" height="4.372" transform="translate(12.841 21.854)" fill="#fff"/>
        <rect id="Rectangle_1615" data-name="Rectangle 1615" width="3.232" height="4.372" transform="translate(3.261 28.824)" fill="#fff"/>
        <rect id="Rectangle_1616" data-name="Rectangle 1616" width="3.232" height="4.372" transform="translate(12.534 29.022)" fill="#fff"/>
        <rect id="Rectangle_1617" data-name="Rectangle 1617" width="3.232" height="4.372" transform="translate(3.261 36.298)" fill="#fff"/>
        <rect id="Rectangle_1618" data-name="Rectangle 1618" width="3.232" height="4.372" transform="translate(12.534 36.496)" fill="#fff"/>
        <rect id="Rectangle_1619" data-name="Rectangle 1619" width="3.232" height="4.372" transform="translate(3.261 43.773)" fill="#fff"/>
        <rect id="Rectangle_1620" data-name="Rectangle 1620" width="3.232" height="4.372" transform="translate(12.534 43.971)" fill="#fff"/>
        <rect id="Rectangle_1621" data-name="Rectangle 1621" width="3.232" height="4.372" transform="translate(3.261 51.248)" fill="#fff"/>
        <rect id="Rectangle_1622" data-name="Rectangle 1622" width="3.232" height="4.372" transform="translate(12.534 51.446)" fill="#fff"/>
        <rect id="Rectangle_1623" data-name="Rectangle 1623" width="3.232" height="4.372" transform="translate(3.261 58.722)" fill="#fff"/>
        <rect id="Rectangle_1624" data-name="Rectangle 1624" width="3.232" height="4.372" transform="translate(12.534 58.92)" fill="#fff"/>
      </g>
      <g id="Group_1595" data-name="Group 1595" transform="translate(56.14 42.203)">
        <rect id="Rectangle_1625" data-name="Rectangle 1625" width="14.484" height="66.062" fill="#b7e4ea"/>
        <rect id="Rectangle_1626" data-name="Rectangle 1626" width="3.232" height="4.372" transform="translate(2.523 9.331)" fill="#fff"/>
        <rect id="Rectangle_1627" data-name="Rectangle 1627" width="3.232" height="4.372" transform="translate(8.564 9.331)" fill="#fff"/>
        <rect id="Rectangle_1628" data-name="Rectangle 1628" width="3.232" height="4.372" transform="translate(2.523 16.381)" fill="#fff"/>
        <rect id="Rectangle_1629" data-name="Rectangle 1629" width="3.232" height="4.372" transform="translate(8.564 16.381)" fill="#fff"/>
        <rect id="Rectangle_1630" data-name="Rectangle 1630" width="3.232" height="4.372" transform="translate(2.523 23.431)" fill="#fff"/>
        <rect id="Rectangle_1631" data-name="Rectangle 1631" width="3.232" height="4.372" transform="translate(8.564 23.431)" fill="#fff"/>
        <rect id="Rectangle_1632" data-name="Rectangle 1632" width="3.232" height="4.372" transform="translate(2.523 30.48)" fill="#fff"/>
        <rect id="Rectangle_1633" data-name="Rectangle 1633" width="3.232" height="4.372" transform="translate(8.564 30.48)" fill="#fff"/>
      </g>
      <g id="Group_1596" data-name="Group 1596" transform="translate(70.624 37.356)">
        <path id="Path_477" data-name="Path 477" d="M2507.528,838.232h-15.789V767.323h0a15.789,15.789,0,0,1,15.789,15.789Z" transform="translate(-2491.739 -767.323)" fill="#6ccdd8"/>
        <rect id="Rectangle_1634" data-name="Rectangle 1634" width="3.232" height="4.372" transform="translate(2.667 19.026)" fill="#fff"/>
        <rect id="Rectangle_1635" data-name="Rectangle 1635" width="3.232" height="4.372" transform="translate(9.891 19.026)" fill="#fff"/>
        <rect id="Rectangle_1636" data-name="Rectangle 1636" width="3.232" height="4.372" transform="translate(2.667 26.831)" fill="#fff"/>
        <rect id="Rectangle_1637" data-name="Rectangle 1637" width="3.232" height="4.372" transform="translate(9.891 26.831)" fill="#fff"/>
        <rect id="Rectangle_1638" data-name="Rectangle 1638" width="3.232" height="4.372" transform="translate(2.667 34.636)" fill="#fff"/>
        <rect id="Rectangle_1639" data-name="Rectangle 1639" width="3.232" height="4.372" transform="translate(9.891 34.636)" fill="#fff"/>
        <rect id="Rectangle_1640" data-name="Rectangle 1640" width="3.232" height="4.372" transform="translate(2.667 42.441)" fill="#fff"/>
        <rect id="Rectangle_1641" data-name="Rectangle 1641" width="3.232" height="4.372" transform="translate(9.891 42.441)" fill="#fff"/>
      </g>
      <g id="Group_1597" data-name="Group 1597" transform="translate(0 50.008)">
        <rect id="Rectangle_1642" data-name="Rectangle 1642" width="19.011" height="58.257" fill="#6ccdd8"/>
        <rect id="Rectangle_1643" data-name="Rectangle 1643" width="3.232" height="4.372" transform="translate(3.718 7.689)" fill="#fff"/>
        <rect id="Rectangle_1644" data-name="Rectangle 1644" width="3.232" height="4.372" transform="translate(10.942 7.689)" fill="#fff"/>
        <rect id="Rectangle_1645" data-name="Rectangle 1645" width="3.232" height="4.372" transform="translate(3.718 15.895)" fill="#fff"/>
        <rect id="Rectangle_1646" data-name="Rectangle 1646" width="3.232" height="4.372" transform="translate(10.942 15.895)" fill="#fff"/>
        <rect id="Rectangle_1647" data-name="Rectangle 1647" width="3.232" height="4.372" transform="translate(3.718 24.101)" fill="#fff"/>
        <rect id="Rectangle_1648" data-name="Rectangle 1648" width="3.232" height="4.372" transform="translate(10.942 24.101)" fill="#fff"/>
        <rect id="Rectangle_1649" data-name="Rectangle 1649" width="3.232" height="4.372" transform="translate(3.718 32.307)" fill="#fff"/>
        <rect id="Rectangle_1650" data-name="Rectangle 1650" width="3.232" height="4.372" transform="translate(10.942 32.307)" fill="#fff"/>
      </g>
    </g>
    <path id="Path_5262" data-name="Path 5262" d="M426.794,590.236a4.443,4.443,0,0,0-2.24.606,4.412,4.412,0,0,0-5.1-2.884,7.035,7.035,0,0,0-13.629-.077c-.139-.01-.278-.021-.419-.021a5.861,5.861,0,0,0-2.946.794,5.292,5.292,0,0,0-8.08,4.5h36.6A4.465,4.465,0,0,0,426.794,590.236Z" transform="translate(-182.594 -136.12)" fill="#fff"/>
    <path id="Path_5263" data-name="Path 5263" d="M864.93,669.963a4.422,4.422,0,0,0,6.416-2.376,4.432,4.432,0,0,1,.923.1,7.035,7.035,0,0,1,13.629-.077c.139-.01.278-.021.419-.021a5.857,5.857,0,0,1,2.946.794,5.291,5.291,0,0,1,8.08,4.5h-36.6A4.465,4.465,0,0,1,864.93,669.963Z" transform="translate(-547.578 -198.516)" fill="#fff"/>
    <path id="Path_5264" data-name="Path 5264" d="M2549.477,682.435a5.073,5.073,0,0,0,7.36-2.726,5.07,5.07,0,0,1,1.059.113,8.07,8.07,0,0,1,15.634-.088c.16-.011.319-.024.481-.024a6.719,6.719,0,0,1,3.38.911,6.07,6.07,0,0,1,9.269,5.168h-41.987A5.122,5.122,0,0,1,2549.477,682.435Z" transform="translate(-1865.457 -207.401)" fill="#fff"/>
    <path id="Path_5265" data-name="Path 5265" d="M1476.4,639.327h-36.6a5.287,5.287,0,0,1,7.1-4.979,5.847,5.847,0,0,1,5.938-1.149,3.707,3.707,0,0,1,4.97-.624,6.175,6.175,0,0,1,11.127,2.182,4.461,4.461,0,0,1,7.468,4.57Z" transform="translate(-1000.759 -173.107)" fill="#fff"/>
    <g id="Group_2237" data-name="Group 2237" transform="translate(376.551 527.229)">
      <path id="Path_504" data-name="Path 504" d="M1168.432,967.9a2.7,2.7,0,0,0,.238-2.484,1.7,1.7,0,0,0-2.165-.87,21.357,21.357,0,0,0-.473-6.728,5.511,5.511,0,0,0-1.7-3.227,3.846,3.846,0,0,0-5.08.806,5.982,5.982,0,0,0-.888,5.393,3.861,3.861,0,0,0-3.877.716c-1.058,1.161-.792,2.966-.459,4.5.282,1.3.646,2.729,1.744,3.481-1.332.153-2.934.515-3.344,1.792a2.6,2.6,0,0,0,.454,2.166c1.4,2.111,4.217,2.728,6.75,2.79h1.252a4.317,4.317,0,0,0,2.028-.48c.656-.274,1.338-.481,2-.736a4.478,4.478,0,0,0,2.663-2.019,2.522,2.522,0,0,0-.944-3.25A7,7,0,0,0,1168.432,967.9Z" transform="translate(-1152.339 -953.952)" fill="#15a3b2"/>
      <path id="Path_505" data-name="Path 505" d="M1190.35,1026.332v-17.871a.584.584,0,0,0-1.168,0v17.871a.584.584,0,0,0,1.168,0Z" transform="translate(-1181.173 -996.17)" fill="#f8f5ff"/>
      <path id="Path_506" data-name="Path 506" d="M1191.848,1023.016a4.822,4.822,0,0,0,2.635-3.086.584.584,0,1,0-1.126-.31c-.04.144-.089.284-.141.424s.054-.118,0,.01l-.051.111c-.029.061-.06.121-.092.181a4.159,4.159,0,0,1-.233.381q-.034.051-.07.1c-.02.027-.082.139-.007.011a1.288,1.288,0,0,1-.143.172,4.385,4.385,0,0,1-.311.321q-.082.076-.168.148a.613.613,0,0,1-.094.077c.056-.029.069-.052.005-.005a4.169,4.169,0,0,1-.79.456.586.586,0,0,0-.21.8.6.6,0,0,0,.8.209Z" transform="translate(-1182.573 -1005.013)" fill="#f8f5ff"/>
      <path id="Path_507" data-name="Path 507" d="M1177.374,1035.34c-.344-.082-.688-.164-1.025-.275q-.113-.037-.224-.079l-.123-.048c.078.032.01,0-.03-.015a3.42,3.42,0,0,1-.453-.249l-.1-.065c-.052-.036-.029-.024.008.007-.059-.05-.118-.1-.175-.152s-.109-.109-.16-.167c-.01-.012-.092-.113-.042-.048s-.035-.05-.036-.052a2.05,2.05,0,0,1-.118-.195c-.014-.027-.027-.054-.041-.081-.066-.132.035.112-.011-.027-.021-.064-.042-.129-.057-.194a.389.389,0,0,1-.022-.111l.009.065c0-.03-.005-.061-.007-.091a.584.584,0,0,0-1.168,0,2.744,2.744,0,0,0,1.212,2.042,6.137,6.137,0,0,0,2.246.862.584.584,0,1,0,.31-1.126Z" transform="translate(-1168.982 -1015.799)" fill="#f8f5ff"/>
    </g>
    <g id="Group_2238" data-name="Group 2238" transform="translate(392.681 519.111)">
      <path id="Path_508" data-name="Path 508" d="M1243.621,935.772a1.743,1.743,0,0,0-1.963-1.546c-.522.113-1.172.467-1.5.071a11.065,11.065,0,0,0,2.663-3.2,3.475,3.475,0,0,0-.37-3.833c-.956-1.014-2.993-1.061-3.735.108a13.613,13.613,0,0,0-.024-6.92,5.818,5.818,0,0,0-1.7-3.042,3.155,3.155,0,0,0-3.446-.484,3.446,3.446,0,0,0-1.308,1.553,13.046,13.046,0,0,0-.8,6.669,2.153,2.153,0,0,0-3.144.285,3.5,3.5,0,0,0-.273,3.294c.379,1.085,1.029,2.071,1.419,3.152a1.6,1.6,0,0,0-2.246.373,3.054,3.054,0,0,0-.315,2.368,9.61,9.61,0,0,0,2.911,5.23,1.948,1.948,0,0,0-2.613.367,3.452,3.452,0,0,0-.6,2.655c.4,3.567,2.989,6.977,9.092,6.666a7.554,7.554,0,0,0,5.8-3.514,4.74,4.74,0,0,0-1.226-6.062c.709-.626,1.542-1.122,2.228-1.771A3.111,3.111,0,0,0,1243.621,935.772Z" transform="translate(-1226.541 -916.606)" fill="#15a3b2"/>
      <path id="Path_509" data-name="Path 509" d="M1261.277,993.03V965.4a.584.584,0,0,0-1.168,0V993.03a.584.584,0,0,0,1.168,0Z" transform="translate(-1252.812 -954.35)" fill="#f8f5ff"/>
      <path id="Path_510" data-name="Path 510" d="M1262.169,996.958a6.935,6.935,0,0,0,4.409-4.779.584.584,0,0,0-1.127-.311,5.678,5.678,0,0,1-1.305,2.427,6.462,6.462,0,0,1-.505.495,4.375,4.375,0,0,1-.545.417,5.57,5.57,0,0,1-1.238.625.6.6,0,0,0-.408.718.589.589,0,0,0,.718.408Z" transform="translate(-1253.846 -975.173)" fill="#f8f5ff"/>
      <path id="Path_511" data-name="Path 511" d="M1248.268,1022.081a2.629,2.629,0,0,1-1.772-1.452,4.047,4.047,0,0,1-.508-2.339.589.589,0,0,0-.584-.584.6.6,0,0,0-.584.584,5.2,5.2,0,0,0,.7,2.988,3.72,3.72,0,0,0,2.436,1.929.6.6,0,0,0,.719-.408.589.589,0,0,0-.408-.718Z" transform="translate(-1240.836 -995.729)" fill="#f8f5ff"/>
      <path id="Path_512" data-name="Path 512" d="M1252.05,971.46a8.244,8.244,0,0,1-.744-.682q-.18-.187-.348-.385c-.053-.062-.1-.126-.156-.19-.022-.028-.075-.1-.026-.033l-.082-.109a8.139,8.139,0,0,1-.545-.85q-.12-.214-.226-.436c-.039-.082-.077-.165-.114-.248-.017-.039-.029-.067-.005-.011-.021-.05-.041-.1-.061-.152a.6.6,0,0,0-.718-.408.591.591,0,0,0-.408.719,8.793,8.793,0,0,0,2.607,3.612.6.6,0,0,0,.826,0,.591.591,0,0,0,0-.826Z" transform="translate(-1243.794 -956.773)" fill="#f8f5ff"/>
    </g>
    <path id="Path_5266" data-name="Path 5266" d="M1978.667,1037.98a2.685,2.685,0,0,1,3.154-4.232,2.721,2.721,0,0,1,.7-2.7,1.726,1.726,0,0,1,2.546.321,2.94,2.94,0,0,1,1.082-2.961,2.232,2.232,0,0,1,2.984.413,5.88,5.88,0,0,1,.907-3.735c.832-1.009,2.741-1.156,3.281.035a3.237,3.237,0,0,1,6,.129,4.743,4.743,0,0,1,8.094,2.058c.084.336.2.755.542.814a1.069,1.069,0,0,0,.48-.089,2.55,2.55,0,0,1,2.677,1.154,7.471,7.471,0,0,1,.994,2.931,2.2,2.2,0,0,1,3.447,1.416c.75-.525,1.722-1.067,2.523-.622.347.193.582.541.915.756s.877.224,1.035-.14a6.251,6.251,0,0,1,.936,2.6,3,3,0,0,1,4.805,2.668Z" transform="translate(-1421.952 -480.881)" fill="#83b6bc"/>
    <path id="Path_5267" data-name="Path 5267" d="M2537.926,1040.021a2.685,2.685,0,0,1,3.154-4.233,2.72,2.72,0,0,1,.7-2.7,1.726,1.726,0,0,1,2.546.321,2.939,2.939,0,0,1,1.083-2.961,2.232,2.232,0,0,1,2.984.413,5.883,5.883,0,0,1,.906-3.735c.832-1.009,2.742-1.156,3.281.035a3.238,3.238,0,0,1,6,.129,4.743,4.743,0,0,1,8.094,2.059c.084.336.2.754.542.814a1.066,1.066,0,0,0,.48-.089,2.551,2.551,0,0,1,2.678,1.154,7.484,7.484,0,0,1,.993,2.931,2.2,2.2,0,0,1,3.446,1.416c.751-.525,1.722-1.067,2.522-.622.347.193.582.541.916.756s.876.224,1.034-.14a6.237,6.237,0,0,1,.936,2.6,3,3,0,0,1,4.805,2.669Z" transform="translate(-1859.639 -482.478)" fill="#83b6bc"/>
    <g id="Group_2239" data-name="Group 2239" transform="translate(577.133 528.123)">
      <path id="Path_515" data-name="Path 515" d="M2093.289,977.689c-.193-1.557-1.507-3.081-3.071-2.947a6.262,6.262,0,0,0,2.076-4.54,3.421,3.421,0,0,0-1.075-2.755,1.941,1.941,0,0,0-2.4,0,5.911,5.911,0,0,0-2.638-9.063,4,4,0,0,0-3.113-.013,4.4,4.4,0,0,0-2.06,2.585,16.26,16.26,0,0,0-.5,6.338,5.022,5.022,0,0,0-3.527.638,1.824,1.824,0,0,0-.887.956,2.872,2.872,0,0,0-.084.866,16.758,16.758,0,0,0,.4,3.613,7.727,7.727,0,0,0,.536,1.563c.126.264.593,1.311.912,1.361a2.422,2.422,0,0,0-2.4,1.5,6.239,6.239,0,0,0-.367,2.983c.091,1.658.375,3.456,1.591,4.586,1.314,1.221,3.2,1.321,4.888,1.535a12.65,12.65,0,0,0,5.647-.422,9.231,9.231,0,0,0,6.071-8.786Z" transform="translate(-2075.065 -958.062)" fill="#15a3b2"/>
      <path id="Path_516" data-name="Path 516" d="M2114.645,1044.647v-13.212a.74.74,0,0,0-1.479,0v13.212a.74.74,0,0,0,1.479,0Z" transform="translate(-2104.884 -1014.926)" fill="#f8f5ff"/>
      <path id="Path_517" data-name="Path 517" d="M2116.3,1060.854a7.728,7.728,0,0,0,4.313-2.3.739.739,0,0,0-1.045-1.046c-.126.133-.256.262-.392.386q-.108.1-.22.191l-.1.082c-.05.041-.061.047,0,0a7.443,7.443,0,0,1-.955.608c-.162.086-.328.163-.495.239.065-.029.06-.025,0,0l-.121.047q-.136.052-.274.1a7.039,7.039,0,0,1-1.1.269.742.742,0,0,0-.516.91.76.76,0,0,0,.909.516Z" transform="translate(-2106.603 -1035.722)" fill="#f8f5ff"/>
      <path id="Path_518" data-name="Path 518" d="M2099.867,1045.6c-.006,0-.186.04-.069.018s-.046,0-.07,0a2.455,2.455,0,0,1-.281-.005c-.129-.008.029,0,.028.005s-.124-.024-.139-.028a2.446,2.446,0,0,1-.273-.08c-.055-.019-.146-.016-.01,0a.415.415,0,0,1-.1-.049c-.087-.042-.171-.089-.253-.14a1.746,1.746,0,0,1-.239-.163c.073.064.051.04-.008-.011q-.054-.047-.107-.1c-.143-.134-.266-.281-.4-.428-.074-.084.1.138-.016-.02l-.09-.125c-.053-.075-.1-.152-.154-.23-.223-.346-.417-.71-.611-1.074a.746.746,0,0,0-1.012-.265.756.756,0,0,0-.265,1.012,7.474,7.474,0,0,0,1.626,2.289,3.3,3.3,0,0,0,2.837.811.745.745,0,0,0,.516-.909.757.757,0,0,0-.91-.516Z" transform="translate(-2091.216 -1024.391)" fill="#f8f5ff"/>
    </g>
    <g id="Group_2240" data-name="Group 2240" transform="translate(680.832 527.377)">
      <path id="Path_519" data-name="Path 519" d="M2570.33,974.259c-.193-1.557-1.507-3.08-3.07-2.948a6.26,6.26,0,0,0,2.076-4.54,3.418,3.418,0,0,0-1.075-2.755,1.941,1.941,0,0,0-2.4,0,5.911,5.911,0,0,0-2.638-9.063,4.006,4.006,0,0,0-3.114-.013,4.4,4.4,0,0,0-2.059,2.585,16.255,16.255,0,0,0-.5,6.338,5.023,5.023,0,0,0-3.527.638,1.828,1.828,0,0,0-.887.956,2.864,2.864,0,0,0-.084.866,16.769,16.769,0,0,0,.4,3.613,7.718,7.718,0,0,0,.536,1.563c.126.264.593,1.311.912,1.361a2.424,2.424,0,0,0-2.4,1.5,6.253,6.253,0,0,0-.367,2.983c.092,1.658.375,3.456,1.592,4.586,1.313,1.221,3.2,1.321,4.887,1.535a12.641,12.641,0,0,0,5.647-.422,9.228,9.228,0,0,0,6.071-8.786Z" transform="translate(-2552.106 -954.631)" fill="#15a3b2"/>
      <path id="Path_520" data-name="Path 520" d="M2591.687,1041.217V1028a.74.74,0,0,0-1.478,0v13.212a.74.74,0,0,0,1.478,0Z" transform="translate(-2581.926 -1011.496)" fill="#f8f5ff"/>
      <path id="Path_521" data-name="Path 521" d="M2593.341,1057.424a7.734,7.734,0,0,0,4.313-2.3.739.739,0,0,0-1.045-1.046c-.126.133-.256.262-.392.386q-.108.1-.22.191l-.1.082c-.05.041-.061.046,0,0a7.438,7.438,0,0,1-.954.608c-.162.086-.328.163-.5.239.065-.029.061-.025,0,0l-.121.047q-.136.052-.274.1a7.079,7.079,0,0,1-1.1.269.742.742,0,0,0-.516.909.761.761,0,0,0,.91.516Z" transform="translate(-2583.644 -1032.292)" fill="#f8f5ff"/>
      <path id="Path_522" data-name="Path 522" d="M2576.908,1042.17c-.005,0-.186.04-.069.018s-.045,0-.07,0a2.458,2.458,0,0,1-.281-.005c-.128-.008.029,0,.029,0s-.125-.024-.14-.027a2.476,2.476,0,0,1-.273-.08c-.055-.019-.146-.016-.01,0a.434.434,0,0,1-.1-.049q-.13-.064-.253-.14a1.806,1.806,0,0,1-.239-.163c.074.064.051.04-.008-.011-.037-.031-.072-.063-.107-.1-.143-.133-.266-.281-.4-.427-.074-.084.1.138-.015-.02-.031-.041-.061-.083-.09-.124q-.079-.114-.154-.23c-.223-.346-.417-.71-.61-1.073a.746.746,0,0,0-1.012-.265.756.756,0,0,0-.266,1.011,7.478,7.478,0,0,0,1.626,2.289,3.3,3.3,0,0,0,2.837.81.745.745,0,0,0,.516-.909.757.757,0,0,0-.91-.517Z" transform="translate(-2568.257 -1020.961)" fill="#f8f5ff"/>
    </g>
  </g>
</svg>
