<?xml version="1.0" encoding="utf-8"?>
<!-- Generator: Adobe Illustrator 24.0.1, SVG Export Plug-In . SVG Version: 6.00 Build 0)  -->
<svg version="1.1" id="Layer_1" xmlns="http://www.w3.org/2000/svg" xmlns:xlink="http://www.w3.org/1999/xlink" x="0px" y="0px"
	 viewBox="0 0 100 100" style="enable-background:new 0 0 100 100;" xml:space="preserve">
<style type="text/css">
	.st0{fill:#FFFFFF;}
</style>
<g>
	<line class="st0" x1="84.9" y1="29" x2="15.1" y2="29"/>
	<path class="st0" d="M84.9,34H15.1c-2.8,0-5-2.2-5-5s2.2-5,5-5h69.8c2.8,0,5,2.2,5,5S87.7,34,84.9,34z"/>
	<line class="st0" x1="84.9" y1="47" x2="15.1" y2="47"/>
	<path class="st0" d="M84.9,52H15.1c-2.8,0-5-2.2-5-5s2.2-5,5-5h69.8c2.8,0,5,2.2,5,5S87.7,52,84.9,52z"/>
	<line class="st0" x1="84.9" y1="66" x2="15.1" y2="66"/>
	<path class="st0" d="M84.9,71H15.1c-2.8,0-5-2.2-5-5c0-2.8,2.2-5,5-5h69.8c2.8,0,5,2.2,5,5C89.9,68.8,87.7,71,84.9,71z"/>
	<path class="st0" d="M49.7,96C59.8,96,68,87.8,68,77.7H31.5C31.5,87.8,39.6,96,49.7,96z"/>
</g>
</svg>
