<svg xmlns="http://www.w3.org/2000/svg" viewBox="0 0 328.55 621.54"><title>deliver</title><g id="Layer_2" data-name="Layer 2"><g id="Layer_1-2" data-name="Layer 1"><rect x="206.74" y="157.84" width="121.81" height="100.44" fill="#d1d3d4"/><rect x="145.84" y="157.84" width="121.81" height="100.44" fill="#939598"/><polygon points="328.48 232.81 309.18 232.81 310.88 227.38 309.18 223.5 328.48 223.5 328.48 232.81" fill="#374255"/><polygon points="145.84 180.37 165.14 180.37 163.44 174.94 165.14 171.06 145.84 171.06 145.84 180.37" fill="#141f2d"/><polygon points="145.84 242.12 165.14 242.12 163.44 236.69 165.14 232.81 145.84 232.81 145.84 242.12" fill="#141f2d"/><path d="M.87,605.11l55,16.43c0-2.14-.82-6.08-6.6-8.88-8.07-3.92-21.29-13.24-21.32-25.06,0-.38,0-.77,0-1.16.86-12.36-22.59-2.89-22.59-2.89s-.2.45-.51,1.22C3.13,588.87-2,602.11.87,605.11Z" fill="#414042"/><path d="M137.81,299.36s-13.6,35-29.88,77.09c-22.11,57.17-49.15,127.44-53.77,140.9C46.14,540.73,31,577.44,31,577.44s-11.67,6.3-28.52-2.87c0,0,.14-58.82,12.67-117.34l.63-2.89C29,394.88,59,270.37,59,270.37Z" fill="#374255"/><path d="M137.81,299.36s-13.6,35-29.88,77.09L15.17,457.23l.63-2.89C29,394.88,59,270.37,59,270.37Z" fill="#141f2d"/><path d="M134.28,263.3s13.48,145.31,10.79,218.21-4.5,93.79-4.5,93.79-21.85,2-26-2.1c0,0-43.82-115.71-36.24-153.23,4.27-21.21-4.77-73.67-12.19-89.84s-19.8-49.35-19.8-49.35Z" fill="#374255"/><path d="M114,109.14c-21.06,8.55-59.55-9.73-59.55-9.73S67.2,88.09,69.63,66.67c.13-1.08.22-2.18.29-3.31L80.8,59.49l18.65,12.7a144.49,144.49,0,0,1-.21,17.18c-.11,1.91-.26,3.95-.46,6.14C108.47,99.86,114,109.14,114,109.14Z" fill="#f47859"/><path d="M99.45,72.19a144.49,144.49,0,0,1-.21,17.18c-17-3.09-26.31-16.8-29.61-22.7.13-1.08.22-2.18.29-3.31L80.8,59.49Z" fill="#ed6344"/><path d="M102.9,81.29S66.63,80.11,67.71,57.53,64.84,19.6,88.05,19.4,115.33,28,116.8,35.66,112.36,81,102.9,81.29Z" fill="#f47859"/><path d="M69.63,66.67s-1.41-7.51,2.67-12.46c0,0-2.64-7.36.2-9s4.3,4.64,5.54,3.46,6.73-6.75,8.42-14.1,26.84-2.08,29.81-1.19S99.58-2.43,78.36,6.26,55.54,25.84,58,34.67,60.22,64.85,69.63,66.67Z" fill="#141f2d"/><path d="M32.36,189.41c3.15,38.05-1,95.93,2.58,106,3.09,8.65,38.25,3.5,52.27.62,5.2-1.08,11.5-2.6,18-4.4,18.13-5,37.88-12.23,40-17.58a3.87,3.87,0,0,0,.19-.61,4.35,4.35,0,0,0,0-2.24c-.52-2-2.15-4.15-3.1-7.86a23.33,23.33,0,0,1-.65-4.55c-.33-6.9-.31-14.91-.55-23.53,0-.79-.05-1.59-.07-2.39,0-1.08,0-2.24-.16-3.31v-.4c0-.2,0-.4,0-.6-.3-10.64-.92-21.81-1.64-32.89-.22-3.46-.47-6.9-.74-10.29-.08-1.2-.18-2.4-.27-3.58-.19-2.22-.37-4.42-.58-6.59-1.58-17-3.71-32.21-6.53-41.8-4.6-15.62-14.77-25.81-24-33.27l-6.69-5.16A42.68,42.68,0,0,1,76.06,92c-8.63-3.69-11.62-6.33-13.12-5.33C43,100.53,28.64,142.88,32.36,189.41Z" fill="#0f7b84"/><path d="M88.64,160.48s25,91.65,53.62,102.82a23.33,23.33,0,0,1-.65-4.55c-.33-6.9-.31-14.91-.55-23.53,0-.79-.05-1.59-.07-2.39,0-1.08,0-2.24-.16-3.31v-.4c0-.2,0-.4,0-.6-.3-10.64-.92-21.81-1.64-32.89-.22-3.46-.47-6.9-.74-10.29C125.84,170.13,108.76,159.2,88.64,160.48Z" fill="#005d64"/><path d="M238.8,195.79s10.9.84,13.7,0,16-8.69,20.73-7,16.82,14,13.73,19.61c0,0-5.6.14-10.78-5.18s-10.79-1.68-10.23-1,8.69,3.92,7.28,5.32-12,1.12-14.57-.56-21.29.42-21.29.42Z" fill="#f47859"/><path d="M88.64,112.15s67.79,57.78,85.64,63.36,80.88,17.82,80.88,17.82,1.74,14.92-4.17,20.53c0,0-81-4.7-91.09-6.83S74.65,166,68.52,163,63.34,107.39,88.64,112.15Z" fill="#0f7b84"/><path d="M52.64,36.16v.35a2.4,2.4,0,0,0,1.06,2.11,1.45,1.45,0,0,0,.66.18H140.3c.95,0,1.73-1,1.73-2.29v-.35c0-1.26-.78-2.29-1.73-2.29L121.11,31.4C119.32,17.15,109.85,5.51,97.33,1.5h0A31.43,31.43,0,0,0,87.7,0C70.06,0,55.61,14.57,54.11,33.14c0,.21,0,.42,0,.64l-.36.27A2.41,2.41,0,0,0,52.64,36.16Z" fill="#f05423"/><path d="M81.68,33.14C75.28-.76,96.6,1.42,97.32,1.5A31.43,31.43,0,0,0,87.7,0C70.06,0,55.61,14.57,54.11,33.14Z" fill="#0e6fb8" opacity="0.26"/><path d="M118.16,595.45l4.19,13.43a5.22,5.22,0,0,0,5,3.66h64a5.21,5.21,0,0,0,2.39-9.85l-50.37-26a5.23,5.23,0,0,0-5.39.37l-17.84,12.51A5.23,5.23,0,0,0,118.16,595.45Z" fill="#414042"/></g></g></svg>