<svg xmlns="http://www.w3.org/2000/svg" width="547.705" height="85.477" viewBox="0 0 547.705 85.477">
  <g id="Group_2378" data-name="Group 2378" transform="translate(1761.705 -2003.404)">
    <g id="Group_2376" data-name="Group 2376" transform="translate(-1761.705 2003.404)" opacity="0.47">
      <g id="Group_1554" data-name="Group 1554" transform="translate(0 23.997)" style="isolation: isolate">
        <path id="Path_402" data-name="Path 402" d="M708.346,878.06V834.589h6.831V816.58h8.384V834.9h2.07v-8.073h5.8v7.97H739.6v15.318h5.382v-5.8l6.935-6.935v6.831h4.14V824.55h8.591v53.51Z" transform="translate(-599.674 -816.58)" fill="#15a3b2"/>
        <path id="Path_403" data-name="Path 403" d="M458.387,878.06V834.589h6.831V816.58H473.6V834.9h2.07v-8.073h5.8v7.97h8.177v15.318h5.382v-5.8l6.935-6.935v6.831h4.14V824.55h8.591v53.51Z" transform="translate(-404.051 -816.58)" fill="#15a3b2"/>
        <path id="Path_404" data-name="Path 404" d="M208.428,878.06V834.589h6.831V816.58h8.384V834.9h2.07v-8.073h5.8v7.97h8.177v15.318h5.382v-5.8L252,837.384v6.831h4.14V824.55h8.591v53.51Z" transform="translate(-208.428 -816.58)" fill="#15a3b2"/>
        <path id="Path_405" data-name="Path 405" d="M958.578,878.06V834.589h6.831V816.58h8.384V834.9h2.07v-8.073h5.8v7.97h8.177v15.318h5.382v-5.8l6.935-6.935v6.831h4.14V824.55h8.591v53.51Z" transform="translate(-795.511 -816.58)" fill="#15a3b2"/>
        <path id="Path_406" data-name="Path 406" d="M1209.08,878.06V834.589h6.831V816.58h8.384V834.9h2.07v-8.073h5.8v7.97h8.177v15.318h5.382v-5.8l6.935-6.935v6.831h4.14V824.55h8.591v53.51Z" transform="translate(-991.559 -816.58)" fill="#15a3b2"/>
      </g>
      <g id="Group_1555" data-name="Group 1555" transform="translate(32.341 21.1)" opacity="0.989">
        <path id="Path_407" data-name="Path 407" d="M363.571,807.313h0a3.237,3.237,0,1,0-6.262,0h0v0a3.22,3.22,0,0,0,.384.888,44.919,44.919,0,0,0,2.746,5c1.253-2.145,2.255-3.936,2.788-5.067a3.223,3.223,0,0,0,.342-.818Z" transform="translate(-357.203 -803.253)" fill="#1f60b0"/>
        <circle id="Ellipse_6" data-name="Ellipse 6" cx="1.536" cy="1.536" r="1.536" transform="translate(1.701 1.701)" fill="#fff"/>
      </g>
      <g id="Group_1556" data-name="Group 1556" transform="translate(139.948 6.542)" opacity="0.996">
        <path id="Path_408" data-name="Path 408" d="M1272.615,740.34h0a3.237,3.237,0,1,0-6.262,0h0v0a3.225,3.225,0,0,0,.384.888,44.914,44.914,0,0,0,2.746,5c1.253-2.145,2.256-3.937,2.788-5.067a3.213,3.213,0,0,0,.342-.818Z" transform="translate(-1266.247 -736.28)" fill="#fb8565"/>
        <path id="Path_409" data-name="Path 409" d="M1277.142,745.639a1.536,1.536,0,1,1-1.536-1.536A1.536,1.536,0,0,1,1277.142,745.639Z" transform="translate(-1272.369 -742.402)" fill="#fff"/>
      </g>
      <g id="Group_1557" data-name="Group 1557" transform="translate(249.918)" opacity="0.996">
        <path id="Path_410" data-name="Path 410" d="M1364.482,710.247h0a3.237,3.237,0,1,0-6.262,0h0v0a3.21,3.21,0,0,0,.384.888,44.96,44.96,0,0,0,2.746,5c1.253-2.145,2.255-3.936,2.788-5.067a3.228,3.228,0,0,0,.343-.818Z" transform="translate(-1358.114 -706.187)" fill="#fb8565"/>
        <path id="Path_411" data-name="Path 411" d="M1369.01,715.546a1.536,1.536,0,1,1-1.536-1.536A1.536,1.536,0,0,1,1369.01,715.546Z" transform="translate(-1364.237 -712.309)" fill="#fff"/>
      </g>
      <g id="Group_1558" data-name="Group 1558" transform="translate(12.32 13.573)" opacity="0.07">
        <path id="Path_412" data-name="Path 412" d="M270.262,771.914h0a2.622,2.622,0,1,0-5.072,0h0v0a2.62,2.62,0,0,0,.311.719,36.424,36.424,0,0,0,2.225,4.049c1.015-1.737,1.827-3.189,2.258-4.1a2.6,2.6,0,0,0,.277-.663Z" transform="translate(-265.104 -768.626)" fill="#1f60b0"/>
        <path id="Path_413" data-name="Path 413" d="M273.93,776.207a1.244,1.244,0,1,1-1.244-1.244A1.244,1.244,0,0,1,273.93,776.207Z" transform="translate(-270.063 -773.585)" fill="#fff"/>
      </g>
    </g>
    <g id="Group_2377" data-name="Group 2377" transform="translate(-1487.826 2003.404)" opacity="0.47">
      <g id="Group_1560" data-name="Group 1560" transform="translate(0 23.997)" style="isolation: isolate">
        <path id="Path_414" data-name="Path 414" d="M1908.454,878.06V834.589h6.831V816.58h8.384V834.9h2.07v-8.073h5.8v7.97h8.177v15.318h5.382v-5.8l6.935-6.935v6.831h4.14V824.55h8.591v53.51Z" transform="translate(-1799.782 -816.58)" fill="#15a3b2"/>
        <path id="Path_415" data-name="Path 415" d="M1658.495,878.06V834.589h6.831V816.58h8.384V834.9h2.07v-8.073h5.8v7.97h8.177v15.318h5.382v-5.8l6.935-6.935v6.831h4.14V824.55h8.591v53.51Z" transform="translate(-1604.159 -816.58)" fill="#15a3b2"/>
        <path id="Path_416" data-name="Path 416" d="M1408.536,878.06V834.589h6.831V816.58h8.384V834.9h2.07v-8.073h5.8v7.97h8.177v15.318h5.382v-5.8l6.934-6.935v6.831h4.14V824.55h8.591v53.51Z" transform="translate(-1408.536 -816.58)" fill="#15a3b2"/>
        <path id="Path_417" data-name="Path 417" d="M2158.685,878.06V834.589h6.831V816.58h8.384V834.9h2.07v-8.073h5.8v7.97h8.177v15.318h5.382v-5.8l6.935-6.935v6.831h4.14V824.55h8.591v53.51Z" transform="translate(-1995.618 -816.58)" fill="#15a3b2"/>
        <path id="Path_418" data-name="Path 418" d="M2409.188,878.06V834.589h6.831V816.58h8.384V834.9h2.07v-8.073h5.8v7.97h8.177v15.318h5.382v-5.8l6.935-6.935v6.831h4.14V824.55h8.591v53.51Z" transform="translate(-2191.667 -816.58)" fill="#15a3b2"/>
      </g>
      <g id="Group_1561" data-name="Group 1561" transform="translate(142.34 15.1)">
        <path id="Path_419" data-name="Path 419" d="M1563.678,807.313h0a3.237,3.237,0,1,0-6.262,0h0v0a3.222,3.222,0,0,0,.384.888,44.967,44.967,0,0,0,2.747,5c1.253-2.145,2.255-3.936,2.788-5.067a3.2,3.2,0,0,0,.342-.818Z" transform="translate(-1557.31 -803.253)" fill="#fb8565"/>
        <circle id="Ellipse_7" data-name="Ellipse 7" cx="1.536" cy="1.536" r="1.536" transform="translate(1.701 1.701)" fill="#fff"/>
      </g>
      <g id="Group_1562" data-name="Group 1562" transform="translate(229.948 6.542)" opacity="0.07">
        <path id="Path_420" data-name="Path 420" d="M2472.722,740.34h0a3.237,3.237,0,1,0-6.262,0h0v0a3.22,3.22,0,0,0,.384.888,44.96,44.96,0,0,0,2.746,5c1.253-2.145,2.255-3.937,2.787-5.067a3.187,3.187,0,0,0,.343-.818Z" transform="translate(-2466.354 -736.28)" fill="#1f60b0"/>
        <path id="Path_421" data-name="Path 421" d="M2477.25,745.639a1.536,1.536,0,1,1-1.536-1.536A1.536,1.536,0,0,1,2477.25,745.639Z" transform="translate(-2472.477 -742.402)" fill="#fff"/>
      </g>
      <g id="Group_1563" data-name="Group 1563" transform="translate(249.918)" opacity="0.07">
        <path id="Path_422" data-name="Path 422" d="M2564.589,710.247h0a3.237,3.237,0,1,0-6.262,0h0v0a3.21,3.21,0,0,0,.384.888,44.847,44.847,0,0,0,2.746,5c1.253-2.145,2.256-3.936,2.788-5.067a3.189,3.189,0,0,0,.342-.818Z" transform="translate(-2558.222 -706.187)" fill="#1f60b0"/>
        <path id="Path_423" data-name="Path 423" d="M2569.118,715.546a1.536,1.536,0,1,1-1.536-1.536A1.536,1.536,0,0,1,2569.118,715.546Z" transform="translate(-2564.345 -712.309)" fill="#fff"/>
      </g>
      <g id="Group_1564" data-name="Group 1564" transform="translate(12.32 7.573)">
        <path id="Path_424" data-name="Path 424" d="M1470.369,771.914h0a2.622,2.622,0,1,0-5.072,0h0v0a2.6,2.6,0,0,0,.311.719,36.4,36.4,0,0,0,2.224,4.049c1.015-1.737,1.827-3.189,2.258-4.1a2.6,2.6,0,0,0,.277-.663Z" transform="translate(-1465.211 -768.626)" fill="#fb8565"/>
        <path id="Path_425" data-name="Path 425" d="M1474.036,776.207a1.244,1.244,0,1,1-1.244-1.244A1.244,1.244,0,0,1,1474.036,776.207Z" transform="translate(-1470.17 -773.585)" fill="#fff"/>
      </g>
    </g>
  </g>
</svg>
