<svg xmlns="http://www.w3.org/2000/svg" xmlns:xlink="http://www.w3.org/1999/xlink" viewBox="0 0 417.89 249.42"><defs><linearGradient id="linear-gradient" x1="-930.78" y1="663.42" x2="-930.78" y2="662.42" gradientTransform="matrix(19.88, 0, 0, -17.33, 18528.17, 11568.78)" gradientUnits="userSpaceOnUse"><stop offset="0" stop-color="#f0f4f8"/><stop offset="1" stop-color="#15a3b2"/></linearGradient></defs><title>icon-l</title><g id="Layer_2" data-name="Layer 2"><g id="OBJECTS"><circle cx="62.72" cy="228.91" r="17.72" transform="translate(-82.83 41.43) rotate(-22.5)" fill="#fff"/><path d="M78,215.71a20.19,20.19,0,0,1-23,31.87" fill="none" stroke="#fff" stroke-linecap="round" stroke-miterlimit="10" stroke-width="0.64"/><path d="M49.06,243.77a20.18,20.18,0,0,1,13.66-35.05" fill="none" stroke="#fff" stroke-linecap="round" stroke-miterlimit="10" stroke-width="0.64"/><g id="info"><g id="info-2"><path d="M62.63,238.28a9.53,9.53,0,1,1,6.71-2.79A9.17,9.17,0,0,1,62.63,238.28Zm-.41-5.47H63v-4.4h-.81Zm0-7.21H63v-.81h-.81Z" fill="#f0f4f8"/><path d="M62.63,219.82a8.7,8.7,0,0,0-6.37,2.63A9,9,0,0,0,69,235.14a9,9,0,0,0-6.36-15.32m.9,6.28H61.72v-1.81h1.81v1.81m0,7.21H61.72v-5.4h1.81v5.4m-.9-14.49a10,10,0,1,1-7.08,2.92A9.64,9.64,0,0,1,62.63,218.82Z" fill="#15a3b2"/></g></g><circle cx="114.72" cy="44.31" r="28.78" transform="translate(2.27 94.1) rotate(-45)" fill="#fff"/><path d="M139.53,22.88a32.79,32.79,0,0,1-37.29,51.75" fill="none" stroke="#fff" stroke-linecap="round" stroke-miterlimit="10" stroke-width="1.04"/><path d="M92.54,68.45a32.78,32.78,0,0,1,22.18-56.92" fill="none" stroke="#fff" stroke-linecap="round" stroke-miterlimit="10" stroke-width="1.04"/><g id="bx-map-pin"><path id="Path_1370" data-name="Path 1370" d="M114.72,52.16l1.77-3.54V39.55a7.06,7.06,0,1,0-3.54,0v9.07Zm-3.53-19.42a3.53,3.53,0,1,1,3.53,3.53A3.54,3.54,0,0,1,111.19,32.74Z" fill="#15a3b2"/><path id="Path_1370_-_Outline" data-name="Path 1370 - Outline" d="M114.72,53.27l-2.26-4.53V39.92a7.56,7.56,0,1,1,4.53,0v8.82Zm-1.26-4.76L114.72,51,116,48.51V39.16l.37-.1a6.56,6.56,0,1,0-3.28,0l.38.1Zm1.26-11.74a4,4,0,1,1,4-4h0a4,4,0,0,1-4,4Zm0-7.07a3,3,0,1,0,3,3,3,3,0,0,0-3-3Z" fill="#f0f4f8"/><path id="Path_1371" data-name="Path 1371" d="M122.25,40.79l-.94,3.4c4.58,1.27,7.53,3.7,7.53,6.2,0,3.34-5.8,7.06-14.12,7.06s-14.12-3.72-14.12-7.06c0-2.5,3-4.93,7.53-6.2l-.94-3.4c-6.25,1.73-10.12,5.4-10.12,9.6,0,5.94,7.75,10.59,17.65,10.59s17.65-4.65,17.65-10.59C132.37,46.19,128.5,42.52,122.25,40.79Z" fill="#15a3b2"/><path id="Path_1371_-_Outline" data-name="Path 1371 - Outline" d="M107.54,40.17l1.21,4.38-.49.13a14.61,14.61,0,0,0-5.3,2.54,4.31,4.31,0,0,0-1.86,3.17c0,1.48,1.37,3.1,3.67,4.35a23.36,23.36,0,0,0,19.9,0c2.3-1.24,3.67-2.87,3.67-4.34a4.29,4.29,0,0,0-1.86-3.17,14.45,14.45,0,0,0-5.3-2.54l-.49-.14,1.22-4.36.48.13c6.47,1.79,10.49,5.65,10.49,10.08,0,3-1.9,5.88-5.36,8a25.23,25.23,0,0,1-12.8,3.14,25.2,25.2,0,0,1-12.8-3.14c-3.45-2.07-5.35-4.89-5.35-8,0-4.43,4-8.29,10.49-10.08Zm0,3.68-.68-2.44c-5.73,1.71-9.27,5.13-9.27,9,0,2.69,1.73,5.21,4.87,7.09a24.14,24.14,0,0,0,12.28,3,24.16,24.16,0,0,0,12.28-3c3.14-1.88,4.87-4.4,4.87-7.09,0-3.85-3.54-7.27-9.27-9l-.67,2.44a14.87,14.87,0,0,1,5.18,2.6,5.26,5.26,0,0,1,2.23,3.94c0,1.88-1.53,3.78-4.2,5.23a24.37,24.37,0,0,1-20.84,0c-2.67-1.45-4.2-3.35-4.2-5.23a5.26,5.26,0,0,1,2.23-3.94A14.92,14.92,0,0,1,107.52,43.85Z" fill="#f0f4f8"/></g><circle cx="335.72" cy="37.62" r="32.52" fill="#fff"/><path d="M363.74,13.41a37,37,0,0,1-42.13,58.47" fill="none" stroke="#fff" stroke-linecap="round" stroke-miterlimit="10" stroke-width="1.17"/><path d="M310.65,64.89A37,37,0,0,1,335.72.59" fill="none" stroke="#fff" stroke-linecap="round" stroke-miterlimit="10" stroke-width="1.17"/><path id="local-shipping" d="M349.11,29.5l5,6.68v8.4h-3.3a5.11,5.11,0,0,1-5.07,5,4.75,4.75,0,0,1-3.54-1.5,4.86,4.86,0,0,1-1.45-3.53h-10a4.84,4.84,0,0,1-1.49,3.53,4.93,4.93,0,0,1-3.58,1.5,4.72,4.72,0,0,1-3.53-1.5,4.87,4.87,0,0,1-1.46-3.53H317.3V26.12a3.35,3.35,0,0,1,3.37-3.38h23.41V29.5ZM325.66,47.1a2.55,2.55,0,0,0,2.55-2.54h0a2.31,2.31,0,0,0-.74-1.77,2.55,2.55,0,0,0-1.81-.71,2.42,2.42,0,0,0-2.47,2.36v.11a2.52,2.52,0,0,0,.71,1.81A2.34,2.34,0,0,0,325.66,47.1ZM348.32,32h-4.24v4.16h7.46ZM345.77,47.1a2.55,2.55,0,0,0,2.55-2.54h0a2.31,2.31,0,0,0-.74-1.77,2.55,2.55,0,0,0-1.81-.71,2.42,2.42,0,0,0-2.47,2.36v.11a2.48,2.48,0,0,0,.71,1.81A2.34,2.34,0,0,0,345.77,47.1Z" fill="#19383b"/><circle cx="38.71" cy="170.54" r="33.46" fill="#fff"/><path d="M67.54,145.62A38.12,38.12,0,0,1,24.2,205.78" fill="none" stroke="#fff" stroke-linecap="round" stroke-miterlimit="10" stroke-width="1.21"/><path d="M12.92,198.59a38.1,38.1,0,0,1,25.79-66.16" fill="none" stroke="#fff" stroke-linecap="round" stroke-miterlimit="10" stroke-width="1.21"/><path id="location-sharp" d="M37.71,154.79c-6.21,0-11.25,4.53-11.25,10.12,0,9,11.25,21.38,11.25,21.38S49,173.91,49,164.91C49,159.32,43.92,154.79,37.71,154.79Zm0,15.75a4.5,4.5,0,1,1,4.5-4.5A4.5,4.5,0,0,1,37.71,170.54Z" fill="#137481"/><circle cx="34.65" cy="81.12" r="20.6" transform="translate(-52.26 96.21) rotate(-76.72)" fill="#fff"/><path d="M52.41,65.78a23.47,23.47,0,0,1-26.69,37.05" fill="none" stroke="#fff" stroke-linecap="round" stroke-miterlimit="10" stroke-width="0.74"/><path d="M18.77,98.4A23.47,23.47,0,0,1,34.65,57.65" fill="none" stroke="#fff" stroke-linecap="round" stroke-miterlimit="10" stroke-width="0.74"/><g id="accelero"><path id="accelerometer" d="M29,84.8l-4.88-4.87h3.38c.37-8.42,3.58-15,7.5-15,3,0,5.65,4,6.82,9.67,5.72,1.17,9.68,3.83,9.68,6.83a3.87,3.87,0,0,1-.32,1.46c-.66,2-3.64,3.87-7.78,5l.43-3c2.87-.82,4.67-2,4.67-3.4,0-1.59-2.48-3-6.2-3.75a35.94,35.94,0,0,1,.2,3.75c0,9.12-3.36,16.5-7.5,16.5-2.75,0-5.15-3.26-6.45-8.1l3,.43c.83,2.87,2,4.67,3.41,4.67,2.49,0,4.5-6.05,4.5-13.5a38.23,38.23,0,0,0-.23-4.28A38,38,0,0,0,35,76.93L32.17,77l.43-3L35,73.93a36.22,36.22,0,0,1,3.75.19C38,70.4,36.55,67.93,35,67.93c-2.31,0-4.23,5.25-4.5,12h3.37L29,84.8" fill="#677786"/><path id="accelerometer_-_Outline" data-name="accelerometer - Outline" d="M35,98.43A5.45,5.45,0,0,1,30.8,96,17.2,17.2,0,0,1,28,90l-.2-.74,4.11.59.09.31c.78,2.7,1.87,4.31,2.93,4.31,1.89,0,4-5.34,4-13,0-1.33-.06-2.61-.18-3.82-1.21-.12-2.49-.18-3.81-.18l-3.38.1.58-4L35,73.43c1,0,2.06,0,3.12.13-.73-3.1-1.95-5.13-3.12-5.13-.88,0-1.8,1.14-2.55,3.14A28,28,0,0,0,31,79.43H35L29,85.51l-6.08-6.08H27a27.73,27.73,0,0,1,2.45-10.38c1.48-3,3.45-4.62,5.53-4.62,1.63,0,3.19,1,4.51,2.9a19.52,19.52,0,0,1,2.74,6.85,19.1,19.1,0,0,1,6.84,2.74C51,78.24,52,79.8,52,81.43a4.57,4.57,0,0,1-.34,1.63,6.5,6.5,0,0,1-2.8,3.06,19.39,19.39,0,0,1-5.33,2.24l-.73.2.59-4.12.31-.09c2.69-.78,4.3-1.87,4.3-2.92s-2-2.4-5.13-3.12c.08,1.06.13,2.1.13,3.12A29.45,29.45,0,0,1,40.72,93.3C39.21,96.61,37.17,98.43,35,98.43Zm-5.76-8c1.32,4.33,3.49,7,5.76,7a3.83,3.83,0,0,0,2.58-1.17,10.43,10.43,0,0,0,2.27-3.37A28.51,28.51,0,0,0,42,81.43c0-1.24-.07-2.48-.19-3.7l-.07-.68.66.13A15.58,15.58,0,0,1,47,78.8c1.61,1,2,2,2,2.63,0,1.52-1.67,2.86-4.72,3.79l-.28,2c3.54-1.07,6.14-2.79,6.71-4.45h0A3.61,3.61,0,0,0,51,81.43c0-2.66-3.73-5.2-9.28-6.34L41.36,75l-.07-.33c-1.13-5.55-3.68-9.27-6.33-9.27-3.56,0-6.64,6.37-7,14.52l0,.48H25.29L29,84.09l3.67-3.66H29.94l0-.52a29.17,29.17,0,0,1,1.52-8.69C32.64,68.08,34,67.43,35,67.43c.67,0,1.66.33,2.62,1.94A15.19,15.19,0,0,1,39.2,74l.13.66-.67-.07c-1.23-.12-2.46-.19-3.69-.19L33,74.49l-.29,2L35,76.43a39.12,39.12,0,0,1,4.33.22l.4,0,0,.4A39,39,0,0,1,40,81.43a32.2,32.2,0,0,1-1.34,9.7,10.17,10.17,0,0,1-1.51,3A2.82,2.82,0,0,1,35,95.43c-1.52,0-2.86-1.68-3.79-4.72Z" fill="#fff"/><path id="accelerometer-2" d="M38.83,87.43,34,92.3V88.93c-8.42-.38-15-3.59-15-7.5,0-2.75,3.25-5.15,8.1-6.45l-.44,3c-2.86.82-4.66,2-4.66,3.4,0,2.31,5.25,4.23,12,4.5V82.55Z" fill="url(#linear-gradient)"/><path id="accelerometer_-_Outline-2" data-name="accelerometer - Outline-2" d="M33.46,93.51V89.4A27.4,27.4,0,0,1,23.08,87c-3-1.48-4.62-3.44-4.62-5.52a5.39,5.39,0,0,1,2.43-4.16,17.23,17.23,0,0,1,6-2.78l.73-.2-.59,4.12-.31.09c-2.69.78-4.3,1.87-4.3,2.93,0,.87,1.15,1.8,3.14,2.54a27.39,27.39,0,0,0,7.86,1.43V81.34l6.08,6.09Zm-7-17.84c-4.34,1.31-7,3.48-7,5.76,0,3.56,6.38,6.63,14.52,7l.48,0v2.64l3.67-3.66-3.67-3.67v2.69l-.52,0a29.55,29.55,0,0,1-8.69-1.52c-3.13-1.17-3.79-2.54-3.79-3.48,0-1.53,1.67-2.87,4.71-3.8Z" fill="#fff"/></g><circle cx="265.56" cy="50.47" r="22.04" fill="#fff"/><path d="M284.55,34.06A25.11,25.11,0,0,1,256,73.69" fill="none" stroke="#fff" stroke-linecap="round" stroke-miterlimit="10" stroke-width="0.8"/><path d="M248.57,69a25.1,25.1,0,0,1,17-43.58" fill="none" stroke="#fff" stroke-linecap="round" stroke-miterlimit="10" stroke-width="0.8"/><g id="humidity-alt"><path id="Path_5185" data-name="Path 5185" d="M273.56,45.19a3.31,3.31,0,0,1-3-5.17l2.23-3.32a.91.91,0,0,1,1.29-.18.77.77,0,0,1,.18.18L276.5,40a3.57,3.57,0,0,1,.6,1.87,3.45,3.45,0,0,1-3.54,3.35Zm0-6.41L272.1,41a1.58,1.58,0,0,0-.3.88,1.78,1.78,0,0,0,3.54,0,1.8,1.8,0,0,0-.33-.92Z" fill="#677786"/><path id="humidity" d="M272.55,49.68l-7.46-11.87a1.17,1.17,0,0,0-1.63-.28,1.2,1.2,0,0,0-.27.28L255.7,49.74A11.25,11.25,0,0,0,254,55.32a10.13,10.13,0,0,0,20.25,0,11.29,11.29,0,0,0-1.71-5.64Zm-8.41,13.51a7.9,7.9,0,0,1-7.88-7.88,9,9,0,0,1,1.37-4.43l1.06-1.68L270,60.54a7.87,7.87,0,0,1-5.88,2.65Z" fill="#15a3b2"/></g><path d="M226.17,18.39l-3.56.18L222.8,15a12.38,12.38,0,0,0-4.6-1.89l-2.38,2.64-2.39-2.64A12.33,12.33,0,0,0,208.84,15l.18,3.56-3.56-.18a12.49,12.49,0,0,0-1.9,4.6l2.64,2.38-2.64,2.38a12.49,12.49,0,0,0,1.9,4.6l3.56-.18-.18,3.56a12.33,12.33,0,0,0,4.59,1.89L215.82,35l2.38,2.64a12.38,12.38,0,0,0,4.6-1.89l-.19-3.56,3.56.18a12.33,12.33,0,0,0,1.9-4.6l-2.64-2.38L228.07,23A12.33,12.33,0,0,0,226.17,18.39Z" fill="none" stroke="#fff" stroke-miterlimit="10" stroke-width="0.5"/><path d="M221.28,25.37a5.47,5.47,0,1,1-5.46-5.46A5.46,5.46,0,0,1,221.28,25.37Z" fill="none" stroke="#fff" stroke-miterlimit="10" stroke-width="0.5"/><path d="M415.72,33l-3.56.18.19-3.56a12.64,12.64,0,0,0-4.6-1.9l-2.38,2.64L403,27.73a12.52,12.52,0,0,0-4.59,1.9l.18,3.56L395,33a12.49,12.49,0,0,0-1.9,4.6L395.75,40l-2.64,2.38A12.56,12.56,0,0,0,395,47l3.56-.18-.18,3.55a12.19,12.19,0,0,0,4.59,1.9l2.39-2.64,2.38,2.64a12.3,12.3,0,0,0,4.6-1.9l-.19-3.55,3.56.18a12.4,12.4,0,0,0,1.9-4.6L415,40l2.64-2.38A12.33,12.33,0,0,0,415.72,33Z" fill="none" stroke="#fff" stroke-miterlimit="10" stroke-width="0.5"/><path d="M410.83,40a5.47,5.47,0,1,1-5.46-5.46A5.46,5.46,0,0,1,410.83,40Z" fill="none" stroke="#fff" stroke-miterlimit="10" stroke-width="0.5"/><path d="M34.25,224.6a8.43,8.43,0,0,0-1.32-3.19l-2.46.12.12-2.47a8.58,8.58,0,0,0-3.19-1.31l-1.65,1.83-1.65-1.83a8.58,8.58,0,0,0-3.19,1.31l.12,2.47-2.46-.12a8.43,8.43,0,0,0-1.32,3.19l1.83,1.65-1.83,1.65a8.5,8.5,0,0,0,1.32,3.19L21,231l-.12,2.46a8.43,8.43,0,0,0,3.19,1.32l1.65-1.83,1.65,1.83a8.43,8.43,0,0,0,3.19-1.32L30.47,231l2.46.12a8.5,8.5,0,0,0,1.32-3.19l-1.83-1.65ZM25.75,230a3.79,3.79,0,1,1,3.79-3.79A3.79,3.79,0,0,1,25.75,230Z" fill="#fff"/><path d="M393.11,18.25a8.72,8.72,0,0,0-1.31-3.19l-2.47.13.12-2.47a8.42,8.42,0,0,0-3.19-1.31l-1.65,1.83L383,11.41a8.42,8.42,0,0,0-3.19,1.31l.12,2.47-2.46-.13a8.57,8.57,0,0,0-1.32,3.19l1.83,1.66-1.83,1.65a8.57,8.57,0,0,0,1.32,3.19l2.46-.13-.12,2.47A8.6,8.6,0,0,0,383,28.41l1.65-1.83,1.65,1.83a8.6,8.6,0,0,0,3.19-1.32l-.12-2.47,2.47.13a8.72,8.72,0,0,0,1.31-3.19l-1.83-1.65Zm-8.5,5.45a3.79,3.79,0,1,1,3.79-3.79A3.79,3.79,0,0,1,384.61,23.7Z" fill="#fff"/></g></g></svg>