<?xml version="1.0" encoding="utf-8"?>
<!-- Generator: Adobe Illustrator 24.0.1, SVG Export Plug-In . SVG Version: 6.00 Build 0)  -->
<svg version="1.1" id="Layer_1" xmlns="http://www.w3.org/2000/svg" xmlns:xlink="http://www.w3.org/1999/xlink" x="0px" y="0px"
	 viewBox="0 0 1679.8 1032.5" style="enable-background:new 0 0 1679.8 1032.5;" xml:space="preserve">
<style type="text/css">
	.st0{fill:#B8C1C9;}
	.st1{fill:#657285;}
	.st2{fill:#00A3FE;}
	.st3{fill:#364154;}
	.st4{display:none;fill:#131F2D;}
</style>
<title>Asset 1</title>
<g id="Layer_2_1_">
	<g id="Layer_1-2">
		<path class="st0" d="M812.3,123.1c-60.8-0.1-119.7,20.8-166.8,59.2c-59.8,48.7-97.8,122.7-97.8,205.5c0,146.1,264.7,471,264.7,471
			s120.2-147.6,198.4-288.5c38.1-68.2,66.3-134.9,66.3-182.5C1076.9,241.6,958.4,123.1,812.3,123.1z M812.3,508.6
			c-68.8,0.4-125-55-125.4-123.8s55-125,123.8-125.4s125,55,125.4,123.8c0.4,58.4-39.9,109.2-96.8,122.3
			C830.4,507.5,821.4,508.6,812.3,508.6z"/>
		<path class="st1" d="M1594.4,486.5c-35.8,0-64.8,29-64.8,64.8c0,0,0,0,0,0c0,35.8,64.8,115.3,64.8,115.3s64.8-79.5,64.8-115.3
			C1659.2,515.5,1630.2,486.5,1594.4,486.5C1594.5,486.5,1594.5,486.5,1594.4,486.5z M1594.4,580.9c-16.7,0-30.3-13.6-30.3-30.3
			c0-16.7,13.6-30.3,30.3-30.3c16.7,0,30.3,13.6,30.3,30.3C1624.7,567.4,1611.2,580.9,1594.4,580.9L1594.4,580.9z"/>
		<path class="st2" d="M99.6,638C69.5,638,45,662.4,45,692.6c0,0,0,0,0,0c0,30.2,54.6,97.2,54.6,97.2s54.6-67.1,54.6-97.2
			C154.3,662.5,129.8,638,99.6,638z M99.6,717.6c-14.1,0-25.5-11.4-25.5-25.5c0-14.1,11.4-25.5,25.5-25.5s25.5,11.4,25.5,25.5
			c0,0,0,0,0,0C125.2,706.2,113.7,717.6,99.6,717.6C99.6,717.6,99.6,717.6,99.6,717.6z"/>
		<path class="st3" d="M863.2,80.6c-1.6,0-2.9-1.3-2.9-2.8c0-1,0.5-2,1.4-2.5c0.1,0,1.5-0.9,4.3-2.5c1.4-0.7,3.1-0.1,3.8,1.3
			c0.6,1.3,0.2,2.9-1,3.7c-2.7,1.5-4.2,2.4-4.2,2.4C864.2,80.4,863.7,80.6,863.2,80.6z"/>
		<path class="st3" d="M1600.9,439.3L1600.9,439.3c-1.6,0-2.9-1.3-2.8-2.9c0,0,0,0,0,0c0-0.6,0-1.2,0-1.8c0-2.6,0-5.3-0.1-8
			c-0.1-1.6,1.1-3,2.6-3.1c1.6-0.1,3,1.1,3.1,2.6c0,0.1,0,0.2,0,0.3c0.1,2.7,0.1,5.5,0.1,8.1c0,0.6,0,1.3,0,1.9
			C1603.8,438,1602.5,439.3,1600.9,439.3C1600.9,439.3,1600.9,439.3,1600.9,439.3z M1600.4,419.5c-1.5,0-2.8-1.2-2.9-2.7
			c-0.2-3.2-0.4-6.6-0.6-9.9c-0.1-1.6,1.1-2.9,2.7-3.1c1.6-0.1,2.9,1.1,3.1,2.6c0.2,3.3,0.4,6.7,0.6,10c0.1,1.6-1.1,2.9-2.7,3
			L1600.4,419.5z M1599,399.6c-1.5,0-2.7-1.1-2.8-2.6c-0.3-3.2-0.7-6.5-1-9.8c-0.2-1.6,0.9-3,2.5-3.2c1.6-0.2,3,0.9,3.2,2.5
			c0.4,3.3,0.7,6.6,1.1,9.9c0.2,1.6-1,3-2.6,3.1L1599,399.6z M1596.7,379.9c-1.4,0-2.6-1.1-2.8-2.5c-0.4-3.2-0.9-6.5-1.5-9.8
			c-0.2-1.6,0.9-3,2.5-3.2c1.5-0.2,2.8,0.8,3.1,2.3c0.5,3.3,1,6.6,1.5,9.9c0.2,1.6-0.9,3-2.4,3.2
			C1596.9,379.9,1596.8,379.9,1596.7,379.9z M1593.5,360.4c-1.4,0-2.6-1-2.8-2.3c-0.6-3.2-1.2-6.5-1.9-9.7c-0.3-1.5,0.7-3.1,2.2-3.4
			c1.5-0.3,3.1,0.7,3.4,2.2c0.7,3.2,1.3,6.5,1.9,9.8c0.3,1.5-0.7,3-2.3,3.3c0,0,0,0,0,0C1593.8,360.3,1593.7,360.4,1593.5,360.4z
			 M1589.5,340.9c-1.3,0-2.5-0.9-2.8-2.2c-0.7-3.2-1.5-6.4-2.3-9.6c-0.3-1.5,0.7-3.1,2.2-3.4c1.5-0.3,2.9,0.6,3.4,2
			c0.8,3.2,1.6,6.5,2.3,9.7c0.3,1.6-0.6,3.1-2.2,3.4C1589.9,340.9,1589.7,340.9,1589.5,340.9L1589.5,340.9z M1584.6,321.7
			c-1.3,0-2.4-0.9-2.8-2.1c-0.9-3.2-1.8-6.3-2.7-9.5c-0.5-1.5,0.2-3.1,1.7-3.7c1.5-0.5,3.1,0.2,3.7,1.7c0,0.1,0.1,0.2,0.1,0.3
			c1,3.2,1.9,6.4,2.8,9.6c0.4,1.5-0.5,3.1-2,3.5C1585.1,321.7,1584.9,321.7,1584.6,321.7L1584.6,321.7z M1578.9,302.7
			c-1.2,0-2.3-0.8-2.7-2c-1-3.1-2.1-6.2-3.2-9.3c-0.4-1.5,0.4-3.1,2-3.5c1.4-0.4,2.9,0.3,3.4,1.7c1.1,3.1,2.2,6.3,3.2,9.5
			c0.5,1.5-0.3,3.1-1.8,3.6c0,0,0,0,0,0C1579.5,302.6,1579.2,302.7,1578.9,302.7L1578.9,302.7z M1572.3,284c-1.2,0-2.3-0.7-2.7-1.9
			c-1.2-3-2.3-6.1-3.6-9.2c-0.6-1.5,0.1-3.1,1.6-3.7c1.5-0.6,3.1,0.1,3.7,1.6c1.2,3.1,2.5,6.2,3.6,9.3c0.6,1.5-0.2,3.1-1.7,3.7
			c0,0,0,0,0,0C1573,283.9,1572.7,284,1572.3,284z M1564.9,265.6c-1.1,0-2.2-0.7-2.6-1.7c-1.3-3-2.6-6-4-9c-0.6-1.5,0.1-3.1,1.6-3.7
			c1.4-0.5,2.9,0,3.6,1.3c1.4,3,2.7,6.1,4,9.1c0.6,1.5-0.1,3.2-1.5,3.8C1565.6,265.5,1565.3,265.6,1564.9,265.6L1564.9,265.6z
			 M1556.7,247.6c-1.1,0-2.1-0.6-2.6-1.6c-1.4-2.9-2.9-5.9-4.4-8.8c-0.7-1.4-0.1-3.1,1.3-3.8c1.4-0.7,3-0.1,3.8,1.2
			c1.5,3,3,6,4.5,8.9c0.7,1.4,0.1,3.1-1.3,3.8c0,0,0,0,0,0C1557.6,247.5,1557.1,247.6,1556.7,247.6L1556.7,247.6z M1547.6,230
			c-1,0-2-0.6-2.5-1.5c-1.6-2.9-3.2-5.8-4.8-8.6c-0.8-1.4-0.3-3.1,1.1-3.9c1.4-0.8,3.1-0.3,3.9,1.1c1.7,2.9,3.3,5.8,4.9,8.7
			c0.8,1.4,0.3,3.1-1.1,3.9c0,0,0,0,0,0C1548.6,229.9,1548.1,230,1547.6,230L1547.6,230z M1537.7,212.8c-1,0-1.9-0.5-2.4-1.4
			c-1.7-2.8-3.5-5.6-5.2-8.3c-0.9-1.3-0.6-3.1,0.7-4c1.3-0.9,3.1-0.6,4,0.7c0.1,0.1,0.1,0.2,0.2,0.2c1.8,2.8,3.6,5.6,5.3,8.4
			c0.8,1.4,0.4,3.1-1,4C1538.7,212.7,1538.2,212.8,1537.7,212.8L1537.7,212.8z M1526.9,196.2c-0.9,0-1.8-0.5-2.4-1.2
			c-1.8-2.7-3.7-5.4-5.6-8.1c-0.9-1.3-0.6-3.1,0.7-4s3.1-0.6,4,0.7c1.9,2.7,3.9,5.4,5.7,8.2c0.9,1.3,0.6,3.1-0.7,4
			C1528,196,1527.5,196.2,1526.9,196.2z M1515.3,180c-0.9,0-1.7-0.4-2.3-1.1c-2-2.6-4-5.2-6-7.8c-1-1.2-0.9-3,0.3-4s3-0.9,4,0.3
			c0,0.1,0.1,0.1,0.1,0.2c2.1,2.6,4.1,5.2,6.1,7.9c0.9,1.3,0.7,3-0.6,4C1516.6,179.8,1516,180,1515.3,180z M1503,164.5
			c-0.8,0-1.7-0.4-2.2-1c-2.1-2.5-4.2-5-6.4-7.5c-1-1.2-0.8-3,0.5-4c1.2-0.9,2.8-0.8,3.8,0.2c2.2,2.5,4.4,5.1,6.5,7.6
			c1,1.2,0.9,3-0.3,4C1504.4,164.3,1503.7,164.6,1503,164.5L1503,164.5z M1489.9,149.7c-0.8,0-1.6-0.3-2.1-0.9
			c-2.2-2.4-4.5-4.8-6.8-7.1c-1.1-1.1-1.1-3,0.1-4.1c1.1-1.1,3-1.1,4.1,0.1l0,0c2.3,2.4,4.6,4.8,6.9,7.2c1.1,1.2,1,3-0.1,4
			C1491.3,149.4,1490.6,149.7,1489.9,149.7L1489.9,149.7z M1476.1,135.4c-0.7,0-1.5-0.3-2-0.8c-2.3-2.3-4.7-4.6-7.1-6.8
			c-1.2-1.1-1.2-2.9-0.1-4c1.1-1.2,2.9-1.2,4-0.1c2.4,2.3,4.9,4.6,7.2,6.9c1.1,1.1,1.2,2.9,0.1,4
			C1477.6,135.1,1476.9,135.4,1476.1,135.4L1476.1,135.4z M1461.6,121.9c-0.7,0-1.4-0.3-1.9-0.7c-2.4-2.2-4.9-4.3-7.4-6.5
			c-1.2-1-1.4-2.8-0.4-4c1-1.2,2.8-1.4,4-0.4c0,0,0.1,0,0.1,0.1c2.5,2.1,5,4.3,7.5,6.6c1.2,1,1.3,2.9,0.2,4
			C1463.2,121.6,1462.4,121.9,1461.6,121.9L1461.6,121.9z M1446.5,109.1c-0.7,0-1.3-0.2-1.8-0.6c-2.5-2-5.1-4.1-7.7-6.1
			c-1.3-0.9-1.6-2.7-0.7-4c0.9-1.3,2.7-1.6,4-0.7c0.1,0.1,0.2,0.1,0.2,0.2c2.6,2,5.3,4.1,7.8,6.2c1.2,1,1.4,2.8,0.4,4
			C1448.2,108.7,1447.4,109.1,1446.5,109.1L1446.5,109.1z M1430.8,97c-0.6,0-1.2-0.2-1.7-0.6c-2.6-1.9-5.3-3.9-8-5.8
			c-1.3-0.9-1.6-2.7-0.7-4c0.9-1.3,2.7-1.6,4-0.7l0,0c2.7,1.9,5.4,3.9,8.1,5.8c1.3,0.9,1.6,2.7,0.6,4
			C1432.6,96.6,1431.7,97,1430.8,97L1430.8,97z M1414.6,85.6c-0.6,0-1.1-0.2-1.6-0.5c-2.7-1.8-5.5-3.6-8.2-5.4
			c-1.4-0.8-1.8-2.5-1.1-3.9c0.8-1.4,2.5-1.8,3.9-1.1c0.1,0,0.2,0.1,0.2,0.1c2.8,1.8,5.6,3.6,8.3,5.5c1.3,0.9,1.7,2.7,0.8,4
			C1416.4,85.1,1415.6,85.6,1414.6,85.6z M1397.9,74.9c-0.5,0-1-0.1-1.5-0.4c-2.8-1.7-5.6-3.4-8.5-5c-1.4-0.8-1.9-2.6-1.1-3.9
			c0.8-1.4,2.6-1.9,3.9-1.1l0,0c2.9,1.7,5.7,3.4,8.6,5.1c1.4,0.8,1.8,2.6,1,3.9C1399.8,74.4,1398.9,74.9,1397.9,74.9z M876.2,73.4
			c-1.6,0-2.9-1.2-2.9-2.8c0-1.1,0.6-2.1,1.6-2.6c2.9-1.5,5.9-3,8.9-4.5c1.4-0.7,3.1,0,3.8,1.4c0.6,1.4,0.1,3-1.3,3.7
			c-3,1.5-6,3-8.8,4.5C877.1,73.3,876.6,73.4,876.2,73.4z M1380.8,64.9c-0.5,0-1-0.1-1.4-0.4c-2.9-1.6-5.8-3.2-8.7-4.7
			c-1.4-0.8-1.8-2.6-1-3.9c0.8-1.3,2.4-1.8,3.7-1.1c2.9,1.5,5.9,3.1,8.8,4.7c1.4,0.8,1.9,2.5,1.1,3.9
			C1382.8,64.4,1381.8,64.9,1380.8,64.9z M893.9,64.6c-1.6,0-2.9-1.3-2.9-2.9c0-1.1,0.6-2.1,1.6-2.6c3-1.4,6-2.8,9.1-4.2
			c1.4-0.7,3.1-0.2,3.9,1.3s0.2,3.1-1.3,3.9c-0.1,0-0.2,0.1-0.2,0.1c-3,1.4-6,2.8-9,4.1C894.8,64.5,894.3,64.6,893.9,64.6
			L893.9,64.6z M912,56.5c-1.6,0-2.9-1.3-2.9-2.9c0-1.1,0.7-2.2,1.7-2.6c3-1.3,6.1-2.6,9.2-3.9c1.4-0.7,3.1,0,3.8,1.4
			c0.7,1.4,0,3.1-1.4,3.8c-0.1,0-0.2,0.1-0.2,0.1c-3,1.2-6.1,2.5-9.1,3.8C912.8,56.4,912.4,56.5,912,56.5z M1363.2,55.7
			c-0.4,0-0.9-0.1-1.3-0.3c-2.9-1.5-5.9-2.9-8.8-4.3c-1.4-0.7-1.9-2.5-1.2-3.9c0.7-1.3,2.3-1.9,3.7-1.3c3,1.4,6,2.9,9,4.4
			c1.4,0.7,2,2.4,1.3,3.9C1365.3,55.1,1364.3,55.7,1363.2,55.7L1363.2,55.7z M930.4,48.9c-1.6,0-2.9-1.3-2.9-2.9
			c0-1.2,0.7-2.2,1.8-2.7c3.1-1.2,6.2-2.4,9.3-3.6c1.5-0.6,3.1,0,3.8,1.5s0,3.1-1.5,3.8c-0.1,0-0.2,0.1-0.3,0.1
			c-3,1.2-6.2,2.3-9.2,3.5C931.1,48.8,930.7,48.9,930.4,48.9z M1345.4,47.2c-0.4,0-0.8-0.1-1.2-0.2c-3-1.3-6-2.7-9-4
			c-1.5-0.6-2.1-2.3-1.5-3.8c0.6-1.5,2.3-2.1,3.8-1.5l0,0c3.1,1.3,6.1,2.6,9.1,4c1.4,0.7,2.1,2.4,1.4,3.8
			C1347.5,46.5,1346.5,47.1,1345.4,47.2L1345.4,47.2z M949,41.9c-1.6,0-2.9-1.2-2.9-2.8c0-1.2,0.7-2.4,1.9-2.8
			c3.1-1.1,6.3-2.2,9.4-3.3c1.5-0.5,3.1,0.3,3.6,1.8c0.5,1.5-0.3,3.1-1.8,3.6c-3.1,1-6.2,2.2-9.3,3.3
			C949.6,41.9,949.3,41.9,949,41.9L949,41.9z M1327.1,39.4c-0.4,0-0.7-0.1-1.1-0.2c-3-1.2-6.1-2.4-9.2-3.6c-1.5-0.6-2.2-2.2-1.7-3.7
			c0.6-1.5,2.2-2.2,3.7-1.7c3.1,1.2,6.2,2.4,9.3,3.6c1.5,0.6,2.2,2.3,1.6,3.7C1329.3,38.7,1328.3,39.4,1327.1,39.4L1327.1,39.4z
			 M967.7,35.5c-1.6,0-2.9-1.3-2.8-2.9c0-1.2,0.8-2.3,2-2.7c3.2-1,6.3-2,9.5-3c1.5-0.6,3.1,0.1,3.7,1.6c0.6,1.5-0.1,3.1-1.6,3.7
			c-0.1,0.1-0.3,0.1-0.4,0.1c-3.1,1-6.3,2-9.4,3C968.3,35.5,968,35.5,967.7,35.5z M1308.5,32.4c-0.3,0-0.7,0-1-0.2
			c-3.1-1.1-6.2-2.2-9.3-3.2c-1.5-0.5-2.2-2.2-1.7-3.7c0.5-1.4,2-2.2,3.5-1.8c3.1,1,6.3,2.1,9.4,3.2c1.5,0.5,2.3,2.2,1.7,3.7
			C1310.7,31.7,1309.7,32.5,1308.5,32.4L1308.5,32.4z M986.7,29.7c-1.6,0-2.9-1.3-2.8-2.9c0-1.3,0.8-2.4,2-2.7
			c3.2-0.9,6.4-1.8,9.6-2.7c1.5-0.4,3.1,0.5,3.5,2c0.4,1.5-0.5,3.1-2,3.5l0,0c-3.1,0.9-6.3,1.8-9.5,2.7
			C987.2,29.6,986.9,29.7,986.7,29.7z M1289.7,26.3c-0.3,0-0.6,0-0.8-0.1c-3.1-1-6.3-1.9-9.5-2.8c-1.5-0.5-2.3-2.1-1.8-3.6
			c0.5-1.4,1.9-2.2,3.4-1.9c3.2,0.9,6.4,1.8,9.6,2.8c1.5,0.5,2.4,2.1,1.9,3.6C1292,25.5,1290.9,26.3,1289.7,26.3L1289.7,26.3z
			 M1005.7,24.4c-1.6,0-2.9-1.3-2.8-2.9c0-1.3,0.9-2.4,2.1-2.7c3.2-0.8,6.5-1.6,9.7-2.4c1.5-0.4,3.1,0.5,3.5,2
			c0.4,1.5-0.5,3.1-2,3.5c0,0-0.1,0-0.1,0c-3.2,0.8-6.4,1.6-9.6,2.4C1006.2,24.4,1006,24.4,1005.7,24.4L1005.7,24.4z M1270.6,20.9
			c-0.2,0-0.5,0-0.7-0.1c-3.2-0.8-6.4-1.6-9.6-2.4c-1.5-0.4-2.4-2-2-3.5c0.4-1.4,1.8-2.3,3.3-2c3.2,0.8,6.5,1.6,9.7,2.4
			c1.5,0.4,2.4,2,2,3.5C1273,20,1271.9,20.9,1270.6,20.9L1270.6,20.9z M1025.1,19.8c-1.6,0-2.9-1.3-2.9-2.9c0-1.3,0.9-2.5,2.2-2.8
			c3.3-0.7,6.5-1.4,9.7-2.1c1.5-0.3,3.1,0.7,3.4,2.2s-0.7,3.1-2.2,3.4l0,0c-3.2,0.7-6.4,1.4-9.7,2.1
			C1025.5,19.8,1025.3,19.8,1025.1,19.8z M1251.3,16.4c-0.2,0-0.4,0-0.6-0.1c-3.2-0.7-6.4-1.3-9.7-2c-1.5-0.4-2.5-1.9-2.1-3.5
			c0.4-1.4,1.7-2.4,3.2-2.2c3.3,0.6,6.6,1.3,9.8,2c1.5,0.3,2.5,1.9,2.2,3.4C1253.8,15.4,1252.6,16.3,1251.3,16.4L1251.3,16.4z
			 M1044.5,15.8c-1.6,0-2.9-1.3-2.8-2.9c0-1.3,1-2.5,2.3-2.8c3.3-0.6,6.6-1.2,9.8-1.8c1.6-0.3,3.1,0.7,3.4,2.2s-0.7,3.1-2.2,3.4
			c-0.1,0-0.1,0-0.2,0c-3.2,0.6-6.5,1.1-9.7,1.8C1044.9,15.8,1044.7,15.8,1044.5,15.8z M1231.8,12.6c-0.2,0-0.3,0-0.5,0
			c-3.2-0.6-6.5-1.1-9.7-1.6c-1.6-0.1-2.7-1.5-2.6-3.1s1.5-2.7,3.1-2.6c0.1,0,0.2,0,0.3,0c3.3,0.5,6.6,1,9.8,1.6
			c1.6,0.3,2.6,1.8,2.3,3.4C1234.4,11.7,1233.2,12.7,1231.8,12.6L1231.8,12.6z M1064,12.4c-1.6,0-2.9-1.3-2.8-2.9
			c0-1.4,1-2.6,2.4-2.8c3.3-0.5,6.6-1,9.9-1.4c1.6-0.1,3,1,3.1,2.6c0.1,1.5-0.9,2.8-2.3,3.1c-3.2,0.4-6.5,0.9-9.8,1.4
			C1064.3,12.4,1064.1,12.4,1064,12.4z M1212.2,9.7c-0.1,0-0.2,0-0.4,0c-3.2-0.4-6.5-0.8-9.8-1.1c-1.6-0.1-2.8-1.4-2.7-3
			s1.4-2.8,3-2.7c0.1,0,0.2,0,0.3,0c3.3,0.4,6.6,0.8,9.9,1.2c1.6,0.2,2.7,1.7,2.4,3.3C1214.8,8.7,1213.6,9.7,1212.2,9.7L1212.2,9.7z
			 M1083.6,9.7c-1.6,0-2.9-1.3-2.9-2.9c0-1.5,1.1-2.7,2.5-2.9c3.3-0.4,6.6-0.8,9.9-1.1c1.6-0.2,3,1,3.1,2.6s-1,3-2.6,3.1
			c-3.2,0.3-6.5,0.7-9.8,1.1L1083.6,9.7z M1103.4,7.7c-1.6,0.1-2.9-1.2-3-2.7s1.2-2.9,2.7-3c3.3-0.3,6.7-0.5,9.9-0.8
			c1.6,0,2.9,1.3,2.9,2.8c0,1.5-1.1,2.7-2.5,2.9c-3.2,0.2-6.5,0.5-9.8,0.7L1103.4,7.7z M1192.5,7.7h-0.2c-3.2-0.3-6.6-0.5-9.8-0.8
			c-1.6-0.2-2.7-1.6-2.5-3.2c0.2-1.5,1.4-2.6,2.9-2.5c3.3,0.2,6.7,0.5,9.9,0.8c1.6,0.2,2.7,1.6,2.5,3.2
			C1195.1,6.5,1193.9,7.6,1192.5,7.7L1192.5,7.7z M1123.1,6.4c-1.6,0-2.9-1.2-3-2.8s1.2-2.9,2.8-3c3.3-0.2,6.7-0.3,10-0.4
			c1.6-0.1,2.9,1.1,3,2.7c0,0,0,0.1,0,0.1c0.1,1.6-1.1,2.9-2.7,3c0,0-0.1,0-0.1,0c-3.2,0.1-6.6,0.2-9.8,0.4L1123.1,6.4z M1172.7,6.3
			h-0.1c-3.3-0.2-6.6-0.3-9.8-0.4c-1.6-0.1-2.8-1.5-2.6-3.1c0.1-1.5,1.3-2.6,2.8-2.6c3.3,0.1,6.7,0.2,10,0.4
			c1.6,0.1,2.8,1.5,2.6,3.1C1175.4,5.2,1174.2,6.3,1172.7,6.3L1172.7,6.3z M1143,5.8c-1.6,0-2.9-1.3-2.9-2.9s1.3-2.9,2.9-2.9
			c3.3,0,6.6,0,10,0c1.6,0.1,2.8,1.5,2.7,3c-0.1,1.5-1.2,2.6-2.7,2.7l0,0c-3.3,0-6.6,0-9.9,0L1143,5.8z"/>
		<path class="st3" d="M1600.4,454h-0.2c-1.6-0.1-2.7-1.5-2.6-3.1c0,0,0,0,0,0c0,0,0.1-1.7,0.3-4.8c0.1-1.6,1.5-2.8,3.1-2.6
			c1.5,0.1,2.6,1.4,2.6,2.9c-0.1,3.2-0.3,5-0.3,5C1603.1,452.9,1601.9,454,1600.4,454z"/>
		<path class="st3" d="M524.3,297.1H524l-3.9-0.4c-1.3-0.2-2.1-1.3-1.9-2.6c0.2-1.2,1.2-2,2.4-2l3.9,0.5c1.3,0.1,2.2,1.2,2.1,2.5
			C526.5,296.3,525.5,297.2,524.3,297.1L524.3,297.1z"/>
		<path class="st3" d="M98,592.8h-0.3c-1.3-0.2-2.2-1.3-2-2.5c0,0,0,0,0,0c0.3-2.5,0.7-5.2,1.1-7.9c0.2-1.2,1.4-2.1,2.6-1.9
			c1.2,0.2,2.1,1.4,1.9,2.6c-0.4,2.6-0.8,5.2-1.1,7.8C100.1,591.9,99.1,592.8,98,592.8z M100.4,577.2c-0.1,0-0.3,0-0.4,0
			c-1.2-0.2-2.1-1.4-1.8-2.6c0,0,0,0,0,0c0.5-2.6,1-5.2,1.5-7.8c0.2-1.2,1.5-2,2.7-1.8c1.2,0.2,2,1.5,1.8,2.7
			c-0.5,2.6-1,5.2-1.5,7.7C102.5,576.5,101.5,577.2,100.4,577.2L100.4,577.2z M103.5,561.8c-0.2,0-0.3,0-0.5,0
			c-1.2-0.3-2-1.5-1.7-2.7c0.6-2.5,1.2-5.1,1.8-7.7c0.2-1.2,1.4-2.1,2.7-1.8c1.2,0.2,2.1,1.4,1.8,2.7c0,0.1,0,0.2-0.1,0.3
			c-0.6,2.5-1.2,5.1-1.8,7.6C105.5,561.1,104.6,561.8,103.5,561.8L103.5,561.8z M107.2,546.5c-1.3,0-2.3-1-2.3-2.2
			c0-0.2,0-0.4,0.1-0.6c0.7-2.5,1.4-5.1,2.1-7.6c0.3-1.2,1.6-1.9,2.8-1.6s1.9,1.6,1.6,2.8l0,0c-0.7,2.5-1.4,5-2.1,7.5
			C109.2,545.8,108.3,546.5,107.2,546.5L107.2,546.5z M111.6,531.4c-0.2,0-0.5,0-0.7-0.1c-1.2-0.4-1.9-1.6-1.5-2.8c0,0,0,0,0,0
			c0.8-2.5,1.6-5,2.4-7.5c0.4-1.2,1.7-1.8,2.9-1.5c1.2,0.4,1.8,1.7,1.5,2.9l0,0c-0.8,2.5-1.6,5-2.4,7.4
			C113.4,530.8,112.5,531.4,111.6,531.4L111.6,531.4z M116.5,516.5c-0.3,0-0.5,0-0.8-0.1c-1.2-0.4-1.8-1.7-1.4-2.9c0,0,0,0,0,0
			c0.9-2.5,1.8-5,2.7-7.4c0.4-1.2,1.8-1.8,2.9-1.3s1.8,1.8,1.3,2.9c-0.9,2.4-1.8,4.9-2.7,7.3C118.3,515.9,117.4,516.5,116.5,516.5
			L116.5,516.5z M122,501.8c-0.3,0-0.6-0.1-0.8-0.2c-1.2-0.5-1.8-1.8-1.3-2.9c0,0,0,0,0-0.1c1-2.4,2-4.9,3-7.3
			c0.5-1.2,1.8-1.7,3-1.2c1.2,0.5,1.7,1.8,1.2,3l0,0c-1,2.4-2,4.8-3,7.2C123.7,501.2,122.9,501.8,122,501.8L122,501.8z M128,487.3
			c-0.3,0-0.6-0.1-0.9-0.2c-1.1-0.5-1.7-1.9-1.2-3c1.1-2.4,2.2-4.8,3.3-7.2c0.5-1.1,1.9-1.6,3-1.1s1.6,1.9,1.1,3
			c-1.1,2.3-2.2,4.7-3.2,7.1C129.7,486.8,128.9,487.3,128,487.3z M134.7,473.1c-0.3,0-0.7-0.1-1-0.2c-1.1-0.6-1.6-1.9-1-3.1
			c1.2-2.4,2.4-4.7,3.6-7c0.7-1.1,2.1-1.4,3.1-0.8c1,0.6,1.4,1.8,0.9,2.9c-1.2,2.3-2.4,4.6-3.6,7
			C136.4,472.7,135.6,473.1,134.7,473.1L134.7,473.1z M142,459.2c-0.4,0-0.8-0.1-1.1-0.3c-1.1-0.6-1.5-2-0.9-3.1c0,0,0,0,0,0
			c1.3-2.3,2.6-4.6,3.9-6.9c0.6-1.1,2-1.5,3.1-0.9s1.5,2,0.9,3.1l0,0c-1.3,2.2-2.6,4.5-3.9,6.8C143.6,458.8,142.8,459.2,142,459.2
			L142,459.2z M149.9,445.7c-1.3,0-2.3-1-2.3-2.3c0-0.4,0.1-0.8,0.3-1.2c1.4-2.2,2.8-4.5,4.2-6.7c0.7-1.1,2.1-1.4,3.2-0.7
			c1.1,0.7,1.4,2.1,0.7,3.2c-1.4,2.1-2.8,4.4-4.2,6.6C151.4,445.3,150.7,445.7,149.9,445.7L149.9,445.7z M158.4,432.5
			c-0.5,0-0.9-0.1-1.3-0.4c-1-0.7-1.3-2.1-0.6-3.2c1.5-2.2,3-4.4,4.5-6.5c0.7-1,2.2-1.3,3.2-0.5c1,0.7,1.3,2.2,0.5,3.2l0,0
			c-1.5,2.1-3,4.2-4.5,6.4C159.9,432.1,159.2,432.5,158.4,432.5L158.4,432.5z M167.6,419.7c-1.3,0-2.3-1-2.3-2.3
			c0-0.5,0.2-1,0.5-1.4c1.6-2.1,3.2-4.2,4.8-6.2c0.8-1,2.2-1.2,3.2-0.4c1,0.8,1.2,2.2,0.4,3.2c-1.6,2-3.2,4.1-4.8,6.2
			C169,419.4,168.3,419.7,167.6,419.7L167.6,419.7z M177.3,407.4c-1.3,0-2.3-1-2.3-2.3c0-0.5,0.2-1.1,0.5-1.5c1.7-2,3.4-4,5.1-6
			c0.7-1,2.2-1.3,3.2-0.5c1,0.7,1.3,2.2,0.5,3.2c-0.1,0.1-0.2,0.2-0.3,0.3c-1.7,1.9-3.4,3.9-5.1,5.9
			C178.6,407.1,178,407.4,177.3,407.4L177.3,407.4z M187.7,395.7c-1.3,0-2.3-1-2.3-2.3c0-0.6,0.2-1.1,0.6-1.5
			c1.8-1.9,3.6-3.9,5.4-5.7c0.9-0.9,2.4-0.8,3.2,0.1c0.8,0.9,0.8,2.2,0,3.1c-1.8,1.8-3.6,3.7-5.4,5.6
			C188.9,395.4,188.3,395.7,187.7,395.7L187.7,395.7z M198.6,384.4c-1.3,0-2.3-1-2.3-2.3c0-0.6,0.2-1.2,0.7-1.7
			c1.9-1.8,3.8-3.7,5.7-5.4c1-0.8,2.4-0.7,3.2,0.2c0.8,0.9,0.7,2.3-0.1,3.1c-1.9,1.7-3.8,3.5-5.6,5.4
			C199.8,384.2,199.2,384.4,198.6,384.4L198.6,384.4z M210.1,373.8c-0.7,0-1.3-0.3-1.7-0.8c-0.8-1-0.7-2.4,0.2-3.2
			c2-1.7,4-3.5,6-5.1c1-0.8,2.4-0.7,3.2,0.3c0.8,1,0.7,2.4-0.3,3.2c0,0,0,0,0,0c-2,1.7-4,3.4-5.9,5.1
			C211.2,373.6,210.7,373.8,210.1,373.8L210.1,373.8z M222.2,363.8c-1.3,0-2.3-1-2.3-2.3c0-0.7,0.3-1.3,0.9-1.8
			c2.1-1.6,4.2-3.2,6.3-4.8c1-0.8,2.4-0.5,3.2,0.5c0.8,1,0.5,2.4-0.5,3.2c-2.1,1.5-4.1,3.1-6.2,4.7
			C223.2,363.6,222.7,363.8,222.2,363.8L222.2,363.8z M234.8,354.4c-1.3,0-2.3-1-2.3-2.3c0-0.8,0.4-1.5,1-1.9c2.1-1.5,4.3-3,6.5-4.5
			c1-0.8,2.4-0.6,3.2,0.4c0.8,1,0.6,2.4-0.4,3.2c-0.1,0.1-0.2,0.1-0.2,0.2c-2.1,1.4-4.3,2.9-6.4,4.4
			C235.7,354.2,235.2,354.4,234.8,354.4L234.8,354.4z M247.8,345.7c-1.3,0-2.3-1-2.3-2.3c0-0.8,0.4-1.5,1.1-1.9
			c2.2-1.4,4.5-2.8,6.7-4.1c1.1-0.6,2.5-0.3,3.1,0.8c0.6,1.1,0.3,2.5-0.8,3.1c-2.2,1.3-4.5,2.7-6.6,4.1
			C248.6,345.6,248.2,345.7,247.8,345.7L247.8,345.7z M261.2,337.7c-1.3,0-2.3-1-2.3-2.3c0-0.8,0.4-1.6,1.2-2
			c2.3-1.3,4.6-2.5,6.9-3.8c1-0.7,2.5-0.4,3.2,0.6s0.4,2.5-0.6,3.2c-0.1,0.1-0.3,0.2-0.4,0.2c-2.3,1.2-4.6,2.5-6.8,3.7
			C262,337.5,261.7,337.6,261.2,337.7L261.2,337.7z M275.1,330.4c-1.3,0-2.3-1-2.3-2.3c0-0.9,0.5-1.7,1.3-2.1
			c2.3-1.2,4.7-2.3,7.1-3.4c1.1-0.5,2.5,0,3,1.1s0,2.5-1.1,3c-2.4,1.1-4.7,2.2-7,3.4C275.8,330.3,275.5,330.3,275.1,330.4
			L275.1,330.4z M289.3,323.8c-1.3,0-2.3-1.1-2.3-2.3c0-0.9,0.5-1.7,1.4-2.1c2.4-1,4.9-2.1,7.3-3.1c1.2-0.4,2.5,0.2,2.9,1.4
			c0.4,1.1-0.1,2.3-1.2,2.8c-2.4,1-4.8,2-7.2,3C290,323.7,289.7,323.7,289.3,323.8L289.3,323.8z M303.8,317.8
			c-1.3,0-2.3-1.1-2.3-2.3c0-0.9,0.6-1.8,1.4-2.1c2.4-0.9,4.9-1.8,7.4-2.7c1.2-0.5,2.5,0.1,3,1.2s-0.1,2.5-1.2,3
			c-0.1,0-0.1,0-0.2,0.1c-2.5,0.9-4.9,1.8-7.3,2.7C304.4,317.8,304.2,317.8,303.8,317.8L303.8,317.8z M318.6,312.6
			c-1.3,0-2.3-1-2.3-2.3c0-1,0.6-1.9,1.6-2.2c2.5-0.8,5-1.6,7.5-2.4c1.2-0.4,2.5,0.3,2.8,1.5c0.4,1.2-0.3,2.5-1.5,2.8l0,0
			c-2.5,0.8-5,1.5-7.4,2.4C319.1,312.6,318.9,312.6,318.6,312.6L318.6,312.6z M333.6,308.1c-1.3,0-2.3-1.1-2.3-2.3
			c0-1,0.7-1.9,1.7-2.2c2.5-0.7,5.1-1.4,7.6-2c1.2-0.3,2.5,0.4,2.8,1.6c0.3,1.2-0.4,2.5-1.6,2.8c-2.5,0.6-5,1.3-7.5,2
			C334.1,308,333.9,308,333.6,308.1L333.6,308.1z M348.8,304.2c-1.3,0-2.3-1.1-2.2-2.3c0-1,0.7-1.9,1.7-2.2c2.5-0.6,5.1-1.2,7.7-1.7
			c1.2-0.3,2.4,0.5,2.7,1.8c0.3,1.2-0.5,2.4-1.8,2.7c-2.5,0.5-5.1,1.1-7.6,1.7C349.2,304.1,349,304.1,348.8,304.2L348.8,304.2z
			 M364.1,300.9c-1.3,0-2.3-1.1-2.3-2.3c0-1.1,0.8-2,1.8-2.2c2.6-0.5,5.2-1,7.8-1.4c1.2-0.2,2.4,0.6,2.6,1.9
			c0.2,1.2-0.6,2.4-1.9,2.6c-2.6,0.4-5.1,0.9-7.7,1.4C364.4,300.8,364.3,300.8,364.1,300.9L364.1,300.9z M379.6,298.2
			c-1.3,0-2.3-1-2.3-2.2c0-1.2,0.8-2.2,2-2.3c2.6-0.4,5.2-0.8,7.8-1.1c1.2-0.2,2.4,0.6,2.7,1.8c0.2,1.2-0.6,2.4-1.8,2.7
			c-0.1,0-0.2,0-0.3,0c-2.6,0.3-5.2,0.7-7.7,1.1C379.8,298.2,379.7,298.2,379.6,298.2L379.6,298.2z M395.1,296.1
			c-1.3,0-2.3-1.1-2.3-2.3c0-1.1,0.9-2.1,2-2.2c2.6-0.3,5.2-0.6,7.8-0.9c1.3-0.1,2.3,0.9,2.4,2.2c0.1,1.2-0.8,2.2-1.9,2.4
			c-2.6,0.3-5.2,0.5-7.8,0.8L395.1,296.1z M512.5,295.9h-0.2c-2.6-0.3-5.2-0.5-7.8-0.7c-1.3-0.1-2.2-1.2-2.1-2.5
			c0.1-1.3,1.2-2.2,2.5-2.1l0,0c2.6,0.2,5.2,0.5,7.8,0.7c1.3,0.1,2.2,1.2,2.1,2.5C514.7,295,513.7,295.9,512.5,295.9L512.5,295.9z
			 M497,294.5h-0.2c-2.6-0.2-5.2-0.4-7.8-0.5c-1.3-0.1-2.2-1.2-2.1-2.4c0.1-1.3,1.2-2.2,2.4-2.1c2.6,0.2,5.3,0.4,7.9,0.5
			c1.3,0,2.2,1.1,2.2,2.4C499.3,293.6,498.3,294.6,497,294.5z M410.8,294.5c-1.3,0.1-2.3-0.9-2.4-2.2s0.9-2.3,2.2-2.4l0,0
			c2.6-0.2,5.2-0.4,7.9-0.6c1.3-0.1,2.3,0.9,2.4,2.1c0.1,1.3-0.9,2.3-2.1,2.4c0,0,0,0,0,0c-2.6,0.2-5.2,0.4-7.8,0.6L410.8,294.5z
			 M481.3,293.6h-0.1c-2.6-0.1-5.2-0.2-7.8-0.3c-1.3,0-2.2-1.1-2.2-2.4c0-1.3,1.1-2.2,2.4-2.2l0,0c2.6,0.1,5.3,0.2,7.9,0.3
			c1.3,0.1,2.2,1.2,2.1,2.5C483.4,292.6,482.5,293.5,481.3,293.6L481.3,293.6z M426.5,293.5c-1.3,0-2.3-1-2.3-2.2s1-2.3,2.2-2.3
			c2.6-0.1,5.3-0.2,7.9-0.3c1.3,0,2.3,0.9,2.4,2.2c0,1.3-0.9,2.3-2.2,2.4c-2.6,0.1-5.2,0.2-7.8,0.3H426.5z M465.7,293L465.7,293
			c-2.7-0.1-5.3-0.1-7.9-0.1c-1.3-0.1-2.2-1.2-2.1-2.4c0.1-1.1,1-2.1,2.1-2.1c2.6,0,5.2,0.1,7.9,0.1c1.3,0.1,2.2,1.2,2.1,2.5
			C467.7,292,466.8,292.9,465.7,293L465.7,293z M442.1,292.9c-1.3-0.1-2.2-1.2-2.1-2.4c0.1-1.1,1-2.1,2.1-2.1c2.6,0,5.2-0.1,7.9-0.1
			l0,0c1.3,0.1,2.2,1.2,2.1,2.4c-0.1,1.1-1,2.1-2.1,2.1C447.4,292.9,444.8,292.9,442.1,292.9L442.1,292.9z"/>
		<path class="st3" d="M96.8,604.4h-0.1c-1.3-0.1-2.2-1.2-2.2-2.4c0,0,0.1-1.4,0.3-4c0-1.3,1.1-2.3,2.4-2.2s2.3,1.1,2.2,2.4
			c0,0.1,0,0.2,0,0.3c-0.2,2.5-0.3,3.8-0.3,3.8C99,603.5,98,604.4,96.8,604.4z"/>
		<path class="st4" d="M1677.9,1032.5H1.9c-1.2-0.2-2-1.3-1.9-2.5l0,0c-0.1-1.2,0.7-2.3,1.9-2.5h1676c1.2,0.2,2,1.3,1.9,2.5l0,0
			C1679.9,1031.2,1679.1,1032.3,1677.9,1032.5z"/>
	</g>
</g>
</svg>
