<svg xmlns="http://www.w3.org/2000/svg" xmlns:xlink="http://www.w3.org/1999/xlink" viewBox="0 0 7361.2 3710"><defs><linearGradient id="linear-gradient" x1="2004.68" y1="1527.99" x2="5749.87" y2="1574.74" gradientUnits="userSpaceOnUse"><stop offset="0" stop-color="#ff9085"/><stop offset="1" stop-color="#fb6fbb"/></linearGradient><linearGradient id="linear-gradient-2" x1="394.12" y1="638.26" x2="533.21" y2="996.52" gradientUnits="userSpaceOnUse"><stop offset="0" stop-color="#ffc444"/><stop offset="0.31" stop-color="#fba94a"/><stop offset="1" stop-color="#f36f56"/></linearGradient><linearGradient id="linear-gradient-3" x1="344.32" y1="657.6" x2="483.4" y2="1015.86" xlink:href="#linear-gradient-2"/><linearGradient id="linear-gradient-4" x1="5691.99" y1="200.72" x2="5857.37" y2="626.71" xlink:href="#linear-gradient-2"/><linearGradient id="linear-gradient-5" x1="5632.77" y1="223.71" x2="5798.15" y2="649.7" xlink:href="#linear-gradient-2"/><linearGradient id="linear-gradient-6" x1="3658.21" y1="1901.82" x2="4153.76" y2="1901.82" gradientTransform="translate(1314.92)" gradientUnits="userSpaceOnUse"><stop offset="0" stop-color="#311944"/><stop offset="1" stop-color="#6b3976"/></linearGradient><linearGradient id="linear-gradient-7" x1="-1615.84" y1="2088.32" x2="-1615.84" y2="1650.82" gradientTransform="matrix(-1, 0, 0, 1, 3595.7, 0)" gradientUnits="userSpaceOnUse"><stop offset="0" stop-color="#aa80f9"/><stop offset="1" stop-color="#6165d7"/></linearGradient><linearGradient id="linear-gradient-8" x1="-1645.24" y1="2088.32" x2="-1645.24" y2="1650.82" xlink:href="#linear-gradient-7"/><linearGradient id="linear-gradient-9" x1="-1674.63" y1="2088.32" x2="-1674.63" y2="1650.82" xlink:href="#linear-gradient-7"/><linearGradient id="linear-gradient-10" x1="-1704.03" y1="2088.32" x2="-1704.03" y2="1650.82" xlink:href="#linear-gradient-7"/><linearGradient id="linear-gradient-11" x1="-1762.83" y1="2088.32" x2="-1762.83" y2="1650.82" xlink:href="#linear-gradient-7"/><linearGradient id="linear-gradient-12" x1="-1733.43" y1="2088.32" x2="-1733.43" y2="1650.82" xlink:href="#linear-gradient-7"/><linearGradient id="linear-gradient-13" x1="-1792.22" y1="2088.32" x2="-1792.22" y2="1650.82" xlink:href="#linear-gradient-7"/><linearGradient id="linear-gradient-14" x1="-1821.62" y1="2088.32" x2="-1821.62" y2="1650.82" xlink:href="#linear-gradient-7"/><linearGradient id="linear-gradient-15" x1="-1601.14" y1="2088.32" x2="-1601.14" y2="1650.82" xlink:href="#linear-gradient-7"/><linearGradient id="linear-gradient-16" x1="-1380.66" y1="2088.32" x2="-1380.66" y2="1650.82" xlink:href="#linear-gradient-7"/><linearGradient id="linear-gradient-17" x1="-1410.06" y1="2088.32" x2="-1410.06" y2="1650.82" xlink:href="#linear-gradient-7"/><linearGradient id="linear-gradient-18" x1="-1439.45" y1="2088.32" x2="-1439.45" y2="1650.82" xlink:href="#linear-gradient-7"/><linearGradient id="linear-gradient-19" x1="-1468.85" y1="2088.32" x2="-1468.85" y2="1650.82" xlink:href="#linear-gradient-7"/><linearGradient id="linear-gradient-20" x1="-1498.25" y1="2088.32" x2="-1498.25" y2="1650.82" xlink:href="#linear-gradient-7"/><linearGradient id="linear-gradient-21" x1="-1527.65" y1="2088.32" x2="-1527.65" y2="1650.82" xlink:href="#linear-gradient-7"/><linearGradient id="linear-gradient-22" x1="-1557.04" y1="2088.32" x2="-1557.04" y2="1650.82" xlink:href="#linear-gradient-7"/><linearGradient id="linear-gradient-23" x1="-1586.44" y1="2088.32" x2="-1586.44" y2="1650.82" xlink:href="#linear-gradient-7"/><linearGradient id="linear-gradient-24" x1="-1601.14" y1="2088.32" x2="-1601.14" y2="1650.82" xlink:href="#linear-gradient-7"/><linearGradient id="linear-gradient-25" x1="3017.72" y1="1999.2" x2="4169.6" y2="1999.2" gradientTransform="translate(1314.92)" xlink:href="#linear-gradient-7"/><linearGradient id="linear-gradient-26" x1="3314.95" y1="2023.59" x2="2928.66" y2="2171.86" gradientTransform="translate(1314.92)" xlink:href="#linear-gradient-7"/><linearGradient id="linear-gradient-27" x1="3762.79" y1="1907.39" x2="3540.02" y2="2134.29" gradientTransform="translate(1314.92)" xlink:href="#linear-gradient-7"/><linearGradient id="linear-gradient-28" x1="3470.91" y1="2045.38" x2="3535.94" y2="2045.38" xlink:href="#linear-gradient-6"/><linearGradient id="linear-gradient-29" x1="3176.56" y1="2045.38" x2="3241.59" y2="2045.38" xlink:href="#linear-gradient-6"/><linearGradient id="linear-gradient-30" x1="3713" y1="1828.67" x2="3482.65" y2="2063.29" gradientTransform="translate(1314.92)" xlink:href="#linear-gradient-7"/><linearGradient id="linear-gradient-31" x1="2190.52" y1="2214.44" x2="2880.19" y2="2214.44" gradientTransform="matrix(-1, 0, 0, 1, 5452.27, 0)" gradientUnits="userSpaceOnUse"><stop offset="0" stop-color="#444b8c"/><stop offset="1" stop-color="#26264f"/></linearGradient><linearGradient id="linear-gradient-32" x1="2586.08" y1="2238.99" x2="2716.46" y2="2238.99" xlink:href="#linear-gradient-31"/><linearGradient id="linear-gradient-33" x1="2224.28" y1="2191.81" x2="2261.31" y2="2191.81" gradientTransform="matrix(-1, 0, 0, 1, 5452.27, 0)" xlink:href="#linear-gradient-6"/><linearGradient id="linear-gradient-34" x1="2216.48" y1="2191.81" x2="2253.51" y2="2191.81" gradientTransform="matrix(-1, 0, 0, 1, 5452.27, 0)" xlink:href="#linear-gradient-6"/><linearGradient id="linear-gradient-35" x1="2252.55" y1="2194.31" x2="2223.64" y2="2190.41" gradientTransform="matrix(-1, 0, 0, 1, 5452.27, 0)" gradientUnits="userSpaceOnUse"><stop offset="0.01" stop-color="#d8dee8"/><stop offset="1" stop-color="#f4f7fa"/></linearGradient><linearGradient id="linear-gradient-36" x1="2266.26" y1="2198.32" x2="2306.84" y2="2198.32" gradientTransform="matrix(-1, 0, 0, 1, 5452.27, 0)" xlink:href="#linear-gradient-6"/><linearGradient id="linear-gradient-37" x1="2257.72" y1="2198.32" x2="2298.29" y2="2198.32" gradientTransform="matrix(-1, 0, 0, 1, 5452.27, 0)" xlink:href="#linear-gradient-6"/><linearGradient id="linear-gradient-38" x1="2297.24" y1="2201.06" x2="2265.56" y2="2196.8" xlink:href="#linear-gradient-35"/><linearGradient id="linear-gradient-39" x1="2311.1" y1="2201.47" x2="2355.4" y2="2201.47" gradientTransform="matrix(-1, 0, 0, 1, 5452.27, 0)" xlink:href="#linear-gradient-6"/><linearGradient id="linear-gradient-40" x1="2301.77" y1="2201.47" x2="2346.07" y2="2201.47" gradientTransform="matrix(-1, 0, 0, 1, 5452.27, 0)" xlink:href="#linear-gradient-6"/><linearGradient id="linear-gradient-41" x1="2344.92" y1="2204.46" x2="2310.33" y2="2199.81" xlink:href="#linear-gradient-35"/><linearGradient id="linear-gradient-42" x1="2520.32" y1="2231.35" x2="2576.87" y2="2231.35" gradientTransform="matrix(-1, 0, 0, 1, 5452.27, 0)" xlink:href="#linear-gradient-6"/><linearGradient id="linear-gradient-43" x1="2508.41" y1="2231.35" x2="2564.96" y2="2231.35" gradientTransform="matrix(-1, 0, 0, 1, 5452.27, 0)" xlink:href="#linear-gradient-6"/><linearGradient id="linear-gradient-44" x1="2563.49" y1="2235.18" x2="2519.33" y2="2229.23" xlink:href="#linear-gradient-35"/><linearGradient id="linear-gradient-45" x1="2700.63" y1="2252.18" x2="2772.88" y2="2252.18" gradientTransform="matrix(-1, 0, 0, 1, 5452.27, 0)" xlink:href="#linear-gradient-6"/><linearGradient id="linear-gradient-46" x1="2685.41" y1="2252.18" x2="2757.66" y2="2252.18" gradientTransform="matrix(-1, 0, 0, 1, 5452.27, 0)" xlink:href="#linear-gradient-6"/><linearGradient id="linear-gradient-47" x1="2755.79" y1="2257.06" x2="2699.37" y2="2249.46" xlink:href="#linear-gradient-35"/><linearGradient id="linear-gradient-48" x1="2556.06" y1="1922.35" x2="1826.67" y2="2396.31" gradientTransform="matrix(-1, 0, 0, 1, 5452.27, 0)" xlink:href="#linear-gradient-2"/><linearGradient id="linear-gradient-49" x1="3043.76" y1="1818.94" x2="2490.33" y2="2170.86" gradientTransform="matrix(-1, 0, 0, 1, 5452.27, 0)" xlink:href="#linear-gradient-2"/><linearGradient id="linear-gradient-50" x1="2148.11" y1="2015.52" x2="2616.8" y2="2015.52" gradientTransform="matrix(-1, 0, 0, 1, 5452.27, 0)" gradientUnits="userSpaceOnUse"><stop offset="0" stop-color="#ffc444"/><stop offset="1" stop-color="#f36f56"/></linearGradient><linearGradient id="linear-gradient-51" x1="2669.32" y1="2032.83" x2="2857.2" y2="2032.83" xlink:href="#linear-gradient-35"/><linearGradient id="linear-gradient-52" x1="2880.86" y1="2188.06" x2="3059.43" y2="2188.06" xlink:href="#linear-gradient-31"/><linearGradient id="linear-gradient-53" x1="2854.01" y1="2185.54" x2="2766.03" y2="2492.06" gradientTransform="matrix(-1, 0, 0, 1, 5452.27, 0)" xlink:href="#linear-gradient"/><linearGradient id="linear-gradient-54" x1="3071.87" y1="2248.07" x2="2983.88" y2="2554.59" gradientTransform="matrix(-1, 0, 0, 1, 5452.27, 0)" xlink:href="#linear-gradient"/><linearGradient id="linear-gradient-55" x1="2809.83" y1="2015.98" x2="3071.23" y2="2015.98" xlink:href="#linear-gradient-31"/><linearGradient id="linear-gradient-56" x1="3716.81" y1="1010.5" x2="4614.28" y2="1010.5" gradientTransform="matrix(-1, 0, 0, 1, 5224.37, 0)" gradientUnits="userSpaceOnUse"><stop offset="0" stop-color="#d8dee8"/><stop offset="1" stop-color="#fff"/></linearGradient><linearGradient id="linear-gradient-57" x1="3716.81" y1="854.84" x2="4613.16" y2="854.84" gradientTransform="matrix(-1, 0, 0, 1, 5224.37, 0)" xlink:href="#linear-gradient-50"/><linearGradient id="linear-gradient-58" x1="4243.34" y1="959.48" x2="4241.13" y2="1033.97" xlink:href="#linear-gradient-56"/><linearGradient id="linear-gradient-59" x1="3584.34" y1="1010.5" x2="3863.81" y2="1010.5" xlink:href="#linear-gradient-56"/><linearGradient id="linear-gradient-60" x1="3710.96" y1="1190.49" x2="3724.24" y2="914.78" xlink:href="#linear-gradient-56"/><linearGradient id="linear-gradient-61" x1="3650.82" y1="912.74" x2="3628.94" y2="1304.63" gradientTransform="matrix(-1, 0, 0, 1, 5224.37, 0)" gradientUnits="userSpaceOnUse"><stop offset="0" stop-color="#e38ddd"/><stop offset="1" stop-color="#9571f6"/></linearGradient><linearGradient id="linear-gradient-62" x1="3776.78" y1="898.64" x2="3752.68" y2="1330.42" xlink:href="#linear-gradient-61"/><linearGradient id="linear-gradient-63" x1="4020.93" y1="1187.01" x2="4214.2" y2="1661.57" gradientTransform="matrix(-1, 0, 0, 1, 4974.95, 0)" xlink:href="#linear-gradient-2"/><linearGradient id="linear-gradient-64" x1="3780.71" y1="1367.03" x2="3950.35" y2="1261.81" gradientTransform="matrix(-1, 0, 0, 1, 4974.95, 0)" xlink:href="#linear-gradient-2"/><linearGradient id="linear-gradient-65" x1="4217.37" y1="1265.28" x2="4353.87" y2="1600.46" gradientTransform="matrix(-1, 0, 0, 1, 4974.95, 0)" xlink:href="#linear-gradient-2"/><linearGradient id="linear-gradient-66" x1="4047.7" y1="1392.43" x2="4167.52" y2="1318.11" gradientTransform="matrix(-1, 0, 0, 1, 4974.95, 0)" xlink:href="#linear-gradient-2"/><linearGradient id="linear-gradient-67" x1="4031.72" y1="1337.24" x2="4129.61" y2="1577.63" gradientTransform="matrix(-1, 0, 0, 1, 4974.95, 0)" xlink:href="#linear-gradient-2"/><linearGradient id="linear-gradient-68" x1="3910.03" y1="1428.43" x2="3995.97" y2="1375.13" gradientTransform="matrix(-1, 0, 0, 1, 4974.95, 0)" xlink:href="#linear-gradient-2"/><linearGradient id="linear-gradient-69" x1="4356.02" y1="1574.04" x2="4487.27" y2="1574.04" gradientTransform="translate(-2745.11)" xlink:href="#linear-gradient-31"/><linearGradient id="linear-gradient-70" x1="4219.41" y1="1544.73" x2="4289.9" y2="1544.73" gradientTransform="translate(-2745.11)" xlink:href="#linear-gradient-6"/><linearGradient id="linear-gradient-71" x1="4204.57" y1="1544.73" x2="4275.05" y2="1544.73" gradientTransform="translate(-2745.11)" xlink:href="#linear-gradient-6"/><linearGradient id="linear-gradient-72" x1="4555.86" y1="1591.4" x2="4642.22" y2="1591.4" gradientTransform="translate(-2745.11)" xlink:href="#linear-gradient-6"/><linearGradient id="linear-gradient-73" x1="4537.68" y1="1591.4" x2="4624.03" y2="1591.4" gradientTransform="translate(-2745.11)" xlink:href="#linear-gradient-6"/><linearGradient id="linear-gradient-74" x1="4392.35" y1="1620.49" x2="4477.36" y2="1620.49" gradientTransform="translate(-2745.11)" xlink:href="#linear-gradient-6"/><linearGradient id="linear-gradient-75" x1="4374.44" y1="1620.49" x2="4459.45" y2="1620.49" gradientTransform="translate(-2745.11)" xlink:href="#linear-gradient-6"/><linearGradient id="linear-gradient-76" x1="4443.48" y1="1617.37" x2="4404.55" y2="1621.58" gradientTransform="translate(-2745.11)" xlink:href="#linear-gradient-35"/><linearGradient id="linear-gradient-77" x1="4010.96" y1="1537.17" x2="4196.12" y2="1537.17" gradientTransform="translate(-2745.11)" xlink:href="#linear-gradient-31"/><linearGradient id="linear-gradient-78" x1="4080.39" y1="1532.66" x2="4300.62" y2="1532.66" gradientTransform="translate(-2745.11)" xlink:href="#linear-gradient-31"/><linearGradient id="linear-gradient-79" x1="4054.91" y1="1567.97" x2="4125.4" y2="1567.97" gradientTransform="translate(-2745.11)" xlink:href="#linear-gradient-6"/><linearGradient id="linear-gradient-80" x1="4040.07" y1="1567.97" x2="4110.55" y2="1567.97" gradientTransform="translate(-2745.11)" xlink:href="#linear-gradient-6"/><linearGradient id="linear-gradient-81" x1="4108.51" y1="1572.71" x2="4053.8" y2="1565.34" gradientTransform="translate(-2745.11)" xlink:href="#linear-gradient-35"/><linearGradient id="linear-gradient-82" x1="3947.14" y1="1372.05" x2="4243.11" y2="1372.05" gradientTransform="translate(-2745.11)" xlink:href="#linear-gradient-50"/><linearGradient id="linear-gradient-83" x1="4243.11" y1="1372.05" x2="4468.94" y2="1372.05" gradientTransform="translate(-2745.11)" xlink:href="#linear-gradient-50"/><linearGradient id="linear-gradient-84" x1="3947.14" y1="1375.28" x2="4215.76" y2="1375.28" gradientTransform="translate(-2745.11)" xlink:href="#linear-gradient-50"/><linearGradient id="linear-gradient-85" x1="4271.8" y1="1476.28" x2="4673.04" y2="1476.28" gradientTransform="translate(-2745.11)" xlink:href="#linear-gradient-35"/><linearGradient id="linear-gradient-86" x1="4469.82" y1="1483.45" x2="4284.66" y2="1776.62" gradientTransform="translate(-2745.11)" xlink:href="#linear-gradient-35"/><linearGradient id="linear-gradient-87" x1="4378.97" y1="1405.37" x2="4595.57" y2="1405.37" gradientTransform="translate(-2745.11)" xlink:href="#linear-gradient-31"/><linearGradient id="linear-gradient-88" x1="4602.74" y1="1499.22" x2="4600.64" y2="1622.66" gradientTransform="translate(-2745.11)" xlink:href="#linear-gradient-31"/><linearGradient id="linear-gradient-89" x1="4488.44" y1="1493.18" x2="4550.86" y2="1603.29" gradientTransform="translate(-2745.11)" gradientUnits="userSpaceOnUse"><stop offset="0" stop-color="#fcb148"/><stop offset="0.05" stop-color="#fdba46"/><stop offset="0.14" stop-color="#ffc244"/><stop offset="0.32" stop-color="#ffc444"/><stop offset="0.48" stop-color="#fdb946"/><stop offset="0.78" stop-color="#f99c4d"/><stop offset="0.87" stop-color="#f8924f"/><stop offset="1" stop-color="#f8924f"/></linearGradient><linearGradient id="linear-gradient-90" x1="4447.54" y1="1585.05" x2="4673.04" y2="1585.05" gradientTransform="translate(-2745.11)" xlink:href="#linear-gradient-31"/><linearGradient id="linear-gradient-91" x1="4506.73" y1="1595.46" x2="4673.04" y2="1595.46" gradientTransform="translate(-2745.11)" xlink:href="#linear-gradient-31"/><linearGradient id="linear-gradient-92" x1="4297.13" y1="1414.53" x2="4398.93" y2="1414.53" gradientTransform="translate(-2745.11)" xlink:href="#linear-gradient-31"/></defs><title>logistic-bg</title><g style="isolation:isolate"><g id="Illustration"><rect x="-77.04" y="2198.83" width="7512.22" height="351.88" fill="none" stroke="gray" stroke-miterlimit="10" stroke-width="2"/><g id="Blockchain_in_transport_technology" data-name="Blockchain in transport technology"><path d="M5651.47,768.57l-386.6-3.46c-247.8-2.21-453.36,339.38-456,571.52l-7,604.3c-1.43,123.29-109.65,222.63-241.26,221.45S4323.08,2060,4324.5,1936.66l7-604.3c2.67-232.14-196.75-422.8-444.55-425l-42.56-.38c-247.8-2.22-451.58,184.83-454.26,417l-7,604.3c-1.42,123.29-109.65,222.63-241.26,221.45S2904.36,2047.26,2905.79,1924l-2.43-59.29c2.68-232.14-197.28-376.21-445.08-378.43l-176.17-1.57,1.28-110.79-274.45,207,269.61,211.93,1.28-110.79,176.17,1.58c131.61,1.17,238.06,55.85,236.63,179.13l2.43,59.29c-2.67,232.14,196.75,422.8,444.55,425s451.58-184.84,454.25-417l7-604.29c1.42-123.29,109.64-222.64,241.25-221.46l42.56.38c131.61,1.18,237.52,102.44,236.1,225.73l-7,604.29c-2.68,232.14,196.74,422.8,444.54,425s451.58-184.84,454.26-417l7-604.29c1.42-123.29,111.44-377.18,243-376l386.6,3.45c58.19.53,105.88-43.24,106.5-97.76S5709.66,769.09,5651.47,768.57Z" fill="none" stroke-miterlimit="10" stroke-width="6" opacity="0.95" stroke="url(#linear-gradient)"/><path d="M550.05,688.41c0,59-82.68,166.71-120.1,212.42a23.28,23.28,0,0,1-36,0c-37.42-45.71-120.1-153.41-120.1-212.42a138.12,138.12,0,0,1,276.23,0Z" fill="url(#linear-gradient-2)"/><circle cx="411.94" cy="688.41" r="77.03" transform="translate(-326.95 1000.88) rotate(-82.03)" fill="#fff"/><g opacity="0.3" style="mix-blend-mode:multiply"><path d="M411.33,844.13c8.76-57.71,46.86-76.18,40.32-130.67-7.54-62.83-63.18-79.57-64.52-135.5a88.7,88.7,0,0,1,3.32-26A138.15,138.15,0,0,0,273.82,688.41c0,59,82.68,166.71,120.1,212.42a23.2,23.2,0,0,0,21.55,8.26C408.78,883.82,408.58,862.23,411.33,844.13Z" fill="url(#linear-gradient-3)"/></g><rect x="6636.7" y="129.7" width="85.86" height="16.86" fill="#97a6b7" opacity="0.5" style="mix-blend-mode:multiply"/><rect x="6636.7" y="339.3" width="85.86" height="16.86" fill="#97a6b7" opacity="0.5" style="mix-blend-mode:multiply"/><rect x="6636.7" y="548.89" width="85.86" height="16.86" fill="#97a6b7" opacity="0.5" style="mix-blend-mode:multiply"/><polygon points="6549.2 15.71 6549.2 1029.95 6412.53 999.21 6412.53 112 6549.2 15.71" fill="#97a6b7"/><rect x="6549.2" y="18.12" width="427.54" height="1011.83" fill="#d8dee8"/><rect x="6626.3" y="138.57" width="84.11" height="159" fill="#97a6b7"/><rect x="6741.94" y="138.57" width="85.86" height="159" fill="#97a6b7"/><rect x="6859.34" y="138.57" width="84.11" height="159" fill="#97a6b7"/><rect x="6626.3" y="348.17" width="84.11" height="159" fill="#97a6b7"/><rect x="6741.94" y="348.17" width="85.86" height="159" fill="#97a6b7"/><rect x="6859.34" y="348.17" width="84.11" height="159" fill="#97a6b7"/><rect x="6626.3" y="557.76" width="84.11" height="159" fill="#97a6b7"/><rect x="6741.94" y="557.76" width="85.86" height="159" fill="#97a6b7"/><rect x="6859.34" y="557.76" width="84.11" height="159" fill="#97a6b7"/><rect x="6626.3" y="767.36" width="84.11" height="159" fill="#97a6b7"/><rect x="6741.94" y="767.36" width="85.86" height="159" fill="#97a6b7"/><rect x="6859.34" y="767.36" width="84.11" height="159" fill="#97a6b7"/><rect x="6626.3" y="138.57" width="84.11" height="16.86" fill="#97a6b7" opacity="0.5" style="mix-blend-mode:multiply"/><rect x="6626.3" y="348.17" width="84.11" height="16.86" fill="#97a6b7" opacity="0.5" style="mix-blend-mode:multiply"/><rect x="6626.3" y="557.76" width="84.11" height="16.86" fill="#97a6b7" opacity="0.5" style="mix-blend-mode:multiply"/><rect x="6626.3" y="767.36" width="84.11" height="16.86" fill="#97a6b7" opacity="0.5" style="mix-blend-mode:multiply"/><path d="M6976.74,1013.16V1030H6549.2l-136.67-30.74V849.07c9.14-32,20.18-63.19,33.29-88.94,50.23-98.78,33.87-138.94,44.38-211.21s-12.84-464.14,59-530.8c67.16,111.61,62.5,106.79,64.83,225.66,1.25,63.58,1.16,119.81,12.27,161.56,9.63,36.28,27.73,61.6,62.5,71.31a84.75,84.75,0,0,1,21.6,9.66c22.61,13.85,43.86,38.88,61.87,71.45,23.69,42.76,41.86,98.51,50.33,159,2.33,16.56,3.92,33.49,4.69,50.6.27,5.68.44,11.42.51,17.15q.1,7.49,0,15c0,1.76,0,3.49,0,5.2.33,43.22,13.3,73,31.54,95.89a186.23,186.23,0,0,0,25.48,25.8C6921.07,957.05,6963.58,975.58,6976.74,1013.16Z" fill="#97a6b7" opacity="0.1" style="mix-blend-mode:multiply"/><polygon points="6152.15 110.9 6152.15 856.28 6033 833.7 6033 181.68 6141.36 117.31 6150.79 111.7 6152.15 110.9" fill="#97a6b7"/><rect x="6152.15" y="110.17" width="331.17" height="746.11" fill="#f4f7fa"/><rect x="6215.23" y="192.57" width="42.05" height="614.71" fill="#97a6b7"/><rect x="6302.84" y="192.57" width="43.81" height="614.71" fill="#97a6b7"/><rect x="6390.45" y="192.57" width="43.81" height="614.71" fill="#97a6b7"/><rect x="6243.27" y="192.57" width="14.02" height="614.71" fill="#97a6b7" opacity="0.5" style="mix-blend-mode:multiply"/><rect x="6332.63" y="192.57" width="14.02" height="614.71" fill="#97a6b7" opacity="0.5" style="mix-blend-mode:multiply"/><rect x="6421.99" y="192.57" width="14.02" height="614.71" fill="#97a6b7" opacity="0.5" style="mix-blend-mode:multiply"/><path d="M6483.32,856.23v0H6152.15L6033,833.7V757.86c55.2-84.46,37-119.58,48.94-182.23,11.64-61.16-12.91-383.41,59.42-458.31a55,55,0,0,1,8.22-7.15l1.21,1.53,1.36,1.74c37.64,47.86,54.88,70.71,63.08,95,8,23.68,7.4,48.71,8.69,99.6,1.62,62.59,1.28,117,19.35,154.53a90,90,0,0,0,14,21.33c10.91,12.28,25.63,21.38,45.55,26.71,2.21.6,4.47,1.16,6.8,1.65a112.94,112.94,0,0,1,23,7.63,130.57,130.57,0,0,1,14,7.35c15.47,9.25,30.24,21.94,43.8,37.38A275,275,0,0,1,6422,609.08q6.49,11.29,12.27,23.5c.6,1.25,1.17,2.49,1.75,3.76a369.5,369.5,0,0,1,33.05,159C6468.57,820,6474,839.8,6483.32,856.23Z" fill="#97a6b7" opacity="0.1" style="mix-blend-mode:multiply"/><rect x="5783.96" y="704.67" width="708.66" height="324.22" fill="#f4f7fa"/><g opacity="0.1" style="mix-blend-mode:multiply"><path d="M6359.22,912.35c-53.27-16.22-117.19-8.11-159.8-32.44-131-57-267.6-164-415.46-172.72v321.7h708.67V997.36C6449.64,965.6,6407.47,933.77,6359.22,912.35Z" fill="#97a6b7"/></g><polygon points="5788.6 1027.42 5668.87 994.82 5668.87 745.99 5785.64 705.83 5788.6 1027.42" fill="#97a6b7"/><rect x="6266.91" y="896.55" width="145.82" height="132.15" fill="#97a6b7"/><rect x="6398.71" y="896.55" width="14.02" height="132.15" fill="#97a6b7" opacity="0.5" style="mix-blend-mode:multiply"/><rect x="5995.67" y="896.55" width="145.82" height="132.15" fill="#97a6b7"/><rect x="6125.18" y="896.55" width="14.02" height="132.15" fill="#97a6b7" opacity="0.5" style="mix-blend-mode:multiply"/><path d="M5877.39,260.34c0,70.18-98.31,198.23-142.8,252.59a27.68,27.68,0,0,1-42.84,0C5647.26,458.57,5549,330.52,5549,260.34a164.22,164.22,0,0,1,328.44,0Z" fill="url(#linear-gradient-4)"/><circle cx="5713.17" cy="260.34" r="91.59" transform="translate(4147.18 5760.87) rotate(-76.72)" fill="#fff"/><g opacity="0.3" style="mix-blend-mode:multiply"><path d="M5712.45,445.5c10.42-68.61,55.73-90.58,47.95-155.36-9-74.72-75.13-94.62-76.73-161.12a105.73,105.73,0,0,1,3.95-30.92A164.25,164.25,0,0,0,5549,260.34c0,70.18,98.31,198.23,142.8,252.59a27.62,27.62,0,0,0,25.63,9.82C5709.42,492.7,5709.18,467,5712.45,445.5Z" fill="url(#linear-gradient-5)"/></g><polygon points="5468.68 2090.9 4973.13 2003.75 5000.44 1728.01 5389.34 1728.01 5468.68 2090.9" fill="#bfc8d6"/><path d="M5293.2,1905c-76.49-56.52-178.9-36.3-213.31-104.06-11.14-21.94-12.09-47.08-6.9-73h-72.55l-27.31,275.74,408.66,71.87C5366.82,1983.93,5331.87,1933.6,5293.2,1905Z" opacity="0.3" fill="url(#linear-gradient-6)" style="mix-blend-mode:multiply"/><rect x="5207.58" y="1694.32" width="7.92" height="42.21" fill="url(#linear-gradient-7)"/><rect x="5236.98" y="1694.32" width="7.92" height="42.21" fill="url(#linear-gradient-8)"/><rect x="5266.38" y="1694.32" width="7.92" height="42.21" fill="url(#linear-gradient-9)"/><rect x="5295.77" y="1694.32" width="7.92" height="42.21" fill="url(#linear-gradient-10)"/><rect x="5354.57" y="1694.32" width="7.92" height="42.21" fill="url(#linear-gradient-11)"/><rect x="5325.17" y="1694.32" width="7.92" height="42.21" fill="url(#linear-gradient-12)"/><rect x="5383.97" y="1694.32" width="7.92" height="42.21" fill="url(#linear-gradient-13)"/><rect x="5413.36" y="1694.32" width="7.92" height="42.21" fill="url(#linear-gradient-14)"/><rect x="4972.4" y="1687.82" width="448.88" height="9.1" fill="url(#linear-gradient-15)"/><rect x="4972.4" y="1694.32" width="7.92" height="42.21" fill="url(#linear-gradient-16)"/><rect x="5001.8" y="1694.32" width="7.92" height="42.21" fill="url(#linear-gradient-17)"/><rect x="5031.19" y="1694.32" width="7.92" height="42.21" fill="url(#linear-gradient-18)"/><rect x="5060.59" y="1694.32" width="7.92" height="42.21" fill="url(#linear-gradient-19)"/><rect x="5089.99" y="1694.32" width="7.92" height="42.21" fill="url(#linear-gradient-20)"/><rect x="5119.39" y="1694.32" width="7.92" height="42.21" fill="url(#linear-gradient-21)"/><rect x="5148.79" y="1694.32" width="7.92" height="42.21" fill="url(#linear-gradient-22)"/><rect x="5178.18" y="1694.32" width="7.92" height="42.21" fill="url(#linear-gradient-23)"/><rect x="4972.4" y="1716.43" width="448.88" height="40.2" fill="url(#linear-gradient-24)"/><rect x="4850.98" y="1848.18" width="405.4" height="197.2" fill="#d8dee8"/><rect x="4867.78" y="1859.98" width="371.81" height="170.51" fill="#d8dee8" opacity="0.3" style="mix-blend-mode:multiply"/><rect x="4891.56" y="1859.98" width="17.17" height="170.51" fill="#d8dee8" opacity="0.6" style="mix-blend-mode:multiply"/><rect x="4897.95" y="1859.98" width="11.45" height="170.51" fill="#d8dee8"/><rect x="4935.33" y="1859.98" width="17.17" height="170.51" fill="#d8dee8" opacity="0.6" style="mix-blend-mode:multiply"/><rect x="4941.73" y="1859.98" width="11.45" height="170.51" fill="#d8dee8"/><rect x="4979.1" y="1859.98" width="17.17" height="170.51" fill="#d8dee8" opacity="0.6" style="mix-blend-mode:multiply"/><rect x="4985.5" y="1859.98" width="11.45" height="170.51" fill="#d8dee8"/><rect x="5022.87" y="1859.98" width="17.17" height="170.51" fill="#d8dee8" opacity="0.6" style="mix-blend-mode:multiply"/><rect x="5029.27" y="1859.98" width="11.45" height="170.51" fill="#d8dee8"/><rect x="5066.65" y="1859.98" width="17.17" height="170.51" fill="#d8dee8" opacity="0.6" style="mix-blend-mode:multiply"/><rect x="5073.04" y="1859.98" width="11.45" height="170.51" fill="#d8dee8"/><rect x="5110.42" y="1859.98" width="17.17" height="170.51" fill="#d8dee8" opacity="0.6" style="mix-blend-mode:multiply"/><rect x="5116.82" y="1859.98" width="11.45" height="170.51" fill="#d8dee8"/><rect x="5154.19" y="1859.98" width="17.17" height="170.51" fill="#d8dee8" opacity="0.6" style="mix-blend-mode:multiply"/><rect x="5160.59" y="1859.98" width="11.45" height="170.51" fill="#d8dee8"/><rect x="5197.96" y="1859.98" width="17.17" height="170.51" fill="#d8dee8" opacity="0.6" style="mix-blend-mode:multiply"/><rect x="5204.36" y="1859.98" width="11.45" height="170.51" fill="#d8dee8"/><rect x="4648.15" y="1848.18" width="202.84" height="197.2" fill="#d8dee8"/><rect x="4657.16" y="1851.56" width="184.8" height="190.43" transform="translate(6696.34 -2802.79) rotate(90)" fill="#d8dee8"/><rect x="4750.94" y="1858.11" width="91.15" height="177.34" fill="#d8dee8"/><rect x="4657.04" y="1858.11" width="91.15" height="177.34" fill="#d8dee8"/><rect x="4657.04" y="1908.64" width="91.15" height="15.5" fill="#d8dee8" opacity="0.3" style="mix-blend-mode:multiply"/><rect x="4657.04" y="1969.41" width="91.15" height="15.5" fill="#d8dee8" opacity="0.3" style="mix-blend-mode:multiply"/><rect x="4750.94" y="1908.64" width="91.15" height="15.5" fill="#d8dee8" opacity="0.3" style="mix-blend-mode:multiply"/><rect x="4750.94" y="1969.41" width="91.15" height="15.5" fill="#d8dee8" opacity="0.3" style="mix-blend-mode:multiply"/><rect x="4697.72" y="1853.45" width="4.79" height="184.78" fill="#d8dee8"/><polygon points="4697.72 2038.23 4697.72 1853.45 4700.11 1853.45 4697.72 2038.23" fill="#97a6b7"/><rect x="4695.9" y="1849.32" width="8.42" height="9.71" fill="#d8dee8"/><rect x="4695.9" y="2033.37" width="8.42" height="9.71" fill="#d8dee8"/><rect x="4763.65" y="1853.45" width="4.79" height="184.78" fill="#d8dee8"/><polygon points="4763.65 2038.23 4763.65 1853.45 4766.05 1853.45 4763.65 2038.23" fill="#97a6b7"/><rect x="4761.84" y="1849.32" width="8.42" height="9.71" fill="#d8dee8"/><rect x="4761.84" y="2033.37" width="8.42" height="9.71" fill="#d8dee8"/><rect x="4796.62" y="1853.45" width="4.79" height="184.78" fill="#d8dee8"/><polygon points="4796.62 2038.23 4796.62 1853.45 4799.01 1853.45 4796.62 2038.23" fill="#97a6b7"/><rect x="4794.8" y="1849.32" width="8.42" height="9.71" fill="#d8dee8"/><rect x="4794.8" y="2033.37" width="8.42" height="9.71" fill="#d8dee8"/><rect x="4730.68" y="1853.45" width="4.79" height="184.78" fill="#d8dee8"/><polygon points="4730.68 2038.23 4730.68 1853.45 4733.08 1853.45 4730.68 2038.23" fill="#97a6b7"/><rect x="4728.87" y="1849.32" width="8.42" height="9.71" fill="#d8dee8"/><rect x="4728.87" y="2033.37" width="8.42" height="9.71" fill="#d8dee8"/><rect x="4783.75" y="1652.12" width="405.4" height="197.2" fill="#d8dee8"/><rect x="4800.55" y="1663.92" width="371.81" height="170.51" fill="#d8dee8" opacity="0.3" style="mix-blend-mode:multiply"/><rect x="4824.32" y="1663.92" width="17.17" height="170.51" fill="#d8dee8" opacity="0.6" style="mix-blend-mode:multiply"/><rect x="4830.72" y="1663.92" width="11.45" height="170.51" fill="#d8dee8"/><rect x="4868.09" y="1663.92" width="17.17" height="170.51" fill="#d8dee8" opacity="0.6" style="mix-blend-mode:multiply"/><rect x="4874.49" y="1663.92" width="11.45" height="170.51" fill="#d8dee8"/><rect x="4911.87" y="1663.92" width="17.17" height="170.51" fill="#d8dee8" opacity="0.6" style="mix-blend-mode:multiply"/><rect x="4918.26" y="1663.92" width="11.45" height="170.51" fill="#d8dee8"/><rect x="4955.64" y="1663.92" width="17.17" height="170.51" fill="#d8dee8" opacity="0.6" style="mix-blend-mode:multiply"/><rect x="4962.04" y="1663.92" width="11.45" height="170.51" fill="#d8dee8"/><rect x="4999.41" y="1663.92" width="17.17" height="170.51" fill="#d8dee8" opacity="0.6" style="mix-blend-mode:multiply"/><rect x="5005.81" y="1663.92" width="11.45" height="170.51" fill="#d8dee8"/><rect x="5043.18" y="1663.92" width="17.17" height="170.51" fill="#d8dee8" opacity="0.6" style="mix-blend-mode:multiply"/><rect x="5049.58" y="1663.92" width="11.45" height="170.51" fill="#d8dee8"/><rect x="5086.96" y="1663.92" width="17.17" height="170.51" fill="#d8dee8" opacity="0.6" style="mix-blend-mode:multiply"/><rect x="5093.36" y="1663.92" width="11.45" height="170.51" fill="#d8dee8"/><rect x="5130.73" y="1663.92" width="17.17" height="170.51" fill="#d8dee8" opacity="0.6" style="mix-blend-mode:multiply"/><rect x="5137.13" y="1663.92" width="11.45" height="170.51" fill="#d8dee8"/><rect x="4580.91" y="1652.12" width="202.84" height="197.2" fill="#fff"/><rect x="4589.93" y="1655.5" width="184.8" height="190.43" transform="translate(6433.05 -2931.61) rotate(90)" fill="#d8dee8" opacity="0.3" style="mix-blend-mode:multiply"/><rect x="4683.7" y="1662.05" width="91.15" height="177.34" fill="#fff"/><rect x="4589.81" y="1662.05" width="91.15" height="177.34" fill="#fff"/><rect x="4589.81" y="1712.59" width="91.15" height="15.5" fill="#d8dee8" opacity="0.3" style="mix-blend-mode:multiply"/><rect x="4589.81" y="1773.35" width="91.15" height="15.5" fill="#d8dee8" opacity="0.3" style="mix-blend-mode:multiply"/><rect x="4683.7" y="1712.59" width="91.15" height="15.5" fill="#d8dee8" opacity="0.3" style="mix-blend-mode:multiply"/><rect x="4683.7" y="1773.35" width="91.15" height="15.5" fill="#d8dee8" opacity="0.3" style="mix-blend-mode:multiply"/><rect x="4630.48" y="1657.4" width="4.79" height="184.78" fill="#d8dee8"/><polygon points="4630.48 1842.17 4630.48 1657.39 4632.88 1657.39 4630.48 1842.17" fill="#97a6b7"/><rect x="4628.67" y="1653.26" width="8.42" height="9.71" fill="#d8dee8"/><rect x="4628.67" y="1837.31" width="8.42" height="9.71" fill="#d8dee8"/><rect x="4696.42" y="1657.4" width="4.79" height="184.78" fill="#d8dee8"/><polygon points="4696.42 1842.17 4696.42 1657.39 4698.81 1657.39 4696.42 1842.17" fill="#97a6b7"/><rect x="4694.6" y="1653.26" width="8.42" height="9.71" fill="#d8dee8"/><rect x="4694.6" y="1837.31" width="8.42" height="9.71" fill="#d8dee8"/><rect x="4729.38" y="1657.4" width="4.79" height="184.78" fill="#d8dee8"/><polygon points="4729.38 1842.17 4729.38 1657.39 4731.78 1657.39 4729.38 1842.17" fill="#97a6b7"/><rect x="4727.57" y="1653.26" width="8.42" height="9.71" fill="#d8dee8"/><rect x="4727.57" y="1837.31" width="8.42" height="9.71" fill="#d8dee8"/><rect x="4663.45" y="1657.4" width="4.79" height="184.78" fill="#d8dee8"/><polygon points="4663.45 1842.17 4663.45 1657.39 4665.85 1657.39 4663.45 1842.17" fill="#97a6b7"/><rect x="4661.63" y="1653.26" width="8.42" height="9.71" fill="#d8dee8"/><rect x="4661.63" y="1837.31" width="8.42" height="9.71" fill="#d8dee8"/><path d="M4369,1803.24l-34.25,88.59a30.7,30.7,0,0,0,5.68,31.46c42.1,47.37,176.75,205,186.62,293.77h901.36s9.1-32.51,29.91-50.72,36.42-64.27,18.21-93.65l-304.35-69.59-43.48-84.3a37.22,37.22,0,0,0-31.32-20.12l-38.12-1.82a40.22,40.22,0,0,1-33.24-20.61l-44.1-79.2a30.59,30.59,0,0,0-26.72-15.71H4400.9A34.26,34.26,0,0,0,4369,1803.24Z" fill="url(#linear-gradient-25)"/><path d="M4412.54,1862c-30.92,4.13-59.66,23.13-79.89,40.14a30.63,30.63,0,0,0,7.73,21.17c42.1,47.37,177.3,219.49,186.62,331.35l99.32,18.46c-.25-53.23-2.65-192.29-13.48-236.83C4590.73,1945.35,4412.54,1862,4412.54,1862Z" fill="url(#linear-gradient-26)"/><path d="M5476.48,2072.69l-304.35-69.59-104.6-9.63a89.92,89.92,0,0,1-67.4-40.92l-28.55-44.42a102.32,102.32,0,0,0-84.61-47c-125.95-1.77-428.29-5.32-474.43.83,0,0,178.19,83.37,200.3,174.29,10.83,44.54,13.1,183.65,13.35,236.88h802.17s9.1-88.6,29.91-106.81S5494.69,2102.07,5476.48,2072.69Z" fill="url(#linear-gradient-27)"/><polygon points="4785.83 2068.79 4809.24 2021.96 4850.86 2021.96 4823.55 2068.79 4785.83 2068.79" fill="url(#linear-gradient-28)"/><polygon points="4556.51 2068.79 4533.1 2021.96 4491.48 2021.96 4518.79 2068.79 4556.51 2068.79" fill="url(#linear-gradient-29)"/><path d="M5073.08,2140c-60.74-72.41-64.73-155.71-154.57-199.1-91.71-44.29-153.77,10.56-254.88-23.24-29.21-9.76-62.36-27.16-96.25-59.12-74.65.06-136,1-154.84,3.46,0,0,178.19,83.37,200.3,174.29,10.83,44.54,13.1,181.34,13.35,234.57h550.27C5129.22,2249,5096.48,2167.88,5073.08,2140Z" opacity="0.3" fill="url(#linear-gradient-30)" style="mix-blend-mode:multiply"/><path d="M3261.76,2137.25v50.41a9.13,9.13,0,0,1-8.22,9.09l-516.07,48.9-69.46,46L2572.09,2164Z" fill="url(#linear-gradient-31)"/><path d="M2866.19,2206.53v45.11a7.71,7.71,0,0,1-6.48,7.61l-123.9,19.9,3.6-72.73,118.58-7.58A7.71,7.71,0,0,1,2866.19,2206.53Z" fill="url(#linear-gradient-32)"/><path d="M3209.48,2160.51a10.19,10.19,0,0,1,1.24.08l6.56-.08,0,2.88c6.34,5,10.75,15.82,10.75,28.42,0,13.09-4.76,24.3-11.51,29l0,2.32h-7c-10.23,0-18.52-14-18.52-31.29S3199.25,2160.51,3209.48,2160.51Z" fill="url(#linear-gradient-33)"/><ellipse cx="3217.28" cy="2191.81" rx="18.51" ry="31.3" fill="url(#linear-gradient-34)"/><ellipse cx="3219.88" cy="2191.81" rx="10.4" ry="17.58" fill="#d8dee8"/><ellipse cx="3218.3" cy="2191.81" rx="8.83" ry="16.32" fill="url(#linear-gradient-35)"/><path d="M3165.72,2164a10.39,10.39,0,0,1,1.37.09l7.18-.09,0,3.16c6.95,5.44,11.78,17.33,11.78,31.13,0,14.35-5.22,26.63-12.62,31.75l0,2.54h-7.64c-11.2,0-20.28-15.35-20.28-34.29S3154.52,2164,3165.72,2164Z" fill="url(#linear-gradient-36)"/><ellipse cx="3174.27" cy="2198.32" rx="20.29" ry="34.29" fill="url(#linear-gradient-37)"/><ellipse cx="3177.12" cy="2198.32" rx="11.4" ry="19.26" fill="#d8dee8"/><ellipse cx="3175.39" cy="2198.32" rx="9.67" ry="17.89" fill="url(#linear-gradient-38)"/><path d="M3119,2164a14.71,14.71,0,0,1,1.49.09l7.84-.09,0,3.45c7.6,5.94,12.87,18.92,12.87,34,0,15.67-5.7,29.08-13.78,34.66l0,2.78H3119c-12.23,0-22.15-16.76-22.15-37.44S3106.79,2164,3119,2164Z" fill="url(#linear-gradient-39)"/><ellipse cx="3128.35" cy="2201.47" rx="22.15" ry="37.44" fill="url(#linear-gradient-40)"/><ellipse cx="3131.46" cy="2201.47" rx="12.44" ry="21.03" fill="#d8dee8"/><path d="M3119,2201.47c0,10.79,4.73,19.53,10.56,19.53s10.56-8.74,10.56-19.53-4.73-19.53-10.56-19.53S3119,2190.69,3119,2201.47Z" fill="url(#linear-gradient-41)"/><path d="M2903.68,2183.56a17.15,17.15,0,0,1,1.9.12l10-.12-.06,4.4c9.7,7.58,16.42,24.15,16.42,43.4,0,20-7.27,37.12-17.58,44.24l0,3.55h-10.64c-15.62,0-28.28-21.4-28.28-47.79S2888.06,2183.56,2903.68,2183.56Z" fill="url(#linear-gradient-42)"/><ellipse cx="2915.59" cy="2231.35" rx="28.28" ry="47.8" fill="url(#linear-gradient-43)"/><ellipse cx="2919.56" cy="2231.35" rx="15.89" ry="26.85" fill="#d8dee8"/><ellipse cx="2917.16" cy="2231.35" rx="13.48" ry="24.93" fill="url(#linear-gradient-44)"/><path d="M2715.52,2191.11a21.71,21.71,0,0,1,2.43.16l12.78-.16-.07,5.63c12.38,9.68,21,30.86,21,55.44,0,25.55-9.29,47.42-22.46,56.53l-.06,4.53h-13.6c-19.95,0-36.13-27.34-36.13-61.06S2695.57,2191.11,2715.52,2191.11Z" fill="url(#linear-gradient-45)"/><ellipse cx="2730.73" cy="2252.18" rx="36.12" ry="61.06" fill="url(#linear-gradient-46)"/><ellipse cx="2735.81" cy="2252.18" rx="20.29" ry="34.31" fill="#d8dee8"/><ellipse cx="2732.74" cy="2252.18" rx="17.22" ry="31.85" fill="url(#linear-gradient-47)"/><path d="M3292.45,1869a14,14,0,0,1,11.72,13.82v255.5a14,14,0,0,1-13.23,14l-480.24,26.8V1788.85Z" fill="url(#linear-gradient-48)"/><path d="M2539.88,1798l270.82-9.11v390.21H2525.32V1813A15.07,15.07,0,0,1,2539.88,1798Z" fill="url(#linear-gradient-49)"/><path d="M2912.16,2081c61.68-28.4,119.56,15,176-26.95,49.41-36.7,33.48-91.08,72.93-155.38a209.46,209.46,0,0,1,37.66-45.27l93.71,15.58a14,14,0,0,1,11.72,13.82v255.5a14,14,0,0,1-13.23,14l-455.47,25.41C2856.37,2120.49,2884.77,2093.59,2912.16,2081Z" opacity="0.3" fill="url(#linear-gradient-50)" style="mix-blend-mode:multiply"/><path d="M2381,2055.6l20-50.33.59-41.62-20.22-4.05a3.49,3.49,0,0,1-2.71-4.27c3.05-12.27,14.24-52.81,31.65-66.2,12.27-9.44,245-12.26,245-12.26l112,7.28a16.72,16.72,0,0,1,15.64,16.69V2149a12.55,12.55,0,0,1-11.46,12.5l-76.88,6.67-15.22,15.39s-217.88,17.44-304.84,1.59a9.46,9.46,0,0,1-7.78-9.3V2066.7C2366.77,2050.85,2381,2055.6,2381,2055.6Z" fill="#f4f7fa"/><path d="M2617.27,2070.67s2.38-107.82,0-152.21c-1.15-21.53,9.64-34.1,21.05-41.34,10.64-.17,17-.25,17-.25l112,7.28a16.72,16.72,0,0,1,15.64,16.69V2149a12.55,12.55,0,0,1-11.46,12.5l-76.88,6.67-15.22,15.39s-35.87,2.87-84.31,5.22v-92Z" opacity="0.8" fill="url(#linear-gradient-51)" style="mix-blend-mode:multiply"/><path d="M2369.25,2204.49l8.62-3V2184a8.53,8.53,0,0,1,8.52-8.53h269.83a11.79,11.79,0,0,1,11.79,11.79v104.36a10.12,10.12,0,0,1-10.51,10.11l-288.93-11.12a10.12,10.12,0,0,1-9.73-10.11v-61.35A15.54,15.54,0,0,1,2369.25,2204.49Z" fill="#97a6b7"/><path d="M2402.13,2114.82h160a9.29,9.29,0,0,1,9.27,9.94l-8.82,125.61a11.76,11.76,0,0,1-12.12,10.93L2413,2256.64a11.74,11.74,0,0,1-11.32-10.89l-8.82-121A9.3,9.3,0,0,1,2402.13,2114.82Z" fill="url(#linear-gradient-52)"/><g opacity="0.3" style="mix-blend-mode:multiply"><path d="M2369.25,2204.49l8.62-3V2184a8.52,8.52,0,0,1,5.71-8l16.42,77.2a20.55,20.55,0,0,0,19.3,16.26l126.1,4.9a20.56,20.56,0,0,0,20.21-13.8l29.47-85.05h61.14a11.79,11.79,0,0,1,11.79,11.79v104.35a10.13,10.13,0,0,1-10.51,10.12l-288.93-11.12a10.12,10.12,0,0,1-9.73-10.11v-61.35A15.54,15.54,0,0,1,2369.25,2204.49Z" fill="#97a6b7"/></g><path d="M2581.6,2267.26l30,1.5a34.55,34.55,0,0,0,36.17-31.67l1.21-14.59h-60.06a7.32,7.32,0,0,0-7.32,7.32Z" fill="url(#linear-gradient-53)"/><path d="M2388.05,2228.68l4.79,32.63s-31.63-1.11-30.84-41l19.63,2.16A7.28,7.28,0,0,1,2388.05,2228.68Z" fill="url(#linear-gradient-54)"/><path d="M2610.41,2071.19a22.25,22.25,0,0,0,13.09-4.28l12.34-9a17.76,17.76,0,0,0,7.25-14.29v-71.86a10.95,10.95,0,0,0-12.81-10.8l-12.1,2.09h-217l-.11.51-20.65,92.08,0,.14,2.28,11.41h.53l226.81,4Zm21.74-109.13a9.66,9.66,0,0,1,9.64,9.66v71.86a16.46,16.46,0,0,1-6.72,13.24l-12.34,9a21,21,0,0,1-12.32,4H2610l-226.29-4-2-10.25,20.46-91.31h216.12l12.21-2.09A9.21,9.21,0,0,1,2632.15,1962.06Z" fill="gray"/><path d="M2401.65,1963.65h216.64l12.1-2.09a10.3,10.3,0,0,1,12.05,10.15v71.87a17.07,17.07,0,0,1-7,13.77l-12.35,9a21.54,21.54,0,0,1-13.08,4.15l-226.81-4-2.18-10.9Z" fill="url(#linear-gradient-55)"/><rect x="2531.26" y="1938.68" width="28.54" height="17.84" rx="5.05" fill="#97a6b7"/><rect x="2423.05" y="1938.68" width="28.54" height="17.84" rx="5.05" fill="#97a6b7"/><path d="M2469.43,2014.78c55.9-21.38,108.49,5.27,132.58-23.78,6.52-7.86,9.15-17.63,9.76-27.35h6.52l12.1-2.09a10.3,10.3,0,0,1,12.05,10.15v71.87a17.07,17.07,0,0,1-7,13.77l-12.35,9a21.54,21.54,0,0,1-13.08,4.15l-205.45-3.66C2427.8,2035.58,2451.39,2021.68,2469.43,2014.78Z" fill="#fff" opacity="0.3" style="mix-blend-mode:overlay"/><polygon points="611.21 918.4 610.08 1217.01 1360.56 1229.71 1507.56 791.29 784.12 822.43 786.94 835.09 611.21 918.4" fill="url(#linear-gradient-56)"/><polygon points="611.21 918.4 785.53 816.34 1507.56 791.29 1347.13 894.55 611.21 918.4" fill="url(#linear-gradient-57)"/><polygon points="599.05 943.36 1360.36 911.98 1360.36 886.84 598.92 918.66 599.05 943.36" fill="url(#linear-gradient-58)"/><polygon points="1507.56 791.29 1637.76 917.6 1640.02 1195.86 1360.56 1229.71 1360.58 886.84 1507.56 791.29" fill="url(#linear-gradient-59)"/><polygon points="1360.36 915.16 1508.3 811.41 1640.17 936.08 1640.05 917.94 1507.69 791.33 1360.36 886.84 1360.36 915.16" fill="url(#linear-gradient-60)"/><polygon points="1615.17 1148.57 1613.58 933.65 1546.84 927.34 1548.08 1154.16 1615.17 1148.57" fill="#fff"/><polygon points="1552.64 1145.17 1610.47 1141.27 1609.01 941.06 1551.47 935.78 1552.64 1145.17" fill="url(#linear-gradient-61)"/><polygon points="1583.86 1150.98 1582.43 930.64 1576.67 930.06 1578.08 1151.39 1583.86 1150.98" fill="#fff"/><polygon points="1547.7 1084.5 1614.68 1082.58 1614.63 1074.77 1547.65 1076.25 1547.7 1084.5" fill="#fff"/><polygon points="1547.26 1003.39 1614.11 1005.73 1614.06 997.95 1547.21 995.19 1547.26 1003.39" fill="#fff"/><polygon points="1496.45 1158.03 1495.52 922.34 1413.1 914.35 1413.47 1164.38 1496.45 1158.03" fill="#fff"/><polygon points="1421.37 1154.9 1490.7 1150.04 1489.87 930.4 1420.97 924.15 1421.37 1154.9" fill="url(#linear-gradient-62)"/><polygon points="1459.96 1160.93 1459.26 918.86 1452.49 918.21 1453.13 1161.45 1459.96 1160.93" fill="#fff"/><polygon points="1413.36 1087.55 1496.16 1085.63 1496.13 1077.06 1413.35 1078.46 1413.36 1087.55" fill="#fff"/><polygon points="1413.22 998.14 1495.83 1001.35 1495.8 992.82 1413.21 989.1 1413.22 998.14" fill="#fff"/><polygon points="975.88 1000.6 974.8 1221.57 1224.18 1224.7 1226.55 995.7 975.88 1000.6" fill="#fff"/><polygon points="981.47 1007.93 980.4 1221.64 1216.98 1224.61 1219.23 1003.55 981.47 1007.93" fill="#97a6b7"/><polygon points="965.69 1016.89 1236.06 1012.24 1236.37 982.63 965.83 988.4 965.69 1016.89" fill="#d8dee8"/><polygon points="968.95 1040.35 1232.17 1036.72 1232.42 1012.31 969.06 1016.83 968.95 1040.35" fill="#fff"/><g opacity="0.5" style="mix-blend-mode:multiply"><polygon points="969.02 1024.26 1232.34 1020.02 1232.38 1016.16 969.04 1020.55 969.02 1024.26" fill="#d8dee8"/><polygon points="968.98 1032.93 1232.25 1029.02 1232.29 1025.16 969 1029.21 968.98 1032.93" fill="#d8dee8"/></g><polygon points="657.18 1006.82 657.62 1217.6 884.21 1220.44 884.84 1002.37 657.18 1006.82" fill="#fff"/><polygon points="662.32 1013.82 662.72 1217.66 878.76 1220.37 879.35 1009.82 662.32 1013.82" fill="#97a6b7"/><polygon points="648.02 1022.35 894.67 1018.11 894.75 989.92 647.96 995.18 648.02 1022.35" fill="#d8dee8"/><polygon points="652.15 1044.71 890.21 1041.43 890.28 1018.19 652.1 1022.28 652.15 1044.71" fill="#fff"/><g opacity="0.5" style="mix-blend-mode:multiply"><polygon points="652.88 1029.3 890.61 1025.5 890.8 1021.81 652.87 1025.76 652.88 1029.3" fill="#d8dee8"/><polygon points="652.9 1037.57 890.59 1034.06 890.77 1030.38 652.9 1034.03 652.9 1037.57" fill="#d8dee8"/></g><polygon points="779.96 1408.47 1038.43 1420.96 1038.43 1160.68 779.96 1173.18 779.96 1408.47" fill="url(#linear-gradient-63)"/><polygon points="1038.43 1420.96 1131.11 1403.15 1131.11 1177.3 1038.43 1160.68 1038.43 1420.96" fill="url(#linear-gradient-64)"/><polygon points="955.57 1165.11 955.57 1205.8 886.38 1208.83 886.38 1169.3 955.57 1165.11" fill="#fff" style="mix-blend-mode:soft-light"/><polygon points="1111.28 1173.74 1072.46 1166.79 1072.46 1206.86 1111.28 1211.08 1111.28 1173.74" fill="#fff" style="mix-blend-mode:soft-light"/><polygon points="634.65 1421.69 817.2 1430.52 817.2 1246.69 634.65 1255.51 634.65 1421.69" fill="url(#linear-gradient-65)"/><polygon points="817.2 1430.52 882.66 1417.94 882.66 1258.42 817.2 1246.69 817.2 1430.52" fill="url(#linear-gradient-66)"/><polygon points="758.68 1249.81 758.68 1278.55 709.81 1280.69 709.81 1252.77 758.68 1249.81" fill="#fff" style="mix-blend-mode:soft-light"/><polygon points="868.65 1255.91 841.24 1250.99 841.24 1279.3 868.65 1282.28 868.65 1255.91" fill="#fff" style="mix-blend-mode:soft-light"/><polygon points="855.07 1449.42 985.99 1455.75 985.99 1323.91 855.07 1330.24 855.07 1449.42" fill="url(#linear-gradient-67)"/><polygon points="985.99 1455.75 1032.94 1446.73 1032.94 1332.33 985.99 1323.91 985.99 1455.75" fill="url(#linear-gradient-68)"/><polygon points="944.02 1326.15 944.02 1346.76 908.98 1348.29 908.98 1328.27 944.02 1326.15" fill="#fff" style="mix-blend-mode:soft-light"/><polygon points="1022.89 1330.52 1003.23 1327 1003.23 1347.3 1022.89 1349.43 1022.89 1330.52" fill="#fff" style="mix-blend-mode:soft-light"/><polygon points="1622.14 1615.42 1742.16 1610.51 1708.93 1532.66 1631.61 1537.22 1610.92 1571.06 1622.14 1615.42" fill="url(#linear-gradient-69)"/><path d="M1509.55,1491.67a23.56,23.56,0,0,0-2.38.13l-12.47-.13.07,4.89c-12.08,8.41-20.46,26.81-20.46,48.17,0,22.2,9.06,41.2,21.91,49.11l.06,3.94h13.27c19.46,0,35.24-23.75,35.24-53S1529,1491.67,1509.55,1491.67Z" fill="url(#linear-gradient-70)"/><ellipse cx="1494.7" cy="1544.73" rx="35.24" ry="53.06" fill="url(#linear-gradient-71)"/><path d="M1853.93,1532c-1,0-1.94.06-2.91.15l-15.28-.15.09,5.47c-14.8,9.43-25.07,30-25.07,54,0,24.87,11.1,46.16,26.85,55l.07,4.41h16.25c23.85,0,43.18-26.61,43.18-59.44S1877.78,1532,1853.93,1532Z" fill="url(#linear-gradient-72)"/><ellipse cx="1835.74" cy="1591.4" rx="43.18" ry="59.44" fill="url(#linear-gradient-73)"/><path d="M1689.75,1559.56c-1,0-1.92.06-2.87.15l-15-.15.09,5.61c-14.58,9.66-24.69,30.79-24.69,55.33,0,25.49,10.93,47.32,26.43,56.41l.07,4.52h16c23.47,0,42.5-27.28,42.5-60.93S1713.22,1559.56,1689.75,1559.56Z" fill="url(#linear-gradient-74)"/><ellipse cx="1671.84" cy="1620.49" rx="42.51" ry="60.94" fill="url(#linear-gradient-75)"/><ellipse cx="1665.87" cy="1620.49" rx="23.88" ry="34.23" fill="#d8dee8"/><ellipse cx="1669.48" cy="1620.49" rx="20.27" ry="31.78" fill="url(#linear-gradient-76)"/><path d="M1265.85,1491.67v63.43a27.56,27.56,0,0,0,30.93,27.36L1451,1563.52v-71.85Z" fill="url(#linear-gradient-77)"/><path d="M1335.29,1482.86l42.34,65.81a37.56,37.56,0,0,0,27.09,17l140.07,16.83,10.72-70.84Z" fill="url(#linear-gradient-78)"/><path d="M1345.05,1514.92a23.56,23.56,0,0,0-2.38.13l-12.47-.13.07,4.89c-12.08,8.41-20.47,26.81-20.47,48.16,0,22.2,9.06,41.21,21.92,49.12l.06,3.94h13.27c19.46,0,35.24-23.75,35.24-53.06S1364.51,1514.92,1345.05,1514.92Z" fill="url(#linear-gradient-79)"/><ellipse cx="1330.2" cy="1567.97" rx="35.24" ry="53.06" fill="url(#linear-gradient-80)"/><ellipse cx="1325.25" cy="1567.97" rx="19.8" ry="29.81" fill="#d8dee8"/><ellipse cx="1328.24" cy="1567.97" rx="16.8" ry="27.67" fill="url(#linear-gradient-81)"/><path d="M1498,1532.66l-287.71-39.85a9.56,9.56,0,0,1-8.26-9.48V1229.84a9.58,9.58,0,0,1,9.28-9.57l286.69-8.83Z" fill="url(#linear-gradient-82)"/><path d="M1723.83,1514.92,1498,1532.66V1211.44l214.62,11.33a11.84,11.84,0,0,1,11.21,11.83Z" fill="url(#linear-gradient-83)"/><path d="M1394.2,1334.42c-41.82-52.71-125-13.81-166.92-72.94a162.38,162.38,0,0,1-20.62-39.79,9.52,9.52,0,0,0-4.63,8.15v253.49a9.56,9.56,0,0,0,8.26,9.48l260.36,36.06a239.67,239.67,0,0,1-44.89-69.61C1399.52,1396.27,1421.51,1368.84,1394.2,1334.42Z" opacity="0.3" fill="url(#linear-gradient-84)" style="mix-blend-mode:multiply"/><path d="M1541.65,1344.36c-7.79,35-26,135.86-5.68,244.28a19.46,19.46,0,0,0,16.09,15.59l70.08,11.19s.7-66.34,34.37-70.69,65.22,27.21,67.32,81.91c0,0,73,9.82,183.06-15.43,0,0,14.73-3.15,21-19.81l-5-76.31a23.48,23.48,0,0,0-8.06-16.2l-64.82-56s-58.92-83.46-78.55-99.6c0,0-10.52-16.83-95.39-18.93-58.44-1.45-98.69,2.42-118.08,5A19.41,19.41,0,0,0,1541.65,1344.36Z" fill="url(#linear-gradient-85)"/><path d="M1919.23,1503.89l-3.22,3.52c1.4,39.28,9.91,53.16-62.08,60.56s-69.78-53-69.78-53l-94.4-41.17-78.83-124.14c-15.65-12.61-43-16-61.53-16.85a19.36,19.36,0,0,0-7.74,11.6c-7.79,35-26,135.86-5.68,244.28a19.46,19.46,0,0,0,16.09,15.59l70.08,11.19s.7-66.34,34.37-70.69,65.22,27.21,67.33,81.91c0,0,72.94,9.82,183.05-15.43,0,0,14.73-3.15,21-19.81l-5-76.31A23.54,23.54,0,0,0,1919.23,1503.89Z" opacity="0.6" fill="url(#linear-gradient-86)" style="mix-blend-mode:multiply"/><path d="M1688.78,1455.64a12.5,12.5,0,0,0,12.2,5.9l149.48-18.32-.38-.33s-48.89-69.26-72.44-93.79l-137.84,8.29a6.31,6.31,0,0,0-5,9.58Z" fill="url(#linear-gradient-87)"/><path d="M1777.79,1409.09c-40.7-16-74.52,3-102.51-19.42-10.77-8.6-17.19-20.56-21-33.15l-14.51.87a6.31,6.31,0,0,0-5,9.59l54,88.66a12.5,12.5,0,0,0,12.2,5.9l124-15.2C1808.73,1425.17,1792,1414.66,1777.79,1409.09Z" fill="#fff" opacity="0.3" style="mix-blend-mode:overlay"/><path d="M1909.9,1514a2.68,2.68,0,0,0-2.67-2.38c-37.25.33-84.09,8.16-99.59,10.94a5.2,5.2,0,0,0-4.17,6.27c3,12.94,8.06,21.69,11.76,26.77a14.55,14.55,0,0,0,10.65,6c11.72.92,37.72,2.49,50.32-.52,11.22-2.66,22-8,27.71-11.14a12.36,12.36,0,0,0,6.32-8.89C1911.64,1531.89,1910.49,1519.22,1909.9,1514Z" fill="url(#linear-gradient-88)"/><path d="M1727.63,1517.6a4,4,0,0,1,2.18-5.51c3.29-1.22,7.8-2.62,10.42-2.31,3.43.4,32.47,7.94,45.75,11.42a8.86,8.86,0,0,1,6.66,9.11c-.59,9-4,23.36-19.54,25C1751.55,1557.51,1737.93,1538.5,1727.63,1517.6Z" fill="url(#linear-gradient-89)"/><path d="M1867.26,1571.06c-56.5,7.89-68-11.5-68-11.5-13.37,2-32.38-.63-43.15-2.51a10.36,10.36,0,0,0-10.38,4.71c-1.72,2.6-4.85,5.24-10.53,6.21-9.27,1.6-25.06-1.93-32.8-3.91,11.26,15.44,19.14,35.47,20.18,62.5,0,0,74.17,9.9,184.28-15.35,0,0,14.73-3.15,21-19.81l-3.24-49.76C1918.91,1550.47,1903.82,1566,1867.26,1571.06Z" fill="url(#linear-gradient-90)"/><path d="M1775.36,1580.87a10.48,10.48,0,0,0-11.45,10.69,259.83,259.83,0,0,1-2.28,37c32,.08,82.59-2.93,145.26-17.3,0,0,14.73-3.15,21-19.81l-1.89-29C1880.89,1588,1804.89,1583.74,1775.36,1580.87Z" opacity="0.6" fill="url(#linear-gradient-91)" style="mix-blend-mode:multiply"/><path d="M1565.75,1364.64l20.31,4.92a27.64,27.64,0,0,1,16.3,11.24l50.26,73.31a6.72,6.72,0,0,1-6.94,10.37l-87.08-18.42a7.85,7.85,0,0,1-6.23-7.33c-.54-12.56-1.12-42.34,3.8-67.87A7.89,7.89,0,0,1,1565.75,1364.64Z" fill="url(#linear-gradient-92)"/></g></g></g></svg>