<svg id="Layer_1" data-name="Layer 1" xmlns="http://www.w3.org/2000/svg" viewBox="0 0 675.95 188.3"><defs><style>.cls-1{fill:#fff;}.cls-2,.cls-3{fill:#fe5000;}.cls-3{opacity:0.4;}</style></defs><path class="cls-1" d="M0,173V14.3A5.67,5.67,0,0,1,5.67,8.63h84a63.57,63.57,0,0,1,23.08,4.12,53.13,53.13,0,0,1,30.36,29,54.73,54.73,0,0,1,4.37,22,52.61,52.61,0,0,1-4.37,21.37,50.9,50.9,0,0,1-12.15,17.13,57.8,57.8,0,0,1-18.33,11.29,62.42,62.42,0,0,1-23,4.13H47.44a5.66,5.66,0,0,0-5.66,5.67V173a5.67,5.67,0,0,1-5.67,5.67H5.67A5.67,5.67,0,0,1,0,173ZM84.77,44.33H47.44A5.66,5.66,0,0,0,41.78,50V77.52a5.66,5.66,0,0,0,5.66,5.67H84.77q9,0,14.69-5.34A18.13,18.13,0,0,0,105.17,64q0-8.74-5.71-14.21T84.77,44.33Z"/><path class="cls-1" d="M168.8,173V14.3a5.67,5.67,0,0,1,5.67-5.67H297.2a5.67,5.67,0,0,1,5.67,5.67V39.15a5.66,5.66,0,0,1-5.67,5.66h-81a5.66,5.66,0,0,0-5.66,5.67V69.75a5.66,5.66,0,0,0,5.66,5.67h49.63a5.67,5.67,0,0,1,5.67,5.67v23.63a5.67,5.67,0,0,1-5.67,5.67H216.24a5.66,5.66,0,0,0-5.66,5.67v20.72a5.66,5.66,0,0,0,5.66,5.67h81.93a5.67,5.67,0,0,1,5.67,5.67V173a5.67,5.67,0,0,1-5.67,5.67H174.47A5.67,5.67,0,0,1,168.8,173Z"/><path class="cls-1" d="M328.37,173V14.3A5.67,5.67,0,0,1,334,8.63h81.28a70.45,70.45,0,0,1,24.17,4,56.57,56.57,0,0,1,18.94,11.18,51.4,51.4,0,0,1,12.39,17.12,52.48,52.48,0,0,1,4.49,21.86,49.13,49.13,0,0,1-8.74,28.66,55.18,55.18,0,0,1-18.07,16.62,5.69,5.69,0,0,0-2.22,7.66l29.79,54.52a5.67,5.67,0,0,1-5,8.39H437.47a5.66,5.66,0,0,1-5-3.06l-28.89-55.81a5.67,5.67,0,0,0-5-3.06H375.82a5.67,5.67,0,0,0-5.67,5.67V173a5.67,5.67,0,0,1-5.67,5.67H334A5.67,5.67,0,0,1,328.37,173ZM411.44,44.33H375.82A5.67,5.67,0,0,0,370.15,50V77a5.66,5.66,0,0,0,5.67,5.66h35.62q9.71,0,15.66-5.34a17.72,17.72,0,0,0,5.95-13.84,17.75,17.75,0,0,0-5.95-13.85Q421.15,44.33,411.44,44.33Z"/><path class="cls-2" d="M585.11,44.87a47.37,47.37,0,0,0-18.94,3.77c-1,.44-2,.92-3,1.42a49.19,49.19,0,0,1,22-5.19h-.09Z"/><path class="cls-2" d="M658,40,618.9.84a2.83,2.83,0,0,0-4.84,2v8.05A95.29,95.29,0,0,0,585.11,6.5a94.08,94.08,0,0,0-35.7,6.8,89.07,89.07,0,0,0-28.9,18.58,86.68,86.68,0,0,0-19.19,27.93,85,85,0,0,0-7.05,34.37,87.07,87.07,0,0,0,2.36,20.29,5.66,5.66,0,0,0,5.51,4.3h31.34a5.68,5.68,0,0,0,5.31-7.65,49.38,49.38,0,0,1,24.38-61.06c1-.5,2-1,3-1.42a47.37,47.37,0,0,1,18.94-3.77h2L656,44.79A2.83,2.83,0,0,0,658,40Z"/><path class="cls-2" d="M585.11,143.48c-.85,0,.84,0,0,0Z"/><path class="cls-3" d="M585.11,143.48c-.85,0,.84,0,0,0Z"/><path class="cls-2" d="M673.59,73.83a5.64,5.64,0,0,0-5.51-4.3H636.74a5.66,5.66,0,0,0-5.3,7.64,49.42,49.42,0,0,1-24.38,61.06c-1,.5-2,1-3,1.43a47.42,47.42,0,0,1-18.95,3.76h-2l-68.86.09a2.83,2.83,0,0,0-2,4.83l39.11,39.12a2.83,2.83,0,0,0,4.84-2v-8.05a95.29,95.29,0,0,0,29,4.39,94.17,94.17,0,0,0,35.71-6.8,89.34,89.34,0,0,0,28.9-18.58,86.76,86.76,0,0,0,19.18-27.93A85,85,0,0,0,676,94.12,87,87,0,0,0,673.59,73.83Z"/></svg>