<svg xmlns="http://www.w3.org/2000/svg" xmlns:xlink="http://www.w3.org/1999/xlink" viewBox="0 0 121.58 209.07"><defs><clipPath id="clip-path"><rect x="2.93" y="20.52" width="96.39" height="185.19" rx="3.88" fill="none"/></clipPath><clipPath id="clip-path-2"><rect x="3.01" width="95.78" height="206.59" fill="none"/></clipPath></defs><title>mobile</title><g id="Layer_2" data-name="Layer 2"><g id="OBJECTS"><rect y="17.16" width="102.25" height="191.91" rx="4.07" fill="#193544"/><g clip-path="url(#clip-path)"><g clip-path="url(#clip-path-2)"><g id="_01-Splash_1" data-name=" 01-Splash 1"><rect x="3.01" width="95.78" height="206.59" fill="#fff"/><rect id="Rectangle_2833" data-name="Rectangle 2833" x="3.01" width="95.78" height="207.38" fill="#fff"/><rect id="Rectangle_2837" data-name="Rectangle 2837" x="34.94" y="0.02" width="15.98" height="15.98" fill="#111747"/><rect id="Rectangle_2838" data-name="Rectangle 2838" x="18.99" y="0.02" width="15.98" height="15.98" fill="#111747"/><rect id="Rectangle_2839" data-name="Rectangle 2839" x="18.99" y="31.95" width="15.98" height="15.98" fill="#111747"/><rect id="Rectangle_2840" data-name="Rectangle 2840" x="18.99" y="48.13" width="15.98" height="15.98" fill="#ffc641"/><rect id="Rectangle_2841" data-name="Rectangle 2841" x="50.92" y="31.95" width="15.98" height="15.98" fill="#06818e"/><rect id="Rectangle_2842" data-name="Rectangle 2842" x="34.94" y="31.95" width="15.98" height="15.98" fill="#06818e"/><rect id="Rectangle_2843" data-name="Rectangle 2843" x="3.01" y="31.95" width="15.98" height="15.98" fill="#111747"/><rect id="Rectangle_2844" data-name="Rectangle 2844" x="18.99" y="16" width="15.98" height="15.98" fill="#15a3b2"/><path id="Path_5438" data-name="Path 5438" d="M34.94,32h8a8,8,0,0,1,8,8h0a8,8,0,0,1-8,8h-8Z" fill="#111747"/><path id="Path_5439" data-name="Path 5439" d="M27,0h0a8,8,0,0,1,8,8h0v8H19V8a8,8,0,0,1,8-8h0Z" fill="#16a3b2"/><path id="Path_5440" data-name="Path 5440" d="M74.87,16h0a8,8,0,0,1,8,8h0v8.12h-16V24A8,8,0,0,1,74.87,16Z" fill="#fe5e33"/><path id="Path_5441" data-name="Path 5441" d="M42.94,16h0a8,8,0,0,1,8,8h0v8h-16V24A8,8,0,0,1,42.94,16Z" fill="#fe5e33"/><path id="Path_5442" data-name="Path 5442" d="M11,16h0a8,8,0,0,1,8,8h0v8H3.05a0,0,0,0,1,0,0V24a8,8,0,0,1,8-8Z" fill="#fe5e33"/><path id="Path_5443" data-name="Path 5443" d="M19,32H35a8,8,0,0,1-16,0Z" fill="#06818e"/><path id="Path_5444" data-name="Path 5444" d="M51,16h16a8,8,0,0,1-16,.26V16Z" fill="#16a3b2"/><path id="Path_5445" data-name="Path 5445" d="M67,24h16a8,8,0,0,1-16,0Z" fill="#ffc641"/><path id="Path_5446" data-name="Path 5446" d="M35.1,48.13H50.76a.18.18,0,0,1,.16.16h0a15.82,15.82,0,0,1-15.8,15.82h-.18V48.29A.18.18,0,0,1,35.1,48.13Z" fill="#16a3b2"/><path id="Path_5447" data-name="Path 5447" d="M35,64.11H19a8,8,0,0,1,16,0Z" fill="#16a3b2"/><path id="Path_5448" data-name="Path 5448" d="M98.91,32h-16a8,8,0,1,1,16,0Z" fill="#16a3b2"/><path id="Path_5449" data-name="Path 5449" d="M19,48H3a8,8,0,0,1,16,0h0Z" fill="#fe5e33"/><rect id="Rectangle_2845" data-name="Rectangle 2845" x="3.01" y="47.86" width="15.98" height="16.22" fill="#ffc641"/><path id="Path_5450" data-name="Path 5450" d="M19,8a8,8,0,0,1,8-8h0a8,8,0,0,1-8,8Z" fill="#06818e"/><rect id="Rectangle_2846" data-name="Rectangle 2846" x="66.89" y="31.99" width="15.98" height="16.07" fill="#fe5e33"/><rect id="Rectangle_2847" data-name="Rectangle 2847" x="66.89" y="0.02" width="15.98" height="15.98" fill="#fe5e33"/><rect id="Rectangle_2848" data-name="Rectangle 2848" x="82.87" y="31.95" width="15.98" height="15.98" fill="#16a3b2"/><rect id="Rectangle_2849" data-name="Rectangle 2849" x="50.92" y="0.02" width="15.98" height="15.98" fill="#06818e"/><rect id="Rectangle_2850" data-name="Rectangle 2850" x="66.89" y="48.13" width="15.98" height="15.98" fill="#fe5e33"/><path id="Path_5451" data-name="Path 5451" d="M66.89,48.06H82.73a.11.11,0,0,1,.12.1h0V63.92a.14.14,0,0,1-.12.14h0A15.86,15.86,0,0,1,66.89,48.22h0Z" fill="#111747"/><path id="Path_5452" data-name="Path 5452" d="M67,48a8,8,0,0,1,0-16Z" fill="#16a3b2"/><path id="Path_5453" data-name="Path 5453" d="M67,48V32a8,8,0,0,1,0,16Z" fill="#51c5d2"/><rect id="Rectangle_2851" data-name="Rectangle 2851" x="82.87" y="47.86" width="15.98" height="16.22" fill="#51c5d2"/><path id="Path_5454" data-name="Path 5454" d="M58.92,48.13h8v16h-8a8,8,0,0,1-8-8h0a8,8,0,0,1,7.93-8Z" fill="#111747"/><path id="Path_5455" data-name="Path 5455" d="M35,32H51a8,8,0,0,1-16,0h0Z" fill="#fe5e33"/><path id="Path_5456" data-name="Path 5456" d="M35,16a8,8,0,0,1-8,8A8,8,0,0,1,35,16Z" fill="#111747"/><path id="Path_5457" data-name="Path 5457" d="M51,32a8,8,0,0,1,8,8h0A8,8,0,0,1,51,32Z" fill="#16a3b2"/><path id="Path_5458" data-name="Path 5458" d="M82.93,48a8,8,0,0,1-8,8,8,8,0,0,1,8-8Z" fill="#ffc641"/><path id="Path_5459" data-name="Path 5459" d="M19,48a8,8,0,0,1,8-8h0A8,8,0,0,1,19,48Z" fill="#f7fbfc"/><path id="Path_5460" data-name="Path 5460" d="M90.85,32h0a8,8,0,0,1,8,8h0a8,8,0,0,1-8,8h0a8,8,0,0,1-8-8h0A8,8,0,0,1,90.85,32Z" fill="#111747"/><path id="Path_5461" data-name="Path 5461" d="M11.14,48.11h0A7.83,7.83,0,0,1,19,55.92v.27A7.83,7.83,0,0,1,11.14,64h0A7.82,7.82,0,0,1,3.32,56.2V56a7.82,7.82,0,0,1,7.8-7.84h0Z" fill="#fe5e33"/><path id="Path_5462" data-name="Path 5462" d="M91,36.08h0a4,4,0,0,1,4,4h0a4,4,0,0,1-4,4h0a4,4,0,0,1-4-4h0a4,4,0,0,1,4-4Z" fill="#ffc641"/><path id="Path_5463" data-name="Path 5463" d="M11.11,36.08h0a4,4,0,0,1,4,4h0a4,4,0,0,1-4,4h0a4,4,0,0,1-4-4h0a4,4,0,0,1,4-4Z" fill="#ffc641"/><path id="Path_5464" data-name="Path 5464" d="M42.94,51.8h0a4.11,4.11,0,0,1,4.11,4.11v0h0A4.12,4.12,0,0,1,42.94,60h0a4.12,4.12,0,0,1-4.11-4.11h0a4.11,4.11,0,0,1,4.11-4.13Z" fill="#fe5e33"/><path id="Path_5465" data-name="Path 5465" d="M58.92,51.8h0A4.12,4.12,0,0,1,63,55.91v0h0A4.14,4.14,0,0,1,58.92,60h0a4.12,4.12,0,0,1-4.11-4.11h0a4.11,4.11,0,0,1,4.11-4.13Z" fill="#16a3b2"/><path id="Path_5466" data-name="Path 5466" d="M42.82,20.11h.24a4,4,0,0,1,4,4h0a4,4,0,0,1-4,4h-.24a4,4,0,0,1-4-4h0a4,4,0,0,1,4-4h0Z" fill="#ffc641"/><path id="Path_5467" data-name="Path 5467" d="M26.84,28.08h0a4,4,0,0,1,4,4h0a4,4,0,0,1-4,4h0a4,4,0,0,1-4-4v0h0a4,4,0,0,1,4-4Z" fill="#fe5e33"/><path id="Path_5468" data-name="Path 5468" d="M82.87,24h0a7.75,7.75,0,0,1-1.6-.16A8,8,0,0,1,74.89,16a8,8,0,0,1-.62,3.08,7.87,7.87,0,0,1-.74,1.37A8.09,8.09,0,0,1,66.89,24h0a8.61,8.61,0,0,1,.17-1.6,8,8,0,0,1,4.71-5.75,7,7,0,0,1,1.5-.46,8.61,8.61,0,0,1,1.6-.17,8,8,0,0,1-6.61-3.52,8.06,8.06,0,0,1-1.2-2.85A8.61,8.61,0,0,1,66.89,8a7.92,7.92,0,0,1,1.61.16,7.53,7.53,0,0,1,2.84,1.2,8.06,8.06,0,0,1,1.19,1,9.25,9.25,0,0,1,1,1.19,8.39,8.39,0,0,1,1.2,2.84A7.92,7.92,0,0,1,74.87,16a8,8,0,0,1,4.87-7.36,7.31,7.31,0,0,1,1.51-.46A7.75,7.75,0,0,1,82.85,8a8.05,8.05,0,0,1-.62,3.1,7.87,7.87,0,0,1-.74,1.37A8,8,0,0,1,74.87,16a8,8,0,0,1,7.82,6.37A8.41,8.41,0,0,1,82.87,24Z" fill="#111747"/><path id="Path_5469" data-name="Path 5469" d="M3,0H19V8.24a8,8,0,0,1-8,8h0a8,8,0,0,1-8-8H3Z" fill="#06818e"/><path id="Path_5470" data-name="Path 5470" d="M11,8a8,8,0,0,1,8-8h0a8,8,0,0,1-8,8Z" fill="#fe5e33"/><path id="Path_5471" data-name="Path 5471" d="M91,0h7.86V16.24H91a8.14,8.14,0,0,1-8.12-8.1h0A8.11,8.11,0,0,1,91,0Z" fill="#111747"/><path id="Path_5472" data-name="Path 5472" d="M91,3.89h0a4,4,0,0,1,4,4h0a4,4,0,0,1-4,4h0a4,4,0,0,1-4-4h0a4,4,0,0,1,4-4h0Z" fill="#f7fbfc"/><path id="Path_5473" data-name="Path 5473" d="M27,0H43a8,8,0,0,1-8,8h0A8,8,0,0,1,27,0Z" fill="#51c5d2"/><path id="Path_5474" data-name="Path 5474" d="M97.84,20a8,8,0,0,1-10.92,2.91A8.12,8.12,0,0,1,84,20,8,8,0,0,1,94.9,17.06h0l0,0A8.06,8.06,0,0,1,97.84,20Z" fill="#ffc641"/><path id="Path_5475" data-name="Path 5475" d="M27.35,56.26A8.07,8.07,0,0,1,19,64.06h0a8.06,8.06,0,0,1,8.3-7.81h0Z" fill="#06818e"/><path id="Path_5476" data-name="Path 5476" d="M27,0a8,8,0,0,1,8,8h0A8,8,0,0,1,27,0Z" fill="#06818e"/><rect id="Rectangle_2852" data-name="Rectangle 2852" x="3.1" y="31.95" width="63.85" height="16.18" fill="#15a3b2"/><path id="Path_5477" data-name="Path 5477" d="M47.9,152.68l.47-.29.14-.08a4.41,4.41,0,0,1-3.67-4.15,4.23,4.23,0,0,1,.39-2,4.36,4.36,0,0,1,2.83-2.44l0,1.82,1-2h0a4.4,4.4,0,0,1,4.61,4.19v0h0V148a5.79,5.79,0,0,0,.87-1.28,7.65,7.65,0,0,0,.41-3.31c-.08-2.58-.17-5.18-.33-7.76a4.4,4.4,0,0,1-3.91-4.17V131a2.56,2.56,0,0,1,0-.39.14.14,0,0,1,0-.06c0-.09,0-.21.06-.31s0-.07,0-.11a1.59,1.59,0,0,1,.1-.33s0-.08,0-.12a1.57,1.57,0,0,1,.09-.23l.06-.12s0,0,0,0h0a4.39,4.39,0,0,1,5.18-2.23l0,2.37,1-1.94a4.41,4.41,0,0,1,2.11,4.75h0s0,.06,0,.09a1.16,1.16,0,0,1,0,.18.9.9,0,0,1-.08.21l-.06.16a1.49,1.49,0,0,1-.09.23l-.06.14a2.79,2.79,0,0,1-.19.33l-.08.11a.82.82,0,0,1-.16.22.38.38,0,0,0-.09.13l-.16.18-.12.11-.17.18a.27.27,0,0,1-.12.09,1.62,1.62,0,0,0-.19.18l-.1.08a1.85,1.85,0,0,1-.33.21l-.06,0c-.09.06-.19.09-.29.15l-.13.06-.23.1-.16.06c-.08,0-.16.05-.25.07l-.16,0-.27.06h0c.06,1.09.12,2.17.16,3.28a4.4,4.4,0,0,1,5.89-2h0l.23.12-.77,2.13,1.61-1.55a4.42,4.42,0,1,1-6,6.51,4.81,4.81,0,0,1-.83-1c0,.11,0,.22,0,.33a9,9,0,0,1-.5,3.84A7.59,7.59,0,0,1,54,149.43c-.4.4-.81.81-1.24,1.18a4.52,4.52,0,0,1-1.59,1.32c-.7.54-1.43,1-2.17,1.51l-.45.29c-.42.25-.85.52-1.27.81l.21,0a4.4,4.4,0,0,1,4.34,2.87l-2.75,2.25,3-.7a4.39,4.39,0,0,1-4.38,4.41h0a4.83,4.83,0,0,1-1.9-.43l.2.25.4.5c1.79,2.27,2.29,4.44,1.4,6.07l-1.09-.58c.87-1.61-.42-3.64-1.28-4.73-.13-.15-.27-.33-.38-.48-1.15-1.42-2.45-3-2.41-5C42.67,155.92,45.58,154.12,47.9,152.68Z" fill="#f2f2f2"/><ellipse id="Ellipse_520" data-name="Ellipse 520" cx="33.51" cy="169.08" rx="29.09" ry="1.34" fill="#3f3d56" opacity="0.4" style="isolation:isolate"/><path id="Path_5478" data-name="Path 5478" d="M57.46,168.8l-.86-.46c0-.08,0-.28-.22-.56,0,0-.06-.06-.08-.1a1.89,1.89,0,0,1-.56-1.24c0-.8.72-1.24,1.24-1.56l.1-.06a4.45,4.45,0,0,0,.9-.72l0,0a1.64,1.64,0,0,0,.2-.26,1.67,1.67,0,0,0,0-.5c0-.8-.06-1.62-.12-2.44l1-.08c.06.82.1,1.66.12,2.48a2.31,2.31,0,0,1-.14.94v0a2.36,2.36,0,0,1-.4.54,5.91,5.91,0,0,1-1.08.86l-.1.06c-.36.22-.78.48-.78.76a1.27,1.27,0,0,0,.36.62l.08.1A1.55,1.55,0,0,1,57.46,168.8Z" fill="#3f3d56"/><path id="Path_5479" data-name="Path 5479" d="M59.5,160.78a.93.93,0,0,0-.44-.74l-.2.4V160a.89.89,0,0,0-1.12.6.9.9,0,1,0,1.72.52h0a1.54,1.54,0,0,0,0-.3Z" fill="#57b793"/><path id="Path_5480" data-name="Path 5480" d="M57.9,166.84a.9.9,0,1,1-.4-1.21.92.92,0,0,1,.44.49l-.56.46.62-.14A.7.7,0,0,1,57.9,166.84Z" fill="#57b793"/><path id="Path_5481" data-name="Path 5481" d="M57.46,165.1a.9.9,0,0,1-.94-.84h0a.88.88,0,0,1,.66-.9v.36l.2-.4h0a.9.9,0,0,1,.94.85h0a.87.87,0,0,1-.82.92Z" fill="#57b793"/><path id="Path_5482" data-name="Path 5482" d="M59.64,163.66a.9.9,0,0,1-.08-1.8A1,1,0,0,1,60,162l-.16.44.32-.32a.92.92,0,0,1,.3.62,1,1,0,0,1,0,.24A.92.92,0,0,1,59.64,163.66Z" fill="#57b793"/><path id="Path_5483" data-name="Path 5483" d="M59.38,161c-.2,0-.4.08-.62.1a.68.68,0,0,1-.56-.2,2.19,2.19,0,0,1-.16-.3,1.15,1.15,0,0,0-.22-.22.9.9,0,0,0,1.62.78h0l.06-.18Z" fill="#2c2738" opacity="0.1" style="isolation:isolate"/><path id="Path_5484" data-name="Path 5484" d="M59.64,163.66a.9.9,0,0,1-.94-.84,1.11,1.11,0,0,1,.08-.44.52.52,0,0,1,.18.18l.18.3a.77.77,0,0,0,.6.2c.22,0,.42-.08.64-.1h.1A.92.92,0,0,1,59.64,163.66Z" fill="#2c2738" opacity="0.1" style="isolation:isolate"/><path id="Path_5485" data-name="Path 5485" d="M57.46,165.1a.9.9,0,0,1-.94-.84h0a.78.78,0,0,1,.08-.4.49.49,0,0,1,.2.18,2.61,2.61,0,0,0,.2.3.83.83,0,0,0,.64.22c.22,0,.44-.06.66-.08A.92.92,0,0,1,57.46,165.1Z" fill="#2c2738" opacity="0.1" style="isolation:isolate"/><path id="Path_5486" data-name="Path 5486" d="M57.9,166.84a.9.9,0,0,1-1.64-.74.49.49,0,0,1,.2.18c.08.12.16.22.24.32a1.1,1.1,0,0,0,.74.26A1.78,1.78,0,0,0,57.9,166.84Z" fill="#2c2738" opacity="0.1" style="isolation:isolate"/><path id="Path_5487" data-name="Path 5487" d="M55.66,168.16a2.48,2.48,0,0,0,.92-.18c.22-.16,1.08-.34,1.14-.08s1.06,1.22.26,1.22a6.47,6.47,0,0,1-2.06-.26C55.72,168.72,55.66,168.16,55.66,168.16Z" fill="#656380"/><path id="Path_5488" data-name="Path 5488" d="M58,169a6.47,6.47,0,0,1-2.06-.26c-.16-.1-.22-.46-.24-.62h0s0,.56.26.7a6.56,6.56,0,0,0,2.06.26c.22,0,.3-.08.3-.2A.32.32,0,0,1,58,169Z" fill="#2c2738" opacity="0.2" style="isolation:isolate"/><path id="Path_5489" data-name="Path 5489" d="M16.42,166.84c-.48-.88-.22-2,.72-3.2l.2-.26a3.53,3.53,0,0,0,1-2,1.83,1.83,0,0,0-.66-1.3A9.75,9.75,0,0,0,16.12,159l-.24-.14a13.91,13.91,0,0,1-2.5-2,4,4,0,0,1-.84-1.15,4.34,4.34,0,0,1-.26-2c0-2,.16-4,.3-6l1,.08c-.14,2-.24,4-.3,6a3.45,3.45,0,0,0,.18,1.56,2.88,2.88,0,0,0,.64.86A12.92,12.92,0,0,0,16.4,158l.24.14a11.21,11.21,0,0,1,1.74,1.24,2.71,2.71,0,0,1,1,2A4.14,4.14,0,0,1,18.1,164l-.2.24a4.19,4.19,0,0,0-.66,1.14,1.17,1.17,0,0,0,0,1Z" fill="#3f3d56"/><path id="Path_5490" data-name="Path 5490" d="M10.78,147.61a2.14,2.14,0,0,1,1.1-1.78l.48,1,0-1.18a2.18,2.18,0,1,1-1.48,2.7h0a2.35,2.35,0,0,1-.08-.7Z" fill="#57b793"/><path id="Path_5491" data-name="Path 5491" d="M14.68,162.4a2.2,2.2,0,1,0-.1-1.76l1.36,1.12-1.5-.36A2.17,2.17,0,0,0,14.68,162.4Z" fill="#57b793"/><path id="Path_5492" data-name="Path 5492" d="M15.76,158.16a2.19,2.19,0,0,0,.7-4.3v.9l-.5-1h0a2.19,2.19,0,0,0-2.24,2.14,2.21,2.21,0,0,0,2,2.24Z" fill="#57b793"/><path id="Path_5493" data-name="Path 5493" d="M10.46,154.61a2.18,2.18,0,0,0,.2-4.36,2.31,2.31,0,0,0-1.18.28l.38,1.06-.8-.76a2.12,2.12,0,0,0-.7,1.5,1.5,1.5,0,0,0,.06.6A2.16,2.16,0,0,0,10.46,154.61Z" fill="#57b793"/><path id="Path_5494" data-name="Path 5494" d="M11.08,148.19c.5.06,1,.22,1.5.24A1.65,1.65,0,0,0,14,148a7,7,0,0,0,.4-.7,1.47,1.47,0,0,1,.56-.52,2.19,2.19,0,0,1-3.9,2l0-.05h0a2.3,2.3,0,0,1-.18-.5A.57.57,0,0,1,11.08,148.19Z" fill="#2c2738" opacity="0.1" style="isolation:isolate"/><path id="Path_5495" data-name="Path 5495" d="M10.46,154.61a2.2,2.2,0,0,0,2.3-2.08,2.22,2.22,0,0,0-.2-1,1.84,1.84,0,0,0-.44.44c-.14.24-.28.48-.44.72a1.69,1.69,0,0,1-1.44.5c-.52,0-1-.18-1.56-.22H8.46A2.1,2.1,0,0,0,10.46,154.61Z" fill="#2c2738" opacity="0.1" style="isolation:isolate"/><path id="Path_5496" data-name="Path 5496" d="M15.76,158.16A2.2,2.2,0,0,0,18,156a2.11,2.11,0,0,0-.18-1,1.92,1.92,0,0,0-.46.44,6.66,6.66,0,0,1-.48.74,2,2,0,0,1-1.54.54c-.56,0-1.06-.14-1.6-.18A2.16,2.16,0,0,0,15.76,158.16Z" fill="#2c2738" opacity="0.1" style="isolation:isolate"/><path id="Path_5497" data-name="Path 5497" d="M14.68,162.4a2.18,2.18,0,0,0,4-1.78,2.41,2.41,0,0,0-.48.42,7.16,7.16,0,0,1-.58.78,2.71,2.71,0,0,1-1.8.64,10.51,10.51,0,0,1-1.12-.06Z" fill="#2c2738" opacity="0.1" style="isolation:isolate"/><path id="Path_5498" data-name="Path 5498" d="M32,167.88l-8.43,1.72-.2,0-7.4-.74v-9.38L25,157.92l6.58.76v.06Z" fill="#fe5e33"/><path id="Path_5499" data-name="Path 5499" d="M32,167.88l-8.43,1.72-.2,0V160l8.25-1.24Z" fill="#2c2738" opacity="0.1" style="isolation:isolate"/><path id="Path_5500" data-name="Path 5500" d="M31.59,158.74h0L23.34,160l-7.4-.52L25,157.9l6.59.76Z" fill="#2c2738" opacity="0.05" style="isolation:isolate"/><path id="Path_5501" data-name="Path 5501" d="M41.23,168.26,32.81,170l-.2,0-7.41-.74v-9.38l9.07-1.54,6.58.76v.06Z" fill="#3f3d56"/><path id="Path_5502" data-name="Path 5502" d="M41.23,168.26,32.81,170l-.2,0v-9.62l8.24-1.24Z" fill="#2c2738" opacity="0.1" style="isolation:isolate"/><path id="Path_5503" data-name="Path 5503" d="M40.85,159.14h0l-8.24,1.22-7.41-.5,9.07-1.54,6.58.76v.06Z" fill="#2c2738" opacity="0.05" style="isolation:isolate"/><path id="Path_5504" data-name="Path 5504" d="M35.41,159.06,27,160.78l-.2,0L19.38,160v-9.39l9.07-1.54,6.58.76v.06Z" fill="#3f3d56"/><path id="Path_5505" data-name="Path 5505" d="M35.41,159.06,27,160.78l-.2,0v-9.63L35,149.89Z" fill="#2c2738" opacity="0.1" style="isolation:isolate"/><path id="Path_5506" data-name="Path 5506" d="M35,149.93h0l-8.24,1.22-7.41-.52,9.07-1.54,6.58.76v.08Z" fill="#2c2738" opacity="0.05" style="isolation:isolate"/><path id="Path_5507" data-name="Path 5507" d="M40.21,159.46l-4.4.9h-.1L31.85,160v-4.9l4.74-.81,3.44.41v0Z" fill="#3f3d56"/><path id="Path_5508" data-name="Path 5508" d="M40.21,159.46l-4.4.9h-.1v-5l4.3-.64Z" fill="#2c2738" opacity="0.1" style="isolation:isolate"/><path id="Path_5509" data-name="Path 5509" d="M40,154.69h0l-4.3.65-3.86-.27,4.72-.8,3.44.4v0Z" fill="#2c2738" opacity="0.05" style="isolation:isolate"/><path id="Path_5510" data-name="Path 5510" d="M28.39,149.93l-4.41.9h-.1l-3.86-.4v-4.9l4.74-.8,3.45.4v0Z" fill="#3f3d56"/><path id="Path_5511" data-name="Path 5511" d="M28.39,149.93l-4.41.9h-.1v-5l4.31-.64Z" fill="#2c2738" opacity="0.1" style="isolation:isolate"/><path id="Path_5512" data-name="Path 5512" d="M28.19,145.17h0l-4.31.64L20,145.55l4.74-.8,3.45.4,0,0Z" fill="#2c2738" opacity="0.05" style="isolation:isolate"/><path id="Path_5513" data-name="Path 5513" d="M36.11,149.75l-4.4.9h-.1l-3.86-.4v-4.9l4.74-.8,3.44.4v0Z" fill="#fe5e33"/><path id="Path_5514" data-name="Path 5514" d="M36.11,149.75l-4.4.9h-.1v-5l4.3-.64Z" fill="#2c2738" opacity="0.1" style="isolation:isolate"/><path id="Path_5515" data-name="Path 5515" d="M35.93,145h0l-4.3.64-3.88-.26,4.72-.8,3.44.4,0,0Z" fill="#2c2738" opacity="0.05" style="isolation:isolate"/><path id="Path_5516" data-name="Path 5516" d="M38.41,144.83l-4.4.9h-.1l-3.86-.4v-4.9l4.74-.8,3.44.4v0Z" fill="#3f3d56"/><path id="Path_5517" data-name="Path 5517" d="M38.41,144.83l-4.4.9h-.1v-5l4.3-.64Z" fill="#2c2738" opacity="0.1" style="isolation:isolate"/><path id="Path_5518" data-name="Path 5518" d="M38.21,140.07h0l-4.3.64-3.86-.26,4.72-.8,3.44.4v0Z" fill="#2c2738" opacity="0.05" style="isolation:isolate"/><path id="Path_5519" data-name="Path 5519" d="M41.41,134.81c0,.42-.36.76-.48,1.16a1.89,1.89,0,0,0,.54,1.72A3.82,3.82,0,0,0,44.13,139a1.29,1.29,0,0,0,.44,0,1.33,1.33,0,0,0,.34-.22,2.3,2.3,0,0,0,.56-1.2,5.47,5.47,0,0,0,0-1.34.75.75,0,0,0,0-.26.55.55,0,0,0-.18-.22,5,5,0,0,0-.74-.54,1.22,1.22,0,0,1-.32-.24.94.94,0,0,1-.1-.28l-.08-.42a.82.82,0,0,0-.12-.34.8.8,0,0,0-.66-.24l-.9,0a4,4,0,0,0-.92,0c-.26.06-.18.28-.12.5A2.88,2.88,0,0,1,41.41,134.81Z" fill="#ffc0c6"/><path id="Path_5520" data-name="Path 5520" d="M41.41,134.81c0,.42-.36.76-.48,1.16a1.89,1.89,0,0,0,.54,1.72A3.82,3.82,0,0,0,44.13,139a1.29,1.29,0,0,0,.44,0,1.33,1.33,0,0,0,.34-.22,2.3,2.3,0,0,0,.56-1.2,5.47,5.47,0,0,0,0-1.34.75.75,0,0,0,0-.26.55.55,0,0,0-.18-.22,5,5,0,0,0-.74-.54,1.22,1.22,0,0,1-.32-.24.94.94,0,0,1-.1-.28l-.08-.42a.82.82,0,0,0-.12-.34.8.8,0,0,0-.66-.24l-.9,0a4,4,0,0,0-.92,0c-.26.06-.18.28-.12.5A2.88,2.88,0,0,1,41.41,134.81Z" fill="#2c2738" opacity="0.1" style="isolation:isolate"/><path id="Path_5521" data-name="Path 5521" d="M47.09,153.51l-.38,4.17a32.24,32.24,0,0,1-.4,3.26,10.26,10.26,0,0,1-.24,1.1,23.29,23.29,0,0,0-.76,3v.1a3.87,3.87,0,0,1-.12.68c-.06.16-.15.3-.21.46a2.62,2.62,0,0,0-.16,1,4.12,4.12,0,0,0-1.48-.5,1.1,1.1,0,0,1-.7-.26.93.93,0,0,1-.15-.8l.3-2.6a8.16,8.16,0,0,1,.19-1.1l.11-.36a3.22,3.22,0,0,0,.16-.5,5.79,5.79,0,0,0,.12-.82c.1-.88.22-1.74.35-2.62v0a27.94,27.94,0,0,0,.23-4c0-.2,0-.4,0-.6s0-.44.2-.62a5.46,5.46,0,0,1,.9-.46,8.9,8.9,0,0,1,2-.56,4.63,4.63,0,0,1,.12.9A7,7,0,0,1,47.09,153.51Z" fill="#605d82"/><path id="Path_5522" data-name="Path 5522" d="M46.31,160.94a10.26,10.26,0,0,1-.24,1.1,23.29,23.29,0,0,0-.76,3v.1c-.8-1.14-1.46-2.36-2.24-3.5a2.91,2.91,0,0,0,.16-.5c.06-.28.1-.54.14-.82.1-.88.22-1.74.34-2.62v0a3.93,3.93,0,0,0,.2.54c.52,1.06,1.77,1.6,2.37,2.6C46.27,160.88,46.29,160.9,46.31,160.94Z" fill="#2c2738" opacity="0.1" style="isolation:isolate"/><path id="Path_5523" data-name="Path 5523" d="M39.89,151.65a17.69,17.69,0,0,0,.3,2.52l.28,1.73a9.44,9.44,0,0,0,.76,2.76,11.34,11.34,0,0,0,1.26,1.74c1.08,1.4,1.88,3,2.9,4.42.3.42.72.86,1.22.78a2,2,0,0,0,.82-.54,5.52,5.52,0,0,0,.92-.74.77.77,0,0,0,0-1.06,1.61,1.61,0,0,0-.38-.16,2.05,2.05,0,0,1-1-1.18,8.94,8.94,0,0,0-.62-1.5c-.6-1-1.84-1.54-2.36-2.6a4.57,4.57,0,0,1-.34-1.94l-.06-1.69a1.25,1.25,0,0,1,.06-.54c.2-.44.8-.5,1.28-.54a4.18,4.18,0,0,0,1.58-.5,1.68,1.68,0,0,0,.7-.62,2,2,0,0,0,.18-.84l.16-3a1.72,1.72,0,0,0-.06-.78,1.6,1.6,0,0,0-1.66-.78,14.55,14.55,0,0,0-3.52.94,6.66,6.66,0,0,1-.88.22,5.59,5.59,0,0,0-.82.12c-.44.14-.42,1.1-.48,1.5A11.32,11.32,0,0,0,39.89,151.65Z" fill="#605d82"/><path id="Path_5524" data-name="Path 5524" d="M46.41,165.72a.75.75,0,0,1,.18.42,13.57,13.57,0,0,1,.24,2.54.67.67,0,0,0,0,.24l.12.1a1,1,0,0,0,.94-.28,2.44,2.44,0,0,0,.92-1.62c0-.17,0-.34,0-.5a2,2,0,0,1,.3-.66,5.33,5.33,0,0,0,.52-1.14c0-.16.08-.34,0-.44a.25.25,0,0,0-.14-.08l-1.42-.52c-.12,0-.42.74-.48.82a.63.63,0,0,1-.48.38,2.48,2.48,0,0,0-.76.1C46,165.26,46.19,165.5,46.41,165.72Z" fill="#535070"/><path id="Path_5525" data-name="Path 5525" d="M44.23,166.2a.33.33,0,0,0-.1-.14.58.58,0,0,0-.22-.08.89.89,0,0,0-.78.12c-.2.2-.14.5-.28.7a1.43,1.43,0,0,0-.14.2.66.66,0,0,0-.06.34c0,.32,0,.64,0,1a1.43,1.43,0,0,0,.24.78,1.58,1.58,0,0,0,1.2.42l.36,0a.53.53,0,0,0,.28,0,.47.47,0,0,0,.24-.28c.18-.46-.1-1-.28-1.42A8.84,8.84,0,0,0,44.23,166.2Z" fill="#535070"/><path id="Path_5526" data-name="Path 5526" d="M41.31,132.47a.32.32,0,0,1,0-.14c.06-.1.18-.06.28,0a8.84,8.84,0,0,0,1.26,0c.42,0,.9.23,1,.66a3,3,0,0,0,.78-.8.84.84,0,0,0,.2-.58,1.1,1.1,0,0,0-.52-.72l-.7-.59a.94.94,0,0,0-.32-.19,1.3,1.3,0,0,0-.52,0c-.52,0-1.06-.24-1.52,0a1.91,1.91,0,0,0-.48.42l-.62.74a.4.4,0,0,0-.1.18,1.45,1.45,0,0,0,0,.28,2.12,2.12,0,0,0,0,.5c.1.26.42.3.62.46s.18.24.28.24S41.31,132.61,41.31,132.47Z" fill="#3f3d56"/><circle id="Ellipse_521" data-name="Ellipse 521" cx="42.37" cy="132.67" r="2" fill="#ffc0c6"/><path id="Path_5527" data-name="Path 5527" d="M42.85,137.07a1,1,0,0,0-.94-.66.37.37,0,0,1-.18,0s-.06-.06-.08-.08a4.76,4.76,0,0,1-.3-.7c0-.1-.08-.24-.18-.26a.23.23,0,0,0-.24.1l-.16.22c-.26.22-.7,0-1,.22a.63.63,0,0,1-.12.1l-.14.06c-.52.18-1,.38-1.52.6a14.22,14.22,0,0,0,.78,3.18c.2.48.42.94.58,1.44a10.9,10.9,0,0,1,.38,3.42,7.08,7.08,0,0,1-.26,2.34,2.35,2.35,0,0,0-.14.52.57.57,0,0,0,.18.48.73.73,0,0,0,.28.1,3.27,3.27,0,0,0,1.32-.16,32.64,32.64,0,0,1,3.54-.58l2-.26a1.08,1.08,0,0,0,.43-.1.8.8,0,0,0,.18-1.1l-.36-.48a.44.44,0,0,1,.06-.54c.32-.24.21-.7.23-1.12,0-1.12,0-2.26,0-3.38,0-.24,0-.46,0-.7a6.64,6.64,0,0,1,.22-1.18l.6-2.39a1.29,1.29,0,0,0-.74-.48c-.28-.08-.58-.1-.86-.18-.58-.18-1.08-.64-1.7-.6l-.14,0c-.14.08-.12.28-.12.42a1.21,1.21,0,0,1-.56.84c-.3.18-.58.38-.86.58A.41.41,0,0,0,42.85,137.07Z" fill="#3f3d56"/><path id="Path_5528" data-name="Path 5528" d="M34.87,139.31l-.42.22a1.25,1.25,0,0,0-.4.2.42.42,0,0,0-.14.18.79.79,0,0,0,.3,1.06.77.77,0,0,0,.42.1,1.57,1.57,0,0,0,.52-.16l1.42-.62a1.19,1.19,0,0,0,.62-.46s0-.1,0-.12a0,0,0,0,1,0,0h0a3,3,0,0,1-.82-.78c-.06-.08-.12-.26-.22-.32C35.79,138.43,35.11,139.15,34.87,139.31Z" fill="#ffc0c6"/><path id="Path_5529" data-name="Path 5529" d="M50.06,138.81l.52.6a4.88,4.88,0,0,1,.92,1.52,2,2,0,0,1,.16.94,3.74,3.74,0,0,1-.12.48,6.5,6.5,0,0,1-.36.86,6.34,6.34,0,0,1-.41.6,12.73,12.73,0,0,1-1.32,1.52,1.6,1.6,0,0,0-.32.7,2.7,2.7,0,0,1-.82,1.1,1.16,1.16,0,0,1-.36.3,1.19,1.19,0,0,1-.64.18.63.63,0,0,1-.64-.68,1.27,1.27,0,0,1,.12-.66c.3-.66,1.08-1,1.62-1.44a4.82,4.82,0,0,0,.8-1,2.82,2.82,0,0,0,.4-.72c.12-.32.08-.7.18-1l.18-.4a.48.48,0,0,0,0-.42.55.55,0,0,0-.24-.18c-.34-.18-.74-.4-.8-.8a1,1,0,0,1,.16-.6,2.75,2.75,0,0,1,.44-.46C49.63,139.09,49.89,139,50.06,138.81Z" fill="#ffc0c6"/><path id="Path_5530" data-name="Path 5530" d="M34.55,140.15a1,1,0,0,0-.4-.48.73.73,0,0,0-.58,0,2,2,0,0,0-.5.3l-.44.34a1.16,1.16,0,0,0-.28.26.73.73,0,0,0-.14.38,2.71,2.71,0,0,0-.08.94,2.59,2.59,0,0,0,.72,1.34,1.29,1.29,0,0,0,.8.5.4.4,0,0,0,.36-.18.29.29,0,0,0,0-.16,3.61,3.61,0,0,0-.4-1.64.83.83,0,0,1-.12-.44.12.12,0,0,1,.08-.12h0c.32-.06.88.18,1.1-.18S34.65,140.35,34.55,140.15Z" fill="#ffc0c6"/><path id="Path_5531" data-name="Path 5531" d="M41.21,131.85a.32.32,0,0,1,0-.14c0-.1.18-.06.28,0a8.84,8.84,0,0,0,1.26,0c.42,0,.9.23,1,.64a3.12,3.12,0,0,0,.78-.8,1,1,0,0,0,.2-.58c0-.3-.28-.52-.52-.73l-.7-.58a.94.94,0,0,0-.32-.19,1.3,1.3,0,0,0-.52,0c-.52,0-1.06-.24-1.52,0a1.91,1.91,0,0,0-.48.42l-.62.74a.4.4,0,0,0-.1.18,1.45,1.45,0,0,0,0,.28,2.12,2.12,0,0,0,0,.5c.08.26.42.3.62.46s.18.24.28.24S41.19,132,41.21,131.85Z" fill="#3f3d56"/><path id="Path_5532" data-name="Path 5532" d="M36.93,137.35a.83.83,0,0,0-.22.2c-.08.12-.08.26-.16.38s-.46.34-.64.54a.11.11,0,0,0-.06.1.25.25,0,0,0,.06.16l1,1.5c.32,0,.62-.18.94-.14a1.45,1.45,0,0,0,.36,0,.83.83,0,0,0,.22-.14c.2-.12.44-.14.6-.3a.82.82,0,0,0,.18-.6,2.6,2.6,0,0,0-.06-.56,6.34,6.34,0,0,0-.86-1.52c-.14-.24-.2-.4-.5-.22S37.21,137.17,36.93,137.35Z" fill="#3f3d56"/><path id="Path_5533" data-name="Path 5533" d="M48.51,136.59A2.41,2.41,0,0,1,49,137c.14.18.22.42.36.6a4.56,4.56,0,0,0,.48.5,3.34,3.34,0,0,1,.55.88,15.06,15.06,0,0,1-1.25,1.4.29.29,0,0,1-.18.12.33.33,0,0,1-.26-.1l-.18-.24a.91.91,0,0,0-.58-.28,3.64,3.64,0,0,0-.66,0,.36.36,0,0,1-.14,0s-.06-.06-.08-.08a2.14,2.14,0,0,1-.08-1.5l.2-1.16a3.36,3.36,0,0,1,.18-.64c.08-.18.26-.46.48-.4S48.34,136.47,48.51,136.59Z" fill="#3f3d56"/><path id="Path_5534" data-name="Path 5534" d="M30.31,145l-4.4.9h-.1l-3.87-.4v-4.9l4.75-.8,3.44.4v0Z" fill="#fe5e33"/><path id="Path_5535" data-name="Path 5535" d="M30.31,145l-4.4.9h-.1v-5l4.3-.64Z" fill="#2c2738" opacity="0.1" style="isolation:isolate"/><path id="Path_5536" data-name="Path 5536" d="M30.11,140.25h0l-4.3.64-3.87-.26,4.75-.8,3.44.4,0,0Z" fill="#2c2738" opacity="0.05" style="isolation:isolate"/><path id="Path_5537" data-name="Path 5537" d="M32.61,140.17l-4.4.9h-.1l-3.87-.38v-4.92L29,135l3.44.4v0Z" fill="#3f3d56"/><path id="Path_5538" data-name="Path 5538" d="M32.61,140.17l-4.4.9h-.1v-5l4.3-.64Z" fill="#2c2738" opacity="0.1" style="isolation:isolate"/><path id="Path_5539" data-name="Path 5539" d="M32.41,135.41h0l-4.3.64-3.87-.26L29,135l3.44.4Z" fill="#2c2738" opacity="0.05" style="isolation:isolate"/><g id="Group_2226" data-name="Group 2226"><path id="Path_5540" data-name="Path 5540" d="M20.9,80.16c-1.16,0-2-.61-2-1.66h1a.92.92,0,0,0,1,.83h.06c.66,0,1.05-.33,1.05-.83,0-1.38-3-.49-3-2.59,0-1,.82-1.65,2-1.65s1.88.55,2,1.54H21.84a.88.88,0,0,0-1-.77h0c-.55,0-1,.22-1,.83,0,1.32,3,.49,3,2.59A1.79,1.79,0,0,1,20.9,80.16Z" fill="#19383b"/><path id="Path_5541" data-name="Path 5541" d="M30.77,77.57c0-.83-.44-1.27-1.16-1.27a1.1,1.1,0,0,0-1.15,1V80.1h-.94V77.57c0-.83-.44-1.27-1.16-1.27a1.11,1.11,0,0,0-1.16,1V80.1h-.94V75.53h.94V76a1.86,1.86,0,0,1,2.61-.09l0,0a2.43,2.43,0,0,1,.33.38,1.89,1.89,0,0,1,2.54-.66,1.77,1.77,0,0,1,.88,1.71v2.7h-.94Z" fill="#19383b"/><path id="Path_5542" data-name="Path 5542" d="M35,75.47a2.14,2.14,0,0,1,1.6.72v-.67h.93V80.1h-.93v-.66a2,2,0,0,1-1.6.77A2.24,2.24,0,0,1,32.87,78v-.11a2.09,2.09,0,0,1,1.85-2.31h.13A.22.22,0,0,1,35,75.47Zm.16.83a1.42,1.42,0,0,0-1.38,1.43v.11a1.46,1.46,0,0,0,1.33,1.54h0a1.5,1.5,0,0,0,1.39-1.6h0v0a1.41,1.41,0,0,0-1.38-1.43Z" fill="#19383b"/><path id="Path_5543" data-name="Path 5543" d="M40,80.1H39.1V75.53H40v.66a1.4,1.4,0,0,1,1.37-.72v1h-.22c-.71,0-1.1.28-1.1,1.27Z" fill="#19383b"/><path id="Path_5544" data-name="Path 5544" d="M42.68,76.3h-.55v-.77h.55V74.37h.94v1.16h1.1v.77h-1.1v2.53c0,.33.11.5.55.5h.55v.83H44c-.83,0-1.33-.33-1.33-1.27Z" fill="#19383b"/><path id="Path_5545" data-name="Path 5545" d="M50.18,75.47a2.21,2.21,0,0,1,1.6.72V74h.94V80.1h-.94v-.66a1.93,1.93,0,0,1-1.6.77A2.18,2.18,0,0,1,48,78v-.17a2.11,2.11,0,0,1,1.86-2.31H50A.17.17,0,0,1,50.18,75.47Zm.17.83A1.41,1.41,0,0,0,49,77.73v.11a1.47,1.47,0,0,0,1.32,1.55h.06a1.51,1.51,0,0,0,1.38-1.61h0v0a1.42,1.42,0,0,0-1.38-1.43Z" fill="#19383b"/><path id="Path_5546" data-name="Path 5546" d="M56.19,80.16a2.19,2.19,0,0,1-2.26-2.1v-.27a2.26,2.26,0,0,1,2-2.37h.22a2.14,2.14,0,0,1,2.21,2v.22a1.38,1.38,0,0,1-.06.49H54.87a1.28,1.28,0,0,0,1.27,1.22h0a1.05,1.05,0,0,0,1-.61h1A2,2,0,0,1,56.19,80.16ZM54.93,77.4h2.53a1.17,1.17,0,0,0-1.19-1.16h-.08a1.26,1.26,0,0,0-1.26,1.16Z" fill="#19383b"/><path id="Path_5547" data-name="Path 5547" d="M59.61,74h.94V80.1h-.94Z" fill="#19383b"/><path id="Path_5548" data-name="Path 5548" d="M62,74.31a.61.61,0,0,1,.61-.6.61.61,0,1,1,0,1.21h0A.62.62,0,0,1,62,74.31Zm.11,1.22H63V80.1H62.1Z" fill="#19383b"/><path id="Path_5549" data-name="Path 5549" d="M65.07,75.53l1.27,3.69,1.27-3.69h1L66.89,80.1h-1.1l-1.71-4.57Z" fill="#19383b"/><path id="Path_5550" data-name="Path 5550" d="M71.58,80.16a2.19,2.19,0,0,1-2.26-2.1v-.27a2.25,2.25,0,0,1,2-2.37h.22a2.13,2.13,0,0,1,2.2,2v.16a1.67,1.67,0,0,1,0,.5H70.26a1.24,1.24,0,0,0,1.28,1.21h0a1.16,1.16,0,0,0,1.1-.6h1A2.11,2.11,0,0,1,71.58,80.16ZM70.31,77.4h2.54a1.18,1.18,0,0,0-1.2-1.16h-.07a1.27,1.27,0,0,0-1.27,1.16Z" fill="#19383b"/><path id="Path_5551" data-name="Path 5551" d="M76,80.1h-.94V75.53H76v.66a1.42,1.42,0,0,1,1.38-.72v1h-.22c-.72,0-1.1.28-1.1,1.27Z" fill="#19383b"/><path id="Path_5552" data-name="Path 5552" d="M81.62,75.53h1L79.8,82.2h-1L79.74,80l-1.82-4.46h1L80.24,79Z" fill="#19383b"/><path id="Path_5553" data-name="Path 5553" d="M29.81,84.37v13.3H27.66L21.2,87.79v9.88H19V84.37H21.2l6.46,9.88V84.37Z" fill="#15a3b2"/><path id="Path_5554" data-name="Path 5554" d="M39.31,97.8A6.72,6.72,0,1,1,46,91.08h0a6.47,6.47,0,0,1-6.22,6.71h-.5Zm0-1.9a4.77,4.77,0,0,0,5.18-4.32c0-.08,0-.16,0-.24a4.89,4.89,0,1,0-9.76-.64v.38a4.35,4.35,0,0,0,3.84,4.8h0l.22,0Z" fill="#15a3b2"/><path id="Path_5555" data-name="Path 5555" d="M47.8,84.37h2.28l2.66,10.77,2.91-10.77h2.41l2.79,10.77,2.79-10.77h2.28L62,97.67H59.71l-2.79-10L54,97.67H51.6Z" fill="#15a3b2"/></g><g id="Group_2227" data-name="Group 2227"><path id="Path_5556" data-name="Path 5556" d="M20.85,102.61a1.69,1.69,0,0,1,1.69,1.68v.13a1.74,1.74,0,0,1-1.6,1.86h-.09a1.7,1.7,0,0,1-1.26-.56v2.21h-.73v-5.28h.74v.52A1.66,1.66,0,0,1,20.85,102.61Zm-.17.65a1.21,1.21,0,0,0-1.08,1.34h0a1.2,1.2,0,0,0,1.08,1.08,1.1,1.1,0,0,0,1.08-1.1v-.11a1.08,1.08,0,0,0-1-1.17h0s0,0-.08,0Z"/><path id="Path_5557" data-name="Path 5557" d="M25.05,106.28a1.67,1.67,0,0,1-1.78-1.57v-.24a1.82,1.82,0,0,1,3.64-.18v.18a1.8,1.8,0,0,1-1.72,1.86h0A.18.18,0,0,0,25.05,106.28Zm0-.6a1.1,1.1,0,0,0,1.12-1.08v-.09a1.11,1.11,0,0,0-1-1.21h-.13a1,1,0,0,0-1,1v.23a1,1,0,0,0,1,1.17Z"/><path id="Path_5558" data-name="Path 5558" d="M29.15,106.28c-.86,0-1.47-.51-1.47-1.16h.78a.65.65,0,0,0,.74.52c.43,0,.65-.18.65-.44,0-.69-2.08-.3-2.08-1.6,0-.56.52-1,1.38-1s1.35.44,1.39,1.13H29.8a.58.58,0,0,0-.64-.52h0c-.39,0-.61.17-.61.39,0,.74,2,.3,2.08,1.6A1.33,1.33,0,0,1,29.15,106.28Z"/><path id="Path_5559" data-name="Path 5559" d="M32.83,106.28c-.86,0-1.47-.51-1.47-1.16h.78a.65.65,0,0,0,.73.52c.44,0,.65-.18.65-.44,0-.69-2.07-.3-2.07-1.6,0-.56.52-1,1.38-1s1.34.44,1.39,1.13h-.74a.57.57,0,0,0-.63-.52h0c-.39,0-.6.17-.6.39,0,.74,2,.3,2.07,1.6A1.29,1.29,0,0,1,32.83,106.28Z"/><path id="Path_5560" data-name="Path 5560" d="M35.12,101.7a.48.48,0,0,1,1,0,.48.48,0,0,1-.48.47h0a.43.43,0,0,1-.48-.38Zm.13,1H36v3.59h-.74Z"/><path id="Path_5561" data-name="Path 5561" d="M39.15,102.61a1.68,1.68,0,0,1,1.68,1.68v.13a1.73,1.73,0,0,1-1.6,1.86h-.08a1.68,1.68,0,0,1-1.26-.56v.52h-.73v-4.8h.73v1.77A1.62,1.62,0,0,1,39.15,102.61Zm-.18.65a1.22,1.22,0,0,0-1.08,1.33h0A1.21,1.21,0,0,0,39,105.68a1.1,1.1,0,0,0,1.09-1.1h0v-.11a1.08,1.08,0,0,0-1-1.17h0s0,0-.09,0Z"/><path id="Path_5562" data-name="Path 5562" d="M41.79,101.44h.73v4.8h-.73Z"/><path id="Path_5563" data-name="Path 5563" d="M45.29,106.28a1.7,1.7,0,0,1-1.77-1.64h0v-.22a1.76,1.76,0,0,1,1.6-1.86h.17a1.69,1.69,0,0,1,1.73,1.6v.18a1,1,0,0,1,0,.34H44.25a1,1,0,0,0,1,.95h0a.9.9,0,0,0,.86-.47h.78A1.5,1.5,0,0,1,45.29,106.28Zm-1-2.16h2a.93.93,0,0,0-.94-.91h0a1,1,0,0,0-1,.91Z"/><path id="Path_5564" data-name="Path 5564" d="M50,103.26h-.43v-.61H50v-.86h.73v.86h.87v.61h-.87v2c0,.26.09.39.43.39h.48v.6H51c-.65,0-1-.26-1-1Z"/><path id="Path_5565" data-name="Path 5565" d="M54.07,106.28a1.67,1.67,0,0,1-1.77-1.57v-.24a1.82,1.82,0,0,1,3.63-.18v.18a1.79,1.79,0,0,1-1.72,1.86h0A.15.15,0,0,0,54.07,106.28Zm0-.6a1.11,1.11,0,0,0,1.13-1.08v-.09a1.11,1.11,0,0,0-1-1.21h-.12A1.07,1.07,0,0,0,53,104.36h0v.15a1.06,1.06,0,0,0,1,1.17Z"/><path id="Path_5566" data-name="Path 5566" d="M61.25,102.65H62l-2.21,5.23h-.77l.73-1.73-1.43-3.5h.83l1,2.73Z"/><path id="Path_5567" data-name="Path 5567" d="M64.37,106.28a1.67,1.67,0,0,1-1.78-1.57h0v-.24a1.82,1.82,0,1,1,3.63-.22v.22a1.8,1.8,0,0,1-1.72,1.86h0A.15.15,0,0,0,64.37,106.28Zm0-.6a1.12,1.12,0,0,0,1.08-1.13v-.08a1.09,1.09,0,0,0-.93-1.21h-.15a1.06,1.06,0,0,0-1.08,1.06h0v.15a1.12,1.12,0,0,0,1.08,1.21Z"/><path id="Path_5568" data-name="Path 5568" d="M70.42,106.24h-.73v-.43a1.44,1.44,0,0,1-2,.1,1.4,1.4,0,0,1-.47-.92v-2.34h.73v2a.91.91,0,1,0,1.82.17v-2.16h.73v3.59Z"/><path id="Path_5569" data-name="Path 5569" d="M72.37,106.24h-.74v-3.59h.74v.52a1.1,1.1,0,0,1,1.08-.56v.77h-.17c-.57,0-.87.22-.87,1Z"/><path id="Path_5570" data-name="Path 5570" d="M21.51,111.56a2.56,2.56,0,0,1,1.87.83v-2.57h1.09V117H23.38v-.77a2.31,2.31,0,0,1-1.87.9A2.55,2.55,0,0,1,19,114.52h0a.15.15,0,0,1,0-.07v-.13a2.52,2.52,0,0,1,2.31-2.7A.22.22,0,0,1,21.51,111.56Zm.26,1a1.65,1.65,0,0,0-1.61,1.67v.13a1.71,1.71,0,0,0,1.55,1.8h.06a1.81,1.81,0,0,0,1.61-2h0a1.85,1.85,0,0,0-1.61-1.61Z" fill="#15a3b2"/><path id="Path_5571" data-name="Path 5571" d="M28.59,117A2.49,2.49,0,0,1,26,114.69h0v-.37a2.7,2.7,0,0,1,5.4,0h0a2.67,2.67,0,0,1-2.56,2.77h0A.49.49,0,0,0,28.59,117Zm0-.9a1.64,1.64,0,0,0,1.6-1.67v-.13a1.59,1.59,0,0,0-1.37-1.79h-.23A1.6,1.6,0,0,0,27,114.1v.22A1.64,1.64,0,0,0,28.59,116.12Z" fill="#15a3b2"/><path id="Path_5572" data-name="Path 5572" d="M35,117a2.49,2.49,0,0,1-2.64-2.33h0v-.37a2.7,2.7,0,1,1,5.4-.26h0v.25a2.67,2.67,0,0,1-2.56,2.77h0A.23.23,0,0,0,35,117Zm0-.9a1.59,1.59,0,0,0,1.6-1.57v-.23a1.59,1.59,0,0,0-1.37-1.79H35a1.6,1.6,0,0,0-1.61,1.58v.22a1.71,1.71,0,0,0,1.61,1.8Z" fill="#15a3b2"/><path id="Path_5573" data-name="Path 5573" d="M40.35,117H39.26v-5.34h1.09v.77a1.65,1.65,0,0,1,1.61-.83v1.16H41.7c-.83,0-1.28.32-1.28,1.47Z" fill="#15a3b2"/><path id="Path_5574" data-name="Path 5574" d="M45.17,117c-1.28,0-2.18-.77-2.18-1.73h1.16a.92.92,0,0,0,1,.77c.65,0,1-.26,1-.64,0-1-3.09-.45-3.09-2.38,0-.84.77-1.55,2.06-1.55s2,.65,2.06,1.68h-1.1a.88.88,0,0,0-1-.78h0c-.58,0-.9.26-.9.58,0,1.1,3,.45,3.09,2.38C47.23,116.38,46.46,117,45.17,117Z" fill="#15a3b2"/><path id="Path_5575" data-name="Path 5575" d="M48.9,112.52h-.64v-.9h.64v-1.28H50v1.28h1.28v.9H50v3c0,.39.13.58.64.58h.71v.9h-.9c-1,0-1.55-.39-1.55-1.48Z" fill="#15a3b2"/><path id="Path_5576" data-name="Path 5576" d="M55,117a2.55,2.55,0,0,1-2.64-2.44v-.32a2.64,2.64,0,0,1,2.38-2.77H55a2.51,2.51,0,0,1,2.57,2.38v.26a1.26,1.26,0,0,1-.07.51H53.4a1.46,1.46,0,0,0,1.47,1.42h0a1.37,1.37,0,0,0,1.29-.71h1.16A2.25,2.25,0,0,1,55,117Zm-1.48-3.21h3a1.37,1.37,0,0,0-1.4-1.35H55a1.58,1.58,0,0,0-1.48,1.35Z" fill="#15a3b2"/><path id="Path_5577" data-name="Path 5577" d="M61.89,111.56a2.51,2.51,0,0,1,2.51,2.51v.19A2.58,2.58,0,0,1,62,117h-.13a2.49,2.49,0,0,1-1.86-.83v3.28h-1.1v-7.85H60v.77A2.62,2.62,0,0,1,61.89,111.56Zm-.19,1a1.81,1.81,0,0,0-1.61,2h0a1.78,1.78,0,0,0,1.61,1.6,1.62,1.62,0,0,0,1.61-1.63v-.17a1.6,1.6,0,0,0-1.45-1.73h0a.24.24,0,0,0-.13-.07Z" fill="#15a3b2"/></g><path id="Path_5578" data-name="Path 5578" d="M19.31,42.21V34.92a.26.26,0,0,1,.26-.26h3.85a3.19,3.19,0,0,1,1.06.18,2.43,2.43,0,0,1,1.6,2.32,2.25,2.25,0,0,1-.2,1,2.16,2.16,0,0,1-.56.78,2.81,2.81,0,0,1-.84.52,2.75,2.75,0,0,1-1.06.18h-2a.26.26,0,0,0-.26.26h0v2.29a.27.27,0,0,1-.26.26h-1.4C19.41,42.48,19.31,42.35,19.31,42.21Zm3.89-5.89H21.47a.27.27,0,0,0-.26.26h0v1.27a.27.27,0,0,0,.26.26H23.2a1,1,0,0,0,.68-.24.88.88,0,0,0,.26-.65,1,1,0,0,0-.26-.66,1,1,0,0,0-.68-.24Z" fill="#fff"/><path id="Path_5579" data-name="Path 5579" d="M27,42.21V34.92a.27.27,0,0,1,.27-.26h5.63a.26.26,0,0,1,.26.26h0v1.14a.26.26,0,0,1-.26.26H29.21a.26.26,0,0,0-.26.26h0v.88a.27.27,0,0,0,.26.27h2.28a.25.25,0,0,1,.26.26h0v1.08a.26.26,0,0,1-.26.26H29.21a.26.26,0,0,0-.26.26h0v1a.26.26,0,0,0,.26.26H33a.26.26,0,0,1,.26.26h0v1.15a.27.27,0,0,1-.26.26H27.29a.25.25,0,0,1-.25-.24v0Z" fill="#fff"/><path id="Path_5580" data-name="Path 5580" d="M34.38,42.21V34.92a.26.26,0,0,1,.26-.26h3.73a3.43,3.43,0,0,1,1.1.18,2.36,2.36,0,0,1,.86.52,2.1,2.1,0,0,1,.57.78,2.66,2.66,0,0,1,.2,1,2.37,2.37,0,0,1-1.23,2.09.28.28,0,0,0-.1.36l1.37,2.5a.29.29,0,0,1-.1.36.19.19,0,0,1-.12,0H39.37a.24.24,0,0,1-.22-.14l-1.32-2.56a.26.26,0,0,0-.22-.14h-1a.26.26,0,0,0-.26.26h0v2.32a.26.26,0,0,1-.26.26H34.64A.29.29,0,0,1,34.38,42.21Zm3.81-5.89H36.55a.26.26,0,0,0-.26.26h0v1.25a.26.26,0,0,0,.26.26h1.64a1.1,1.1,0,0,0,.72-.24.89.89,0,0,0,0-1.25l0,0a1,1,0,0,0-.72-.24Z" fill="#fff"/><path id="Path_5581" data-name="Path 5581" d="M49.54,36.12l-1.81-1.8a.12.12,0,0,0-.16,0l0,0a.15.15,0,0,0,0,.1v.38a4.46,4.46,0,0,0-3,.12,4,4,0,0,0-1.32.86A4,4,0,0,0,42,38.65a4.05,4.05,0,0,0,.1.92.27.27,0,0,0,.26.2h1.44a.26.26,0,0,0,.26-.26.12.12,0,0,0,0-.1,2.26,2.26,0,0,1,1.13-2.81l.14-.06a2.11,2.11,0,0,1,.86-.18h3.27a.12.12,0,0,0,.12-.11h0A.25.25,0,0,0,49.54,36.12Z" fill="#ff5100"/><path id="Path_5582" data-name="Path 5582" d="M50.24,37.66a.27.27,0,0,0-.26-.2H48.53a.27.27,0,0,0-.26.27h0a.44.44,0,0,0,0,.1,2.25,2.25,0,0,1-1.12,2.8l-.14.06a2.14,2.14,0,0,1-.86.18H42.92a.11.11,0,0,0-.12.11h0s0,.06,0,.1l1.8,1.81a.11.11,0,0,0,.16,0l0,0h0a.14.14,0,0,0,0-.1v-.36a4.61,4.61,0,0,0,1.33.2,4.39,4.39,0,0,0,1.64-.32,3.8,3.8,0,0,0,1.32-.87A3.93,3.93,0,0,0,50,40.17a4.09,4.09,0,0,0,.32-1.58A3.71,3.71,0,0,0,50.24,37.66Z" fill="#ff5100"/><path id="Path_5583" data-name="Path 5583" d="M31.35,46.12l.12-.26a1.26,1.26,0,0,0,.45.26,1.29,1.29,0,0,0,.52.08.8.8,0,0,0,.54-.14.51.51,0,0,0,.2-.38.43.43,0,0,0-.1-.24.72.72,0,0,0-.24-.14,3,3,0,0,0-.4-.12c-.18,0-.38-.1-.57-.16a1.41,1.41,0,0,1-.36-.24.71.71,0,0,1-.14-.42.74.74,0,0,1,.14-.44.85.85,0,0,1,.38-.3,1,1,0,0,1,.57-.1,1.54,1.54,0,0,1,.56.1,1.37,1.37,0,0,1,.44.28l-.12.26a1.54,1.54,0,0,0-.42-.26,1.07,1.07,0,0,0-.46-.08.86.86,0,0,0-.54.14.49.49,0,0,0-.2.4.39.39,0,0,0,.16.34,1.37,1.37,0,0,0,.52.2l.6.16a.9.9,0,0,1,.36.22.59.59,0,0,1,.14.4.74.74,0,0,1-.14.44.69.69,0,0,1-.38.29,1.65,1.65,0,0,1-.58.1A1.55,1.55,0,0,1,31.35,46.12Z" fill="#fff"/><path id="Path_5584" data-name="Path 5584" d="M34.38,46.36A.84.84,0,0,1,34,46a1.41,1.41,0,0,1,0-1.14,1,1,0,0,1,1.27-.43h0a.9.9,0,0,1,.43.43,1.41,1.41,0,0,1,0,1.14,1,1,0,0,1-1.27.44h0Zm1-.34a.86.86,0,0,0,.16-.6.81.81,0,0,0-.16-.58.62.62,0,0,0-.89,0h0l0,0a1,1,0,0,0-.18.58.91.91,0,0,0,.16.6.56.56,0,0,0,.48.2A.59.59,0,0,0,35.36,46Z" fill="#fff"/><path id="Path_5585" data-name="Path 5585" d="M36.39,43.44h.34v3h-.34Z" fill="#fff"/><path id="Path_5586" data-name="Path 5586" d="M39.11,44.4v2.06h-.32V46.1a.63.63,0,0,1-.28.28.79.79,0,0,1-.4.1.69.69,0,0,1-.56-.2.76.76,0,0,1-.18-.6V44.4h.34v1.28a.53.53,0,0,0,.12.42.38.38,0,0,0,.36.12.6.6,0,0,0,.44-.18.59.59,0,0,0,.16-.48V44.4Z" fill="#fff"/><path id="Path_5587" data-name="Path 5587" d="M40.19,44.66v1.12a.37.37,0,0,0,.1.32.39.39,0,0,0,.26.1.54.54,0,0,0,.22,0v.29l-.28,0a.73.73,0,0,1-.46-.17.63.63,0,0,1-.16-.5V44.64h-.4v-.26h.4v-.52l.35-.12v.64h.6v.26Z" fill="#fff"/><path id="Path_5588" data-name="Path 5588" d="M41.56,43.52v.38h-.4v-.38Zm-.38.88h.34v2.06h-.34Z" fill="#fff"/><path id="Path_5589" data-name="Path 5589" d="M42.5,46.36a.84.84,0,0,1-.34-.38,1.41,1.41,0,0,1,0-1.14,1,1,0,0,1,1.27-.43h0a.9.9,0,0,1,.43.43,1.41,1.41,0,0,1,0,1.14,1,1,0,0,1-1.27.44h0Zm1-.34a.91.91,0,0,0,.16-.6.86.86,0,0,0-.16-.58.63.63,0,0,0-.9,0h0l0,0a1.14,1.14,0,0,0,0,1.18.66.66,0,0,0,.94,0Z" fill="#fff"/><path id="Path_5590" data-name="Path 5590" d="M46.29,45.18v1.3H46V45.2a.58.58,0,0,0-.12-.42.55.55,0,0,0-.37-.14.67.67,0,0,0-.46.18.7.7,0,0,0-.18.48v1.19h-.3V45a2.27,2.27,0,0,0,0-.58h.32l0,.38a.79.79,0,0,1,.28-.32.88.88,0,0,1,.44-.12C46.05,44.36,46.29,44.62,46.29,45.18Z" fill="#fff"/><path id="Path_5591" data-name="Path 5591" d="M46.81,46.22l.12-.24a1,1,0,0,0,.34.2,1.21,1.21,0,0,0,.38.06.64.64,0,0,0,.36-.08.25.25,0,0,0,.12-.24.24.24,0,0,0-.08-.2.7.7,0,0,0-.28-.12l-.34-.08a.7.7,0,0,1-.4-.2.43.43,0,0,1-.14-.36.54.54,0,0,1,.22-.44,1,1,0,0,1,.58-.18,1,1,0,0,1,.42.08.67.67,0,0,1,.32.2l-.12.24a1,1,0,0,0-1-.18.3.3,0,0,0-.07.41h0l0,0a.55.55,0,0,0,.24.12l.36.08a.91.91,0,0,1,.42.2.46.46,0,0,1,.14.36.45.45,0,0,1-.22.42.86.86,0,0,1-.6.16A1,1,0,0,1,46.81,46.22Z" fill="#fff"/><rect id="Rectangle_2911" data-name="Rectangle 2911" x="65.32" y="137.97" width="21.87" height="31.15" fill="#fe5e33"/><rect id="Rectangle_2912" data-name="Rectangle 2912" x="64.34" y="133.17" width="22.85" height="7.04" fill="#22436e"/><rect id="Rectangle_2913" data-name="Rectangle 2913" x="68.52" y="151.34" width="15.45" height="17.77" fill="#fff" opacity="0.3" style="isolation:isolate"/><rect id="Rectangle_2914" data-name="Rectangle 2914" x="68.52" y="151.34" width="15.45" height="1.06" fill="#fff" opacity="0.3" style="isolation:isolate"/><rect id="Rectangle_2915" data-name="Rectangle 2915" x="68.52" y="153.44" width="15.45" height="1.06" fill="#fff" opacity="0.3" style="isolation:isolate"/><rect id="Rectangle_2916" data-name="Rectangle 2916" x="68.52" y="155.52" width="15.45" height="1.06" fill="#fff" opacity="0.3" style="isolation:isolate"/><rect id="Rectangle_2917" data-name="Rectangle 2917" x="68.52" y="157.6" width="15.45" height="1.06" fill="#fff" opacity="0.3" style="isolation:isolate"/><rect id="Rectangle_2918" data-name="Rectangle 2918" x="68.52" y="159.68" width="15.45" height="1.06" fill="#fff" opacity="0.3" style="isolation:isolate"/><rect id="Rectangle_2919" data-name="Rectangle 2919" x="65.32" y="140.19" width="21.87" height="1.76" fill="#171714" opacity="0.3" style="isolation:isolate"/><path id="Path_5592" data-name="Path 5592" d="M87.19,133.17v7H85v-5H64.34v-2Z" fill="#171714" opacity="0.3" style="isolation:isolate"/><path id="Path_5593" data-name="Path 5593" d="M102.58,116.1v29.82H87.19V124Z" fill="#87ffeb"/><path id="Path_5594" data-name="Path 5594" d="M104.8,112.46v2.48l-18.59,9.51-1.24.64v-2.5Z" fill="#22436e"/><path id="Path_5595" data-name="Path 5595" d="M89,127.91v12.56h5.48V127.91Zm.78.78h1.58v5.12H89.75Zm0,5.9h1.58v5.1H89.75Zm3.92,5.1H92.09v-5.1h1.58Zm0-5.9H92.09v-5.1h1.58Z" fill="#4cd2cf"/><path id="Path_5596" data-name="Path 5596" d="M95.27,127.91v12.56h5.49V127.91Zm.78.78h1.58v5.12H96.05Zm0,5.9h1.58v5.1H96.05Zm3.93,5.1H98.39v-5.1H100Zm0-5.9H98.39v-5.1H100Z" fill="#4cd2cf"/><path id="Path_5597" data-name="Path 5597" d="M102.58,116.1v2.37l-15.39,7.64V124Z" fill="#171714" opacity="0.3" style="isolation:isolate"/><path id="Path_5598" data-name="Path 5598" d="M104.8,112.46v1.14l-18.59,9.55v1.3L85,125v-2.44Z" fill="#171714" opacity="0.3" style="isolation:isolate"/><rect id="Rectangle_2920" data-name="Rectangle 2920" x="79.91" y="145.92" width="41.68" height="2.22" fill="#22436e"/><path id="Path_5599" data-name="Path 5599" d="M121.58,145.92v2.24h-1V147H79.91v-1.08Z" fill="#171714" opacity="0.3" style="isolation:isolate"/><rect id="Rectangle_2921" data-name="Rectangle 2921" x="82.77" y="148.16" width="35.93" height="20.97" fill="#00dcd2"/><rect id="Rectangle_2922" data-name="Rectangle 2922" x="85.37" y="152.14" width="14.03" height="1.76" fill="#22436e"/><rect id="Rectangle_2923" data-name="Rectangle 2923" x="87.99" y="155.58" width="8.8" height="13.55" fill="#171714" opacity="0.5" style="isolation:isolate"/><circle id="Ellipse_522" data-name="Ellipse 522" cx="95.91" cy="113.59" r="0.42" fill="#171714" opacity="0.3" style="isolation:isolate"/><rect id="Rectangle_2924" data-name="Rectangle 2924" x="82.77" y="148.16" width="35.93" height="1.82" fill="#171714" opacity="0.3" style="isolation:isolate"/><rect id="Rectangle_2925" data-name="Rectangle 2925" x="3.01" width="95.78" height="207.38" fill="none"/><rect id="Rectangle_2834" data-name="Rectangle 2834" x="3.02" y="170.9" width="64.51" height="35.89" fill="#15a3b2"/><g id="Group_2224" data-name="Group 2224" opacity="0.7"><rect id="Rectangle_2854" data-name="Rectangle 2854" x="51" y="198.22" width="15.51" height="8.56" fill="#fff"/><rect id="Rectangle_2855" data-name="Rectangle 2855" x="56.34" y="199.72" width="4.72" height="1" fill="#2c2738" opacity="0.1" style="isolation:isolate"/><rect id="Rectangle_2856" data-name="Rectangle 2856" x="56.92" y="199.84" width="3.54" height="0.74" fill="#2c2738" opacity="0.1" style="isolation:isolate"/><rect id="Rectangle_2857" data-name="Rectangle 2857" x="35.25" y="198.22" width="15.51" height="8.56" fill="#fff"/><rect id="Rectangle_2858" data-name="Rectangle 2858" x="40.59" y="199.72" width="4.72" height="1" fill="#2c2738" opacity="0.1" style="isolation:isolate"/><rect id="Rectangle_2859" data-name="Rectangle 2859" x="41.17" y="199.84" width="3.54" height="0.74" fill="#2c2738" opacity="0.1" style="isolation:isolate"/><rect id="Rectangle_2860" data-name="Rectangle 2860" x="51" y="189.42" width="15.51" height="8.56" fill="#fff"/><rect id="Rectangle_2861" data-name="Rectangle 2861" x="56.34" y="190.92" width="4.72" height="1" fill="#2c2738" opacity="0.1" style="isolation:isolate"/><rect id="Rectangle_2862" data-name="Rectangle 2862" x="56.92" y="191.04" width="3.54" height="0.74" fill="#2c2738" opacity="0.1" style="isolation:isolate"/><rect id="Rectangle_2863" data-name="Rectangle 2863" x="35.25" y="189.42" width="15.51" height="8.56" fill="#fff"/><rect id="Rectangle_2864" data-name="Rectangle 2864" x="40.59" y="190.92" width="4.72" height="1" fill="#2c2738" opacity="0.1" style="isolation:isolate"/><rect id="Rectangle_2865" data-name="Rectangle 2865" x="41.17" y="191.04" width="3.54" height="0.74" fill="#2c2738" opacity="0.1" style="isolation:isolate"/><rect id="Rectangle_2866" data-name="Rectangle 2866" x="51" y="180.49" width="15.51" height="8.56" fill="#fff"/><rect id="Rectangle_2867" data-name="Rectangle 2867" x="56.34" y="181.97" width="4.72" height="1" fill="#2c2738" opacity="0.1" style="isolation:isolate"/><rect id="Rectangle_2868" data-name="Rectangle 2868" x="56.92" y="182.12" width="3.54" height="0.74" fill="#2c2738" opacity="0.1" style="isolation:isolate"/><rect id="Rectangle_2869" data-name="Rectangle 2869" x="35.25" y="180.49" width="15.51" height="8.56" fill="#fff"/><rect id="Rectangle_2870" data-name="Rectangle 2870" x="40.59" y="181.97" width="4.72" height="1" fill="#2c2738" opacity="0.1" style="isolation:isolate"/><rect id="Rectangle_2871" data-name="Rectangle 2871" x="41.17" y="182.12" width="3.54" height="0.74" fill="#2c2738" opacity="0.1" style="isolation:isolate"/><rect id="Rectangle_2872" data-name="Rectangle 2872" x="35.25" y="171.57" width="15.51" height="8.56" fill="#fff"/><rect id="Rectangle_2873" data-name="Rectangle 2873" x="40.59" y="173.05" width="4.72" height="1" fill="#2c2738" opacity="0.1" style="isolation:isolate"/><rect id="Rectangle_2874" data-name="Rectangle 2874" x="41.17" y="173.17" width="3.54" height="0.74" fill="#2c2738" opacity="0.1" style="isolation:isolate"/></g><g id="Group_2225" data-name="Group 2225" opacity="0.7"><rect id="Rectangle_2875" data-name="Rectangle 2875" x="19.5" y="198.1" width="15.51" height="8.56" fill="#fff"/><rect id="Rectangle_2876" data-name="Rectangle 2876" x="24.82" y="199.58" width="4.72" height="1" fill="#2c2738" opacity="0.1" style="isolation:isolate"/><rect id="Rectangle_2877" data-name="Rectangle 2877" x="25.42" y="199.72" width="3.54" height="0.74" fill="#2c2738" opacity="0.1" style="isolation:isolate"/><rect id="Rectangle_2878" data-name="Rectangle 2878" x="3.76" y="198.1" width="15.51" height="8.56" fill="#fff"/><rect id="Rectangle_2879" data-name="Rectangle 2879" x="9.08" y="199.58" width="4.72" height="1" fill="#2c2738" opacity="0.1" style="isolation:isolate"/><rect id="Rectangle_2880" data-name="Rectangle 2880" x="9.68" y="199.72" width="3.54" height="0.74" fill="#2c2738" opacity="0.1" style="isolation:isolate"/><rect id="Rectangle_2881" data-name="Rectangle 2881" x="19.5" y="189.3" width="15.51" height="8.56" fill="#fff"/><rect id="Rectangle_2882" data-name="Rectangle 2882" x="24.82" y="190.78" width="4.72" height="1" fill="#2c2738" opacity="0.1" style="isolation:isolate"/><rect id="Rectangle_2883" data-name="Rectangle 2883" x="25.42" y="190.92" width="3.54" height="0.74" fill="#2c2738" opacity="0.1" style="isolation:isolate"/><rect id="Rectangle_2884" data-name="Rectangle 2884" x="3.76" y="189.3" width="15.51" height="8.56" fill="#fff"/><rect id="Rectangle_2885" data-name="Rectangle 2885" x="9.08" y="190.78" width="4.72" height="1" fill="#2c2738" opacity="0.1" style="isolation:isolate"/><rect id="Rectangle_2886" data-name="Rectangle 2886" x="9.68" y="190.92" width="3.54" height="0.74" fill="#2c2738" opacity="0.1" style="isolation:isolate"/><rect id="Rectangle_2887" data-name="Rectangle 2887" x="19.5" y="180.37" width="15.51" height="8.56" fill="#fff"/><rect id="Rectangle_2888" data-name="Rectangle 2888" x="24.82" y="181.86" width="4.72" height="1" fill="#2c2738" opacity="0.1" style="isolation:isolate"/><rect id="Rectangle_2889" data-name="Rectangle 2889" x="25.42" y="181.98" width="3.54" height="0.74" fill="#2c2738" opacity="0.1" style="isolation:isolate"/><rect id="Rectangle_2890" data-name="Rectangle 2890" x="3.76" y="180.37" width="15.51" height="8.56" fill="#fff"/><rect id="Rectangle_2891" data-name="Rectangle 2891" x="9.08" y="181.86" width="4.72" height="1" fill="#2c2738" opacity="0.1" style="isolation:isolate"/><rect id="Rectangle_2892" data-name="Rectangle 2892" x="9.68" y="181.98" width="3.54" height="0.74" fill="#2c2738" opacity="0.1" style="isolation:isolate"/><rect id="Rectangle_2893" data-name="Rectangle 2893" x="3.76" y="171.43" width="15.51" height="8.56" fill="#fff"/><rect id="Rectangle_2894" data-name="Rectangle 2894" x="9.08" y="172.93" width="4.72" height="1" fill="#2c2738" opacity="0.1" style="isolation:isolate"/><rect id="Rectangle_2895" data-name="Rectangle 2895" x="9.68" y="173.05" width="3.54" height="0.74" fill="#2c2738" opacity="0.1" style="isolation:isolate"/></g><rect id="Rectangle_2896" data-name="Rectangle 2896" x="83.27" y="198.08" width="15.51" height="8.56" fill="#fe5e33"/><rect id="Rectangle_2897" data-name="Rectangle 2897" x="88.61" y="199.56" width="4.72" height="1" fill="#2c2738" opacity="0.1" style="isolation:isolate"/><rect id="Rectangle_2898" data-name="Rectangle 2898" x="89.19" y="199.7" width="3.54" height="0.74" fill="#2c2738" opacity="0.1" style="isolation:isolate"/><rect id="Rectangle_2899" data-name="Rectangle 2899" x="67.52" y="198.08" width="15.51" height="8.56" fill="#fe5e33"/><rect id="Rectangle_2900" data-name="Rectangle 2900" x="72.86" y="199.56" width="4.72" height="1" fill="#2c2738" opacity="0.1" style="isolation:isolate"/><rect id="Rectangle_2901" data-name="Rectangle 2901" x="73.44" y="199.7" width="3.54" height="0.74" fill="#2c2738" opacity="0.1" style="isolation:isolate"/><rect id="Rectangle_2902" data-name="Rectangle 2902" x="83.27" y="189.16" width="15.51" height="8.56" fill="#fe5e33"/><rect id="Rectangle_2903" data-name="Rectangle 2903" x="88.61" y="190.64" width="4.72" height="1" fill="#2c2738" opacity="0.1" style="isolation:isolate"/><rect id="Rectangle_2904" data-name="Rectangle 2904" x="89.19" y="190.76" width="3.54" height="0.74" fill="#2c2738" opacity="0.1" style="isolation:isolate"/><rect id="Rectangle_2905" data-name="Rectangle 2905" x="67.52" y="189.16" width="15.51" height="8.56" fill="#fe5e33"/><rect id="Rectangle_2906" data-name="Rectangle 2906" x="72.86" y="190.64" width="4.72" height="1" fill="#2c2738" opacity="0.1" style="isolation:isolate"/><rect id="Rectangle_2907" data-name="Rectangle 2907" x="73.44" y="190.76" width="3.54" height="0.74" fill="#2c2738" opacity="0.1" style="isolation:isolate"/><rect id="Rectangle_2908" data-name="Rectangle 2908" x="67.52" y="180.48" width="15.51" height="8.56" fill="#fe5e33"/><rect id="Rectangle_2909" data-name="Rectangle 2909" x="72.86" y="183.33" width="4.72" height="1" fill="#2c2738" opacity="0.1" style="isolation:isolate"/><rect id="Rectangle_2910" data-name="Rectangle 2910" x="73.44" y="183.45" width="3.54" height="0.74" fill="#2c2738" opacity="0.1" style="isolation:isolate"/></g></g></g><path d="M34.08,19.41H68.17a0,0,0,0,1,0,0v1.42a2,2,0,0,1-2,2H36.09a2,2,0,0,1-2-2V19.41A0,0,0,0,1,34.08,19.41Z" fill="#193544"/><line x1="44.07" y1="20.52" x2="58.18" y2="20.52" fill="none" stroke="#fff" stroke-linecap="round" stroke-miterlimit="10" stroke-width="0.73"/></g></g></svg>