<svg xmlns="http://www.w3.org/2000/svg" viewBox="0 0 611.64 313.01"><title>pack_loader</title><g id="Layer_2" data-name="Layer 2"><g id="Layer_1-2" data-name="Layer 1"><polygon points="568.97 0 284.91 0 284.91 240.53 603.18 240.53 568.97 0" fill="#808285"/><polygon points="556.53 8.23 234.59 8.23 234.59 240.53 589.92 240.53 556.53 8.23" fill="#141f2d"/><rect x="417.68" y="196.14" width="43.78" height="44.39" transform="translate(879.14 436.67) rotate(180)" fill="#b8c1c9"/><rect x="459.64" y="196.14" width="26.5" height="44.39" transform="translate(945.77 436.67) rotate(180)" fill="#667386"/><rect x="415.36" y="140.37" width="72.6" height="56.38" transform="translate(903.31 337.12) rotate(180)" fill="#b8c1c9"/><rect x="486.13" y="152.97" width="20.04" height="43.78" transform="translate(992.31 349.72) rotate(180)" fill="#667386"/><rect x="12.21" y="212.19" width="101.75" height="45.13" rx="4.13" fill="#b8c1c9"/><path d="M371.85,272.23A40.79,40.79,0,1,1,412.64,313,40.79,40.79,0,0,1,371.85,272.23Z" fill="#141f2d"/><path d="M509,272.23A40.79,40.79,0,1,1,549.8,313,40.79,40.79,0,0,1,509,272.23Z" fill="#141f2d"/><path d="M26.1,272.23A40.79,40.79,0,1,1,66.89,313,40.79,40.79,0,0,1,26.1,272.23Z" fill="#141f2d"/><path d="M46.3,272.23a20.59,20.59,0,1,1,20.59,20.58A20.59,20.59,0,0,1,46.3,272.23Z" fill="#d36f29"/><path d="M46.3,272.23a20.59,20.59,0,1,1,20.59,20.58A20.59,20.59,0,0,1,46.3,272.23Z" fill="#667386"/><path d="M60.51,272.23a6.38,6.38,0,1,1,6.38,6.38A6.38,6.38,0,0,1,60.51,272.23Z" fill="#b8c1c9"/><path d="M53.56,283.16A2.47,2.47,0,1,1,56,285.63,2.48,2.48,0,0,1,53.56,283.16Z" fill="#b8c1c9"/><path d="M50.68,264.81a2.47,2.47,0,1,1,2.47,2.48A2.47,2.47,0,0,1,50.68,264.81Z" fill="#b8c1c9"/><path d="M77.85,264.81a2.47,2.47,0,1,1,2.47,2.48A2.48,2.48,0,0,1,77.85,264.81Z" fill="#b8c1c9"/><path d="M75.79,283.16a2.47,2.47,0,1,1,2.47,2.47A2.48,2.48,0,0,1,75.79,283.16Z" fill="#b8c1c9"/><path d="M64.42,256.5A2.47,2.47,0,1,1,66.89,259,2.46,2.46,0,0,1,64.42,256.5Z" fill="#b8c1c9"/><path d="M391.3,272.23a20.59,20.59,0,1,1,20.58,20.58A20.58,20.58,0,0,1,391.3,272.23Z" fill="#d36f29"/><path d="M391.3,272.23a20.59,20.59,0,1,1,20.58,20.58A20.58,20.58,0,0,1,391.3,272.23Z" fill="#667386"/><path d="M405.5,272.23a6.38,6.38,0,1,1,6.38,6.38A6.39,6.39,0,0,1,405.5,272.23Z" fill="#b8c1c9"/><path d="M398.55,283.16a2.47,2.47,0,1,1,2.47,2.47A2.48,2.48,0,0,1,398.55,283.16Z" fill="#b8c1c9"/><path d="M397.63,264.81a2.47,2.47,0,1,1,2.47,2.48A2.47,2.47,0,0,1,397.63,264.81Z" fill="#b8c1c9"/><path d="M420.79,283.16a2.47,2.47,0,1,1,2.47,2.47A2.47,2.47,0,0,1,420.79,283.16Z" fill="#b8c1c9"/><path d="M390.5,256.5A2.47,2.47,0,1,1,393,259,2.47,2.47,0,0,1,390.5,256.5Z" fill="#b8c1c9"/><path d="M142,272.23A40.79,40.79,0,1,1,182.78,313,40.79,40.79,0,0,1,142,272.23Z" fill="#141f2d"/><path d="M66.44,52s22.13-33.38,47.71-33.66l-2.28,36.12Z" fill="#667386"/><path d="M196.81,204.5H19.68L34.42,84.85a38.81,38.81,0,0,1,38.51-34H196.81Z" fill="#b8c1c9"/><path d="M93.85,131.36H44.17l6.58-47.24a19.69,19.69,0,0,1,19.5-17H95.38Z" fill="#667386"/><path d="M90.17,127.81H57.47a8.16,8.16,0,0,1-8.09-9.24l4.34-32.69c1.14-8.63,8.18-15.06,16.49-15.06H91.48Z" fill="#eaeaea"/><polygon points="437.74 240.53 97.04 240.53 112.24 0 417.61 0 437.74 240.53" fill="#808285"/><polygon points="424.41 231.41 109.55 231.41 123.59 9.12 405.8 9.12 420.88 189.3 424.41 231.41" fill="#0f7b84"/><path d="M127.76,204.5H19.68c-9.52.64-10.44,5.34-10.44,5.34L0,254.54a3,3,0,0,0,3.12,2.78H30.3c1.71,0,2.95-1.26,3.68-2.85,0,0,4.18-5.16,7-7,7-4.64,14.65-7.67,25.92-7.67,13.85,0,26.09,4.4,33.46,11.14h27.41c3.31,0,6-1.73,6-3.84V208.34C133.78,206.23,131.07,204.5,127.76,204.5Z" fill="#667386"/><path d="M467.59,292.25H433.34a32,32,0,0,0-4.29-11c-10.36-16.59-34.58-21.67-48.37-23.22a100,100,0,0,0-10.09-.68h58.88A43.25,43.25,0,0,1,460,275.85,50.36,50.36,0,0,1,467.59,292.25Z" fill="#808285"/><path d="M603.18,292.25H568.93a31.9,31.9,0,0,0-5.16-12.34c-15.64-22.56-57.59-22.59-57.59-22.59h58.88a43,43,0,0,1,27.41,14.58A50.79,50.79,0,0,1,603.18,292.25Z" fill="#808285"/><rect x="100.17" y="240.53" width="511.47" height="23.33" rx="4.59" fill="#231f20"/><rect x="121.81" y="246.39" width="101.75" height="34.3" rx="4.42" fill="#414042"/><path d="M22.9,108.21S18.47,132,18.69,135.88s3.89,5.78,6.67,5.78Z" fill="#489bd5"/><rect x="22.72" y="106.22" width="16.48" height="35.43" rx="2.86" fill="#667386"/><rect x="24.55" y="108.21" width="13.41" height="31.73" rx="2.44" fill="#eaeaea"/><path d="M31,106.87a.6.6,0,0,1-.55-.65V96.14c0-.06.69-5.75,6.68-5.57,5.48.17,7.84,0,7.86,0a.59.59,0,0,1,.58.61.61.61,0,0,1-.51.68c-.1,0-2.43.18-8,0a5.06,5.06,0,0,0-5.56,4.39v10A.6.6,0,0,1,31,106.87Z" fill="#489bd5"/><path d="M89.24,146.76h-10a2.56,2.56,0,0,1-2.55-2.55h0a2.55,2.55,0,0,1,2.55-2.55h10a2.56,2.56,0,0,1,2.56,2.55h0A2.56,2.56,0,0,1,89.24,146.76Z" fill="#667386"/><rect x="490.35" y="196.75" width="43.78" height="43.78" transform="translate(1024.48 437.28) rotate(180)" fill="#b8c1c9"/><rect x="532.31" y="196.75" width="20.04" height="43.78" transform="translate(1084.65 437.28) rotate(180)" fill="#667386"/><path d="M344,121.48a14.73,14.73,0,0,0-5.9,1.17l-.94.44a15.4,15.4,0,0,1,6.86-1.61h0Z" fill="#f05423"/><path d="M161.7,148.39V99a1.76,1.76,0,0,1,1.76-1.77h26.17a19.87,19.87,0,0,1,7.19,1.28,16.54,16.54,0,0,1,9.45,9,16.76,16.76,0,0,1,1.36,6.85,16.16,16.16,0,0,1-1.36,6.65,15.71,15.71,0,0,1-3.78,5.34,18.11,18.11,0,0,1-5.71,3.52,19.5,19.5,0,0,1-7.16,1.28H176.47a1.76,1.76,0,0,0-1.76,1.77h0v15.47a1.76,1.76,0,0,1-1.77,1.76h-9.48A1.76,1.76,0,0,1,161.7,148.39Zm26.4-40.08H176.47a1.76,1.76,0,0,0-1.76,1.76h0v8.57a1.76,1.76,0,0,0,1.76,1.76H188.1a6.42,6.42,0,0,0,4.58-1.66,5.69,5.69,0,0,0,1.78-4.31,5.88,5.88,0,0,0-1.78-4.43A6.33,6.33,0,0,0,188.1,108.31Z" fill="#fff"/><path d="M214.28,148.39V99A1.76,1.76,0,0,1,216,97.19h38.23A1.77,1.77,0,0,1,256,99h0v7.74a1.76,1.76,0,0,1-1.77,1.76H229a1.76,1.76,0,0,0-1.76,1.76h0v6A1.75,1.75,0,0,0,229,118H244.5a1.76,1.76,0,0,1,1.76,1.77h0v7.36a1.76,1.76,0,0,1-1.76,1.77H229.05a1.76,1.76,0,0,0-1.76,1.76h0v6.46a1.76,1.76,0,0,0,1.76,1.76h25.52a1.77,1.77,0,0,1,1.77,1.77h0v7.75a1.76,1.76,0,0,1-1.77,1.76H216A1.76,1.76,0,0,1,214.28,148.39Z" fill="#fff"/><path d="M264,148.39V99a1.77,1.77,0,0,1,1.75-1.77h25.32a21.73,21.73,0,0,1,7.53,1.25,17.54,17.54,0,0,1,5.9,3.48,16.07,16.07,0,0,1,3.86,5.33,16.29,16.29,0,0,1,1.39,6.81A15.23,15.23,0,0,1,307,123a17.2,17.2,0,0,1-5.63,5.17,1.78,1.78,0,0,0-.69,2.39l9.28,17a1.77,1.77,0,0,1-.7,2.4,1.71,1.71,0,0,1-.86.21H298a1.76,1.76,0,0,1-1.56-.95l-9-17.38a1.78,1.78,0,0,0-1.55-1h-7.09a1.77,1.77,0,0,0-1.77,1.77h0v15.77a1.76,1.76,0,0,1-1.76,1.76h-9.5A1.75,1.75,0,0,1,264,148.39Zm25.87-40.08H278.76a1.77,1.77,0,0,0-1.77,1.77h0v8.41a1.76,1.76,0,0,0,1.76,1.76h11.1a7.06,7.06,0,0,0,4.88-1.66,6,6,0,0,0,0-8.63A7.05,7.05,0,0,0,289.85,108.31Z" fill="#fff"/><path d="M366.65,107l-12.18-12.2a.88.88,0,0,0-1.24,0,.82.82,0,0,0-.26.63v2.5a29.67,29.67,0,0,0-9-1.36,29.19,29.19,0,0,0-11.12,2.11,27.79,27.79,0,0,0-9,5.79,27,27,0,0,0-6,8.7,26.47,26.47,0,0,0-2.2,10.71,27.43,27.43,0,0,0,.74,6.32,1.75,1.75,0,0,0,1.71,1.34h9.77a1.78,1.78,0,0,0,1.76-1.78,1.83,1.83,0,0,0-.11-.61,15.39,15.39,0,0,1,7.59-19c.32-.15.63-.31.94-.44a14.73,14.73,0,0,1,5.9-1.17h.62l21.46,0a.88.88,0,0,0,.87-.89A.9.9,0,0,0,366.65,107Z" fill="#f05423"/><path d="M371.51,117.5a1.76,1.76,0,0,0-1.72-1.34H360a1.76,1.76,0,0,0-1.76,1.76,1.88,1.88,0,0,0,.11.62,15.39,15.39,0,0,1-7.6,19c-.31.15-.62.31-.93.44a14.8,14.8,0,0,1-5.9,1.17h-.63l-21.44,0a.87.87,0,0,0-.88.88.91.91,0,0,0,.25.63l12.19,12.18a.87.87,0,0,0,1.24,0,.89.89,0,0,0,.26-.63v-2.51a29.81,29.81,0,0,0,9,1.37A29.43,29.43,0,0,0,355.1,149a27.73,27.73,0,0,0,9-5.79,27,27,0,0,0,6-8.7,26.41,26.41,0,0,0,2.19-10.7A26.91,26.91,0,0,0,371.51,117.5Z" fill="#f05423"/></g></g></svg>