<?xml version="1.0" encoding="utf-8"?>
<!-- Generator: Adobe Illustrator 24.0.1, SVG Export Plug-In . SVG Version: 6.00 Build 0)  -->
<svg version="1.1" id="Layer_1" xmlns="http://www.w3.org/2000/svg" xmlns:xlink="http://www.w3.org/1999/xlink" x="0px" y="0px"
	 viewBox="0 0 343 713" style="enable-background:new 0 0 343 713;" xml:space="preserve">
<style type="text/css">
	.st0{fill:#A0462D;}
	.st1{fill:#364154;}
	.st2{fill:#131F2D;}
	.st3{fill:#FF7955;}
	.st4{fill:#009999;}
	.st5{fill:#006666;}
	.st6{fill:#B8C1C9;}
	.st7{fill:#8D9499;}
	.st8{fill:#EF6343;}
	.st9{fill:#032123;stroke:#898989;stroke-miterlimit:10;}
</style>
<title>public</title>
<g id="Layer_2_1_">
	<g id="Layer_1-2">
		<path class="st0" d="M181,700.1h-64.6c0.7-2.3,2.8-6.3,10-7.5c10-1.6,27.2-7.4,31.1-20.2c0.1-0.4,0.2-0.8,0.3-1.3
			c3.1-13.6,25.3,4.2,25.3,4.2s0.1,0.5,0.2,1.5C183.8,681.8,185.1,697.8,181,700.1z"/>
		<path class="st1" d="M129,335.7c0,0,3.4,42.1,7.4,92.8c5.4,68.8,11.9,153.4,12.5,169.4c1.1,27.8,5.6,72.3,5.6,72.3
			s10.6,10.6,31.7,6.1c0,0,18.8-63.5,24.2-130.7c0.1-1.1,0.2-2.2,0.2-3.3c5-68.4,12.8-212.4,12.8-212.4L129,335.7z"/>
		<path class="st2" d="M129,335.7c0,0,3.4,42.1,7.4,92.8l74,117.1c0.1-1.1,0.2-2.2,0.2-3.3c5-68.4,12.8-212.4,12.8-212.4L129,335.7z
			"/>
		<path class="st1" d="M144.5,340.7c0,0,60.9,152.6,100.9,224.4s52.5,91.8,52.5,91.8s22.9-9.2,25-15.4c0,0-15.3-138.5-42.1-172.2
			C265.7,450.2,247.9,393,247,373s-5.4-59.6-5.4-59.6L144.5,340.7z"/>
		<path class="st3" d="M224.6,105.5c0,0-41.2,20.2-65,12.7c4.5-5.3,10-9.7,16.1-13.1c-0.8-4.8-1.5-9-1.8-12.6
			c-0.6-4.3-0.9-8.6-1-12.9L188.8,67l15.1-12.2C202.6,89,224.6,105.5,224.6,105.5z"/>
		<path class="st4" d="M246.3,321c0.1,2.5-5.3,5.5-7.7,6.6c-17.6,7.9-34.1,13.4-52.7,15.2c-22,2.3-48.1-2.7-57-2.6
			c-0.9,0-1.8-0.4-2.5-1c-0.6-0.5-1.1-27.4-0.6-61.3c0-1.4,0-2.7,0.1-4.1v-0.5c0.2-13.2,0.6-27.1,1.3-41c1.3-30.5,3.7-59.9,7.7-76.2
			c4.8-19.2,15.8-31.9,25.8-41.1l8.2-7.3c8.6,1.9,17.7,0.8,25.6-3.1c9.5-4.7,19.9-9.9,21.5-8.6c12.4,9.2,20.7,30.2,25.1,56.7
			c2.7,16.6,3.9,33.4,3.8,50.2c0,6.6-0.2,13.3-0.6,20c-2.2,36.2,0,67.6,1.3,85.8C245.9,314,246.2,318.1,246.3,321z"/>
		<path class="st5" d="M245.6,308.7c-199.6-0.3-36.8-148.8-36.8-148.8l32.3-7.2c2.7,16.6,3.9,33.4,3.8,50.2c0,6.6-0.2,13.3-0.6,20
			C242.1,259.1,244.3,290.5,245.6,308.7z"/>
		<rect y="183.6" class="st6" width="124.1" height="124.1"/>
		<rect x="118.9" y="183.6" class="st7" width="56.8" height="124.1"/>
		<path class="st3" d="M105.5,247.5l-7.4-2.4c0,0-5.2-17.1-22.7-9.4c0,0-7.1,3.8-4,8.2s2.6,2.1,6.8,8.5c4.2,6.4,11,9.5,16.4,7
			l6.1,0.2L105.5,247.5z"/>
		<path class="st4" d="M224.6,105.5c0,0,45.2,71.9-3,155c-15,25.9-128.6,1.3-128.6,1.3s-4.4-8,7.4-16.4c0,0,75.6-12.8,84.6-14.9
			c8-1.9,2.7-75.4,11.8-96.7C202.2,121.1,212.1,111,224.6,105.5z"/>
		<path class="st8" d="M204.1,67.9c0,0-10.4,19.3-30.2,24.7c-0.6-4.3-0.9-8.6-1-12.9L188.8,67L204.1,67.9z"/>
		<path class="st3" d="M165.6,79.1c0,0,39.3,6.5,43-18s11.2-40.2-13.7-45.4s-31.2,3.4-34.4,11.3S155.5,76.8,165.6,79.1z"/>
		<path class="st2" d="M208.4,62.8c0,0-0.8-32.9-36.6-38.2C147.2,21,149.3,3.2,152.1,0c0,0,31.7,0.3,50.8,5.1
			C231.6,12.3,212.6,57.9,208.4,62.8z"/>
		<path class="st0" d="M323,646.6l-1.9-2.5l-21.6,12.1c-0.2,4.1-0.3,8.9-0.1,13.1c0.2,2.8,0,5.7-0.5,8.5c-0.5,2.2-2.7,11.3-9.4,13.7
			c-7.6,2.7-8.2,8.6,4.8,8.5h6.8c8.1-0.1,15.1-5.5,17.2-13.3c1.1-3.7,2.9-7.1,5.3-10.2c3.4-4,7.4-7.5,8.7-11.9
			C334.4,657.2,323,646.6,323,646.6z"/>
	</g>
</g>
<path class="st9" d="M189.4,702.7L189.4,702.7c-2,6.2-7.8,10.3-14.3,10.3h-66.5c-6.3,0-8.2-8.6-2.5-11.2l40.1-18.7h29
	C185.4,683.1,192.6,693,189.4,702.7z"/>
<path class="st9" d="M337.4,654.5L337.4,654.5c3.4,7.2,2.7,15.6-2,22.1l-12.3,17.1C318,700.8,309.8,705,301,705h-11.4
	c-7.7,0-11.2-9.6-5.4-14.6l14.7-12.5l0.5-8.5l24-18.3C328.1,647.5,334.9,649.1,337.4,654.5z"/>
</svg>
