<svg xmlns="http://www.w3.org/2000/svg" viewBox="0 0 181.73 188.3"><title>symb_logo</title><g id="Layer_2" data-name="Layer 2"><g id="Layer_1-2" data-name="Layer 1"><path d="M163.73,40,124.63.84a2.83,2.83,0,0,0-4.84,2v8.05A95,95,0,0,0,90.84,6.5a93.91,93.91,0,0,0-35.7,6.8,89.11,89.11,0,0,0-28.9,18.58A86.71,86.71,0,0,0,7.05,59.81,85.18,85.18,0,0,0,0,94.18a87.22,87.22,0,0,0,2.36,20.29,5.66,5.66,0,0,0,5.51,4.3H39.21a5.68,5.68,0,0,0,5.66-5.7,5.61,5.61,0,0,0-.35-1.95A49.39,49.39,0,0,1,68.9,50.06c1-.5,2-1,3-1.42a47.24,47.24,0,0,1,18.94-3.77h2l68.89-.08a2.83,2.83,0,0,0,2.79-2.87A2.8,2.8,0,0,0,163.73,40Z" fill="#fe5000"/><path d="M179.32,73.83a5.63,5.63,0,0,0-5.51-4.3H142.47a5.66,5.66,0,0,0-5.66,5.66,5.78,5.78,0,0,0,.36,2,49.41,49.41,0,0,1-24.38,61.06c-1,.5-2,1-3,1.43a47.42,47.42,0,0,1-19,3.76h-2L20,143.51a2.83,2.83,0,0,0-2,4.83l39.11,39.12a2.83,2.83,0,0,0,4.84-2v-8.05a95.4,95.4,0,0,0,29,4.39,94.35,94.35,0,0,0,35.71-6.8,89.44,89.44,0,0,0,28.9-18.58,86.63,86.63,0,0,0,19.18-27.93,85,85,0,0,0,7-34.37A86.61,86.61,0,0,0,179.32,73.83Z" fill="#fe5000"/></g></g></svg>