<svg id="Group_1609" data-name="Group 1609" xmlns="http://www.w3.org/2000/svg" width="106.741" height="56.119" viewBox="0 0 106.741 56.119">
  <g id="Group_1603" data-name="Group 1603" transform="translate(0 0)">
    <rect id="Rectangle_1657" data-name="Rectangle 1657" width="81.245" height="40.528" transform="translate(0.402)" fill="#eaeaea"/>
    <rect id="Rectangle_1658" data-name="Rectangle 1658" width="0.578" height="40.528" transform="translate(1.416)" fill="#fff"/>
    <rect id="Rectangle_1659" data-name="Rectangle 1659" width="0.578" height="40.528" transform="translate(3.055)" fill="#fff"/>
    <rect id="Rectangle_1660" data-name="Rectangle 1660" width="0.578" height="40.528" transform="translate(4.694)" fill="#fff"/>
    <rect id="Rectangle_1661" data-name="Rectangle 1661" width="0.578" height="40.528" transform="translate(6.333)" fill="#fff"/>
    <rect id="Rectangle_1662" data-name="Rectangle 1662" width="0.578" height="40.528" transform="translate(7.972)" fill="#fff"/>
    <rect id="Rectangle_1663" data-name="Rectangle 1663" width="0.578" height="40.528" transform="translate(9.611)" fill="#fff"/>
    <rect id="Rectangle_1664" data-name="Rectangle 1664" width="0.578" height="40.528" transform="translate(11.25)" fill="#fff"/>
    <rect id="Rectangle_1665" data-name="Rectangle 1665" width="0.578" height="40.528" transform="translate(12.889)" fill="#fff"/>
    <rect id="Rectangle_1666" data-name="Rectangle 1666" width="0.578" height="40.528" transform="translate(14.528)" fill="#fff"/>
    <rect id="Rectangle_1667" data-name="Rectangle 1667" width="0.578" height="40.528" transform="translate(16.167)" fill="#fff"/>
    <rect id="Rectangle_1668" data-name="Rectangle 1668" width="0.578" height="40.528" transform="translate(17.806)" fill="#fff"/>
    <rect id="Rectangle_1669" data-name="Rectangle 1669" width="0.578" height="40.528" transform="translate(19.445)" fill="#fff"/>
    <rect id="Rectangle_1670" data-name="Rectangle 1670" width="0.578" height="40.528" transform="translate(21.084)" fill="#fff"/>
    <rect id="Rectangle_1671" data-name="Rectangle 1671" width="0.578" height="40.528" transform="translate(22.723)" fill="#fff"/>
    <rect id="Rectangle_1672" data-name="Rectangle 1672" width="0.578" height="40.528" transform="translate(24.362)" fill="#fff"/>
    <rect id="Rectangle_1673" data-name="Rectangle 1673" width="0.578" height="40.528" transform="translate(26.001)" fill="#fff"/>
    <rect id="Rectangle_1674" data-name="Rectangle 1674" width="0.578" height="40.528" transform="translate(27.64)" fill="#fff"/>
    <rect id="Rectangle_1675" data-name="Rectangle 1675" width="0.578" height="40.528" transform="translate(29.279)" fill="#fff"/>
    <rect id="Rectangle_1676" data-name="Rectangle 1676" width="0.578" height="40.528" transform="translate(30.918)" fill="#fff"/>
    <rect id="Rectangle_1677" data-name="Rectangle 1677" width="0.578" height="40.528" transform="translate(32.557)" fill="#fff"/>
    <rect id="Rectangle_1678" data-name="Rectangle 1678" width="0.578" height="40.528" transform="translate(34.196)" fill="#fff"/>
    <rect id="Rectangle_1679" data-name="Rectangle 1679" width="0.578" height="40.528" transform="translate(35.835)" fill="#fff"/>
    <rect id="Rectangle_1680" data-name="Rectangle 1680" width="0.578" height="40.528" transform="translate(37.475)" fill="#fff"/>
    <rect id="Rectangle_1681" data-name="Rectangle 1681" width="0.578" height="40.528" transform="translate(39.114)" fill="#fff"/>
    <rect id="Rectangle_1682" data-name="Rectangle 1682" width="0.578" height="40.528" transform="translate(40.753)" fill="#fff"/>
    <rect id="Rectangle_1683" data-name="Rectangle 1683" width="0.578" height="40.528" transform="translate(42.392)" fill="#fff"/>
    <rect id="Rectangle_1684" data-name="Rectangle 1684" width="0.578" height="40.528" transform="translate(44.031)" fill="#fff"/>
    <rect id="Rectangle_1685" data-name="Rectangle 1685" width="0.578" height="40.528" transform="translate(45.67)" fill="#fff"/>
    <rect id="Rectangle_1686" data-name="Rectangle 1686" width="0.578" height="40.528" transform="translate(47.309)" fill="#fff"/>
    <rect id="Rectangle_1687" data-name="Rectangle 1687" width="0.578" height="40.528" transform="translate(48.948)" fill="#fff"/>
    <rect id="Rectangle_1688" data-name="Rectangle 1688" width="0.578" height="40.528" transform="translate(50.587)" fill="#fff"/>
    <rect id="Rectangle_1689" data-name="Rectangle 1689" width="0.578" height="40.528" transform="translate(52.226)" fill="#fff"/>
    <rect id="Rectangle_1690" data-name="Rectangle 1690" width="0.578" height="40.528" transform="translate(53.865)" fill="#fff"/>
    <rect id="Rectangle_1691" data-name="Rectangle 1691" width="0.578" height="40.528" transform="translate(55.504)" fill="#fff"/>
    <rect id="Rectangle_1692" data-name="Rectangle 1692" width="0.578" height="40.528" transform="translate(57.143)" fill="#fff"/>
    <rect id="Rectangle_1693" data-name="Rectangle 1693" width="0.578" height="40.528" transform="translate(58.782)" fill="#fff"/>
    <rect id="Rectangle_1694" data-name="Rectangle 1694" width="0.578" height="40.528" transform="translate(60.421)" fill="#fff"/>
    <rect id="Rectangle_1695" data-name="Rectangle 1695" width="0.578" height="40.528" transform="translate(62.06)" fill="#fff"/>
    <rect id="Rectangle_1696" data-name="Rectangle 1696" width="0.578" height="40.528" transform="translate(63.699)" fill="#fff"/>
    <rect id="Rectangle_1697" data-name="Rectangle 1697" width="0.578" height="40.528" transform="translate(65.338)" fill="#fff"/>
    <rect id="Rectangle_1698" data-name="Rectangle 1698" width="0.578" height="40.528" transform="translate(66.977)" fill="#fff"/>
    <rect id="Rectangle_1699" data-name="Rectangle 1699" width="0.578" height="40.528" transform="translate(68.616)" fill="#fff"/>
    <rect id="Rectangle_1700" data-name="Rectangle 1700" width="0.578" height="40.528" transform="translate(70.255)" fill="#fff"/>
    <rect id="Rectangle_1701" data-name="Rectangle 1701" width="0.578" height="40.528" transform="translate(71.894)" fill="#fff"/>
    <rect id="Rectangle_1702" data-name="Rectangle 1702" width="0.578" height="40.528" transform="translate(73.533)" fill="#fff"/>
    <rect id="Rectangle_1703" data-name="Rectangle 1703" width="0.578" height="40.528" transform="translate(75.172)" fill="#fff"/>
    <rect id="Rectangle_1704" data-name="Rectangle 1704" width="0.578" height="40.528" transform="translate(76.811)" fill="#fff"/>
    <rect id="Rectangle_1705" data-name="Rectangle 1705" width="0.578" height="40.528" transform="translate(78.45)" fill="#fff"/>
    <rect id="Rectangle_1706" data-name="Rectangle 1706" width="0.578" height="40.528" transform="translate(80.089)" fill="#fff"/>
    <rect id="Rectangle_1707" data-name="Rectangle 1707" width="81.245" height="40.528" fill="none"/>
  </g>
  <g id="Group_1608" data-name="Group 1608" transform="translate(0.409 16.012)">
    <g id="Group_1605" data-name="Group 1605">
      <path id="Path_480" data-name="Path 480" d="M1819.814,1069.786h0v-4.394h1.364v3.03A1.363,1.363,0,0,1,1819.814,1069.786Z" transform="translate(-1738.577 -1033.487)" fill="#15a3b2"/>
      <g id="Group_1604" data-name="Group 1604">
        <path id="Path_481" data-name="Path 481" d="M1527.338,1031.436v6.654h-53.653a7.032,7.032,0,0,0-13.872,0H1446.1v-6.654Z" transform="translate(-1446.101 -1006.911)" fill="#15a3b2"/>
        <path id="Path_482" data-name="Path 482" d="M1686.51,1062.044v1.647h-53.581v-.485a5.236,5.236,0,0,0-.129-1.162Z" transform="translate(-1605.272 -1030.866)" fill="#15a3b2"/>
        <path id="Path_483" data-name="Path 483" d="M1836.8,920.391l-16.983-1.774v32.064h1.394v-.063a6.78,6.78,0,0,1,6.78-6.781h0a6.78,6.78,0,0,1,6.781,6.781v.063h10.139V933.065Z" transform="translate(-1738.577 -918.617)" fill="#15a3b2"/>
        <rect id="Rectangle_1708" data-name="Rectangle 1708" width="1.394" height="3.232" transform="translate(104.938 21.292)" fill="#15a3b2"/>
        <path id="Path_484" data-name="Path 484" d="M1838.18,938.046v-5.075a1.17,1.17,0,0,1,1.3-1.162l9.362,1.068a2.2,2.2,0,0,1,1.562.94l6.721,9.819h-7.794l-10.08-4.009A1.7,1.7,0,0,1,1838.18,938.046Z" transform="translate(-1752.95 -928.935)" fill="#6ccdd8"/>
        <rect id="Rectangle_1709" data-name="Rectangle 1709" width="4.563" height="0.523" transform="translate(84.865 14.923)" fill="#15a3b2"/>
        <path id="Path_485" data-name="Path 485" d="M1834.74,995.457h-15.071v-.3h14.775v-8.914h.3Z" transform="translate(-1738.463 -971.546)" fill="#15a3b2"/>
        <rect id="Rectangle_1710" data-name="Rectangle 1710" width="2.86" height="0.296" transform="translate(96.635 4.159) rotate(-59.348)" fill="#15a3b2"/>
      </g>
      <path id="Path_486" data-name="Path 486" d="M1446.1,1062.044h13.692q-.045.568-.045,1.162v.485H1446.1Z" transform="translate(-1446.101 -1030.866)" fill="#15a3b2"/>
    </g>
    <g id="Group_1606" data-name="Group 1606" transform="translate(12.526 24.021)">
      <circle id="Ellipse_12" data-name="Ellipse 12" cx="5.687" cy="5.687" r="5.687" transform="translate(0 8.043) rotate(-45)" fill="#222"/>
      <circle id="Ellipse_13" data-name="Ellipse 13" cx="2.962" cy="2.962" r="2.962" transform="translate(3.853 8.043) rotate(-45)" fill="#15a3b2"/>
      <path id="Path_487" data-name="Path 487" d="M1597.724,1062.243a1.077,1.077,0,1,1-1.077-1.077A1.077,1.077,0,0,1,1597.724,1062.243Z" transform="translate(-1588.604 -1054.2)" fill="#350fa2"/>
    </g>
    <g id="Group_1607" data-name="Group 1607" transform="translate(82.967 25.546)">
      <circle id="Ellipse_14" data-name="Ellipse 14" cx="5.687" cy="5.687" r="5.687" transform="translate(0 11.23) rotate(-80.858)" fill="#222"/>
      <circle id="Ellipse_15" data-name="Ellipse 15" cx="2.962" cy="2.962" r="2.962" transform="matrix(0.228, -0.974, 0.974, 0.228, 2.958, 8.726)" fill="#15a3b2"/>
      <circle id="Ellipse_16" data-name="Ellipse 16" cx="1.077" cy="1.077" r="1.077" transform="translate(5.441 5.283)" fill="#350fa2"/>
    </g>
  </g>
</svg>
